M48
;Layer_Color=9474304
;FILE_FORMAT=2:5
INCH,LZ
;TYPE=PLATED
T1F00S00C0.00800
T2F00S00C0.00810
T3F00S00C0.00820
T4F00S00C0.01000
T5F00S00C0.01299
T6F00S00C0.04000
;TYPE=NON_PLATED
T7F00S00C0.12000
%
T01
X008Y0017
Y003
X0097Y0038
X01Y0057
X0099Y0061
X0091Y0069
X0064Y0034
X0067Y003
Y0017
X00075Y00183
X00095Y0023
X0014Y00458
X00225Y0048
X0022556Y00508
X00172Y00655
X0019421Y0068721
X00158Y00707
X00058Y00794
X00332Y00769
X0034Y0094
T02
X00875Y00025
X00925
X01075Y00325
X01125
X01175
Y00275
Y00375
Y00425
Y00475
Y00525
Y00575
Y00625
Y00675
Y00725
X01125
X01075
Y00775
X01025
X00975
X00925
X00875
X00825
X00775
Y00825
X00925
X00975
X01025
X01075
X01125
Y00775
X01175
Y00825
X01075Y00475
X00725Y00775
X00475Y00825
Y00875
Y00925
X00525
Y00875
X00375
X00025
Y00925
Y00325
Y00225
Y00175
Y00075
Y00025
X00075
Y00075
X00175Y00025
X00225
Y00075
X00275
Y00025
X00325
Y00975
X00275
X00375
X00425
X00475
X00525
X00575
X00625
X00675
X00725
X00025
X00775
X00825
T03
X0083Y0083
X00855
X00715
X00685
X0066Y00815
Y00785
X005Y00785
Y00815
X00485Y0073
X00515
X00555Y0056
X0059
X00625Y00575
T04
X0086Y0007
X0079Y0035
X0084Y0042
X0079Y0053
X007785Y006685
X0088Y0067
X0094Y0066
X0098
X01Y0054
Y004
X0105
X0068
Y0044
X0067Y0047
X0055Y0033
X0051
X00425Y00245
X00366Y00242
X0033681Y0040319
X00375Y0047
X00468Y00595
Y00678
X0042Y0085
X00221Y00803
X0017Y0083
X00145Y00792
X00104Y00772
X00026Y00732
X0019Y00735
X00191Y00609
X00079Y00552
X00047Y00416
X00165Y0033424
X0034Y0007
X0062Y0017
T05
X0027576Y0059076
Y00638
X00323
Y0059076
X0037024
Y00638
Y0068524
X00323
X0027576
T06
X0111Y0055
Y0065
X0005Y006
T07
X0105Y0015
M30
