%FSLAX25Y25*%
%MOIN*%
G70*
G01*
G75*
G04 Layer_Color=8388736*
%ADD10C,0.02000*%
%ADD11R,0.05118X0.04134*%
%ADD12R,0.02756X0.03150*%
%ADD13R,0.01000X0.01000*%
%ADD14R,0.01575X0.03347*%
%ADD15R,0.03937X0.04331*%
%ADD16C,0.05000*%
%ADD17R,0.03543X0.03543*%
%ADD18R,0.03937X0.03937*%
%ADD19R,0.11024X0.02756*%
%ADD20R,0.03937X0.07874*%
%ADD21R,0.03150X0.02362*%
%ADD22R,0.02362X0.03150*%
%ADD23R,0.01000X0.01000*%
%ADD24R,0.03150X0.02756*%
%ADD25R,0.01969X0.01969*%
%ADD26R,0.01969X0.03937*%
%ADD27R,0.02658X0.00984*%
%ADD28R,0.00984X0.02658*%
%ADD29R,0.05000X0.12500*%
%ADD30O,0.01181X0.02559*%
%ADD31O,0.02559X0.01181*%
%ADD32R,0.14961X0.14961*%
%ADD33C,0.04000*%
%ADD34C,0.01200*%
%ADD35C,0.00500*%
%ADD36C,0.01000*%
%ADD37C,0.00800*%
%ADD38R,0.04500X0.04000*%
%ADD39R,0.05000X0.04000*%
%ADD40R,0.03000X0.05000*%
%ADD41R,0.06000X0.03000*%
%ADD42R,0.09000X0.04000*%
%ADD43R,0.04000X0.01000*%
%ADD44R,0.01000X0.04000*%
%ADD45R,0.03543X0.02598*%
%ADD46C,0.12000*%
%ADD47C,0.06000*%
%ADD48C,0.01600*%
%ADD49C,0.02000*%
%ADD50C,0.02598*%
%ADD51C,0.10000*%
%ADD52C,0.08000*%
%ADD53C,0.00984*%
%ADD54C,0.00591*%
%ADD55C,0.00787*%
%ADD56R,0.01369X0.01369*%
%ADD57R,0.33000X0.16000*%
%ADD58R,0.03000X0.01000*%
%ADD59R,0.01000X0.03000*%
%ADD60R,0.05918X0.04934*%
%ADD61R,0.03556X0.03950*%
%ADD62R,0.02375X0.04147*%
%ADD63R,0.04737X0.05131*%
%ADD64C,0.10000*%
%ADD65R,0.04343X0.04343*%
%ADD66R,0.04737X0.04737*%
%ADD67R,0.11824X0.03556*%
%ADD68R,0.04737X0.08674*%
%ADD69R,0.03950X0.03162*%
%ADD70R,0.03162X0.03950*%
%ADD71R,0.03950X0.03556*%
%ADD72R,0.02769X0.02769*%
%ADD73R,0.02769X0.04737*%
%ADD74R,0.03248X0.01575*%
%ADD75R,0.01575X0.03248*%
%ADD76R,0.05800X0.13300*%
%ADD77O,0.01981X0.03359*%
%ADD78O,0.03359X0.01981*%
%ADD79R,0.15761X0.15761*%
%ADD80C,0.04800*%
%ADD81C,0.06800*%
%ADD82C,0.02400*%
%ADD83C,0.02800*%
%ADD84C,0.03398*%
%ADD85C,0.00100*%
D10*
X120000Y0D02*
Y100000D01*
X0D02*
X120000D01*
X0Y0D02*
Y100000D01*
Y0D02*
X120000D01*
D35*
X5800Y90899D02*
Y88900D01*
X6800D01*
X7133Y89233D01*
Y90566D01*
X6800Y90899D01*
X5800D01*
X7799Y90566D02*
X8133Y90899D01*
X8799D01*
X9132Y90566D01*
Y90233D01*
X8799Y89900D01*
X8466D01*
X8799D01*
X9132Y89566D01*
Y89233D01*
X8799Y88900D01*
X8133D01*
X7799Y89233D01*
X9799Y90566D02*
X10132Y90899D01*
X10798D01*
X11132Y90566D01*
Y89233D01*
X10798Y88900D01*
X10132D01*
X9799Y89233D01*
Y90566D01*
X11798Y88900D02*
X12465D01*
X12131D01*
Y90899D01*
X11798Y90566D01*
X93700Y32600D02*
X91701D01*
Y33600D01*
X92034Y33933D01*
X92700D01*
X93034Y33600D01*
Y32600D01*
Y33266D02*
X93700Y33933D01*
X92034Y34599D02*
X91701Y34933D01*
Y35599D01*
X92034Y35932D01*
X92367D01*
X92700Y35599D01*
Y35266D01*
Y35599D01*
X93034Y35932D01*
X93367D01*
X93700Y35599D01*
Y34933D01*
X93367Y34599D01*
X92034Y36599D02*
X91701Y36932D01*
Y37598D01*
X92034Y37932D01*
X93367D01*
X93700Y37598D01*
Y36932D01*
X93367Y36599D01*
X92034D01*
X91701Y38598D02*
Y39931D01*
X92034D01*
X93367Y38598D01*
X93700D01*
X73900Y58900D02*
X71901D01*
Y59900D01*
X72234Y60233D01*
X72900D01*
X73234Y59900D01*
Y58900D01*
Y59566D02*
X73900Y60233D01*
X72234Y60899D02*
X71901Y61233D01*
Y61899D01*
X72234Y62232D01*
X72567D01*
X72900Y61899D01*
Y61566D01*
Y61899D01*
X73234Y62232D01*
X73567D01*
X73900Y61899D01*
Y61233D01*
X73567Y60899D01*
X72234Y62899D02*
X71901Y63232D01*
Y63898D01*
X72234Y64232D01*
X73567D01*
X73900Y63898D01*
Y63232D01*
X73567Y62899D01*
X72234D01*
X71901Y66231D02*
X72234Y65565D01*
X72900Y64898D01*
X73567D01*
X73900Y65231D01*
Y65898D01*
X73567Y66231D01*
X73234D01*
X72900Y65898D01*
Y64898D01*
X5900Y44700D02*
X3901D01*
Y45700D01*
X4234Y46033D01*
X4900D01*
X5234Y45700D01*
Y44700D01*
Y45366D02*
X5900Y46033D01*
X4234Y46699D02*
X3901Y47033D01*
Y47699D01*
X4234Y48032D01*
X4567D01*
X4900Y47699D01*
Y47366D01*
Y47699D01*
X5234Y48032D01*
X5567D01*
X5900Y47699D01*
Y47033D01*
X5567Y46699D01*
X4234Y48699D02*
X3901Y49032D01*
Y49698D01*
X4234Y50032D01*
X5567D01*
X5900Y49698D01*
Y49032D01*
X5567Y48699D01*
X4234D01*
X3901Y52031D02*
Y50698D01*
X4900D01*
X4567Y51364D01*
Y51698D01*
X4900Y52031D01*
X5567D01*
X5900Y51698D01*
Y51031D01*
X5567Y50698D01*
X74100Y49200D02*
X72101D01*
Y50200D01*
X72434Y50533D01*
X73100D01*
X73434Y50200D01*
Y49200D01*
Y49866D02*
X74100Y50533D01*
X72434Y51199D02*
X72101Y51533D01*
Y52199D01*
X72434Y52532D01*
X72767D01*
X73100Y52199D01*
Y51866D01*
Y52199D01*
X73434Y52532D01*
X73767D01*
X74100Y52199D01*
Y51533D01*
X73767Y51199D01*
X72434Y53199D02*
X72101Y53532D01*
Y54198D01*
X72434Y54532D01*
X73767D01*
X74100Y54198D01*
Y53532D01*
X73767Y53199D01*
X72434D01*
X74100Y56198D02*
X72101D01*
X73100Y55198D01*
Y56531D01*
X7033Y73966D02*
X6700Y74299D01*
X6033D01*
X5700Y73966D01*
Y72633D01*
X6033Y72300D01*
X6700D01*
X7033Y72633D01*
X9032Y72300D02*
X7699D01*
X9032Y73633D01*
Y73966D01*
X8699Y74299D01*
X8033D01*
X7699Y73966D01*
X9699D02*
X10032Y74299D01*
X10698D01*
X11032Y73966D01*
Y72633D01*
X10698Y72300D01*
X10032D01*
X9699Y72633D01*
Y73966D01*
X11698Y72633D02*
X12031Y72300D01*
X12698D01*
X13031Y72633D01*
Y73966D01*
X12698Y74299D01*
X12031D01*
X11698Y73966D01*
Y73633D01*
X12031Y73300D01*
X13031D01*
X99334Y44833D02*
X99001Y44500D01*
Y43833D01*
X99334Y43500D01*
X100667D01*
X101000Y43833D01*
Y44500D01*
X100667Y44833D01*
X99334Y45499D02*
X99001Y45833D01*
Y46499D01*
X99334Y46832D01*
X99667D01*
X100000Y46499D01*
Y46166D01*
Y46499D01*
X100334Y46832D01*
X100667D01*
X101000Y46499D01*
Y45833D01*
X100667Y45499D01*
X99334Y47499D02*
X99001Y47832D01*
Y48498D01*
X99334Y48832D01*
X100667D01*
X101000Y48498D01*
Y47832D01*
X100667Y47499D01*
X99334D01*
X99001Y50831D02*
Y49498D01*
X100000D01*
X99667Y50165D01*
Y50498D01*
X100000Y50831D01*
X100667D01*
X101000Y50498D01*
Y49831D01*
X100667Y49498D01*
X72433Y46766D02*
X72100Y47099D01*
X71433D01*
X71100Y46766D01*
Y45433D01*
X71433Y45100D01*
X72100D01*
X72433Y45433D01*
X73099Y46766D02*
X73433Y47099D01*
X74099D01*
X74432Y46766D01*
Y46433D01*
X74099Y46100D01*
X73766D01*
X74099D01*
X74432Y45766D01*
Y45433D01*
X74099Y45100D01*
X73433D01*
X73099Y45433D01*
X75099Y46766D02*
X75432Y47099D01*
X76098D01*
X76432Y46766D01*
Y45433D01*
X76098Y45100D01*
X75432D01*
X75099Y45433D01*
Y46766D01*
X78098Y45100D02*
Y47099D01*
X77098Y46100D01*
X78431D01*
X72533Y40366D02*
X72200Y40699D01*
X71533D01*
X71200Y40366D01*
Y39033D01*
X71533Y38700D01*
X72200D01*
X72533Y39033D01*
X73199Y40366D02*
X73533Y40699D01*
X74199D01*
X74532Y40366D01*
Y40033D01*
X74199Y39700D01*
X73866D01*
X74199D01*
X74532Y39366D01*
Y39033D01*
X74199Y38700D01*
X73533D01*
X73199Y39033D01*
X75199Y40366D02*
X75532Y40699D01*
X76198D01*
X76532Y40366D01*
Y39033D01*
X76198Y38700D01*
X75532D01*
X75199Y39033D01*
Y40366D01*
X77198D02*
X77531Y40699D01*
X78198D01*
X78531Y40366D01*
Y40033D01*
X78198Y39700D01*
X77864D01*
X78198D01*
X78531Y39366D01*
Y39033D01*
X78198Y38700D01*
X77531D01*
X77198Y39033D01*
X100000Y16999D02*
Y15000D01*
Y16000D01*
X101333D01*
Y16999D01*
Y15000D01*
X101999Y16666D02*
X102333Y16999D01*
X102999D01*
X103332Y16666D01*
Y16333D01*
X102999Y16000D01*
X102666D01*
X102999D01*
X103332Y15666D01*
Y15333D01*
X102999Y15000D01*
X102333D01*
X101999Y15333D01*
X103999Y16666D02*
X104332Y16999D01*
X104998D01*
X105332Y16666D01*
Y15333D01*
X104998Y15000D01*
X104332D01*
X103999Y15333D01*
Y16666D01*
X105998D02*
X106331Y16999D01*
X106998D01*
X107331Y16666D01*
Y15333D01*
X106998Y15000D01*
X106331D01*
X105998Y15333D01*
Y16666D01*
X99900Y81200D02*
Y82533D01*
X100566Y83199D01*
X101233Y82533D01*
Y81200D01*
Y82200D01*
X99900D01*
X101899Y81200D02*
Y83199D01*
X103232Y81200D01*
Y83199D01*
X103899D02*
X105232D01*
X104565D01*
Y81200D01*
X105898D02*
X106564D01*
X106231D01*
Y83199D01*
X105898Y82866D01*
X31133Y38366D02*
X30800Y38699D01*
X30133D01*
X29800Y38366D01*
Y37033D01*
X30133Y36700D01*
X30800D01*
X31133Y37033D01*
X33132Y36700D02*
X31799D01*
X33132Y38033D01*
Y38366D01*
X32799Y38699D01*
X32133D01*
X31799Y38366D01*
X33799D02*
X34132Y38699D01*
X34798D01*
X35132Y38366D01*
Y37033D01*
X34798Y36700D01*
X34132D01*
X33799Y37033D01*
Y38366D01*
X35798D02*
X36131Y38699D01*
X36798D01*
X37131Y38366D01*
Y37033D01*
X36798Y36700D01*
X36131D01*
X35798Y37033D01*
Y38366D01*
X20933Y34166D02*
X20600Y34499D01*
X19933D01*
X19600Y34166D01*
Y32833D01*
X19933Y32500D01*
X20600D01*
X20933Y32833D01*
X22932Y32500D02*
X21599D01*
X22932Y33833D01*
Y34166D01*
X22599Y34499D01*
X21933D01*
X21599Y34166D01*
X23599D02*
X23932Y34499D01*
X24598D01*
X24932Y34166D01*
Y32833D01*
X24598Y32500D01*
X23932D01*
X23599Y32833D01*
Y34166D01*
X25598Y32500D02*
X26265D01*
X25931D01*
Y34499D01*
X25598Y34166D01*
X47633Y23966D02*
X47300Y24299D01*
X46633D01*
X46300Y23966D01*
Y22633D01*
X46633Y22300D01*
X47300D01*
X47633Y22633D01*
X49632Y22300D02*
X48299D01*
X49632Y23633D01*
Y23966D01*
X49299Y24299D01*
X48633D01*
X48299Y23966D01*
X50299D02*
X50632Y24299D01*
X51298D01*
X51632Y23966D01*
Y22633D01*
X51298Y22300D01*
X50632D01*
X50299Y22633D01*
Y23966D01*
X53631Y22300D02*
X52298D01*
X53631Y23633D01*
Y23966D01*
X53298Y24299D01*
X52631D01*
X52298Y23966D01*
X48933Y30266D02*
X48600Y30599D01*
X47933D01*
X47600Y30266D01*
Y28933D01*
X47933Y28600D01*
X48600D01*
X48933Y28933D01*
X50932Y28600D02*
X49599D01*
X50932Y29933D01*
Y30266D01*
X50599Y30599D01*
X49933D01*
X49599Y30266D01*
X51599D02*
X51932Y30599D01*
X52598D01*
X52932Y30266D01*
Y28933D01*
X52598Y28600D01*
X51932D01*
X51599Y28933D01*
Y30266D01*
X53598D02*
X53931Y30599D01*
X54598D01*
X54931Y30266D01*
Y29933D01*
X54598Y29600D01*
X54264D01*
X54598D01*
X54931Y29266D01*
Y28933D01*
X54598Y28600D01*
X53931D01*
X53598Y28933D01*
X49033Y37566D02*
X48700Y37899D01*
X48033D01*
X47700Y37566D01*
Y36233D01*
X48033Y35900D01*
X48700D01*
X49033Y36233D01*
X51032Y35900D02*
X49699D01*
X51032Y37233D01*
Y37566D01*
X50699Y37899D01*
X50033D01*
X49699Y37566D01*
X51699D02*
X52032Y37899D01*
X52698D01*
X53032Y37566D01*
Y36233D01*
X52698Y35900D01*
X52032D01*
X51699Y36233D01*
Y37566D01*
X54698Y35900D02*
Y37899D01*
X53698Y36900D01*
X55031D01*
X47433Y42866D02*
X47100Y43199D01*
X46433D01*
X46100Y42866D01*
Y41533D01*
X46433Y41200D01*
X47100D01*
X47433Y41533D01*
X49432Y41200D02*
X48099D01*
X49432Y42533D01*
Y42866D01*
X49099Y43199D01*
X48433D01*
X48099Y42866D01*
X50099D02*
X50432Y43199D01*
X51098D01*
X51432Y42866D01*
Y41533D01*
X51098Y41200D01*
X50432D01*
X50099Y41533D01*
Y42866D01*
X53431Y43199D02*
X52098D01*
Y42200D01*
X52764Y42533D01*
X53098D01*
X53431Y42200D01*
Y41533D01*
X53098Y41200D01*
X52431D01*
X52098Y41533D01*
X5233Y68466D02*
X4900Y68799D01*
X4233D01*
X3900Y68466D01*
Y67133D01*
X4233Y66800D01*
X4900D01*
X5233Y67133D01*
X7232Y66800D02*
X5899D01*
X7232Y68133D01*
Y68466D01*
X6899Y68799D01*
X6233D01*
X5899Y68466D01*
X7899D02*
X8232Y68799D01*
X8898D01*
X9232Y68466D01*
Y67133D01*
X8898Y66800D01*
X8232D01*
X7899Y67133D01*
Y68466D01*
X11231Y68799D02*
X10565Y68466D01*
X9898Y67800D01*
Y67133D01*
X10231Y66800D01*
X10898D01*
X11231Y67133D01*
Y67466D01*
X10898Y67800D01*
X9898D01*
X11434Y57133D02*
X11101Y56800D01*
Y56133D01*
X11434Y55800D01*
X12767D01*
X13100Y56133D01*
Y56800D01*
X12767Y57133D01*
X13100Y59132D02*
Y57799D01*
X11767Y59132D01*
X11434D01*
X11101Y58799D01*
Y58133D01*
X11434Y57799D01*
Y59799D02*
X11101Y60132D01*
Y60798D01*
X11434Y61132D01*
X12767D01*
X13100Y60798D01*
Y60132D01*
X12767Y59799D01*
X11434D01*
X11101Y61798D02*
Y63131D01*
X11434D01*
X12767Y61798D01*
X13100D01*
X25933Y80766D02*
X25600Y81099D01*
X24933D01*
X24600Y80766D01*
Y79433D01*
X24933Y79100D01*
X25600D01*
X25933Y79433D01*
X27932Y79100D02*
X26599D01*
X27932Y80433D01*
Y80766D01*
X27599Y81099D01*
X26933D01*
X26599Y80766D01*
X28599D02*
X28932Y81099D01*
X29598D01*
X29932Y80766D01*
Y79433D01*
X29598Y79100D01*
X28932D01*
X28599Y79433D01*
Y80766D01*
X30598D02*
X30931Y81099D01*
X31598D01*
X31931Y80766D01*
Y80433D01*
X31598Y80100D01*
X31931Y79766D01*
Y79433D01*
X31598Y79100D01*
X30931D01*
X30598Y79433D01*
Y79766D01*
X30931Y80100D01*
X30598Y80433D01*
Y80766D01*
X30931Y80100D02*
X31598D01*
X10333Y6999D02*
X9000D01*
Y6000D01*
X9667D01*
X9000D01*
Y5000D01*
X10999Y6999D02*
Y5000D01*
X11999D01*
X12332Y5333D01*
Y6666D01*
X11999Y6999D01*
X10999D01*
X14332Y5000D02*
X12999D01*
X14332Y6333D01*
Y6666D01*
X13998Y6999D01*
X13332D01*
X12999Y6666D01*
X14998D02*
X15331Y6999D01*
X15998D01*
X16331Y6666D01*
Y5333D01*
X15998Y5000D01*
X15331D01*
X14998Y5333D01*
Y6666D01*
X16997D02*
X17331Y6999D01*
X17997D01*
X18330Y6666D01*
Y5333D01*
X17997Y5000D01*
X17331D01*
X16997Y5333D01*
Y6666D01*
X37533Y93099D02*
X36200D01*
Y92100D01*
X36866D01*
X36200D01*
Y91100D01*
X38199Y93099D02*
Y91100D01*
X39199D01*
X39532Y91433D01*
Y92766D01*
X39199Y93099D01*
X38199D01*
X41532Y91100D02*
X40199D01*
X41532Y92433D01*
Y92766D01*
X41198Y93099D01*
X40532D01*
X40199Y92766D01*
X42198D02*
X42531Y93099D01*
X43198D01*
X43531Y92766D01*
Y91433D01*
X43198Y91100D01*
X42531D01*
X42198Y91433D01*
Y92766D01*
X44197Y91100D02*
X44864D01*
X44531D01*
Y93099D01*
X44197Y92766D01*
X42101Y29000D02*
X44100D01*
Y30333D01*
Y32332D02*
Y30999D01*
X42767Y32332D01*
X42434D01*
X42101Y31999D01*
Y31333D01*
X42434Y30999D01*
Y32999D02*
X42101Y33332D01*
Y33998D01*
X42434Y34332D01*
X43767D01*
X44100Y33998D01*
Y33332D01*
X43767Y32999D01*
X42434D01*
Y34998D02*
X42101Y35331D01*
Y35998D01*
X42434Y36331D01*
X43767D01*
X44100Y35998D01*
Y35331D01*
X43767Y34998D01*
X42434D01*
X110101Y40400D02*
X112100D01*
Y41733D01*
Y43732D02*
Y42399D01*
X110767Y43732D01*
X110434D01*
X110101Y43399D01*
Y42733D01*
X110434Y42399D01*
Y44399D02*
X110101Y44732D01*
Y45398D01*
X110434Y45732D01*
X111767D01*
X112100Y45398D01*
Y44732D01*
X111767Y44399D01*
X110434D01*
X112100Y46398D02*
Y47065D01*
Y46731D01*
X110101D01*
X110434Y46398D01*
X29300Y32300D02*
Y34299D01*
X30300D01*
X30633Y33966D01*
Y33300D01*
X30300Y32966D01*
X29300D01*
X29966D02*
X30633Y32300D01*
X32632D02*
X31299D01*
X32632Y33633D01*
Y33966D01*
X32299Y34299D01*
X31633D01*
X31299Y33966D01*
X33299D02*
X33632Y34299D01*
X34298D01*
X34632Y33966D01*
Y32633D01*
X34298Y32300D01*
X33632D01*
X33299Y32633D01*
Y33966D01*
X35298D02*
X35631Y34299D01*
X36298D01*
X36631Y33966D01*
Y32633D01*
X36298Y32300D01*
X35631D01*
X35298Y32633D01*
Y33966D01*
X67000Y33000D02*
Y34999D01*
X68000D01*
X68333Y34666D01*
Y34000D01*
X68000Y33666D01*
X67000D01*
X67666D02*
X68333Y33000D01*
X70332D02*
X68999D01*
X70332Y34333D01*
Y34666D01*
X69999Y34999D01*
X69333D01*
X68999Y34666D01*
X70999D02*
X71332Y34999D01*
X71998D01*
X72332Y34666D01*
Y33333D01*
X71998Y33000D01*
X71332D01*
X70999Y33333D01*
Y34666D01*
X72998Y33000D02*
X73664D01*
X73331D01*
Y34999D01*
X72998Y34666D01*
X19000Y88800D02*
X17001D01*
Y89800D01*
X17334Y90133D01*
X18000D01*
X18334Y89800D01*
Y88800D01*
Y89466D02*
X19000Y90133D01*
X17334Y90799D02*
X17001Y91133D01*
Y91799D01*
X17334Y92132D01*
X17667D01*
X18000Y91799D01*
Y91466D01*
Y91799D01*
X18334Y92132D01*
X18667D01*
X19000Y91799D01*
Y91133D01*
X18667Y90799D01*
X17334Y92799D02*
X17001Y93132D01*
Y93798D01*
X17334Y94132D01*
X18667D01*
X19000Y93798D01*
Y93132D01*
X18667Y92799D01*
X17334D01*
X19000Y94798D02*
Y95464D01*
Y95131D01*
X17001D01*
X17334Y94798D01*
X30700Y88400D02*
X28701D01*
Y89400D01*
X29034Y89733D01*
X29700D01*
X30034Y89400D01*
Y88400D01*
Y89066D02*
X30700Y89733D01*
X29034Y90399D02*
X28701Y90733D01*
Y91399D01*
X29034Y91732D01*
X29367D01*
X29700Y91399D01*
Y91066D01*
Y91399D01*
X30034Y91732D01*
X30367D01*
X30700Y91399D01*
Y90733D01*
X30367Y90399D01*
X29034Y92399D02*
X28701Y92732D01*
Y93398D01*
X29034Y93732D01*
X30367D01*
X30700Y93398D01*
Y92732D01*
X30367Y92399D01*
X29034D01*
Y94398D02*
X28701Y94731D01*
Y95398D01*
X29034Y95731D01*
X30367D01*
X30700Y95398D01*
Y94731D01*
X30367Y94398D01*
X29034D01*
X52459Y64815D02*
X53792D01*
X53126D01*
Y62816D01*
X54458D02*
X55125D01*
X54792D01*
Y64815D01*
X54458Y64482D01*
X56125D02*
X56458Y64815D01*
X57124D01*
X57457Y64482D01*
Y63149D01*
X57124Y62816D01*
X56458D01*
X56125Y63149D01*
Y64482D01*
X58124D02*
X58457Y64815D01*
X59124D01*
X59457Y64482D01*
Y63149D01*
X59124Y62816D01*
X58457D01*
X58124Y63149D01*
Y64482D01*
X21000Y24999D02*
X22333Y23000D01*
Y24999D02*
X21000Y23000D01*
X24332D02*
X22999D01*
X24332Y24333D01*
Y24666D01*
X23999Y24999D01*
X23333D01*
X22999Y24666D01*
X24999D02*
X25332Y24999D01*
X25998D01*
X26332Y24666D01*
Y23333D01*
X25998Y23000D01*
X25332D01*
X24999Y23333D01*
Y24666D01*
X26998D02*
X27331Y24999D01*
X27998D01*
X28331Y24666D01*
Y23333D01*
X27998Y23000D01*
X27331D01*
X26998Y23333D01*
Y24666D01*
X23000Y95700D02*
X24999D01*
Y94700D01*
X24666Y94367D01*
X24000D01*
X23666Y94700D01*
Y95700D01*
Y95034D02*
X23000Y94367D01*
X24666Y93701D02*
X24999Y93367D01*
Y92701D01*
X24666Y92368D01*
X24333D01*
X24000Y92701D01*
Y93034D01*
Y92701D01*
X23666Y92368D01*
X23333D01*
X23000Y92701D01*
Y93367D01*
X23333Y93701D01*
X24666Y91701D02*
X24999Y91368D01*
Y90702D01*
X24666Y90368D01*
X23333D01*
X23000Y90702D01*
Y91368D01*
X23333Y91701D01*
X24666D01*
X23000Y88369D02*
Y89702D01*
X24333Y88369D01*
X24666D01*
X24999Y88702D01*
Y89369D01*
X24666Y89702D01*
D85*
X29100Y56200D02*
X29500D01*
X29100Y55933D01*
X29500D01*
Y55800D02*
Y55534D01*
Y55667D01*
X29100D01*
Y55134D02*
Y55400D01*
X29367Y55134D01*
X29433D01*
X29500Y55200D01*
Y55334D01*
X29433Y55400D01*
Y55000D02*
X29500Y54934D01*
Y54800D01*
X29433Y54734D01*
X29167D01*
X29100Y54800D01*
Y54934D01*
X29167Y55000D01*
X29433D01*
Y54601D02*
X29500Y54534D01*
Y54401D01*
X29433Y54334D01*
X29367D01*
X29300Y54401D01*
Y54467D01*
Y54401D01*
X29233Y54334D01*
X29167D01*
X29100Y54401D01*
Y54534D01*
X29167Y54601D01*
X35000Y56400D02*
X35400D01*
X35000Y56133D01*
X35400D01*
Y56000D02*
Y55734D01*
Y55867D01*
X35000D01*
Y55334D02*
Y55600D01*
X35267Y55334D01*
X35333D01*
X35400Y55400D01*
Y55534D01*
X35333Y55600D01*
Y55200D02*
X35400Y55134D01*
Y55001D01*
X35333Y54934D01*
X35067D01*
X35000Y55001D01*
Y55134D01*
X35067Y55200D01*
X35333D01*
X35400Y54534D02*
X35333Y54667D01*
X35200Y54800D01*
X35067D01*
X35000Y54734D01*
Y54601D01*
X35067Y54534D01*
X35133D01*
X35200Y54601D01*
Y54800D01*
X39900Y60600D02*
Y61000D01*
X40167Y60600D01*
Y61000D01*
X40300D02*
X40566D01*
X40433D01*
Y60600D01*
X40966D02*
X40700D01*
X40966Y60867D01*
Y60933D01*
X40900Y61000D01*
X40766D01*
X40700Y60933D01*
X41100Y60600D02*
X41233D01*
X41166D01*
Y61000D01*
X41100Y60933D01*
X41433Y60600D02*
X41566D01*
X41500D01*
Y61000D01*
X41433Y60933D01*
X40100Y66500D02*
Y66900D01*
X40367Y66500D01*
Y66900D01*
X40500D02*
X40766D01*
X40633D01*
Y66500D01*
X41166D02*
X40900D01*
X41166Y66767D01*
Y66833D01*
X41100Y66900D01*
X40966D01*
X40900Y66833D01*
X41300Y66500D02*
X41433D01*
X41366D01*
Y66900D01*
X41300Y66833D01*
X41833Y66500D02*
Y66900D01*
X41633Y66700D01*
X41899D01*
M02*
