%FSLAX25Y25*%
%MOIN*%
G70*
G01*
G75*
G04 Layer_Physical_Order=1*
G04 Layer_Color=2232046*
%ADD10C,0.02000*%
%ADD11R,0.05118X0.04134*%
%ADD12R,0.02756X0.03150*%
%ADD13R,0.01000X0.01000*%
%ADD14R,0.01575X0.03347*%
%ADD15R,0.03937X0.04331*%
%ADD16C,0.05000*%
%ADD17R,0.03543X0.03543*%
%ADD18R,0.03937X0.03937*%
%ADD19R,0.11024X0.02756*%
%ADD20R,0.03937X0.07874*%
%ADD21R,0.03150X0.02362*%
%ADD22R,0.02362X0.03150*%
%ADD23R,0.01000X0.01000*%
%ADD24R,0.03150X0.02756*%
%ADD25R,0.01969X0.01969*%
%ADD26R,0.01969X0.03937*%
%ADD27R,0.02658X0.00984*%
%ADD28R,0.00984X0.02658*%
%ADD29R,0.05000X0.12500*%
%ADD30O,0.01181X0.02559*%
%ADD31O,0.02559X0.01181*%
%ADD32R,0.14961X0.14961*%
%ADD33C,0.04000*%
%ADD34C,0.01200*%
%ADD35C,0.00500*%
%ADD36C,0.01000*%
%ADD37C,0.00800*%
%ADD38R,0.04500X0.04000*%
%ADD39R,0.05000X0.04000*%
%ADD40R,0.03000X0.05000*%
%ADD41R,0.06000X0.03000*%
%ADD42R,0.09000X0.04000*%
%ADD43R,0.04000X0.01000*%
%ADD44R,0.01000X0.04000*%
%ADD45R,0.03543X0.02598*%
%ADD46C,0.12000*%
%ADD47C,0.06000*%
%ADD48C,0.01600*%
%ADD49C,0.02000*%
%ADD50C,0.02598*%
G36*
X56130Y81179D02*
X56228D01*
Y78620D01*
X56130D01*
X55441Y77931D01*
Y81868D01*
X56130Y81179D01*
D02*
G37*
G36*
X60559Y77931D02*
X59870Y78620D01*
X59772D01*
Y81179D01*
X59870D01*
X60559Y81868D01*
Y77931D01*
D02*
G37*
G36*
X56243Y45035D02*
X56783Y45035D01*
X57283Y44535D01*
X57435Y44383D01*
Y44175D01*
Y19725D01*
Y19517D01*
X57288Y19369D01*
X55831Y17912D01*
X55683Y17765D01*
X55467D01*
X52414D01*
X52000D01*
X52000D01*
X52000Y17765D01*
X52000D01*
X51846Y17734D01*
X51707Y17706D01*
D01*
X51707Y17706D01*
X51590Y17628D01*
X51459Y17541D01*
X51459Y17541D01*
X51021Y17102D01*
X49459Y15541D01*
X49294Y15293D01*
Y15293D01*
X49235Y15000D01*
X49081Y15000D01*
X41586D01*
X40000Y16000D01*
Y22144D01*
X40161Y22289D01*
X41897Y23079D01*
X42000Y23070D01*
X42500Y22971D01*
X42882Y23047D01*
X43296Y22964D01*
X44882Y22039D01*
Y21032D01*
X49819D01*
Y25969D01*
X49819Y25969D01*
X50180Y27819D01*
X51213D01*
Y29181D01*
X51213Y31181D01*
Y31181D01*
X51213D01*
X51213Y31181D01*
X49709Y32377D01*
X49708Y32378D01*
X48767Y33319D01*
X49596Y35319D01*
X51213D01*
Y38681D01*
X50955D01*
X50703Y39022D01*
X50213Y40819D01*
X50213D01*
Y44181D01*
X51859Y45035D01*
X56243D01*
D02*
G37*
G36*
X15203Y61321D02*
X16772Y60999D01*
X17235Y60822D01*
X17854Y60065D01*
X17854Y60065D01*
X17933Y59946D01*
X18019Y59819D01*
X18434Y59541D01*
X19259Y58796D01*
X19635Y57438D01*
Y57204D01*
X19635Y48753D01*
Y48545D01*
D01*
X19635Y48400D01*
Y48400D01*
X19635Y48400D01*
Y48400D01*
X19660Y48274D01*
X19667Y48239D01*
X19672Y48215D01*
X19672Y48215D01*
X19686Y48143D01*
X19691Y48122D01*
X19693Y48107D01*
X19693D01*
X19693Y48107D01*
X19820Y47918D01*
X19859Y47859D01*
X19859Y47859D01*
X20113Y47605D01*
X20182Y47536D01*
X20259Y47459D01*
X20259Y47459D01*
Y47459D01*
X20259Y47459D01*
X20259Y47459D01*
X20361Y47391D01*
X20365Y47389D01*
X20365Y47388D01*
X20484Y47309D01*
X20504Y47296D01*
X20504Y47296D01*
X20507Y47294D01*
X20507Y47293D01*
X21213Y47049D01*
X21982Y46783D01*
D01*
X21982Y46782D01*
X21993Y46775D01*
X21993Y46775D01*
D01*
X21994Y46775D01*
X22002Y46774D01*
X23664Y46015D01*
X24017Y45815D01*
X24348Y45500D01*
X24187Y43500D01*
X16249D01*
X16189Y43562D01*
X15664Y44503D01*
X15244Y46210D01*
X15243Y46213D01*
X15243Y46214D01*
X15243Y46214D01*
X15243Y46214D01*
Y46214D01*
X15241Y46227D01*
X15240Y46230D01*
X15240Y46231D01*
X15240Y46231D01*
D01*
X15231Y46278D01*
X15228Y46291D01*
X15227Y46294D01*
X15227Y46294D01*
X15227Y46294D01*
X15227Y46295D01*
X15226Y46300D01*
X15226Y46302D01*
X15226Y46302D01*
X15225Y46304D01*
X15225Y46305D01*
X15225Y46305D01*
X15225D01*
Y46305D01*
Y46305D01*
X15225Y46305D01*
Y46305D01*
Y46305D01*
X15225D01*
X15225Y46305D01*
X15225Y46306D01*
X15225Y46306D01*
X15225Y46307D01*
X15225Y46307D01*
X15225Y46307D01*
X15225Y46307D01*
Y46307D01*
X15225D01*
X15224Y46308D01*
X15224Y46308D01*
X15224D01*
X15184Y46368D01*
X15152Y46415D01*
X15137Y46439D01*
X15137Y46439D01*
X15005Y46636D01*
X15003Y46639D01*
D01*
X14941Y46731D01*
X14940Y46733D01*
D01*
X14940Y46733D01*
X14939Y46735D01*
X14937Y46737D01*
X14937Y46737D01*
X14937D01*
Y46737D01*
X14937D01*
X14937Y46737D01*
X14937Y46738D01*
X14937D01*
X14882Y46775D01*
X14812Y46821D01*
X14806Y46825D01*
X14806D01*
X14609Y46957D01*
X14605Y46959D01*
X14605D01*
X14513Y47021D01*
X14512Y47022D01*
Y47022D01*
X14512Y47022D01*
X14511Y47022D01*
X14509Y47023D01*
X14507Y47025D01*
X14507Y47025D01*
X14507D01*
X14501Y47026D01*
X14501Y47026D01*
X14497Y47027D01*
X14497D01*
X14496Y47027D01*
X14496Y47027D01*
X14496D01*
X14496D01*
X14494Y47027D01*
X14494Y47027D01*
X14494Y47027D01*
X14494Y47027D01*
X14203Y47085D01*
X14190Y47088D01*
D01*
X14007Y47124D01*
X14003Y47125D01*
X14003D01*
X14003Y47125D01*
X14003Y47125D01*
X14002Y47125D01*
X14002D01*
D01*
X14002Y47125D01*
X14001Y47125D01*
X14000Y47126D01*
X14000D01*
X14000Y47126D01*
D01*
X14000D01*
Y47126D01*
X14000D01*
X14000Y47126D01*
X13999Y47125D01*
X13998Y47125D01*
X13998Y47125D01*
X13998D01*
X13998D01*
X13998Y47125D01*
X13998D01*
X13998D01*
D01*
X13997Y47125D01*
X13995Y47124D01*
X13994Y47124D01*
X13992Y47124D01*
D01*
X13992Y47124D01*
X13991Y47124D01*
X13989Y47123D01*
X13989Y47123D01*
X13988Y47123D01*
X13988Y47123D01*
X13988Y47123D01*
X13987Y47123D01*
X13987Y47123D01*
D01*
X13982Y47122D01*
X13945Y47115D01*
X13907Y47107D01*
X13905Y47107D01*
X13897Y47105D01*
X13889Y47104D01*
X13887Y47103D01*
X13876Y47101D01*
X13863Y47098D01*
X13855Y47097D01*
X13802Y47086D01*
X13745Y47075D01*
X13734Y47073D01*
X13672Y47060D01*
X13599Y47046D01*
X13598Y47046D01*
X13595Y47045D01*
X13591Y47044D01*
X13585Y47043D01*
X13546Y47035D01*
X13498Y47026D01*
X13497Y47025D01*
X13495Y47025D01*
X13493Y47025D01*
Y47025D01*
X13493Y47025D01*
X13492Y47024D01*
X13491Y47023D01*
X13490Y47023D01*
X13489Y47022D01*
X13489D01*
X13489Y47022D01*
X13488Y47022D01*
X13487Y47021D01*
X13485Y47019D01*
X13484Y47019D01*
X13482Y47018D01*
X13482Y47018D01*
D01*
X13482Y47017D01*
X13482D01*
X13482D01*
X13482Y47017D01*
X13482Y47017D01*
X13482Y47017D01*
D01*
X13477Y47014D01*
X13434Y46985D01*
X13223Y46845D01*
X13223D01*
X13063Y46737D01*
X13063Y46737D01*
X13063Y46737D01*
X13063Y46737D01*
X13062Y46737D01*
X13062Y46736D01*
X13062Y46736D01*
X13062D01*
X13062Y46736D01*
X13061Y46735D01*
X13060Y46733D01*
X13058Y46729D01*
X13057Y46729D01*
X13057D01*
X13057Y46728D01*
X13055Y46726D01*
X13055D01*
D01*
X13055Y46726D01*
X13055Y46726D01*
X13055Y46726D01*
X13055D01*
X13052Y46721D01*
X13023Y46678D01*
X12883Y46468D01*
X12883Y46468D01*
X12775Y46307D01*
X12775Y46307D01*
Y46307D01*
Y46307D01*
X12775Y46307D01*
X12775Y46306D01*
X12775Y46306D01*
X12775Y46306D01*
Y46306D01*
X12775Y46306D01*
X12775Y46303D01*
X12773Y46296D01*
X12773Y46295D01*
D01*
X12773Y46294D01*
Y46294D01*
X12773Y46294D01*
X12773Y46294D01*
X12772Y46292D01*
X12716Y46006D01*
X12716Y46006D01*
X12715Y46006D01*
X12696Y45907D01*
X12675Y45800D01*
X12675Y45800D01*
Y45800D01*
X12675Y45800D01*
Y45800D01*
Y45800D01*
D01*
X12652Y45684D01*
X12648Y45667D01*
X12594Y45393D01*
X12592Y45386D01*
X12569Y45270D01*
X12569Y45270D01*
X12564Y45247D01*
X12535Y45100D01*
X12535Y44542D01*
X12535Y44542D01*
X12535Y44393D01*
Y25386D01*
X10535Y24130D01*
X9995Y24227D01*
X9994Y24227D01*
X8393Y25189D01*
X8312Y25269D01*
X7885Y25697D01*
X7541Y26041D01*
X7504Y26227D01*
X7355Y26976D01*
X6802Y27802D01*
X5976Y28355D01*
X5000Y28549D01*
X4025Y28355D01*
X3198Y27802D01*
X2645Y26976D01*
X2451Y26000D01*
X2645Y25025D01*
X3198Y24198D01*
X4025Y23645D01*
X5000Y23451D01*
X5976Y23645D01*
X6487Y23987D01*
X6805Y23791D01*
X7735Y22977D01*
X8556Y22074D01*
X8557Y22071D01*
X8562Y22064D01*
X8563Y22063D01*
X8723Y21956D01*
X8982Y21783D01*
X8982Y21783D01*
X8982Y21782D01*
X8984Y21781D01*
X8992Y21776D01*
X8993Y21775D01*
X8993D01*
X8998Y21774D01*
X9091Y21756D01*
X9240Y21726D01*
X9389Y21697D01*
X9407Y21693D01*
X9487Y21677D01*
X9487D01*
X9488Y21677D01*
X9489Y21677D01*
X9493Y21676D01*
X9497Y21675D01*
X9498Y21675D01*
X9500Y21675D01*
X9500D01*
X9500D01*
X9500Y21675D01*
X9732Y21721D01*
X9994Y21773D01*
D01*
X9995Y21773D01*
X10482Y21861D01*
X10535Y21870D01*
X12535Y20570D01*
Y15005D01*
Y14500D01*
Y14500D01*
X12566Y14346D01*
X12594Y14207D01*
D01*
X12594Y14207D01*
X12672Y14090D01*
X12759Y13959D01*
X12759Y13959D01*
X13112Y13607D01*
X14707Y12012D01*
X15059Y11659D01*
X15059Y11659D01*
X15190Y11572D01*
X15307Y11494D01*
X15307D01*
D01*
X15446Y11466D01*
X15600Y11435D01*
X15600D01*
X16079D01*
X32484D01*
X32483D01*
X32730D01*
X34466Y9543D01*
X34476Y9435D01*
X34385Y8767D01*
X34355Y8735D01*
X34000Y8529D01*
X33710Y8472D01*
X33710D01*
X33415Y8413D01*
X33415Y8413D01*
X33169Y8248D01*
D01*
X32919Y8081D01*
Y8081D01*
X32587Y7585D01*
X32471Y7000D01*
X32471Y7000D01*
X32529Y6705D01*
Y6705D01*
X32587Y6415D01*
X32587Y6415D01*
X32754Y6165D01*
D01*
X32919Y5919D01*
X32919Y5918D01*
X33415Y5587D01*
X33415Y5587D01*
X33621Y5546D01*
X34000Y5471D01*
X35595Y4545D01*
X36000Y4127D01*
Y0D01*
X34000Y-0D01*
X-0D01*
Y57604D01*
X1801Y58179D01*
X2000Y58160D01*
X2504Y57504D01*
X3235Y56943D01*
X3471Y56845D01*
Y52937D01*
X3022D01*
Y50213D01*
X3022Y48787D01*
Y48500D01*
Y48213D01*
X3022Y46787D01*
Y44063D01*
X3022Y44063D01*
X3262Y42365D01*
X3263Y42063D01*
X3212Y41806D01*
X3171Y41600D01*
X3171Y41600D01*
X3287Y41015D01*
X3287Y41015D01*
X3619Y40519D01*
X3744Y40435D01*
X3865Y40354D01*
X3865D01*
X3870Y40350D01*
X4115Y40187D01*
X4115D01*
X4115D01*
X4338Y40143D01*
X4590Y40092D01*
X4635Y40084D01*
X4680Y40075D01*
X4700Y40071D01*
X4700D01*
X4700Y40071D01*
X4700D01*
X4700D01*
X5047Y40140D01*
X5285Y40187D01*
X5285D01*
X5319Y40209D01*
X5403Y40266D01*
X5531Y40352D01*
X5531D01*
X5531D01*
X5532Y40352D01*
X5533Y40353D01*
X5536Y40354D01*
X5541Y40358D01*
X5782Y40519D01*
Y40519D01*
X5782Y40519D01*
X6113Y41015D01*
X6113Y41015D01*
X6113Y41015D01*
X6229Y41600D01*
X6229Y41600D01*
X6229Y41600D01*
X6137Y42063D01*
X6137Y42063D01*
Y42063D01*
X6137Y42101D01*
Y42101D01*
X6138Y42260D01*
X6742Y44063D01*
X6778D01*
Y46787D01*
X6778Y48213D01*
Y48500D01*
Y48787D01*
X6778Y50213D01*
Y51923D01*
X7744Y53427D01*
X8430Y53776D01*
X8485Y53787D01*
X8847Y54029D01*
X10419Y55063D01*
Y55063D01*
X13781D01*
Y57787D01*
X13781Y59213D01*
X14024Y60860D01*
X14458Y61098D01*
X14662D01*
X14662D01*
X14803Y61125D01*
X14955Y61156D01*
D01*
X14955Y61156D01*
X15067Y61231D01*
X15203Y61322D01*
X15203Y61321D01*
D02*
G37*
G36*
X87000Y100000D02*
Y96637D01*
X80119D01*
Y96381D01*
X74381D01*
Y96637D01*
X67619D01*
X65619Y96637D01*
D01*
X65619D01*
X63838Y96219D01*
X63796Y96209D01*
X62904Y96092D01*
X62427Y95894D01*
X62001Y95852D01*
X60078Y95269D01*
X58306Y94322D01*
X56753Y93047D01*
X55478Y91494D01*
X54786Y90200D01*
X53800D01*
Y86301D01*
X53751Y85800D01*
X53764D01*
X53800Y85525D01*
Y79800D01*
Y75275D01*
X53764Y75000D01*
Y70690D01*
X43845D01*
X43760Y71115D01*
X43519Y71476D01*
X43159Y71717D01*
X42733Y71802D01*
X42000D01*
Y73828D01*
X42000D01*
Y73828D01*
D01*
X42000Y73885D01*
Y74000D01*
Y74000D01*
X42000D01*
X40961Y74269D01*
X40961Y74269D01*
X40258Y74451D01*
X40258Y74451D01*
X40258Y74452D01*
X39955Y76326D01*
Y80532D01*
Y81000D01*
Y81000D01*
X39924Y81154D01*
X39896Y81293D01*
D01*
X39896Y81293D01*
X39818Y81410D01*
X39731Y81541D01*
X39731Y81541D01*
X39731D01*
X39731Y81541D01*
X39348Y81924D01*
X35843Y85429D01*
X34429Y86843D01*
X34423Y86849D01*
X34391Y86880D01*
X34320Y86951D01*
X34097Y87174D01*
X33933Y87338D01*
X33024Y88248D01*
X33014Y88257D01*
X32600Y88671D01*
X32600Y88671D01*
X32450Y88821D01*
X32450D01*
X32378Y88894D01*
D01*
X32259Y89012D01*
X32259Y89012D01*
X32242Y89029D01*
X31878Y89393D01*
Y89395D01*
X31878Y89425D01*
Y89425D01*
Y90287D01*
X31878Y91510D01*
X32719Y92230D01*
X34494Y92773D01*
X34495Y92773D01*
D01*
X34497Y92773D01*
X34502Y92774D01*
X34506Y92775D01*
Y92775D01*
X34507Y92775D01*
X34507Y92775D01*
X34507Y92775D01*
X34668Y92883D01*
X34668Y92883D01*
X34862Y93013D01*
X34926Y93055D01*
X34926Y93055D01*
Y93055D01*
X34926Y93055D01*
X34926Y93055D01*
X34926Y93055D01*
Y93055D01*
X34928Y93056D01*
X34929Y93057D01*
Y93057D01*
X34930Y93058D01*
X34933Y93059D01*
X34935Y93061D01*
X34937Y93063D01*
X34937Y93063D01*
Y93063D01*
X34937D01*
Y93063D01*
X34937Y93063D01*
X34938Y93063D01*
Y93063D01*
X34984Y93132D01*
X34997Y93152D01*
X35025Y93194D01*
Y93194D01*
X35157Y93391D01*
X35159Y93395D01*
Y93395D01*
X35220Y93486D01*
X35222Y93488D01*
X35222D01*
X35222Y93488D01*
X35222Y93489D01*
X35223Y93491D01*
X35225Y93493D01*
X35225Y93493D01*
X35225Y93493D01*
X35226Y93499D01*
X35226Y93499D01*
X35227Y93503D01*
Y93503D01*
X35227Y93504D01*
Y93504D01*
Y93504D01*
X35227Y93504D01*
Y93505D01*
D01*
X35227Y93506D01*
X35227Y93506D01*
X35227Y93506D01*
X35285Y93797D01*
X35288Y93810D01*
Y93810D01*
X35323Y93989D01*
X35325Y93997D01*
Y93997D01*
X35325Y93998D01*
X35325Y93998D01*
D01*
X35325Y93998D01*
X35325Y93998D01*
X35325Y93998D01*
X35326Y94000D01*
X35326Y94000D01*
D01*
Y94000D01*
D01*
Y94000D01*
X35326Y94000D01*
X35323Y94011D01*
X35279Y94232D01*
X35279Y94232D01*
X35227Y94494D01*
X35227Y94494D01*
X35227Y94494D01*
X35227Y94495D01*
Y94496D01*
Y94496D01*
X35227Y94496D01*
Y94496D01*
Y94496D01*
X35227Y94497D01*
X35225Y94507D01*
Y94507D01*
Y94507D01*
X35225Y94507D01*
X35224Y94508D01*
X35224Y94508D01*
Y94508D01*
X35223Y94510D01*
X35137Y94639D01*
Y94639D01*
X35134Y94642D01*
X35003Y94839D01*
Y94839D01*
X34965Y94896D01*
X34940Y94933D01*
Y94933D01*
X34937Y94937D01*
Y94937D01*
Y94937D01*
D01*
X34937Y94937D01*
X34936Y94938D01*
X34935Y94939D01*
X34933Y94940D01*
X34932Y94941D01*
Y94941D01*
X34932Y94941D01*
X34931Y94941D01*
X34930Y94942D01*
X34929Y94943D01*
X34928Y94943D01*
D01*
X34928Y94944D01*
X34926Y94945D01*
Y94945D01*
D01*
X34926Y94945D01*
X34926Y94945D01*
X34926Y94945D01*
Y94945D01*
X34921Y94948D01*
X34878Y94977D01*
X34668Y95117D01*
X34668Y95117D01*
X34507Y95225D01*
X34507Y95225D01*
X34507Y95225D01*
X34507D01*
X34507Y95225D01*
X34506Y95225D01*
X34506Y95225D01*
X34506Y95225D01*
X34506D01*
X34506Y95225D01*
X34503Y95225D01*
X34496Y95227D01*
X34495Y95227D01*
D01*
X34494Y95227D01*
X33531Y95599D01*
X33405Y95662D01*
X31878Y96437D01*
X31878D01*
X29878Y96437D01*
X28122D01*
Y93713D01*
X28122Y92287D01*
Y92000D01*
Y91713D01*
X28122Y90287D01*
Y87563D01*
X28880D01*
X30880Y87563D01*
X31695Y86552D01*
X30784Y84565D01*
X26976D01*
X26606Y84927D01*
X26039Y85630D01*
X25878Y87563D01*
X25878D01*
X25878Y87563D01*
Y90287D01*
X25878Y91713D01*
Y92000D01*
Y92287D01*
X25878Y93713D01*
Y96437D01*
X23593D01*
X23007Y96437D01*
X22941Y96503D01*
X21444Y98000D01*
X22208Y100000D01*
X87000D01*
X87000Y100000D01*
D02*
G37*
G36*
X11924Y98000D02*
X11332Y97234D01*
X10406Y97098D01*
X10272D01*
X9634Y97098D01*
X8953D01*
X8272D01*
X7634Y97098D01*
X3728D01*
Y92555D01*
X6720D01*
X7190Y92555D01*
X7356Y92389D01*
X8975Y90770D01*
X9286Y90459D01*
X9286Y90459D01*
X9417Y90372D01*
X9534Y90294D01*
X9534D01*
D01*
X9673Y90266D01*
X9827Y90235D01*
X9827D01*
X10325D01*
X13501D01*
X14000D01*
X14000D01*
X14122Y90260D01*
X14466Y90218D01*
X15311Y89852D01*
X15830Y89442D01*
X16122Y87563D01*
Y87563D01*
X14304Y86213D01*
X14177Y86272D01*
Y86272D01*
X10272D01*
X9634Y86272D01*
X8953D01*
X8272D01*
X7634Y86272D01*
X3728D01*
Y81728D01*
X3728Y81728D01*
X4186Y80745D01*
X4573Y78906D01*
X4573Y78906D01*
X4573Y78904D01*
X4574Y78902D01*
D01*
X4574Y78901D01*
X4575Y78896D01*
X4575Y78893D01*
D01*
X4575Y78893D01*
X4575Y78893D01*
X4639Y78798D01*
X4655Y78774D01*
X4695Y78714D01*
X4695D01*
X4791Y78571D01*
X4792Y78568D01*
X4792D01*
X4809Y78542D01*
X4810Y78542D01*
X4810D01*
X4820Y78527D01*
X4820Y78527D01*
D01*
X4855Y78475D01*
X4855Y78474D01*
X4855D01*
X4856Y78473D01*
X4857Y78472D01*
X4857Y78472D01*
X4857Y78471D01*
X4858Y78470D01*
D01*
X4859Y78469D01*
X4860Y78467D01*
X4861Y78465D01*
X4862Y78465D01*
D01*
X4862Y78465D01*
X4862Y78465D01*
X4862D01*
X4862Y78464D01*
X4862Y78464D01*
X4863Y78463D01*
X4863Y78463D01*
Y78463D01*
X4863D01*
Y78463D01*
X4863D01*
X4863Y78463D01*
X4863Y78462D01*
X4863D01*
X4919Y78426D01*
X4988Y78379D01*
X4994Y78375D01*
X4994D01*
X5191Y78243D01*
X5195Y78241D01*
X5195D01*
X5287Y78180D01*
X5288Y78178D01*
Y78178D01*
X5288Y78178D01*
X5289Y78178D01*
X5291Y78177D01*
X5293Y78175D01*
X5293Y78175D01*
X5293Y78175D01*
X5299Y78174D01*
X5299Y78174D01*
X5303Y78173D01*
X5303D01*
X5304Y78173D01*
X5304D01*
X5304D01*
X5304Y78173D01*
X5305D01*
D01*
X5306Y78173D01*
X5306Y78173D01*
X5306Y78173D01*
X5597Y78115D01*
X5610Y78112D01*
X5610D01*
X5788Y78077D01*
X5797Y78075D01*
X5797D01*
X5798Y78075D01*
X5798Y78075D01*
D01*
X5798Y78075D01*
X5798Y78075D01*
X5798Y78075D01*
X5800Y78075D01*
X5800Y78075D01*
D01*
X5800D01*
D01*
X5800Y78075D01*
X5928Y78100D01*
X6032Y78121D01*
X6032Y78121D01*
X6169Y78148D01*
X6294Y78173D01*
X6294Y78173D01*
X6295Y78173D01*
X6295Y78173D01*
X6296D01*
X6296Y78173D01*
X6297Y78173D01*
X6307Y78175D01*
X6307D01*
X6308Y78176D01*
X6308Y78176D01*
X6309Y78176D01*
X6312Y78178D01*
X6312Y78179D01*
D01*
X6313Y78179D01*
X6313Y78179D01*
X6313Y78180D01*
X6316Y78181D01*
X6316Y78181D01*
X6316D01*
X6316Y78181D01*
X6317Y78182D01*
X6318Y78182D01*
Y78182D01*
X6318Y78182D01*
X6318Y78183D01*
D01*
X6318D01*
X6318Y78183D01*
X6318D01*
X6318Y78183D01*
D01*
X6336Y78195D01*
X6368Y78216D01*
X6577Y78355D01*
X6577D01*
X6595Y78368D01*
X6737Y78463D01*
X6737Y78463D01*
X6737Y78463D01*
X6737Y78463D01*
X6738Y78463D01*
X6738Y78464D01*
X6738Y78464D01*
X6738D01*
X6738Y78464D01*
X6739Y78465D01*
X6740Y78467D01*
X6742Y78470D01*
X6743Y78471D01*
X6743D01*
X6743Y78472D01*
X6745Y78474D01*
X6745D01*
D01*
X6745Y78474D01*
X6745Y78474D01*
X6745Y78474D01*
X6745D01*
X6748Y78479D01*
X6777Y78522D01*
X6917Y78732D01*
X6917Y78732D01*
X7025Y78893D01*
X7025Y78893D01*
X7025Y78893D01*
Y78893D01*
X7025Y78893D01*
X7025Y78894D01*
X7025Y78894D01*
X7025Y78894D01*
Y78894D01*
X7025Y78894D01*
X7025Y78897D01*
X7027Y78904D01*
X7027Y78905D01*
D01*
X7027Y78906D01*
X7443Y80733D01*
X7947Y81728D01*
X8272D01*
X8953D01*
X9634D01*
X10272Y81728D01*
X10893D01*
X12035Y79807D01*
X10985Y78613D01*
X10695Y78671D01*
X10400Y78729D01*
X10400Y78729D01*
X10110Y78672D01*
X10110D01*
X9815Y78613D01*
X9815Y78613D01*
X9319Y78281D01*
X8987Y77785D01*
X8987Y77785D01*
X8928Y77490D01*
X8871Y77200D01*
X8871Y77200D01*
X8914Y76980D01*
X8183Y75597D01*
X7695Y74981D01*
X7487D01*
X4763D01*
X4763Y74981D01*
X2763Y74697D01*
X2600Y74729D01*
X2015Y74613D01*
X2000Y74603D01*
X360Y75203D01*
X-0Y75489D01*
Y100000D01*
X10942D01*
X11924Y98000D01*
D02*
G37*
G36*
X80119Y87087D02*
X87000D01*
Y84000D01*
X120000D01*
X120000Y84000D01*
Y24015D01*
X118000Y23451D01*
X117578Y24139D01*
X115994Y25994D01*
X114139Y27578D01*
X112059Y28853D01*
X109805Y29787D01*
X107432Y30356D01*
X105000Y30548D01*
X102568Y30356D01*
X100195Y29787D01*
X97941Y28853D01*
X95861Y27578D01*
X94006Y25994D01*
X92422Y24139D01*
X91147Y22059D01*
X90213Y19805D01*
X89644Y17432D01*
X89452Y15000D01*
X89644Y12568D01*
X90213Y10195D01*
X91147Y7941D01*
X92422Y5861D01*
X94006Y4006D01*
X95861Y2421D01*
X96549Y2000D01*
X95985Y-0D01*
X86000D01*
X84000Y0D01*
Y4127D01*
X84405Y4545D01*
X85627Y5254D01*
X86017Y5474D01*
X86290Y5528D01*
X86585Y5587D01*
X86585Y5587D01*
X86585Y5587D01*
X86831Y5751D01*
D01*
X87081Y5918D01*
X87081D01*
X87081D01*
X87081Y5919D01*
X87212Y6114D01*
X87232Y6144D01*
Y6144D01*
X87248Y6168D01*
Y6168D01*
X87308Y6258D01*
X87329Y6289D01*
Y6289D01*
X87413Y6415D01*
X87413Y6415D01*
Y6415D01*
X87467Y6689D01*
X87467Y6689D01*
X87471Y6705D01*
X87516Y6933D01*
X87529Y7000D01*
X87516Y7067D01*
X87471Y7295D01*
X87467Y7311D01*
X87467Y7311D01*
X87413Y7585D01*
X87413Y7585D01*
X87413D01*
X87329Y7711D01*
Y7711D01*
X87305Y7747D01*
X87248Y7831D01*
Y7831D01*
X87232Y7856D01*
D01*
X87213Y7884D01*
X87081Y8081D01*
X87081Y8082D01*
X87081D01*
X87081Y8082D01*
X86831Y8248D01*
Y8248D01*
X86585Y8413D01*
X86585Y8413D01*
X86585Y8413D01*
X86290Y8472D01*
X86017Y8526D01*
X85627Y8746D01*
X84405Y9455D01*
X84000Y9873D01*
Y15000D01*
X82632D01*
X82179Y15480D01*
X81981Y15834D01*
X81226Y17498D01*
X81225Y17505D01*
X81225Y17507D01*
D01*
X81225Y17507D01*
X81217Y17518D01*
X81217Y17518D01*
X80935Y18648D01*
X80765Y19440D01*
X81165Y21272D01*
X81165D01*
X81165Y21272D01*
X81802Y21698D01*
X82355Y22524D01*
X82355Y22524D01*
X82402Y22760D01*
X82549Y23500D01*
X82402Y24240D01*
X82355Y24475D01*
X82355Y24475D01*
X81802Y25302D01*
X81165Y25728D01*
Y25728D01*
X81165D01*
X80765Y27560D01*
X80935Y28352D01*
X81217Y29482D01*
X81217Y29482D01*
X81224Y29492D01*
X81225Y29493D01*
Y29493D01*
X81225Y29494D01*
X81272Y29732D01*
X81323Y29987D01*
Y29987D01*
X81323Y29987D01*
X81324Y29993D01*
X81326Y30000D01*
X81288Y30189D01*
X81282Y30218D01*
X81337Y30838D01*
X81852Y32355D01*
X82021Y32618D01*
X91122D01*
Y31563D01*
X94878D01*
Y35510D01*
X95719Y36230D01*
X97494Y36773D01*
X97494D01*
X97495Y36773D01*
X97506Y36775D01*
X97507Y36775D01*
X97668Y36883D01*
X97926Y37055D01*
X97926Y37056D01*
X97929Y37057D01*
X97937Y37063D01*
X97937Y37063D01*
X97939Y37065D01*
X98472Y37479D01*
X99407Y38198D01*
X100198Y38506D01*
X100261Y38522D01*
X100261Y38522D01*
X100290Y38528D01*
X100290D01*
X100522Y38574D01*
D01*
X100585Y38587D01*
X100585Y38587D01*
X100710Y38670D01*
X100831Y38752D01*
X100871Y38778D01*
X100900Y38798D01*
Y38798D01*
X101082Y38919D01*
X101082Y38919D01*
X101413Y39415D01*
X101413Y39415D01*
X101529Y40000D01*
X101529Y40000D01*
X101471Y40295D01*
X101429Y40504D01*
X101413Y40585D01*
X101413Y40585D01*
X101413Y40585D01*
X101681Y42563D01*
X101681D01*
X101681Y42563D01*
Y45287D01*
X101681Y46713D01*
Y47000D01*
Y47287D01*
X101681Y48713D01*
Y49437D01*
X101681Y51437D01*
X101681Y51437D01*
X101424Y53331D01*
Y53331D01*
X101413Y53415D01*
X101529Y54000D01*
X101472Y54290D01*
X101413Y54585D01*
X101225Y56493D01*
X101306Y56904D01*
X101361Y57036D01*
X102569Y58270D01*
X102918Y58467D01*
X103000Y58451D01*
X103975Y58645D01*
X104802Y59198D01*
X105355Y60024D01*
X105549Y61000D01*
X105355Y61976D01*
X104802Y62802D01*
X103975Y63355D01*
X103000Y63549D01*
X102024Y63355D01*
X101198Y62802D01*
X100834Y62553D01*
X99430Y62871D01*
X99081Y64919D01*
X99413Y65415D01*
X99529Y66000D01*
X99529Y66000D01*
X99471Y66295D01*
Y66295D01*
X99413Y66585D01*
X99081Y67081D01*
X98842Y68895D01*
X98927Y69384D01*
X99355Y70025D01*
X99549Y71000D01*
X99355Y71975D01*
X98802Y72802D01*
X97975Y73355D01*
X97000Y73549D01*
X96025Y73355D01*
X95198Y72802D01*
X94645Y71975D01*
X94451Y71000D01*
X93782Y70539D01*
X93077Y70304D01*
X91518Y70217D01*
X91518Y70218D01*
X91518D01*
X91508Y70224D01*
X91508D01*
X91507Y70225D01*
X91507Y70225D01*
X91506Y70225D01*
X91280Y70270D01*
X91110Y70304D01*
X91013Y70323D01*
X91013D01*
X91013Y70323D01*
X91007Y70324D01*
X91003Y70325D01*
X91000Y70325D01*
X90811Y70288D01*
X90506Y70227D01*
D01*
X90503Y70227D01*
X90494Y70225D01*
X90493Y70225D01*
X90332Y70117D01*
X90074Y69945D01*
X90074Y69945D01*
X90073Y69944D01*
X90071Y69943D01*
X90063Y69937D01*
X90063D01*
X90063Y69937D01*
X90060Y69933D01*
X89773Y69694D01*
X88563Y68700D01*
X87739Y68477D01*
X87739Y68477D01*
X87415Y68413D01*
X87290Y68330D01*
X87169Y68248D01*
D01*
X87164Y68246D01*
X86918Y68081D01*
Y68081D01*
X86587Y67585D01*
X86587Y67585D01*
X86486Y67079D01*
X86246Y66667D01*
X85685Y66285D01*
X84655Y65871D01*
X83954Y65765D01*
X83954D01*
X81954Y65765D01*
X81151D01*
X80400Y66225D01*
X79096Y67686D01*
X79096Y67686D01*
X79096Y67686D01*
X79018Y67803D01*
X79018D01*
X78932Y67932D01*
X78932D01*
X78436Y68263D01*
X78436Y68263D01*
X78436Y68263D01*
X77850Y68380D01*
X77850Y68380D01*
X77645Y68339D01*
X77265Y68263D01*
X77265Y68263D01*
X77015Y68096D01*
D01*
X76769Y67932D01*
X76769D01*
X76728Y67870D01*
X74488D01*
X74098Y67792D01*
X73767Y67571D01*
X73633Y67437D01*
X71122D01*
Y63287D01*
X71122D01*
Y62713D01*
X71122D01*
Y60203D01*
X60683Y49765D01*
X54217D01*
X49829Y54152D01*
X50595Y56000D01*
X55500D01*
Y62727D01*
X61987D01*
Y66251D01*
X62092Y66504D01*
X62236Y67600D01*
Y75000D01*
X62200Y75275D01*
Y79800D01*
Y83815D01*
X62236Y85800D01*
X62914Y86886D01*
X63838Y87462D01*
X65619Y87087D01*
Y87087D01*
X74381D01*
Y87619D01*
X80119D01*
Y87087D01*
D02*
G37*
%LPC*%
G36*
X42000Y86529D02*
X41415Y86413D01*
X40919Y86081D01*
X40587Y85585D01*
X40471Y85000D01*
X40587Y84415D01*
X40919Y83919D01*
X41415Y83587D01*
X42000Y83471D01*
X42585Y83587D01*
X43081Y83919D01*
X43413Y84415D01*
X43529Y85000D01*
X43413Y85585D01*
X43081Y86081D01*
X42585Y86413D01*
X42000Y86529D01*
D02*
G37*
G36*
X14000Y9026D02*
X13217Y8923D01*
X12487Y8620D01*
X11860Y8140D01*
X11379Y7513D01*
X11077Y6783D01*
X10974Y6000D01*
X11077Y5217D01*
X11379Y4487D01*
X11860Y3860D01*
X12487Y3379D01*
X13217Y3077D01*
X14000Y2974D01*
X14783Y3077D01*
X15513Y3379D01*
X16140Y3860D01*
X16621Y4487D01*
X16923Y5217D01*
X17026Y6000D01*
X16923Y6783D01*
X16621Y7513D01*
X16140Y8140D01*
X15513Y8620D01*
X14783Y8923D01*
X14000Y9026D01*
D02*
G37*
G36*
X7500Y19625D02*
X7500D01*
X7500Y19625D01*
X7495Y19624D01*
X7240Y19574D01*
X7240D01*
X7006Y19527D01*
X7006Y19527D01*
X7006Y19527D01*
X7006Y19527D01*
X7005Y19527D01*
X7005D01*
X7004D01*
X7004Y19527D01*
X7004Y19527D01*
X7004D01*
X7004Y19527D01*
X7004Y19527D01*
X7003Y19527D01*
X6993Y19525D01*
X6993D01*
X6993D01*
X6993Y19524D01*
X6992Y19524D01*
X6992Y19524D01*
X6992D01*
X6990Y19523D01*
X6861Y19437D01*
X6861D01*
X6858Y19434D01*
X6661Y19303D01*
X6661D01*
X6606Y19266D01*
X6567Y19240D01*
X6567D01*
X6563Y19237D01*
X6563D01*
D01*
X6563Y19237D01*
X6562Y19236D01*
X6561Y19235D01*
X6560Y19233D01*
X6559Y19232D01*
X6559D01*
X6559Y19232D01*
X6559Y19231D01*
X6558Y19230D01*
X6557Y19229D01*
X6557Y19228D01*
D01*
X6556Y19228D01*
X6555Y19226D01*
X6555D01*
X6555Y19226D01*
X6555Y19226D01*
X6555Y19226D01*
X6555D01*
X6552Y19221D01*
X6523Y19178D01*
X6383Y18968D01*
X6383D01*
X6275Y18807D01*
X6275Y18807D01*
Y18807D01*
X6275Y18807D01*
X6275Y18806D01*
X6275Y18806D01*
X6275Y18806D01*
X6275Y18806D01*
X6274Y18803D01*
X6273Y18796D01*
X6273Y18795D01*
Y18795D01*
X6273Y18794D01*
X5402Y17155D01*
X5142Y16797D01*
X4760Y16461D01*
X4225Y16355D01*
X3398Y15802D01*
X2845Y14976D01*
X2651Y14000D01*
X2845Y13025D01*
X3398Y12198D01*
X4225Y11645D01*
X5200Y11451D01*
X6176Y11645D01*
X7002Y12198D01*
X7555Y13025D01*
X7749Y14000D01*
X7599Y14751D01*
X7555Y14975D01*
Y14976D01*
X7457Y15176D01*
X7555Y15273D01*
X7784Y15503D01*
X8041Y15759D01*
X8041Y15759D01*
X8119Y15876D01*
X8141Y15909D01*
X8207Y16007D01*
X8207Y16007D01*
X8207D01*
Y16007D01*
X8451Y16857D01*
X8717Y17782D01*
D01*
X8717Y17782D01*
Y17782D01*
X8717Y17782D01*
X8719Y17784D01*
X8720Y17786D01*
X8722Y17789D01*
X8724Y17792D01*
X8724Y17792D01*
Y17792D01*
X8724Y17792D01*
X8724Y17792D01*
X8724Y17792D01*
X8725Y17793D01*
X8725Y17793D01*
Y17793D01*
X8725Y17794D01*
X8725Y17794D01*
X8725Y17794D01*
Y17794D01*
X8749Y17918D01*
X8753Y17934D01*
X8767Y18009D01*
Y18009D01*
X8798Y18160D01*
X8798Y18163D01*
X8798D01*
X8801Y18177D01*
X8804Y18190D01*
X8804Y18190D01*
Y18190D01*
X8804Y18192D01*
X8814Y18243D01*
X8822Y18285D01*
X8823Y18287D01*
Y18287D01*
Y18287D01*
X8823Y18287D01*
X8823Y18287D01*
X8823D01*
X8824Y18291D01*
X8824Y18292D01*
D01*
X8824Y18293D01*
X8824Y18295D01*
X8825Y18298D01*
X8825Y18298D01*
Y18298D01*
X8825Y18298D01*
X8825Y18299D01*
X8826Y18300D01*
X8826Y18300D01*
X8826Y18300D01*
X8788Y18489D01*
X8788Y18489D01*
X8727Y18794D01*
Y18794D01*
Y18794D01*
X8727D01*
X8727Y18795D01*
X8727Y18796D01*
X8727Y18797D01*
X8727D01*
X8726Y18799D01*
X8726Y18803D01*
X8725Y18806D01*
X8725D01*
X8725Y18807D01*
X8725Y18807D01*
X8725Y18807D01*
X8617Y18968D01*
X8617D01*
X8487Y19162D01*
X8445Y19226D01*
X8445Y19226D01*
X8445D01*
X8445Y19226D01*
X8445Y19226D01*
X8445Y19226D01*
X8444D01*
X8444Y19227D01*
X8444Y19227D01*
X8444D01*
X8443Y19228D01*
X8443Y19229D01*
X8443D01*
X8442Y19230D01*
X8440Y19233D01*
X8439Y19235D01*
X8437Y19237D01*
X8437Y19237D01*
X8437Y19237D01*
X8437Y19237D01*
X8437Y19237D01*
X8437Y19238D01*
X8369Y19283D01*
X8368Y19284D01*
X8348Y19297D01*
X8306Y19325D01*
X8211Y19389D01*
X8109Y19457D01*
X8105Y19459D01*
X8062Y19488D01*
X8014Y19520D01*
X8012Y19522D01*
D01*
X8012D01*
X8011Y19522D01*
X8009Y19523D01*
X8007Y19524D01*
X8007Y19525D01*
D01*
X8007Y19525D01*
X8006Y19525D01*
X8005Y19525D01*
X8004Y19525D01*
X8001Y19526D01*
X8001Y19526D01*
X8000Y19526D01*
X8000Y19526D01*
X7999Y19526D01*
X7997Y19527D01*
X7997D01*
X7997Y19527D01*
X7997Y19527D01*
X7997Y19527D01*
X7997D01*
X7997Y19527D01*
X7997Y19527D01*
X7997Y19527D01*
X7996Y19527D01*
X7996D01*
X7996Y19527D01*
X7996Y19527D01*
X7996Y19527D01*
X7996Y19527D01*
X7996D01*
X7995Y19527D01*
X7995Y19527D01*
X7995Y19527D01*
X7995Y19527D01*
X7994Y19527D01*
X7994Y19527D01*
X7980Y19530D01*
X7923Y19541D01*
X7841Y19558D01*
X7714Y19583D01*
X7702Y19585D01*
X7693Y19587D01*
X7603Y19605D01*
X7512Y19623D01*
X7503Y19625D01*
X7503Y19625D01*
X7502Y19625D01*
X7502D01*
X7502D01*
X7502Y19625D01*
X7502Y19625D01*
X7501Y19625D01*
X7501Y19625D01*
X7500Y19625D01*
X7500Y19625D01*
D02*
G37*
G36*
X40500Y95026D02*
X39717Y94923D01*
X38987Y94621D01*
X38360Y94140D01*
X37879Y93513D01*
X37577Y92783D01*
X37474Y92000D01*
X37577Y91217D01*
X37879Y90487D01*
X38360Y89860D01*
X38987Y89380D01*
X39717Y89077D01*
X40500Y88974D01*
X41283Y89077D01*
X42013Y89380D01*
X42640Y89860D01*
X43121Y90487D01*
X43423Y91217D01*
X43526Y92000D01*
X43423Y92783D01*
X43121Y93513D01*
X42640Y94140D01*
X42013Y94621D01*
X41283Y94923D01*
X40500Y95026D01*
D02*
G37*
G36*
X111000Y68530D02*
X110086Y68410D01*
X109235Y68057D01*
X108504Y67496D01*
X107943Y66765D01*
X107590Y65914D01*
X107470Y65000D01*
X107590Y64086D01*
X107943Y63235D01*
X108504Y62504D01*
X109235Y61943D01*
X110086Y61590D01*
X111000Y61470D01*
X111914Y61590D01*
X112765Y61943D01*
X113496Y62504D01*
X114057Y63235D01*
X114410Y64086D01*
X114530Y65000D01*
X114410Y65914D01*
X114057Y66765D01*
X113496Y67496D01*
X112765Y68057D01*
X111914Y68410D01*
X111000Y68530D01*
D02*
G37*
G36*
Y58530D02*
X110086Y58410D01*
X109235Y58057D01*
X108504Y57496D01*
X107943Y56765D01*
X107590Y55914D01*
X107470Y55000D01*
X107590Y54086D01*
X107943Y53235D01*
X108504Y52504D01*
X109235Y51943D01*
X110086Y51590D01*
X110180Y51578D01*
Y48618D01*
X108731D01*
Y44713D01*
X108731Y43287D01*
Y43020D01*
X108724Y42706D01*
X107831Y41905D01*
X106081Y41082D01*
X106081Y41082D01*
X105835Y41246D01*
X105835D01*
X105585Y41413D01*
X105585Y41413D01*
X105295Y41471D01*
X105000Y41529D01*
X105000Y41529D01*
X105000Y41529D01*
X104734Y41477D01*
X104415Y41413D01*
X104415D01*
X104190Y41263D01*
X104190D01*
X104168Y41248D01*
X104165Y41246D01*
X104165Y41246D01*
X104117Y41214D01*
X104117Y41214D01*
X104047Y41167D01*
Y41167D01*
X103919Y41082D01*
X103919D01*
X103919Y41082D01*
X103753Y40833D01*
X103730Y40799D01*
Y40799D01*
X103587Y40585D01*
X103529Y40292D01*
X103518Y40239D01*
X103518Y40239D01*
X103471Y40000D01*
D01*
Y40000D01*
X103507Y39817D01*
Y39817D01*
X103528Y39713D01*
X103587Y39415D01*
D01*
X103587Y39415D01*
X103587Y39415D01*
X103752Y39169D01*
X103919Y38919D01*
Y38919D01*
X104047Y38833D01*
Y38833D01*
X104165Y38754D01*
Y38754D01*
X104167Y38753D01*
X104169Y38751D01*
X104169D01*
X104415Y38587D01*
X104415Y38587D01*
X104710Y38528D01*
X105000Y38471D01*
X105000Y38471D01*
X105000Y38471D01*
X105295Y38529D01*
X105585Y38587D01*
X105585Y38587D01*
X105835Y38754D01*
X105835D01*
X106081Y38919D01*
X106081Y38919D01*
X106123Y38980D01*
X108731D01*
Y37382D01*
X113669D01*
Y41287D01*
X113669Y42713D01*
Y43000D01*
Y43287D01*
X113669Y44713D01*
Y48618D01*
X112220D01*
Y51717D01*
X112765Y51943D01*
X113496Y52504D01*
X114057Y53235D01*
X114410Y54086D01*
X114530Y55000D01*
X114410Y55914D01*
X114057Y56765D01*
X113496Y57496D01*
X112765Y58057D01*
X111914Y58410D01*
X111000Y58530D01*
D02*
G37*
%LPD*%
D10*
X64000Y91800D02*
G03*
X58000Y85800I0J-6000D01*
G01*
Y83937D02*
Y85800D01*
X4900Y50862D02*
X5000Y50962D01*
X64138Y91862D02*
X70000D01*
X5000Y50962D02*
Y60000D01*
X84638Y92000D02*
X93000D01*
X84500Y91862D02*
X84638Y92000D01*
X80000Y91862D02*
X84500D01*
X79862Y92000D02*
X80000Y91862D01*
X70138Y92000D02*
X75138D01*
X70000Y91862D02*
X70138Y92000D01*
X58000Y67600D02*
Y75000D01*
X120000Y0D02*
Y100000D01*
X0D02*
X120000D01*
X0Y0D02*
Y100000D01*
Y0D02*
X120000D01*
D11*
X29500Y20216D02*
D03*
X20445D02*
D03*
Y27500D02*
D03*
X29500D02*
D03*
D12*
X24000Y89638D02*
D03*
Y94362D02*
D03*
X93000Y33638D02*
D03*
Y38362D02*
D03*
X73000Y65362D02*
D03*
Y60638D02*
D03*
X4900Y50862D02*
D03*
Y46138D02*
D03*
X73000Y50638D02*
D03*
Y55362D02*
D03*
X18000Y89638D02*
D03*
Y94362D02*
D03*
X30000Y89638D02*
D03*
Y94362D02*
D03*
D13*
X42200Y66700D02*
D03*
X39200D02*
D03*
X42000Y60800D02*
D03*
X39000D02*
D03*
D14*
X58000Y60120D02*
D03*
X55441D02*
D03*
X52882D02*
D03*
Y67600D02*
D03*
X55441D02*
D03*
X58000D02*
D03*
D15*
X111200Y45953D02*
D03*
Y40047D02*
D03*
X43000Y30047D02*
D03*
Y35953D02*
D03*
D16*
X40500Y92000D02*
D03*
X14000Y6000D02*
D03*
D17*
X6000Y84000D02*
D03*
Y94827D02*
D03*
X11906Y84000D02*
D03*
Y94827D02*
D03*
D18*
X4950Y67900D02*
D03*
X11250D02*
D03*
X79150Y40000D02*
D03*
X72850D02*
D03*
X53650Y23500D02*
D03*
X47350D02*
D03*
D19*
X103236Y95346D02*
D03*
Y88653D02*
D03*
D20*
X113472Y92000D02*
D03*
X93000D02*
D03*
D21*
X6838Y73300D02*
D03*
X11562D02*
D03*
X72638Y45000D02*
D03*
X77362D02*
D03*
X30638Y38000D02*
D03*
X35362D02*
D03*
X25262Y33300D02*
D03*
X20538D02*
D03*
X49138Y29500D02*
D03*
X53862D02*
D03*
X49138Y37000D02*
D03*
X53862D02*
D03*
X48138Y42500D02*
D03*
X52862D02*
D03*
X30962Y80300D02*
D03*
X26238D02*
D03*
X79862Y92000D02*
D03*
X75138D02*
D03*
D22*
X100000Y44638D02*
D03*
Y49362D02*
D03*
X12100Y61862D02*
D03*
Y57138D02*
D03*
X70000Y91862D02*
D03*
Y87138D02*
D03*
X84500Y91862D02*
D03*
Y87138D02*
D03*
D23*
X29300Y54200D02*
D03*
Y57200D02*
D03*
X35200Y54300D02*
D03*
Y57300D02*
D03*
D24*
X30638Y33300D02*
D03*
X35362D02*
D03*
X68638Y34000D02*
D03*
X73362D02*
D03*
D25*
X58000Y83837D02*
D03*
Y75963D02*
D03*
D26*
X54457Y79900D02*
D03*
X61543D02*
D03*
D27*
X82455Y45142D02*
D03*
Y47110D02*
D03*
Y49079D02*
D03*
Y51047D02*
D03*
Y53016D02*
D03*
Y54984D02*
D03*
Y56953D02*
D03*
Y58921D02*
D03*
Y60890D02*
D03*
Y62858D02*
D03*
X95545D02*
D03*
Y60890D02*
D03*
Y58921D02*
D03*
Y56953D02*
D03*
Y54984D02*
D03*
Y53016D02*
D03*
Y51047D02*
D03*
Y49079D02*
D03*
Y47110D02*
D03*
Y45142D02*
D03*
D28*
X86047Y63301D02*
D03*
X88015D02*
D03*
X89984D02*
D03*
X91952D02*
D03*
Y44699D02*
D03*
X89984D02*
D03*
X88015D02*
D03*
X86047D02*
D03*
D29*
X80000Y7000D02*
D03*
X70000D02*
D03*
X60000D02*
D03*
X50000D02*
D03*
X40000D02*
D03*
D30*
X25410Y54056D02*
D03*
X27379D02*
D03*
X29347D02*
D03*
X31316D02*
D03*
X33284D02*
D03*
X35253D02*
D03*
X37221D02*
D03*
X39190D02*
D03*
Y73544D02*
D03*
X37221D02*
D03*
X35253D02*
D03*
X33284D02*
D03*
X31316D02*
D03*
X29347D02*
D03*
X27379D02*
D03*
X25410D02*
D03*
D31*
X42044Y56910D02*
D03*
Y58879D02*
D03*
Y60847D02*
D03*
Y62816D02*
D03*
Y64784D02*
D03*
Y66753D02*
D03*
Y68721D02*
D03*
Y70690D02*
D03*
X22556D02*
D03*
Y68721D02*
D03*
Y66753D02*
D03*
Y64784D02*
D03*
Y62816D02*
D03*
Y60847D02*
D03*
Y58879D02*
D03*
Y56910D02*
D03*
D32*
X32300Y63800D02*
D03*
D33*
X5000Y26000D02*
D03*
X5200Y14000D02*
D03*
X97000Y71000D02*
D03*
X67000Y23500D02*
D03*
X80000D02*
D03*
X103000Y61000D02*
D03*
D34*
X4700Y41600D02*
X4900Y41800D01*
Y46138D01*
X68000Y44000D02*
X69000Y45000D01*
X72638D01*
X68000Y40000D02*
X72850D01*
X100000D02*
Y44638D01*
X99016Y53016D02*
X100000Y54000D01*
X95152Y53016D02*
X99016D01*
X82833Y53000D02*
X82848Y53016D01*
X79000Y53000D02*
X82833D01*
X91952Y63952D02*
X94000Y66000D01*
X91952Y62907D02*
Y63952D01*
X88000Y67000D02*
X88015Y66985D01*
Y62907D02*
Y66985D01*
X98000Y65706D02*
Y66000D01*
X95152Y62858D02*
X98000Y65706D01*
X86047Y44047D02*
Y45092D01*
X84000Y42000D02*
X86047Y44047D01*
X80000Y7000D02*
X86000D01*
X22100Y80300D02*
X26238D01*
X7900Y55200D02*
X9838Y57138D01*
X12100D01*
X2600Y73200D02*
X2700Y73300D01*
X6838D01*
X4950Y71413D02*
X6838Y73300D01*
X4950Y67900D02*
Y71413D01*
X35253Y49747D02*
X37500Y47500D01*
Y47000D02*
Y47500D01*
X29347Y44653D02*
Y54056D01*
X31316Y46684D02*
Y54056D01*
X33284Y47516D02*
Y54056D01*
X53862Y29500D02*
X55000Y30638D01*
Y33000D01*
X51000D02*
X53862Y35862D01*
Y37000D01*
X53650Y29287D02*
X53862Y29500D01*
X53650Y23500D02*
Y29287D01*
Y37213D02*
X53862Y37000D01*
X53650Y37213D02*
Y42500D01*
X38000Y42800D02*
X47700D01*
X47350Y38787D02*
X49138Y37000D01*
X47350Y38787D02*
Y42500D01*
X42500Y24500D02*
Y29547D01*
X43000Y30047D01*
X31316Y46684D02*
X42047Y35953D01*
X43000D01*
X44547D01*
X49000Y29362D02*
Y31500D01*
X44547Y35953D02*
X49000Y31500D01*
X47350Y27713D02*
X49000Y29362D01*
X47350Y23500D02*
Y27713D01*
X29500Y20216D02*
X34784D01*
X35362Y38000D02*
Y38638D01*
X29347Y44653D02*
X35362Y38638D01*
X33284Y47516D02*
X38000Y42800D01*
X35253Y49747D02*
Y54056D01*
X45753Y66753D02*
X46800Y67800D01*
X45453Y60847D02*
X46800Y59500D01*
X42044Y60847D02*
X45453D01*
X42044Y62816D02*
X52459D01*
X52882Y62393D01*
Y60120D02*
Y62393D01*
X42044Y64784D02*
X52339D01*
X52882Y65327D01*
Y67600D01*
X22556Y64784D02*
X31316D01*
X34784Y20216D02*
X36600Y22033D01*
Y24200D01*
X16500Y33424D02*
X20413D01*
X20538Y33300D01*
X55441Y67600D02*
Y71059D01*
X53500Y73000D02*
X55441Y71059D01*
X51500Y73000D02*
X53500D01*
X46800Y67800D02*
Y71300D01*
X48500Y73000D01*
X42044Y66753D02*
X45753D01*
X46800Y59500D02*
X50300Y56000D01*
X55500D01*
X20538Y27593D02*
Y33300D01*
X20445Y27500D02*
X20538Y27593D01*
D35*
X5800Y79400D02*
X6000Y79600D01*
Y84000D01*
X30000Y94362D02*
X30362Y94000D01*
X34000D01*
X39190Y73544D02*
Y81000D01*
X30000Y89638D02*
X30552D01*
X39190Y81000D01*
X93362Y38000D02*
X97000D01*
X95152Y54984D02*
X97984D01*
X100000Y57000D01*
X79000Y65000D02*
X83954D01*
X75000Y61000D02*
X79000Y65000D01*
X73000Y61000D02*
X75000D01*
X95000Y69000D02*
X97000Y71000D01*
X91000Y69000D02*
X95000D01*
X61000Y49000D02*
X73000Y61000D01*
X83954Y65000D02*
X86047Y62907D01*
X53900Y49000D02*
X61000D01*
X93000Y38362D02*
X93362Y38000D01*
X90000Y41362D02*
X93000Y38362D01*
X89984Y45092D02*
X90000Y45076D01*
Y41362D02*
Y45076D01*
X99000Y61000D02*
X102000D01*
X95152Y60890D02*
X95262Y61000D01*
X99000D01*
X89984Y62907D02*
Y64984D01*
X91000Y66000D01*
Y69000D01*
X46300Y47000D02*
X67000D01*
X50500Y48000D02*
X65000D01*
X79858Y62858D02*
X82848D01*
X65000Y48000D02*
X79858Y62858D01*
X45400Y47900D02*
X46300Y47000D01*
X69750Y6750D02*
X70000Y6500D01*
Y7000D02*
Y32638D01*
X68638Y34000D02*
X70000Y32638D01*
X68638Y34000D02*
X68638Y34000D01*
X64000Y34000D02*
X68638D01*
X99638Y49362D02*
X100000D01*
X97953Y51047D02*
X99638Y49362D01*
X95152Y51047D02*
X97953D01*
X67000Y17000D02*
Y30000D01*
X80000Y17000D02*
Y30000D01*
X50000Y7000D02*
Y15000D01*
X52000Y17000D01*
X56000D01*
X58200Y19200D01*
Y44700D01*
X15600Y12200D02*
X34800D01*
X13300Y14500D02*
X15600Y12200D01*
X13300Y14500D02*
Y45100D01*
X14000Y45800D01*
X34800Y12200D02*
X40000Y7000D01*
X5800Y14600D02*
X7500Y16300D01*
Y18300D01*
X6500Y26000D02*
X9500Y23000D01*
X5000Y26000D02*
X6500D01*
X13500Y76600D02*
X25500D01*
X12900Y77200D02*
X13500Y76600D01*
X10400Y77200D02*
X12900D01*
X25500Y76600D02*
X27379Y74721D01*
X14500Y79200D02*
X15700Y78000D01*
X17200Y65500D02*
X19700D01*
X20953Y66753D01*
X22556D01*
X15800Y70700D02*
X15810Y70690D01*
X22556D01*
X12100Y61862D02*
X14662D01*
X15616Y62816D01*
X22556D01*
X24000Y85900D02*
Y89638D01*
Y85900D02*
X26100Y83800D01*
X33900D01*
X37221Y80479D01*
Y73544D02*
Y80479D01*
X33400Y82700D02*
X35253Y80847D01*
X21100Y82700D02*
X33400D01*
X18000Y85800D02*
X21100Y82700D01*
X18000Y85800D02*
Y89638D01*
X35253Y73544D02*
Y80847D01*
X15700Y78000D02*
X26800D01*
X29347Y75453D01*
X27379Y73544D02*
Y74721D01*
X20800Y48000D02*
X22500D01*
X20400Y48400D02*
X20800Y48000D01*
X22556Y50800D02*
Y56910D01*
X37221Y51279D02*
X42700Y45800D01*
X37221Y51279D02*
Y54056D01*
X35362Y33300D02*
X35500Y33162D01*
X30638Y33300D02*
X30638Y33300D01*
X25262Y33300D02*
X25410Y33448D01*
X30638Y38000D02*
Y38862D01*
X31316Y64784D02*
X32300Y63800D01*
X37100Y73665D02*
X37221Y73544D01*
X39190D02*
X39546Y73900D01*
X31162Y73698D02*
Y80500D01*
Y73698D02*
X31316Y73544D01*
X29347D02*
Y75453D01*
X33284Y73544D02*
Y76816D01*
X33200Y76900D02*
X33284Y76816D01*
X21179Y58879D02*
X22556D01*
X42044D02*
X44021D01*
X42044Y56456D02*
Y56910D01*
X42700Y45800D02*
X57100D01*
X58200Y44700D01*
X42044Y56456D02*
X50500Y48000D01*
X44021Y58879D02*
X53900Y49000D01*
X39190Y54056D02*
X45346Y47900D01*
X45400D01*
X19421Y68721D02*
X22556D01*
X20400Y48400D02*
Y58100D01*
X21179Y58879D01*
X17362Y94362D02*
X18000D01*
X14000Y91000D02*
X17362Y94362D01*
X9827Y91000D02*
X14000D01*
X6000Y94827D02*
X9827Y91000D01*
X20362Y98000D02*
X24000Y94362D01*
X14000Y98000D02*
X20362D01*
X11906Y95906D02*
X14000Y98000D01*
X11906Y94827D02*
Y95906D01*
D36*
X105000Y40000D02*
X110847D01*
X111000Y39847D01*
X111200Y40047D01*
X111000Y55000D02*
X111200Y54800D01*
Y45953D02*
Y54800D01*
X79000Y35000D02*
X80362Y33638D01*
X93000D01*
X79150Y40000D02*
X87000D01*
X73000Y65362D02*
X74488Y66850D01*
X77850D01*
X77362Y45362D02*
Y46276D01*
Y45000D02*
Y45362D01*
X73000Y50638D02*
X77362Y46276D01*
X73362Y34000D02*
X73362Y34000D01*
X78000D01*
X79000Y35000D01*
X79150Y35150D01*
Y40000D01*
X79110Y47110D02*
X82848D01*
X77362Y45362D02*
X79110Y47110D01*
X77362Y41787D02*
Y45000D01*
Y41787D02*
X79150Y40000D01*
X87000D02*
X88015Y41015D01*
Y45092D01*
X60000Y15000D02*
X62000Y17000D01*
X60000Y7000D02*
Y15000D01*
X11250Y67900D02*
X11562Y68213D01*
Y73300D01*
X11906Y84000D02*
X16000D01*
X17000Y83000D01*
X11562Y73544D02*
X25410D01*
X19100Y60847D02*
X22556D01*
D37*
X35500Y29500D02*
Y33162D01*
X33500Y27500D02*
X35500Y29500D01*
X29500Y27500D02*
X33500D01*
X25262Y24434D02*
Y33300D01*
X21445Y20617D02*
X25262Y24434D01*
X30638Y33300D02*
Y38000D01*
X25410Y33448D02*
Y54056D01*
X27379Y42121D02*
X30638Y38862D01*
X27379Y42121D02*
Y54056D01*
D38*
X84250Y84000D02*
D03*
D39*
X70000D02*
D03*
D40*
X65500Y80000D02*
D03*
X50500D02*
D03*
D41*
X50000Y73000D02*
D03*
D42*
X59000Y57000D02*
D03*
D43*
X40700Y66700D02*
D03*
X40500Y60800D02*
D03*
D44*
X29300Y55700D02*
D03*
X35200Y55800D02*
D03*
D45*
X58000Y79901D02*
D03*
D46*
X105000Y15000D02*
D03*
D47*
X111000Y65000D02*
D03*
Y55000D02*
D03*
X5000Y60000D02*
D03*
D48*
X34000Y94000D02*
D03*
X97000Y38000D02*
D03*
X100000Y57000D02*
D03*
X99000Y61000D02*
D03*
X91000Y69000D02*
D03*
X64000Y34000D02*
D03*
X67000Y30000D02*
D03*
X80000Y17000D02*
D03*
Y30000D02*
D03*
X67000Y17000D02*
D03*
X9500Y23000D02*
D03*
X7500Y18300D02*
D03*
X14000Y45800D02*
D03*
X17200Y65500D02*
D03*
X15800Y70700D02*
D03*
X5800Y79400D02*
D03*
X22500Y48000D02*
D03*
X22556Y50800D02*
D03*
X33200Y76900D02*
D03*
X19421Y68721D02*
D03*
X59000Y56000D02*
D03*
X68500Y83000D02*
D03*
X83000D02*
D03*
X85500D02*
D03*
X71500D02*
D03*
X66000Y81500D02*
D03*
Y78500D02*
D03*
X50000Y81500D02*
D03*
Y78500D02*
D03*
X48500Y73000D02*
D03*
X51500D02*
D03*
X55500Y56000D02*
D03*
X62500Y57500D02*
D03*
X2500Y2500D02*
D03*
Y7500D02*
D03*
Y17500D02*
D03*
Y22500D02*
D03*
Y32500D02*
D03*
Y87500D02*
D03*
Y92500D02*
D03*
Y97500D02*
D03*
X7500Y2500D02*
D03*
Y7500D02*
D03*
X17500Y2500D02*
D03*
X22500D02*
D03*
Y7500D02*
D03*
X27500Y2500D02*
D03*
Y7500D02*
D03*
Y97500D02*
D03*
X32500Y2500D02*
D03*
Y97500D02*
D03*
X37500Y87500D02*
D03*
Y97500D02*
D03*
X42500D02*
D03*
X47500Y82500D02*
D03*
Y87500D02*
D03*
Y92500D02*
D03*
Y97500D02*
D03*
X52500Y87500D02*
D03*
Y92500D02*
D03*
Y97500D02*
D03*
X57500D02*
D03*
X62500D02*
D03*
X72500Y77500D02*
D03*
X77500D02*
D03*
Y82500D02*
D03*
X82500Y77500D02*
D03*
X87500Y2500D02*
D03*
Y77500D02*
D03*
X92500Y2500D02*
D03*
Y77500D02*
D03*
Y82500D02*
D03*
X97500Y77500D02*
D03*
Y82500D02*
D03*
X102500Y77500D02*
D03*
Y82500D02*
D03*
X107500Y32500D02*
D03*
Y47500D02*
D03*
Y72500D02*
D03*
Y77500D02*
D03*
Y82500D02*
D03*
X112500Y32500D02*
D03*
Y72500D02*
D03*
Y77500D02*
D03*
Y82500D02*
D03*
X117500Y27500D02*
D03*
Y32500D02*
D03*
Y37500D02*
D03*
Y42500D02*
D03*
Y47500D02*
D03*
Y52500D02*
D03*
Y57500D02*
D03*
Y62500D02*
D03*
Y67500D02*
D03*
Y72500D02*
D03*
Y77500D02*
D03*
Y82500D02*
D03*
X67500Y97500D02*
D03*
X72500D02*
D03*
X77500D02*
D03*
X82500D02*
D03*
D49*
X42000Y85000D02*
D03*
X105000Y40000D02*
D03*
X68000Y44000D02*
D03*
Y40000D02*
D03*
X77850Y66850D02*
D03*
X67000Y47000D02*
D03*
X100000Y40000D02*
D03*
X88000Y67000D02*
D03*
X94000Y66000D02*
D03*
X98000D02*
D03*
X100000Y54000D02*
D03*
X79000Y53000D02*
D03*
Y35000D02*
D03*
X84000Y42000D02*
D03*
X62000Y17000D02*
D03*
X86000Y7000D02*
D03*
X34000D02*
D03*
X14500Y79200D02*
D03*
X10400Y77200D02*
D03*
X22100Y80300D02*
D03*
X4700Y41600D02*
D03*
X2600Y73200D02*
D03*
X7900Y55200D02*
D03*
X19100Y60900D02*
D03*
X37500Y47000D02*
D03*
X55000Y33000D02*
D03*
X51000D02*
D03*
X42500Y24500D02*
D03*
X46800Y67800D02*
D03*
Y59500D02*
D03*
X17000Y83000D02*
D03*
X36600Y24200D02*
D03*
X16500Y33424D02*
D03*
X33681Y40319D02*
D03*
X19000Y73500D02*
D03*
D50*
X27576Y59076D02*
D03*
Y63800D02*
D03*
Y68524D02*
D03*
X32300Y59076D02*
D03*
Y63800D02*
D03*
Y68524D02*
D03*
X37024Y59076D02*
D03*
Y63800D02*
D03*
Y68524D02*
D03*
M02*
