%FSLAX25Y25*%
%MOIN*%
G70*
G01*
G75*
G04 Layer_Color=16711935*
%ADD10C,0.02000*%
%ADD11R,0.05118X0.04134*%
%ADD12R,0.02756X0.03150*%
%ADD13R,0.01000X0.01000*%
%ADD14R,0.01575X0.03347*%
%ADD15R,0.03937X0.04331*%
%ADD16C,0.05000*%
%ADD17R,0.03543X0.03543*%
%ADD18R,0.03937X0.03937*%
%ADD19R,0.11024X0.02756*%
%ADD20R,0.03937X0.07874*%
%ADD21R,0.03150X0.02362*%
%ADD22R,0.02362X0.03150*%
%ADD23R,0.01000X0.01000*%
%ADD24R,0.03150X0.02756*%
%ADD25R,0.01969X0.01969*%
%ADD26R,0.01969X0.03937*%
%ADD27R,0.02658X0.00984*%
%ADD28R,0.00984X0.02658*%
%ADD29R,0.05000X0.12500*%
%ADD30O,0.01181X0.02559*%
%ADD31O,0.02559X0.01181*%
%ADD32R,0.14961X0.14961*%
%ADD33C,0.04000*%
%ADD34C,0.01200*%
%ADD35C,0.00500*%
%ADD36C,0.01000*%
%ADD37C,0.00800*%
%ADD38R,0.04500X0.04000*%
%ADD39R,0.05000X0.04000*%
%ADD40R,0.03000X0.05000*%
%ADD41R,0.06000X0.03000*%
%ADD42R,0.09000X0.04000*%
%ADD43R,0.04000X0.01000*%
%ADD44R,0.01000X0.04000*%
%ADD45R,0.03543X0.02598*%
%ADD46C,0.12000*%
%ADD47C,0.06000*%
%ADD48C,0.01600*%
%ADD49C,0.02000*%
%ADD50C,0.02598*%
%ADD51C,0.10000*%
%ADD52C,0.08000*%
%ADD53C,0.00984*%
%ADD54C,0.00591*%
%ADD55C,0.00787*%
%ADD56R,0.01369X0.01369*%
%ADD57R,0.33000X0.16000*%
%ADD58R,0.03000X0.01000*%
%ADD59R,0.01000X0.03000*%
%ADD60R,0.05918X0.04934*%
%ADD61R,0.03556X0.03950*%
%ADD62R,0.02375X0.04147*%
%ADD63R,0.04737X0.05131*%
%ADD64C,0.10000*%
%ADD65R,0.04343X0.04343*%
%ADD66R,0.04737X0.04737*%
%ADD67R,0.11824X0.03556*%
%ADD68R,0.04737X0.08674*%
%ADD69R,0.03950X0.03162*%
%ADD70R,0.03162X0.03950*%
%ADD71R,0.03950X0.03556*%
%ADD72R,0.02769X0.02769*%
%ADD73R,0.02769X0.04737*%
%ADD74R,0.03248X0.01575*%
%ADD75R,0.01575X0.03248*%
%ADD76R,0.05800X0.13300*%
%ADD77O,0.01981X0.03359*%
%ADD78O,0.03359X0.01981*%
%ADD79R,0.15761X0.15761*%
%ADD80C,0.04800*%
%ADD81C,0.06800*%
%ADD82C,0.02400*%
%ADD83C,0.02800*%
%ADD84C,0.03398*%
D10*
X120000Y0D02*
Y100000D01*
X0D02*
X120000D01*
X0Y0D02*
Y100000D01*
Y0D02*
X120000D01*
D46*
X105000Y15000D02*
D03*
D48*
X59000Y56000D02*
D03*
X68500Y83000D02*
D03*
X83000D02*
D03*
X85500D02*
D03*
X71500D02*
D03*
X66000Y81500D02*
D03*
Y78500D02*
D03*
X50000Y81500D02*
D03*
Y78500D02*
D03*
X48500Y73000D02*
D03*
X51500D02*
D03*
X55500Y56000D02*
D03*
X62500Y57500D02*
D03*
X2500Y2500D02*
D03*
Y7500D02*
D03*
Y17500D02*
D03*
Y22500D02*
D03*
Y32500D02*
D03*
Y87500D02*
D03*
Y92500D02*
D03*
Y97500D02*
D03*
X7500Y2500D02*
D03*
Y7500D02*
D03*
X17500Y2500D02*
D03*
X22500D02*
D03*
Y7500D02*
D03*
X27500Y2500D02*
D03*
Y7500D02*
D03*
Y97500D02*
D03*
X32500Y2500D02*
D03*
Y97500D02*
D03*
X37500Y87500D02*
D03*
Y97500D02*
D03*
X42500D02*
D03*
X47500Y82500D02*
D03*
Y87500D02*
D03*
Y92500D02*
D03*
Y97500D02*
D03*
X52500Y87500D02*
D03*
Y92500D02*
D03*
Y97500D02*
D03*
X57500D02*
D03*
X62500D02*
D03*
X72500Y77500D02*
D03*
X77500D02*
D03*
Y82500D02*
D03*
X82500Y77500D02*
D03*
X87500Y2500D02*
D03*
Y77500D02*
D03*
X92500Y2500D02*
D03*
Y77500D02*
D03*
Y82500D02*
D03*
X97500Y77500D02*
D03*
Y82500D02*
D03*
X102500Y77500D02*
D03*
Y82500D02*
D03*
X107500Y32500D02*
D03*
Y47500D02*
D03*
Y72500D02*
D03*
Y77500D02*
D03*
Y82500D02*
D03*
X112500Y32500D02*
D03*
Y72500D02*
D03*
Y77500D02*
D03*
Y82500D02*
D03*
X117500Y27500D02*
D03*
Y32500D02*
D03*
Y37500D02*
D03*
Y42500D02*
D03*
Y47500D02*
D03*
Y52500D02*
D03*
Y57500D02*
D03*
Y62500D02*
D03*
Y67500D02*
D03*
Y72500D02*
D03*
Y77500D02*
D03*
Y82500D02*
D03*
X67500Y97500D02*
D03*
X72500D02*
D03*
X77500D02*
D03*
X82500D02*
D03*
D57*
X103500Y92000D02*
D03*
D76*
X80000Y7000D02*
D03*
X70000D02*
D03*
X60000D02*
D03*
X50000D02*
D03*
X40000D02*
D03*
D81*
X111000Y65000D02*
D03*
Y55000D02*
D03*
X5000Y60000D02*
D03*
D82*
X34000Y94000D02*
D03*
X97000Y38000D02*
D03*
X100000Y57000D02*
D03*
X99000Y61000D02*
D03*
X91000Y69000D02*
D03*
X64000Y34000D02*
D03*
X67000Y30000D02*
D03*
X80000Y17000D02*
D03*
Y30000D02*
D03*
X67000Y17000D02*
D03*
X9500Y23000D02*
D03*
X7500Y18300D02*
D03*
X14000Y45800D02*
D03*
X17200Y65500D02*
D03*
X15800Y70700D02*
D03*
X5800Y79400D02*
D03*
X22500Y48000D02*
D03*
X22556Y50800D02*
D03*
X33200Y76900D02*
D03*
X19421Y68721D02*
D03*
D83*
X42000Y85000D02*
D03*
X105000Y40000D02*
D03*
X68000Y44000D02*
D03*
Y40000D02*
D03*
X77850Y66850D02*
D03*
X67000Y47000D02*
D03*
X100000Y40000D02*
D03*
X88000Y67000D02*
D03*
X94000Y66000D02*
D03*
X98000D02*
D03*
X100000Y54000D02*
D03*
X79000Y53000D02*
D03*
Y35000D02*
D03*
X84000Y42000D02*
D03*
X62000Y17000D02*
D03*
X86000Y7000D02*
D03*
X34000D02*
D03*
X14500Y79200D02*
D03*
X10400Y77200D02*
D03*
X22100Y80300D02*
D03*
X4700Y41600D02*
D03*
X2600Y73200D02*
D03*
X7900Y55200D02*
D03*
X19100Y60900D02*
D03*
X37500Y47000D02*
D03*
X55000Y33000D02*
D03*
X51000D02*
D03*
X42500Y24500D02*
D03*
X46800Y67800D02*
D03*
Y59500D02*
D03*
X17000Y83000D02*
D03*
X36600Y24200D02*
D03*
X16500Y33424D02*
D03*
X33681Y40319D02*
D03*
X19000Y73500D02*
D03*
D84*
X27576Y59076D02*
D03*
Y63800D02*
D03*
Y68524D02*
D03*
X32300Y59076D02*
D03*
Y63800D02*
D03*
Y68524D02*
D03*
X37024Y59076D02*
D03*
Y63800D02*
D03*
Y68524D02*
D03*
M02*
