%FSLAX25Y25*%
%MOIN*%
G70*
G01*
G75*
G04 Layer_Physical_Order=2*
G04 Layer_Color=36540*
%ADD10C,0.02000*%
%ADD11R,0.05118X0.04134*%
%ADD12R,0.02756X0.03150*%
%ADD13R,0.01000X0.01000*%
%ADD14R,0.01575X0.03347*%
%ADD15R,0.03937X0.04331*%
%ADD16C,0.05000*%
%ADD17R,0.03543X0.03543*%
%ADD18R,0.03937X0.03937*%
%ADD19R,0.11024X0.02756*%
%ADD20R,0.03937X0.07874*%
%ADD21R,0.03150X0.02362*%
%ADD22R,0.02362X0.03150*%
%ADD23R,0.01000X0.01000*%
%ADD24R,0.03150X0.02756*%
%ADD25R,0.01969X0.01969*%
%ADD26R,0.01969X0.03937*%
%ADD27R,0.02658X0.00984*%
%ADD28R,0.00984X0.02658*%
%ADD29R,0.05000X0.12500*%
%ADD30O,0.01181X0.02559*%
%ADD31O,0.02559X0.01181*%
%ADD32R,0.14961X0.14961*%
%ADD33C,0.04000*%
%ADD34C,0.01200*%
%ADD35C,0.00500*%
%ADD36C,0.01000*%
%ADD37C,0.00800*%
%ADD38R,0.04500X0.04000*%
%ADD39R,0.05000X0.04000*%
%ADD40R,0.03000X0.05000*%
%ADD41R,0.06000X0.03000*%
%ADD42R,0.09000X0.04000*%
%ADD43R,0.04000X0.01000*%
%ADD44R,0.01000X0.04000*%
%ADD45R,0.03543X0.02598*%
%ADD46C,0.12000*%
%ADD47C,0.06000*%
%ADD48C,0.01600*%
%ADD49C,0.02000*%
%ADD50C,0.02598*%
G36*
X87000Y100000D02*
Y84000D01*
X120000D01*
X120000Y84000D01*
Y24015D01*
X118000Y23451D01*
X117578Y24139D01*
X115994Y25994D01*
X114139Y27578D01*
X112059Y28853D01*
X109805Y29787D01*
X107432Y30356D01*
X105000Y30548D01*
X102568Y30356D01*
X100195Y29787D01*
X97941Y28853D01*
X95861Y27578D01*
X94006Y25994D01*
X92422Y24139D01*
X91147Y22059D01*
X90213Y19805D01*
X89644Y17432D01*
X89452Y15000D01*
X89644Y12568D01*
X90213Y10195D01*
X91147Y7941D01*
X92422Y5861D01*
X94006Y4006D01*
X95861Y2421D01*
X96549Y2000D01*
X95985Y0D01*
X-0D01*
Y57604D01*
X1801Y58179D01*
X2000Y58160D01*
X2504Y57504D01*
X3235Y56943D01*
X4086Y56590D01*
X4745Y56503D01*
X6159Y55370D01*
X6321Y55216D01*
X6462Y54742D01*
X6487Y54615D01*
X6819Y54119D01*
X7315Y53787D01*
X7900Y53671D01*
X8485Y53787D01*
X8981Y54119D01*
X9313Y54615D01*
X9429Y55200D01*
X9313Y55785D01*
X8981Y56281D01*
X8373Y57567D01*
X8242Y58681D01*
X8410Y59086D01*
X8530Y60000D01*
X8410Y60914D01*
X8057Y61765D01*
X7496Y62496D01*
X6765Y63057D01*
X5914Y63410D01*
X5000Y63530D01*
X4086Y63410D01*
X3235Y63057D01*
X2504Y62496D01*
X2000Y61840D01*
X1801Y61821D01*
X-0Y62396D01*
Y70911D01*
X360Y71197D01*
X2000Y71797D01*
X2015Y71787D01*
X2600Y71671D01*
X3185Y71787D01*
X3681Y72119D01*
X3896Y72440D01*
Y72440D01*
X4013Y72615D01*
Y72615D01*
X4108Y73090D01*
X4129Y73200D01*
X4129Y73200D01*
X4013Y73785D01*
X3849Y74032D01*
D01*
Y74032D01*
X3845Y74036D01*
X3681Y74282D01*
X3681D01*
X3185Y74613D01*
X3185Y74613D01*
X2600Y74729D01*
X2600Y74729D01*
X2096Y74629D01*
X2015Y74613D01*
X2015Y74613D01*
X2000Y74603D01*
X360Y75203D01*
X-0Y75489D01*
Y100000D01*
X0Y100000D01*
X85000D01*
X87000Y100000D01*
D02*
G37*
%LPC*%
G36*
X64000Y35326D02*
X64000D01*
D01*
X64000Y35326D01*
D01*
X63994Y35324D01*
X63867Y35299D01*
X63740Y35274D01*
X63629Y35252D01*
X63506Y35227D01*
X63506D01*
X63506Y35227D01*
X63505Y35227D01*
X63504Y35227D01*
X63504Y35227D01*
X63504Y35227D01*
X63504Y35227D01*
X63504Y35227D01*
X63504Y35227D01*
X63503Y35227D01*
X63503Y35227D01*
X63503Y35227D01*
X63503Y35227D01*
X63503Y35227D01*
X63503Y35227D01*
X63503Y35227D01*
X63498Y35226D01*
X63496Y35225D01*
X63493Y35225D01*
X63493D01*
X63493Y35225D01*
X63493Y35225D01*
X63493Y35224D01*
X63492Y35224D01*
X63492D01*
X63490Y35223D01*
X63468Y35208D01*
X63433Y35184D01*
X63421Y35177D01*
X63361Y35137D01*
X63357Y35134D01*
X63265Y35072D01*
X63208Y35034D01*
X63161Y35003D01*
X63161Y35003D01*
X63159Y35002D01*
X63117Y34974D01*
X63091Y34956D01*
X63067Y34940D01*
X63067Y34940D01*
X63065Y34939D01*
X63064Y34938D01*
X63063Y34937D01*
D01*
X63063Y34937D01*
X63063Y34937D01*
X63063Y34937D01*
X63063Y34937D01*
X63063Y34937D01*
X63063D01*
X63061Y34934D01*
X63046Y34912D01*
X63023Y34877D01*
X63015Y34866D01*
X62975Y34806D01*
X62972Y34802D01*
X62910Y34709D01*
X62873Y34653D01*
X62841Y34606D01*
X62841Y34605D01*
X62840Y34604D01*
X62812Y34562D01*
X62794Y34535D01*
X62778Y34512D01*
X62778Y34512D01*
X62777Y34510D01*
X62776Y34508D01*
X62775Y34507D01*
X62775Y34507D01*
D01*
X62775Y34507D01*
X62775Y34506D01*
X62774Y34502D01*
X62774Y34501D01*
X62774Y34501D01*
Y34501D01*
X62774Y34500D01*
X62774Y34499D01*
X62773Y34497D01*
X62773Y34497D01*
X62773Y34497D01*
X62773Y34496D01*
X62773Y34496D01*
X62773Y34496D01*
X62773Y34496D01*
X62773Y34496D01*
X62773Y34495D01*
X62773Y34495D01*
X62773Y34495D01*
X62773Y34495D01*
X62773Y34494D01*
Y34494D01*
X62772Y34492D01*
X62743Y34343D01*
X62713Y34196D01*
X62712Y34190D01*
X62695Y34105D01*
X62695Y34104D01*
X62676Y34007D01*
X62675Y34003D01*
X62675Y34003D01*
X62675Y34003D01*
X62675Y34003D01*
X62675Y34002D01*
Y34002D01*
X62675Y34002D01*
X62675Y34002D01*
X62675D01*
X62675Y34002D01*
X62675Y34002D01*
X62675Y34001D01*
X62674Y34000D01*
X62674Y34000D01*
D01*
Y34000D01*
Y34000D01*
D01*
X62674Y34000D01*
D01*
X62676Y33994D01*
X62690Y33924D01*
X62700Y33874D01*
X62721Y33768D01*
X62745Y33644D01*
X62773Y33506D01*
Y33506D01*
X62773Y33505D01*
X62773Y33505D01*
X62773Y33505D01*
X62773Y33504D01*
X62773Y33504D01*
X62773Y33504D01*
X62773Y33504D01*
X62773Y33504D01*
X62773Y33503D01*
X62773Y33503D01*
X62773Y33503D01*
X62773Y33503D01*
X62773Y33503D01*
X62773Y33503D01*
X62773Y33503D01*
D01*
X62774Y33501D01*
X62775Y33496D01*
X62775Y33493D01*
X62775D01*
Y33493D01*
X62775Y33493D01*
X62775Y33493D01*
X62776Y33492D01*
X62776Y33492D01*
Y33492D01*
X62777Y33490D01*
X62792Y33468D01*
X62822Y33423D01*
X62863Y33361D01*
X62863Y33361D01*
X62866Y33358D01*
X62887Y33326D01*
X62930Y33261D01*
X62966Y33208D01*
X62997Y33161D01*
X62997Y33161D01*
X63026Y33118D01*
X63026Y33118D01*
X63044Y33091D01*
X63060Y33067D01*
X63060Y33067D01*
D01*
X63061Y33066D01*
X63061Y33065D01*
X63062Y33064D01*
X63063Y33063D01*
D01*
X63063Y33063D01*
X63063Y33063D01*
X63063Y33063D01*
X63063Y33063D01*
X63063Y33062D01*
X63066Y33061D01*
X63088Y33046D01*
X63134Y33015D01*
X63194Y32975D01*
X63198Y32972D01*
X63229Y32952D01*
X63297Y32906D01*
X63395Y32841D01*
X63395Y32841D01*
X63437Y32812D01*
X63438Y32812D01*
X63465Y32794D01*
X63488Y32778D01*
X63488Y32778D01*
X63490Y32777D01*
X63492Y32776D01*
X63493Y32775D01*
X63493Y32775D01*
D01*
X63493D01*
X63493Y32775D01*
X63494Y32775D01*
X63496Y32775D01*
X63499Y32774D01*
X63499D01*
X63500Y32774D01*
X63501Y32774D01*
X63502Y32774D01*
X63503Y32773D01*
X63503Y32773D01*
X63503Y32773D01*
X63503Y32773D01*
X63503Y32773D01*
X63503Y32773D01*
X63503Y32773D01*
X63504Y32773D01*
X63504Y32773D01*
X63504Y32773D01*
X63504Y32773D01*
X63504Y32773D01*
X63504Y32773D01*
X63505Y32773D01*
X63505Y32773D01*
X63506Y32773D01*
X63506Y32773D01*
X63506Y32773D01*
X63508Y32772D01*
X63580Y32758D01*
X63669Y32740D01*
X63700Y32734D01*
X63810Y32712D01*
X63810Y32712D01*
X63894Y32696D01*
X63896Y32695D01*
X63993Y32676D01*
X63997Y32675D01*
X63997Y32675D01*
X63997D01*
X63997Y32675D01*
X63998Y32675D01*
X63998D01*
X63998D01*
X63998Y32675D01*
X63998Y32675D01*
X63998Y32675D01*
X63999Y32675D01*
X63999Y32675D01*
X64000Y32675D01*
X64000Y32675D01*
X64000D01*
D01*
X64000D01*
X64000D01*
D01*
X64000Y32675D01*
D01*
X64000D01*
X64005Y32675D01*
X64123Y32699D01*
X64232Y32721D01*
X64353Y32745D01*
X64410Y32756D01*
X64494Y32773D01*
X64494D01*
X64494Y32773D01*
X64495Y32773D01*
X64496Y32773D01*
X64496Y32773D01*
X64496Y32773D01*
X64496Y32773D01*
X64496Y32773D01*
X64496Y32773D01*
X64497Y32773D01*
X64497Y32773D01*
X64497Y32773D01*
X64502Y32774D01*
X64504Y32775D01*
X64507Y32775D01*
Y32775D01*
X64507D01*
X64507Y32776D01*
X64507Y32776D01*
X64508Y32776D01*
X64508Y32776D01*
X64508D01*
X64510Y32777D01*
X64532Y32792D01*
X64568Y32816D01*
X64579Y32823D01*
X64639Y32863D01*
X64643Y32866D01*
X64674Y32887D01*
X64739Y32930D01*
X64792Y32965D01*
X64839Y32997D01*
X64839Y32997D01*
X64841Y32998D01*
X64883Y33026D01*
X64909Y33044D01*
X64933Y33060D01*
X64933Y33060D01*
X64935Y33061D01*
X64936Y33062D01*
X64937Y33063D01*
D01*
X64937Y33063D01*
X64937Y33063D01*
X64937Y33063D01*
X64938Y33063D01*
X64938Y33063D01*
X64938D01*
X64939Y33066D01*
X64954Y33088D01*
X64985Y33134D01*
X65025Y33194D01*
X65028Y33198D01*
X65090Y33291D01*
X65127Y33347D01*
X65159Y33395D01*
X65159Y33395D01*
X65160Y33396D01*
X65188Y33438D01*
X65206Y33465D01*
X65222Y33488D01*
X65222Y33488D01*
X65223Y33490D01*
X65224Y33492D01*
X65225Y33493D01*
X65225Y33493D01*
D01*
Y33493D01*
X65225Y33493D01*
X65225Y33494D01*
X65226Y33498D01*
X65226Y33499D01*
X65226Y33499D01*
Y33499D01*
Y33499D01*
X65226Y33500D01*
X65226Y33501D01*
X65227Y33503D01*
X65227Y33503D01*
X65227Y33503D01*
X65227Y33504D01*
X65227Y33504D01*
X65227Y33504D01*
X65227Y33504D01*
X65227Y33504D01*
X65227Y33505D01*
X65227Y33505D01*
X65227Y33505D01*
X65227Y33505D01*
X65227Y33505D01*
X65227Y33506D01*
X65227Y33506D01*
X65228Y33508D01*
X65257Y33657D01*
X65286Y33804D01*
X65288Y33810D01*
X65288Y33810D01*
X65304Y33893D01*
X65305Y33895D01*
X65308Y33913D01*
X65324Y33993D01*
X65325Y33997D01*
X65325Y33997D01*
X65325Y33997D01*
X65325Y33998D01*
Y33998D01*
Y33998D01*
X65325Y33998D01*
X65325Y33998D01*
X65325Y33999D01*
X65325Y33999D01*
X65325Y34000D01*
X65325Y34000D01*
D01*
Y34000D01*
Y34000D01*
X65325D01*
Y34000D01*
Y34000D01*
X65324Y34005D01*
X65301Y34124D01*
X65279Y34232D01*
X65278Y34237D01*
X65254Y34361D01*
X65227Y34494D01*
Y34494D01*
Y34494D01*
X65227Y34495D01*
X65227Y34495D01*
X65227Y34495D01*
X65227Y34495D01*
X65227Y34496D01*
X65227Y34496D01*
X65227Y34496D01*
X65227Y34496D01*
X65227Y34496D01*
X65227Y34497D01*
X65227Y34497D01*
X65227Y34497D01*
D01*
X65226Y34499D01*
X65225Y34503D01*
X65225Y34507D01*
X65225D01*
Y34507D01*
X65224Y34507D01*
X65224Y34507D01*
X65224Y34507D01*
X65224Y34508D01*
X65223Y34510D01*
X65208Y34532D01*
X65178Y34577D01*
X65137Y34639D01*
X65137Y34639D01*
X65134Y34643D01*
X65113Y34674D01*
X65068Y34741D01*
X65003Y34839D01*
X65003Y34839D01*
X64974Y34882D01*
X64974Y34882D01*
X64956Y34909D01*
X64940Y34933D01*
X64940Y34933D01*
D01*
X64939Y34934D01*
X64939Y34935D01*
X64938Y34936D01*
X64937Y34937D01*
D01*
X64937Y34937D01*
X64937Y34937D01*
X64937Y34937D01*
X64937Y34937D01*
X64937Y34938D01*
X64934Y34939D01*
X64912Y34954D01*
X64868Y34984D01*
X64806Y35025D01*
X64806Y35025D01*
X64802Y35028D01*
X64771Y35048D01*
X64704Y35094D01*
X64605Y35159D01*
X64605Y35159D01*
X64562Y35188D01*
X64562Y35188D01*
X64535Y35206D01*
X64512Y35222D01*
X64512Y35222D01*
D01*
X64511Y35222D01*
X64510Y35223D01*
X64508Y35224D01*
X64507Y35225D01*
X64507Y35225D01*
D01*
X64507D01*
X64507Y35225D01*
X64506Y35225D01*
X64504Y35225D01*
X64501Y35226D01*
X64501D01*
X64500Y35226D01*
X64499Y35226D01*
X64498Y35226D01*
X64497Y35227D01*
X64497Y35227D01*
X64497Y35227D01*
X64497Y35227D01*
X64497Y35227D01*
X64497Y35227D01*
X64496Y35227D01*
X64496Y35227D01*
X64496Y35227D01*
X64496Y35227D01*
X64496Y35227D01*
X64496Y35227D01*
X64495Y35227D01*
X64495Y35227D01*
X64495Y35227D01*
X64495Y35227D01*
X64494Y35227D01*
X64494Y35227D01*
X64492Y35228D01*
X64423Y35241D01*
X64337Y35258D01*
X64307Y35265D01*
X64202Y35285D01*
X64201Y35285D01*
X64201Y35286D01*
X64107Y35304D01*
X64007Y35324D01*
X64003Y35325D01*
X64003Y35325D01*
X64003Y35325D01*
X64002Y35325D01*
X64002D01*
X64002D01*
X64002Y35325D01*
X64002Y35325D01*
X64002Y35325D01*
X64001Y35325D01*
X64001Y35325D01*
X64001Y35325D01*
X64000Y35326D01*
X64000Y35326D01*
D02*
G37*
G36*
X67000Y31326D02*
X67000D01*
D01*
X67000Y31326D01*
D01*
X66994Y31324D01*
X66867Y31299D01*
X66740Y31274D01*
X66632Y31252D01*
X66581Y31242D01*
X66506Y31227D01*
X66506D01*
X66506Y31227D01*
X66505Y31227D01*
X66505Y31227D01*
X66504Y31227D01*
X66504Y31227D01*
X66504Y31227D01*
X66504Y31227D01*
X66504Y31227D01*
X66504Y31227D01*
X66503Y31227D01*
X66503Y31227D01*
X66503Y31227D01*
X66503Y31227D01*
X66503Y31227D01*
X66503Y31227D01*
X66498Y31226D01*
X66496Y31225D01*
X66493Y31225D01*
X66493D01*
X66493Y31225D01*
X66493Y31225D01*
X66492Y31224D01*
X66492Y31224D01*
X66492D01*
X66490Y31223D01*
X66468Y31208D01*
X66432Y31184D01*
X66421Y31177D01*
X66361Y31137D01*
X66357Y31134D01*
X66264Y31072D01*
X66208Y31034D01*
X66161Y31003D01*
X66161Y31003D01*
X66159Y31002D01*
X66117Y30974D01*
X66091Y30956D01*
X66067Y30940D01*
X66067Y30940D01*
X66065Y30939D01*
X66064Y30938D01*
X66063Y30937D01*
D01*
X66063Y30937D01*
X66063Y30937D01*
X66063Y30937D01*
X66062Y30937D01*
X66062Y30937D01*
X66062D01*
X66061Y30934D01*
X66046Y30912D01*
X66022Y30877D01*
X66015Y30866D01*
X65975Y30806D01*
X65972Y30802D01*
X65910Y30709D01*
X65873Y30653D01*
X65841Y30606D01*
X65841Y30605D01*
X65840Y30604D01*
X65812Y30562D01*
X65794Y30535D01*
X65778Y30512D01*
X65778Y30512D01*
X65777Y30510D01*
X65776Y30508D01*
X65775Y30507D01*
X65775Y30507D01*
D01*
X65775Y30507D01*
X65775Y30506D01*
X65774Y30502D01*
X65774Y30501D01*
X65774Y30501D01*
Y30501D01*
X65774Y30500D01*
X65774Y30499D01*
X65773Y30497D01*
X65773Y30497D01*
X65773Y30496D01*
X65773Y30496D01*
X65773Y30496D01*
X65773Y30496D01*
X65773Y30496D01*
X65773Y30496D01*
X65773Y30496D01*
X65773Y30495D01*
X65773Y30495D01*
X65773Y30494D01*
X65773Y30494D01*
Y30494D01*
X65772Y30492D01*
X65743Y30343D01*
X65714Y30196D01*
X65712Y30191D01*
X65695Y30105D01*
X65695Y30104D01*
X65676Y30007D01*
X65675Y30003D01*
X65675Y30003D01*
X65675Y30003D01*
X65675Y30003D01*
X65675Y30002D01*
Y30002D01*
X65675Y30002D01*
X65675Y30002D01*
X65675D01*
X65675Y30002D01*
X65675Y30002D01*
X65675Y30001D01*
X65675Y30000D01*
X65675Y30000D01*
D01*
Y30000D01*
Y30000D01*
D01*
X65675Y30000D01*
D01*
X65676Y29994D01*
X65690Y29924D01*
X65699Y29875D01*
X65721Y29768D01*
X65722Y29763D01*
X65746Y29639D01*
X65773Y29506D01*
Y29506D01*
X65773Y29506D01*
X65773Y29505D01*
X65773Y29504D01*
X65773Y29504D01*
X65773Y29504D01*
X65773Y29504D01*
X65773Y29504D01*
X65773Y29504D01*
X65773Y29504D01*
X65773Y29503D01*
X65773Y29503D01*
X65773Y29503D01*
X65773Y29503D01*
X65773Y29503D01*
X65773Y29503D01*
D01*
X65774Y29501D01*
X65775Y29496D01*
X65775Y29493D01*
X65775D01*
Y29493D01*
X65776Y29493D01*
X65776Y29493D01*
X65776Y29493D01*
X65776Y29492D01*
X65777Y29490D01*
X65792Y29468D01*
X65822Y29423D01*
X65863Y29361D01*
X65863Y29361D01*
X65866Y29357D01*
X65887Y29326D01*
X65932Y29259D01*
X65997Y29161D01*
X65997Y29161D01*
X66026Y29118D01*
X66026Y29118D01*
X66044Y29091D01*
X66060Y29067D01*
X66060Y29067D01*
D01*
X66061Y29066D01*
X66061Y29065D01*
X66062Y29064D01*
X66063Y29063D01*
D01*
X66063Y29063D01*
X66063Y29063D01*
X66063Y29063D01*
X66063Y29063D01*
X66063Y29063D01*
X66066Y29061D01*
X66088Y29046D01*
X66132Y29016D01*
X66194Y28975D01*
X66194Y28975D01*
X66198Y28972D01*
X66229Y28951D01*
X66297Y28907D01*
X66395Y28841D01*
X66395Y28841D01*
X66438Y28812D01*
X66438Y28812D01*
X66465Y28794D01*
X66488Y28778D01*
X66488Y28778D01*
X66490Y28777D01*
X66492Y28776D01*
X66493Y28775D01*
X66493Y28775D01*
D01*
X66493D01*
X66493Y28775D01*
X66494Y28775D01*
X66496Y28775D01*
X66499Y28774D01*
X66499D01*
X66500Y28774D01*
X66501Y28774D01*
X66502Y28774D01*
X66503Y28773D01*
X66503Y28773D01*
X66504Y28773D01*
X66504Y28773D01*
X66504Y28773D01*
X66504Y28773D01*
X66504Y28773D01*
X66504Y28773D01*
X66504Y28773D01*
X66505Y28773D01*
X66505Y28773D01*
X66506Y28773D01*
X66506Y28773D01*
X66506Y28773D01*
X66508Y28772D01*
X66580Y28758D01*
X66669Y28740D01*
X66700Y28734D01*
X66810Y28712D01*
X66810Y28712D01*
X66894Y28696D01*
X66896Y28695D01*
X66993Y28676D01*
X66997Y28675D01*
X66997Y28675D01*
X66997D01*
X66997Y28675D01*
X66998Y28675D01*
X66998D01*
X66998D01*
X66998Y28675D01*
X66998Y28675D01*
X66998Y28675D01*
X66999Y28675D01*
X66999Y28675D01*
X67000Y28675D01*
X67000Y28675D01*
D01*
X67000D01*
X67000D01*
D01*
X67000Y28675D01*
D01*
X67000D01*
X67005Y28675D01*
X67123Y28699D01*
X67232Y28721D01*
X67353Y28745D01*
X67410Y28756D01*
X67494Y28773D01*
X67494D01*
X67494Y28773D01*
X67495Y28773D01*
X67496Y28773D01*
X67496Y28773D01*
X67496Y28773D01*
X67496Y28773D01*
X67496Y28773D01*
X67496Y28773D01*
X67497Y28773D01*
X67497Y28773D01*
X67497Y28773D01*
X67502Y28774D01*
X67504Y28775D01*
X67507Y28775D01*
Y28775D01*
X67507D01*
X67507Y28776D01*
X67507Y28776D01*
X67507Y28776D01*
X67508Y28776D01*
X67508D01*
X67510Y28777D01*
X67532Y28792D01*
X67567Y28816D01*
X67579Y28823D01*
X67639Y28863D01*
X67642Y28866D01*
X67735Y28928D01*
X67792Y28965D01*
X67839Y28997D01*
X67839Y28997D01*
X67841Y28998D01*
X67883Y29026D01*
X67909Y29044D01*
X67933Y29060D01*
X67933Y29060D01*
X67935Y29061D01*
X67936Y29062D01*
X67937Y29063D01*
D01*
X67937Y29063D01*
X67937Y29063D01*
X67937Y29063D01*
X67937Y29063D01*
X67937Y29063D01*
X67937D01*
X67939Y29066D01*
X67954Y29088D01*
X67977Y29123D01*
X67985Y29134D01*
X68025Y29194D01*
X68028Y29198D01*
X68090Y29291D01*
X68127Y29347D01*
X68159Y29395D01*
X68159Y29395D01*
X68160Y29396D01*
X68188Y29438D01*
X68206Y29465D01*
X68222Y29488D01*
X68222Y29488D01*
X68222D01*
X68222Y29489D01*
X68223Y29490D01*
X68224Y29492D01*
X68225Y29493D01*
X68225Y29493D01*
D01*
Y29493D01*
X68225Y29493D01*
X68225Y29494D01*
X68226Y29498D01*
X68226Y29499D01*
X68226Y29499D01*
Y29499D01*
Y29499D01*
X68226Y29500D01*
X68226Y29501D01*
X68227Y29503D01*
X68227Y29503D01*
X68227Y29504D01*
X68227Y29504D01*
X68227Y29504D01*
X68227Y29504D01*
X68227Y29504D01*
X68227Y29504D01*
X68227Y29504D01*
X68227Y29505D01*
X68227Y29505D01*
X68227Y29505D01*
X68227Y29506D01*
X68227Y29506D01*
X68227Y29506D01*
X68228Y29508D01*
X68257Y29657D01*
X68287Y29804D01*
X68288Y29810D01*
X68288Y29810D01*
X68304Y29893D01*
X68305Y29895D01*
X68308Y29913D01*
X68324Y29993D01*
X68325Y29997D01*
X68325Y29997D01*
X68325Y29997D01*
X68325Y29998D01*
Y29998D01*
Y29998D01*
X68325Y29998D01*
X68325Y29998D01*
X68325Y29999D01*
X68325Y29999D01*
X68326Y30000D01*
X68326Y30000D01*
Y30000D01*
D01*
Y30000D01*
Y30000D01*
X68326D01*
Y30000D01*
Y30000D01*
X68325Y30005D01*
X68301Y30123D01*
X68279Y30232D01*
X68278Y30237D01*
X68254Y30361D01*
X68227Y30494D01*
Y30494D01*
Y30494D01*
X68227Y30494D01*
X68227Y30495D01*
X68227Y30495D01*
X68227Y30496D01*
X68227Y30496D01*
X68227Y30496D01*
X68227Y30496D01*
X68227Y30496D01*
X68227Y30496D01*
X68227Y30497D01*
X68227Y30497D01*
X68227Y30497D01*
D01*
X68226Y30499D01*
X68225Y30503D01*
X68225Y30507D01*
X68225D01*
Y30507D01*
X68225Y30507D01*
X68225Y30507D01*
X68225Y30507D01*
X68224Y30508D01*
X68223Y30510D01*
X68208Y30532D01*
X68178Y30577D01*
X68137Y30639D01*
X68137Y30639D01*
X68134Y30643D01*
X68113Y30674D01*
X68068Y30741D01*
X68003Y30839D01*
X68003Y30839D01*
X67974Y30882D01*
X67974Y30882D01*
X67956Y30909D01*
X67940Y30933D01*
X67940Y30933D01*
D01*
X67939Y30934D01*
X67939Y30935D01*
X67938Y30936D01*
X67937Y30937D01*
D01*
X67937Y30937D01*
X67937Y30937D01*
X67937Y30937D01*
X67937Y30937D01*
X67937Y30937D01*
X67934Y30939D01*
X67912Y30954D01*
X67868Y30984D01*
X67806Y31025D01*
X67806Y31025D01*
X67802Y31028D01*
X67771Y31049D01*
X67703Y31093D01*
X67606Y31159D01*
X67605Y31159D01*
X67563Y31188D01*
X67562Y31188D01*
X67535Y31206D01*
X67512Y31222D01*
X67512Y31222D01*
D01*
X67511Y31222D01*
X67510Y31223D01*
X67508Y31224D01*
X67507Y31225D01*
X67507Y31225D01*
D01*
X67507D01*
X67507Y31225D01*
X67506Y31225D01*
X67504Y31225D01*
X67501Y31226D01*
X67501D01*
X67500Y31226D01*
X67499Y31226D01*
X67498Y31226D01*
X67497Y31227D01*
X67497Y31227D01*
X67497Y31227D01*
X67497Y31227D01*
X67497Y31227D01*
X67497Y31227D01*
X67497Y31227D01*
X67496Y31227D01*
X67496Y31227D01*
X67496Y31227D01*
X67496Y31227D01*
X67496Y31227D01*
X67496Y31227D01*
X67495Y31227D01*
X67495Y31227D01*
X67495Y31227D01*
X67494Y31227D01*
X67494Y31227D01*
X67492Y31228D01*
X67423Y31241D01*
X67337Y31258D01*
X67307Y31264D01*
X67202Y31285D01*
X67201Y31285D01*
X67200Y31286D01*
X67107Y31304D01*
X67007Y31324D01*
X67003Y31325D01*
X67003Y31325D01*
X67003Y31325D01*
X67002Y31325D01*
X67002D01*
X67002D01*
X67002Y31325D01*
X67002Y31325D01*
X67002Y31325D01*
X67001Y31325D01*
X67001Y31325D01*
X67001Y31325D01*
X67000Y31326D01*
X67000Y31326D01*
D02*
G37*
G36*
X79000Y36529D02*
X78415Y36413D01*
X77919Y36081D01*
X77587Y35585D01*
X77471Y35000D01*
X77587Y34415D01*
X77919Y33919D01*
X78415Y33587D01*
X79000Y33471D01*
X79585Y33587D01*
X80081Y33919D01*
X80413Y34415D01*
X80529Y35000D01*
X80413Y35585D01*
X80081Y36081D01*
X79585Y36413D01*
X79000Y36529D01*
D02*
G37*
G36*
X105000Y41529D02*
X104415Y41413D01*
X103919Y41081D01*
X103587Y40585D01*
X103471Y40000D01*
X103587Y39415D01*
X103919Y38919D01*
X104415Y38587D01*
X105000Y38471D01*
X105585Y38587D01*
X106081Y38919D01*
X106413Y39415D01*
X106529Y40000D01*
X106413Y40585D01*
X106081Y41081D01*
X105585Y41413D01*
X105000Y41529D01*
D02*
G37*
G36*
X84000Y43529D02*
X83415Y43413D01*
X82919Y43081D01*
X82587Y42585D01*
X82471Y42000D01*
X82587Y41415D01*
X82919Y40919D01*
X83415Y40587D01*
X84000Y40471D01*
X84585Y40587D01*
X85081Y40919D01*
X85413Y41415D01*
X85529Y42000D01*
X85413Y42585D01*
X85081Y43081D01*
X84585Y43413D01*
X84000Y43529D01*
D02*
G37*
G36*
X14000Y47126D02*
X14000D01*
X14000Y47126D01*
X14000D01*
X13740Y47074D01*
X13740D01*
X13740Y47074D01*
X13506Y47027D01*
X13506D01*
X13506D01*
Y47027D01*
X13504Y47027D01*
Y47027D01*
X13504Y47027D01*
X13504Y47027D01*
X13504D01*
X13503Y47027D01*
X13503Y47027D01*
Y47027D01*
X13503Y47027D01*
X13503Y47027D01*
D01*
X13501Y47026D01*
X13496Y47025D01*
X13493Y47025D01*
X13493D01*
X13493Y47025D01*
X13493Y47025D01*
X13492Y47024D01*
X13492Y47024D01*
X13492D01*
X13490Y47023D01*
X13468Y47008D01*
X13432Y46984D01*
X13421Y46977D01*
X13405Y46966D01*
X13361Y46937D01*
X13357Y46934D01*
X13264Y46872D01*
X13165Y46806D01*
X13161Y46803D01*
X13159Y46802D01*
X13117Y46773D01*
X13116Y46773D01*
X13069Y46742D01*
X13067Y46740D01*
X13065Y46739D01*
X13065Y46738D01*
X13063Y46737D01*
X13063Y46737D01*
D01*
X13063Y46737D01*
X13063Y46737D01*
X13063Y46737D01*
X13062Y46737D01*
X13062Y46737D01*
X13062D01*
X13061Y46734D01*
X13046Y46712D01*
X13023Y46677D01*
X12975Y46606D01*
X12975Y46606D01*
X12972Y46602D01*
X12841Y46405D01*
X12841Y46405D01*
X12840Y46404D01*
X12778Y46312D01*
X12778D01*
X12775Y46307D01*
X12775D01*
X12775Y46307D01*
X12775Y46306D01*
X12774Y46302D01*
X12774Y46301D01*
X12774Y46301D01*
Y46301D01*
X12774Y46300D01*
X12774Y46297D01*
X12773Y46297D01*
X12773D01*
X12773Y46297D01*
X12773Y46297D01*
X12773D01*
X12773Y46296D01*
X12773Y46296D01*
X12773Y46295D01*
X12773Y46295D01*
X12773Y46294D01*
Y46294D01*
X12772Y46292D01*
X12712Y45990D01*
X12712D01*
X12695Y45905D01*
X12675Y45803D01*
X12675Y45803D01*
X12675Y45802D01*
X12675Y45800D01*
X12675Y45800D01*
Y45800D01*
D01*
Y45800D01*
X12675Y45800D01*
D01*
X12676Y45794D01*
X12690Y45724D01*
X12721Y45568D01*
Y45568D01*
X12773Y45306D01*
X12773Y45306D01*
X12773Y45305D01*
X12773Y45305D01*
Y45305D01*
X12773Y45304D01*
X12773Y45304D01*
Y45304D01*
X12773Y45304D01*
X12773Y45303D01*
X12773Y45303D01*
X12773Y45303D01*
X12773Y45303D01*
X12775Y45293D01*
Y45293D01*
X12776Y45293D01*
X12776Y45292D01*
X12777Y45290D01*
X12778Y45289D01*
X12779Y45288D01*
D01*
X12779Y45287D01*
X12779Y45287D01*
X12780Y45286D01*
X12781Y45285D01*
X12781Y45284D01*
X12781D01*
X12782Y45283D01*
X12783Y45282D01*
X12783Y45282D01*
D01*
Y45282D01*
X12786Y45277D01*
X12810Y45240D01*
X12932Y45059D01*
Y45059D01*
X13062Y44863D01*
Y44863D01*
X13062Y44863D01*
X13063Y44863D01*
Y44863D01*
X13071Y44855D01*
D01*
X13306Y44625D01*
X13581Y44280D01*
X14058Y43327D01*
X14361Y42526D01*
X14459Y41908D01*
X14459Y40679D01*
Y16000D01*
X14617Y15617D01*
X15000Y15459D01*
X40000D01*
X40383Y15617D01*
X40541Y16000D01*
Y21599D01*
X40925Y22016D01*
X42500Y22971D01*
X42500D01*
X42541Y22979D01*
X43085Y23087D01*
X43581Y23419D01*
X43913Y23915D01*
X44029Y24500D01*
X43913Y25085D01*
X43581Y25581D01*
X43085Y25913D01*
X42541Y26021D01*
X42500Y26029D01*
X42500D01*
X40925Y26984D01*
X40541Y27401D01*
Y43500D01*
X40383Y43883D01*
X40000Y44041D01*
X16794D01*
X16355Y44391D01*
X16301Y44465D01*
X16027Y44887D01*
X15686Y45486D01*
X15229Y46297D01*
X15229D01*
X15225Y46304D01*
X15225Y46304D01*
X15225Y46306D01*
X15225Y46307D01*
X15225Y46307D01*
X15224Y46308D01*
X15224Y46308D01*
X15137Y46439D01*
X15137Y46439D01*
D01*
X15003Y46639D01*
X15003Y46639D01*
X15003D01*
X14998Y46647D01*
X14974Y46682D01*
X14956Y46709D01*
X14940Y46733D01*
X14940Y46733D01*
D01*
X14939Y46734D01*
X14939Y46735D01*
X14938Y46736D01*
X14937Y46737D01*
D01*
X14937Y46737D01*
X14937D01*
X14937Y46738D01*
X14937D01*
X14806Y46825D01*
X14806Y46825D01*
X14806D01*
X14605Y46959D01*
X14605Y46959D01*
X14605D01*
X14562Y46988D01*
X14535Y47006D01*
X14512Y47022D01*
X14512Y47022D01*
D01*
X14511Y47022D01*
X14510Y47023D01*
X14508Y47024D01*
X14507Y47025D01*
X14507Y47025D01*
X14507Y47025D01*
X14501Y47026D01*
X14501Y47026D01*
X14498Y47026D01*
X14497Y47027D01*
X14497Y47027D01*
X14497Y47027D01*
X14497Y47027D01*
X14497Y47027D01*
X14496Y47027D01*
X14496Y47027D01*
D01*
X14496Y47027D01*
X14495Y47027D01*
D01*
X14495Y47027D01*
X14494Y47027D01*
X14494Y47027D01*
X14307Y47064D01*
X14202Y47085D01*
Y47085D01*
X14007Y47124D01*
X14003Y47125D01*
X14003Y47125D01*
X14003Y47125D01*
X14003Y47125D01*
X14002Y47125D01*
X14002D01*
D01*
X14002D01*
X14002Y47125D01*
X14002Y47125D01*
X14002Y47125D01*
X14002Y47125D01*
X14001Y47125D01*
X14000Y47126D01*
X14000Y47126D01*
D02*
G37*
G36*
X100000Y41529D02*
X99415Y41413D01*
X98919Y41081D01*
X98736Y40809D01*
X98652Y40682D01*
X98557Y40561D01*
X98102Y40201D01*
X97355Y39745D01*
X96502Y39229D01*
X96495Y39225D01*
X96495Y39225D01*
X96493Y39225D01*
X96493Y39225D01*
X96493Y39225D01*
X96492Y39224D01*
X96361Y39137D01*
Y39137D01*
X96208Y39035D01*
X96161Y39003D01*
X96161Y39003D01*
X96161D01*
X96125Y38979D01*
X96091Y38956D01*
X96067Y38940D01*
X96067Y38940D01*
D01*
X96066Y38939D01*
X96065Y38939D01*
X96064Y38938D01*
X96063Y38937D01*
D01*
X96063Y38937D01*
Y38937D01*
X96062Y38937D01*
D01*
X95975Y38806D01*
Y38806D01*
X95873Y38653D01*
X95841Y38605D01*
X95841Y38605D01*
Y38605D01*
X95794Y38535D01*
X95778Y38512D01*
X95778Y38512D01*
X95778D01*
X95778Y38511D01*
X95777Y38510D01*
X95776Y38508D01*
X95775Y38507D01*
X95775Y38507D01*
X95775Y38507D01*
X95774Y38501D01*
X95773Y38497D01*
Y38497D01*
X95773Y38496D01*
X95773Y38496D01*
Y38496D01*
X95773Y38496D01*
X95773Y38495D01*
D01*
X95773Y38495D01*
X95773Y38494D01*
X95773Y38494D01*
X95714Y38196D01*
X95712Y38190D01*
X95712Y38190D01*
X95676Y38007D01*
X95675Y38003D01*
Y38003D01*
X95675Y38003D01*
X95675Y38003D01*
X95675Y38002D01*
Y38002D01*
D01*
X95675Y38002D01*
X95675Y38002D01*
X95675D01*
X95675Y38002D01*
X95675Y38002D01*
X95675Y38001D01*
X95675Y38000D01*
X95675Y38000D01*
Y38000D01*
D01*
Y38000D01*
X95675D01*
Y38000D01*
X95721Y37768D01*
X95721D01*
X95773Y37506D01*
Y37506D01*
X95773Y37505D01*
X95773Y37505D01*
X95773Y37505D01*
X95773Y37504D01*
X95773Y37504D01*
X95773Y37504D01*
X95773Y37503D01*
X95773Y37503D01*
X95773Y37503D01*
X95773D01*
X95773Y37503D01*
X95773Y37503D01*
D01*
X95774Y37501D01*
X95775Y37496D01*
X95775Y37493D01*
X95775D01*
Y37493D01*
X95776Y37493D01*
X95776Y37493D01*
X95776Y37493D01*
X95776Y37492D01*
X95777Y37490D01*
X95792Y37468D01*
X95822Y37423D01*
X95863Y37361D01*
X95863Y37361D01*
X95866Y37358D01*
X95887Y37326D01*
X95932Y37259D01*
X95997Y37161D01*
X95997Y37161D01*
X96026Y37118D01*
X96044Y37091D01*
X96060Y37067D01*
X96060Y37067D01*
D01*
X96060Y37066D01*
X96061Y37065D01*
X96062Y37064D01*
X96063Y37063D01*
D01*
X96063Y37063D01*
X96063Y37063D01*
X96063Y37063D01*
X96063Y37063D01*
X96063Y37062D01*
X96066Y37061D01*
X96088Y37046D01*
X96134Y37015D01*
X96194Y36975D01*
X96198Y36972D01*
X96229Y36952D01*
X96299Y36905D01*
X96395Y36841D01*
X96440Y36811D01*
X96488Y36778D01*
D01*
X96493Y36775D01*
D01*
X96493D01*
X96493Y36775D01*
X96494Y36775D01*
X96498Y36774D01*
X96499Y36774D01*
X96499Y36774D01*
X96499D01*
X96499D01*
X96500Y36774D01*
X96503Y36773D01*
X96503Y36773D01*
X96503D01*
X96503Y36773D01*
X96504Y36773D01*
X96504D01*
X96504Y36773D01*
X96504Y36773D01*
D01*
X96505Y36773D01*
X96506Y36773D01*
Y36773D01*
X96506D01*
X96506Y36773D01*
X96508Y36772D01*
X96580Y36758D01*
X96810Y36712D01*
D01*
X96810Y36712D01*
X96894Y36696D01*
X96997Y36675D01*
D01*
X96997Y36675D01*
X96997D01*
Y36675D01*
X96997D01*
X96998Y36675D01*
X96998Y36675D01*
D01*
X96998Y36675D01*
X97000Y36674D01*
X97000Y36674D01*
X97000D01*
D01*
X97000D01*
X97000Y36674D01*
X97005Y36676D01*
X97232Y36721D01*
X97232Y36721D01*
X97494Y36773D01*
X97494Y36773D01*
X97494Y36773D01*
X97496Y36773D01*
X97496D01*
X97496Y36773D01*
X97496Y36773D01*
X97496D01*
X97496Y36773D01*
X97497Y36773D01*
X97497D01*
X97507Y36775D01*
X97507D01*
X97507D01*
X97507Y36775D01*
X97507Y36775D01*
X97508Y36776D01*
X97508Y36776D01*
X97508D01*
X97510Y36777D01*
X97532Y36792D01*
X97567Y36816D01*
X97639Y36863D01*
X97639D01*
X97642Y36866D01*
X97839Y36997D01*
X97839D01*
X97933Y37060D01*
X97933D01*
X97937Y37063D01*
D01*
X97937Y37063D01*
D01*
X97937Y37063D01*
X97938Y37063D01*
X97938Y37064D01*
X97939Y37065D01*
X97939Y37065D01*
X97945Y37070D01*
X97945D01*
X98472Y37479D01*
X99461Y38240D01*
X99883Y38420D01*
X100261Y38522D01*
X100585Y38587D01*
X101081Y38919D01*
X101413Y39415D01*
X101529Y40000D01*
X101413Y40585D01*
X101081Y41081D01*
X100585Y41413D01*
X100000Y41529D01*
D02*
G37*
G36*
X4700Y43129D02*
X4115Y43013D01*
X3619Y42681D01*
X3287Y42185D01*
X3171Y41600D01*
X3287Y41015D01*
X3619Y40519D01*
X4115Y40187D01*
X4700Y40071D01*
X5285Y40187D01*
X5781Y40519D01*
X6113Y41015D01*
X6229Y41600D01*
X6113Y42185D01*
X5781Y42681D01*
X5285Y43013D01*
X4700Y43129D01*
D02*
G37*
G36*
X62000Y18529D02*
X61415Y18413D01*
X60919Y18081D01*
X60587Y17585D01*
X60471Y17000D01*
X60587Y16415D01*
X60919Y15919D01*
X61415Y15587D01*
X62000Y15471D01*
X62585Y15587D01*
X63081Y15919D01*
X63413Y16415D01*
X63529Y17000D01*
X63413Y17585D01*
X63081Y18081D01*
X62585Y18413D01*
X62000Y18529D01*
D02*
G37*
G36*
X80000Y18326D02*
X80000D01*
D01*
X80000Y18326D01*
D01*
X79994Y18324D01*
X79867Y18299D01*
X79740Y18274D01*
X79632Y18252D01*
X79581Y18242D01*
X79506Y18227D01*
X79506D01*
X79506Y18227D01*
X79505Y18227D01*
X79505Y18227D01*
X79504Y18227D01*
X79504Y18227D01*
X79504Y18227D01*
X79504Y18227D01*
X79504Y18227D01*
X79504Y18227D01*
X79503Y18227D01*
X79503Y18227D01*
X79503Y18227D01*
X79503Y18227D01*
X79503Y18227D01*
X79503Y18227D01*
X79498Y18226D01*
X79496Y18225D01*
X79493Y18225D01*
X79493D01*
X79493Y18225D01*
X79493Y18225D01*
X79492Y18224D01*
X79492Y18224D01*
X79492D01*
X79490Y18223D01*
X79468Y18208D01*
X79432Y18184D01*
X79421Y18177D01*
X79361Y18137D01*
X79357Y18134D01*
X79264Y18072D01*
X79208Y18034D01*
X79161Y18003D01*
X79161Y18003D01*
X79159Y18002D01*
X79117Y17974D01*
X79091Y17956D01*
X79067Y17940D01*
X79067Y17940D01*
X79065Y17939D01*
X79064Y17938D01*
X79063Y17937D01*
D01*
X79063Y17937D01*
X79063Y17937D01*
X79063Y17937D01*
X79062Y17937D01*
X79062Y17937D01*
X79062D01*
X79061Y17934D01*
X79046Y17912D01*
X79023Y17877D01*
X79015Y17866D01*
X78975Y17806D01*
X78972Y17802D01*
X78910Y17709D01*
X78873Y17653D01*
X78841Y17605D01*
X78841Y17605D01*
X78840Y17604D01*
X78812Y17562D01*
X78794Y17535D01*
X78778Y17512D01*
X78778Y17512D01*
X78777Y17510D01*
X78776Y17508D01*
X78775Y17507D01*
X78775Y17507D01*
D01*
X78775Y17507D01*
X78775Y17506D01*
X78774Y17502D01*
X78774Y17501D01*
X78774Y17501D01*
Y17501D01*
X78774Y17500D01*
X78774Y17499D01*
X78773Y17497D01*
X78773Y17497D01*
X78773Y17496D01*
X78773Y17496D01*
X78773Y17496D01*
X78773Y17496D01*
X78773Y17496D01*
X78773Y17496D01*
X78773Y17496D01*
X78773Y17495D01*
X78773Y17495D01*
X78773Y17494D01*
X78773Y17494D01*
Y17494D01*
X78772Y17492D01*
X78743Y17343D01*
X78714Y17196D01*
X78712Y17190D01*
X78695Y17105D01*
X78695Y17104D01*
X78676Y17007D01*
X78675Y17003D01*
X78675Y17003D01*
X78675Y17003D01*
X78675Y17003D01*
X78675Y17002D01*
Y17002D01*
X78675Y17002D01*
X78675Y17002D01*
X78675D01*
X78675Y17002D01*
X78675Y17002D01*
X78675Y17001D01*
X78675Y17000D01*
X78675Y17000D01*
D01*
Y17000D01*
Y17000D01*
D01*
X78675Y17000D01*
D01*
X78676Y16994D01*
X78690Y16924D01*
X78699Y16874D01*
X78721Y16768D01*
X78722Y16763D01*
X78746Y16639D01*
X78773Y16506D01*
Y16506D01*
X78773Y16506D01*
X78773Y16505D01*
X78773Y16504D01*
X78773Y16504D01*
X78773Y16504D01*
X78773Y16504D01*
X78773Y16504D01*
X78773Y16504D01*
X78773Y16503D01*
X78773Y16503D01*
X78773Y16503D01*
X78773Y16503D01*
X78773Y16503D01*
X78773Y16503D01*
X78773Y16503D01*
D01*
X78774Y16501D01*
X78775Y16496D01*
X78775Y16493D01*
X78775D01*
Y16493D01*
X78776Y16493D01*
X78776Y16493D01*
X78776Y16493D01*
X78776Y16492D01*
X78777Y16490D01*
X78792Y16468D01*
X78823Y16422D01*
X78863Y16361D01*
X78866Y16357D01*
X78887Y16326D01*
X78930Y16262D01*
X78966Y16208D01*
X78997Y16161D01*
X78997Y16161D01*
X79026Y16118D01*
X79026Y16118D01*
X79044Y16091D01*
X79060Y16067D01*
X79060Y16067D01*
D01*
X79061Y16066D01*
X79061Y16065D01*
X79062Y16064D01*
X79063Y16063D01*
D01*
X79063Y16063D01*
X79063Y16063D01*
X79063Y16063D01*
X79063Y16062D01*
X79063Y16062D01*
Y16062D01*
X79066Y16061D01*
X79088Y16046D01*
X79132Y16016D01*
X79194Y15975D01*
X79194Y15975D01*
X79198Y15972D01*
X79229Y15951D01*
X79294Y15908D01*
X79347Y15873D01*
X79395Y15841D01*
X79395Y15841D01*
X79438Y15812D01*
X79465Y15794D01*
X79488Y15778D01*
X79488Y15778D01*
X79490Y15777D01*
X79492Y15776D01*
X79493Y15775D01*
X79493Y15775D01*
D01*
X79493D01*
X79493Y15775D01*
X79494Y15775D01*
X79496Y15775D01*
X79499Y15774D01*
X79499D01*
X79500Y15774D01*
X79501Y15774D01*
X79503Y15773D01*
X79503Y15773D01*
X79503Y15773D01*
X79503Y15773D01*
X79503Y15773D01*
X79503Y15773D01*
X79504Y15773D01*
X79504Y15773D01*
X79504Y15773D01*
X79504Y15773D01*
X79504Y15773D01*
X79504Y15773D01*
X79504Y15773D01*
X79505Y15773D01*
X79505Y15773D01*
X79506Y15773D01*
X79506Y15773D01*
X79506Y15773D01*
X79508Y15772D01*
X79580Y15758D01*
X79669Y15740D01*
X79700Y15734D01*
X79810Y15712D01*
X79810Y15712D01*
X79893Y15696D01*
X79896Y15695D01*
X79993Y15676D01*
X79997Y15675D01*
X79997Y15675D01*
X79997D01*
X79997Y15675D01*
X79998Y15675D01*
X79998D01*
X79998D01*
X79998Y15675D01*
X79998Y15675D01*
X79998Y15675D01*
X79999Y15675D01*
X79999Y15675D01*
X80000Y15675D01*
X80000Y15675D01*
X80000D01*
X80000D01*
D01*
X80000D01*
Y15675D01*
X80000D01*
X80005Y15676D01*
X80123Y15699D01*
X80232Y15721D01*
X80353Y15745D01*
X80410Y15756D01*
X80494Y15773D01*
X80494D01*
X80494Y15773D01*
X80495Y15773D01*
X80496Y15773D01*
X80496Y15773D01*
X80496Y15773D01*
X80496Y15773D01*
X80496Y15773D01*
X80496Y15773D01*
X80497Y15773D01*
X80497Y15773D01*
X80497Y15773D01*
X80502Y15774D01*
X80504Y15775D01*
X80507Y15775D01*
Y15775D01*
X80507D01*
X80507Y15776D01*
X80507Y15776D01*
X80507Y15776D01*
X80508Y15776D01*
X80508D01*
X80510Y15777D01*
X80532Y15792D01*
X80578Y15823D01*
X80639Y15863D01*
X80642Y15866D01*
X80674Y15887D01*
X80739Y15930D01*
X80792Y15966D01*
X80839Y15997D01*
X80839Y15997D01*
X80841Y15998D01*
X80883Y16026D01*
X80909Y16044D01*
X80933Y16060D01*
X80933Y16060D01*
D01*
X80934Y16061D01*
X80935Y16061D01*
X80936Y16062D01*
X80937Y16063D01*
D01*
X80937Y16063D01*
X80937Y16063D01*
X80937Y16063D01*
X80937Y16063D01*
X80937Y16063D01*
X80939Y16066D01*
X80954Y16088D01*
X80977Y16123D01*
X80985Y16134D01*
X81025Y16194D01*
X81028Y16198D01*
X81049Y16229D01*
X81092Y16294D01*
X81127Y16347D01*
X81159Y16395D01*
X81159Y16395D01*
X81188Y16438D01*
X81206Y16465D01*
X81222Y16488D01*
X81222Y16488D01*
X81223Y16490D01*
X81224Y16492D01*
X81225Y16493D01*
X81225Y16493D01*
D01*
Y16493D01*
X81225Y16493D01*
X81225Y16494D01*
X81226Y16498D01*
X81226Y16499D01*
X81226Y16499D01*
Y16499D01*
Y16499D01*
X81226Y16500D01*
X81226Y16501D01*
X81227Y16503D01*
X81227Y16503D01*
X81227Y16503D01*
X81227Y16504D01*
X81227Y16504D01*
X81227Y16504D01*
X81227Y16504D01*
X81227Y16504D01*
X81227Y16504D01*
X81227Y16505D01*
X81227Y16505D01*
X81227Y16505D01*
X81227Y16506D01*
X81227Y16506D01*
X81227Y16506D01*
X81228Y16508D01*
X81257Y16657D01*
X81287Y16804D01*
X81288Y16810D01*
X81288Y16810D01*
X81304Y16894D01*
X81305Y16895D01*
X81308Y16913D01*
X81324Y16993D01*
X81325Y16997D01*
X81325Y16997D01*
X81325Y16997D01*
X81325Y16998D01*
Y16998D01*
Y16998D01*
X81325Y16998D01*
X81325Y16998D01*
X81325Y16999D01*
X81325Y16999D01*
X81326Y17000D01*
X81326Y17000D01*
D01*
Y17000D01*
Y17000D01*
X81326D01*
Y17000D01*
Y17000D01*
X81324Y17005D01*
X81301Y17123D01*
X81279Y17232D01*
X81278Y17237D01*
X81254Y17361D01*
X81227Y17494D01*
Y17494D01*
Y17494D01*
X81227Y17494D01*
X81227Y17495D01*
X81227Y17495D01*
X81227Y17496D01*
X81227Y17496D01*
X81227Y17496D01*
X81227Y17496D01*
X81227Y17496D01*
X81227Y17496D01*
X81227Y17497D01*
X81227Y17497D01*
X81227Y17497D01*
D01*
X81226Y17499D01*
X81225Y17503D01*
X81225Y17507D01*
X81225D01*
Y17507D01*
X81225Y17507D01*
X81225Y17507D01*
X81225Y17507D01*
X81224Y17508D01*
X81223Y17510D01*
X81208Y17532D01*
X81178Y17577D01*
X81137Y17639D01*
X81137Y17639D01*
X81134Y17643D01*
X81113Y17674D01*
X81068Y17741D01*
X81003Y17839D01*
X81003Y17839D01*
X80974Y17882D01*
X80974Y17882D01*
X80956Y17909D01*
X80940Y17933D01*
X80940Y17933D01*
D01*
X80939Y17934D01*
X80939Y17935D01*
X80938Y17936D01*
X80937Y17937D01*
D01*
X80937Y17937D01*
X80937Y17937D01*
X80937Y17937D01*
X80937Y17937D01*
X80937Y17937D01*
X80934Y17939D01*
X80912Y17954D01*
X80868Y17984D01*
X80806Y18025D01*
X80806Y18025D01*
X80802Y18028D01*
X80771Y18048D01*
X80704Y18093D01*
X80606Y18159D01*
X80605Y18159D01*
X80563Y18188D01*
X80562Y18188D01*
X80535Y18206D01*
X80512Y18222D01*
X80512Y18222D01*
D01*
X80511Y18222D01*
X80510Y18223D01*
X80508Y18224D01*
X80507Y18225D01*
X80507Y18225D01*
D01*
X80507D01*
X80507Y18225D01*
X80506Y18225D01*
X80504Y18225D01*
X80501Y18226D01*
X80501D01*
X80500Y18226D01*
X80499Y18226D01*
X80498Y18226D01*
X80497Y18227D01*
X80497Y18227D01*
X80497Y18227D01*
X80497Y18227D01*
X80497Y18227D01*
X80497Y18227D01*
X80497Y18227D01*
X80496Y18227D01*
X80496Y18227D01*
X80496Y18227D01*
X80496Y18227D01*
X80496Y18227D01*
X80496Y18227D01*
X80495Y18227D01*
X80495Y18227D01*
X80495Y18227D01*
X80494Y18227D01*
X80494Y18227D01*
X80492Y18228D01*
X80423Y18241D01*
X80337Y18259D01*
X80307Y18264D01*
X80202Y18285D01*
X80201Y18285D01*
X80200Y18286D01*
X80107Y18304D01*
X80007Y18324D01*
X80003Y18325D01*
X80003Y18325D01*
X80003Y18325D01*
X80002Y18325D01*
X80002D01*
X80002D01*
X80002Y18325D01*
X80002Y18325D01*
X80002Y18325D01*
X80001Y18325D01*
X80001Y18325D01*
X80001Y18325D01*
X80000Y18326D01*
X80000Y18326D01*
D02*
G37*
G36*
X34000Y8529D02*
X33415Y8413D01*
X32919Y8081D01*
X32587Y7585D01*
X32471Y7000D01*
X32587Y6415D01*
X32919Y5919D01*
X33415Y5587D01*
X34000Y5471D01*
X34585Y5587D01*
X35081Y5919D01*
X35413Y6415D01*
X35529Y7000D01*
X35413Y7585D01*
X35081Y8081D01*
X34585Y8413D01*
X34000Y8529D01*
D02*
G37*
G36*
X86000D02*
X85415Y8413D01*
X84919Y8081D01*
X84587Y7585D01*
X84471Y7000D01*
X84587Y6415D01*
X84919Y5919D01*
X85415Y5587D01*
X86000Y5471D01*
X86585Y5587D01*
X87081Y5919D01*
X87413Y6415D01*
X87529Y7000D01*
X87413Y7585D01*
X87081Y8081D01*
X86585Y8413D01*
X86000Y8529D01*
D02*
G37*
G36*
X9500Y24326D02*
X9500D01*
D01*
X9500Y24326D01*
D01*
X9494Y24324D01*
X9367Y24299D01*
X9240Y24274D01*
X9129Y24252D01*
X9006Y24227D01*
X9006D01*
X9005Y24227D01*
X9005Y24227D01*
X9004Y24227D01*
X9004Y24227D01*
X9004Y24227D01*
X9004Y24227D01*
X9004Y24227D01*
X9004Y24227D01*
X9003Y24227D01*
X9003Y24227D01*
X9003Y24227D01*
X9003Y24227D01*
X9003Y24227D01*
X9003Y24227D01*
X9003Y24227D01*
X8998Y24226D01*
X8996Y24225D01*
X8993Y24225D01*
X8993D01*
X8993Y24225D01*
X8993Y24225D01*
X8992Y24224D01*
X8992Y24224D01*
X8992D01*
X8990Y24223D01*
X8968Y24208D01*
X8933Y24184D01*
X8921Y24177D01*
X8861Y24137D01*
X8857Y24134D01*
X8765Y24072D01*
X8708Y24035D01*
X8661Y24003D01*
X8661Y24003D01*
X8659Y24002D01*
X8617Y23974D01*
X8591Y23956D01*
X8567Y23940D01*
X8567Y23940D01*
X8565Y23939D01*
X8564Y23938D01*
X8563Y23937D01*
D01*
X8563Y23937D01*
X8563Y23937D01*
X8563Y23937D01*
X8563Y23937D01*
X8563Y23937D01*
X8563D01*
X8561Y23934D01*
X8546Y23912D01*
X8523Y23877D01*
X8515Y23866D01*
X8475Y23806D01*
X8472Y23802D01*
X8410Y23709D01*
X8373Y23653D01*
X8341Y23605D01*
X8341Y23605D01*
X8340Y23604D01*
X8312Y23562D01*
X8294Y23535D01*
X8278Y23512D01*
X8278Y23512D01*
X8277Y23510D01*
X8276Y23508D01*
X8275Y23507D01*
X8275Y23507D01*
D01*
X8275Y23507D01*
X8275Y23506D01*
X8274Y23502D01*
X8274Y23501D01*
X8274Y23501D01*
Y23501D01*
X8274Y23500D01*
X8274Y23499D01*
X8273Y23497D01*
X8273Y23497D01*
X8273Y23496D01*
X8273Y23496D01*
X8273Y23496D01*
X8273Y23496D01*
X8273Y23496D01*
X8273Y23496D01*
X8273Y23496D01*
X8273Y23495D01*
X8273Y23495D01*
X8273Y23494D01*
X8273Y23494D01*
Y23494D01*
X8272Y23492D01*
X8243Y23343D01*
X8213Y23196D01*
X8212Y23190D01*
X8195Y23105D01*
X8195Y23104D01*
X8176Y23007D01*
X8175Y23003D01*
X8175Y23003D01*
X8175Y23003D01*
X8175Y23003D01*
X8175Y23002D01*
Y23002D01*
X8175Y23002D01*
X8175Y23002D01*
X8175D01*
X8175Y23002D01*
X8175Y23002D01*
X8175Y23001D01*
X8174Y23000D01*
X8174Y23000D01*
D01*
Y23000D01*
Y23000D01*
D01*
X8174Y23000D01*
D01*
X8176Y22994D01*
X8190Y22924D01*
X8200Y22874D01*
X8221Y22768D01*
X8245Y22644D01*
X8273Y22506D01*
Y22506D01*
X8273Y22505D01*
X8273Y22505D01*
X8273Y22504D01*
X8273Y22504D01*
X8273Y22504D01*
X8273Y22504D01*
X8273Y22504D01*
X8273Y22504D01*
X8273Y22503D01*
X8273Y22503D01*
X8273Y22503D01*
X8273Y22503D01*
X8273Y22503D01*
X8273Y22503D01*
X8273Y22503D01*
D01*
X8274Y22501D01*
X8275Y22496D01*
X8275Y22493D01*
X8275D01*
Y22493D01*
X8275Y22493D01*
X8275Y22493D01*
X8276Y22492D01*
X8276Y22492D01*
Y22492D01*
X8277Y22490D01*
X8292Y22468D01*
X8322Y22423D01*
X8363Y22361D01*
X8363Y22361D01*
X8366Y22357D01*
X8387Y22326D01*
X8432Y22259D01*
X8497Y22161D01*
X8497Y22161D01*
X8526Y22118D01*
X8526Y22118D01*
X8544Y22091D01*
X8560Y22067D01*
X8560Y22067D01*
D01*
X8561Y22066D01*
X8561Y22065D01*
X8562Y22064D01*
X8563Y22063D01*
D01*
X8563Y22063D01*
X8563Y22063D01*
X8563Y22063D01*
X8563Y22062D01*
X8563Y22062D01*
Y22062D01*
X8566Y22061D01*
X8588Y22046D01*
X8632Y22016D01*
X8694Y21975D01*
X8694Y21975D01*
X8698Y21972D01*
X8729Y21951D01*
X8797Y21906D01*
X8895Y21841D01*
X8895Y21841D01*
X8937Y21812D01*
X8938Y21812D01*
X8965Y21794D01*
X8988Y21778D01*
X8988Y21778D01*
X8990Y21777D01*
X8992Y21776D01*
X8993Y21775D01*
X8993Y21775D01*
D01*
X8993D01*
X8993Y21775D01*
X8994Y21775D01*
X8996Y21775D01*
X8999Y21774D01*
X8999D01*
X9000Y21774D01*
X9001Y21774D01*
X9002Y21774D01*
X9003Y21773D01*
X9003Y21773D01*
X9003Y21773D01*
X9003Y21773D01*
X9003Y21773D01*
X9003Y21773D01*
X9003Y21773D01*
X9004Y21773D01*
X9004Y21773D01*
X9004Y21773D01*
X9004Y21773D01*
X9004Y21773D01*
X9004Y21773D01*
X9005Y21773D01*
X9005Y21773D01*
X9005Y21773D01*
X9006Y21773D01*
X9006Y21773D01*
X9008Y21772D01*
X9080Y21758D01*
X9169Y21740D01*
X9200Y21734D01*
X9310Y21712D01*
X9310Y21712D01*
X9393Y21696D01*
X9396Y21695D01*
X9493Y21676D01*
X9497Y21675D01*
X9497Y21675D01*
X9497D01*
X9497Y21675D01*
X9498Y21675D01*
X9498D01*
X9498D01*
X9498Y21675D01*
X9498Y21675D01*
X9498Y21675D01*
X9499Y21675D01*
X9499Y21675D01*
X9500Y21675D01*
X9500Y21675D01*
X9500D01*
X9500D01*
D01*
X9500D01*
Y21675D01*
X9500D01*
X9505Y21676D01*
X9623Y21699D01*
X9732Y21721D01*
X9853Y21745D01*
X9910Y21756D01*
X9994Y21773D01*
X9994D01*
X9995Y21773D01*
X9995Y21773D01*
X9996Y21773D01*
X9996Y21773D01*
X9996Y21773D01*
X9996Y21773D01*
X9996Y21773D01*
X9996Y21773D01*
X9997Y21773D01*
X9997Y21773D01*
X9997Y21773D01*
X9997D01*
X9999Y21774D01*
X10004Y21775D01*
X10007Y21775D01*
Y21775D01*
X10007D01*
X10007Y21776D01*
X10007Y21776D01*
X10007Y21776D01*
X10008Y21776D01*
X10008D01*
X10010Y21777D01*
X10032Y21792D01*
X10068Y21816D01*
X10079Y21823D01*
X10139Y21863D01*
X10142Y21866D01*
X10236Y21928D01*
X10292Y21966D01*
X10339Y21997D01*
X10339Y21997D01*
X10341Y21998D01*
X10383Y22026D01*
X10409Y22044D01*
X10433Y22060D01*
X10433Y22060D01*
D01*
X10434Y22061D01*
X10435Y22061D01*
X10436Y22062D01*
X10437Y22063D01*
D01*
X10437Y22063D01*
X10437Y22063D01*
X10437Y22063D01*
X10437Y22063D01*
X10437Y22063D01*
X10439Y22066D01*
X10454Y22088D01*
X10477Y22123D01*
X10485Y22134D01*
X10525Y22194D01*
X10528Y22198D01*
X10590Y22291D01*
X10627Y22347D01*
X10659Y22395D01*
X10659Y22395D01*
X10660Y22396D01*
X10688Y22438D01*
X10706Y22465D01*
X10722Y22488D01*
X10722Y22488D01*
X10722D01*
X10722Y22489D01*
X10723Y22490D01*
X10724Y22492D01*
X10725Y22493D01*
X10725Y22493D01*
D01*
Y22493D01*
X10725Y22493D01*
X10725Y22494D01*
X10726Y22498D01*
X10726Y22499D01*
X10726Y22499D01*
Y22499D01*
Y22499D01*
X10726Y22500D01*
X10726Y22501D01*
X10727Y22503D01*
X10727Y22503D01*
X10727Y22503D01*
X10727Y22504D01*
X10727Y22504D01*
X10727Y22504D01*
X10727Y22504D01*
X10727Y22504D01*
X10727Y22504D01*
X10727Y22505D01*
X10727Y22505D01*
X10727Y22505D01*
X10727Y22506D01*
X10727Y22506D01*
X10728Y22508D01*
X10757Y22657D01*
X10786Y22804D01*
X10788Y22810D01*
X10788Y22810D01*
X10804Y22894D01*
X10805Y22895D01*
X10808Y22913D01*
X10824Y22993D01*
X10825Y22997D01*
X10825Y22997D01*
X10825Y22997D01*
X10825Y22998D01*
Y22998D01*
Y22998D01*
X10825Y22998D01*
X10825Y22998D01*
X10825Y22999D01*
X10825Y22999D01*
X10825Y23000D01*
X10825Y23000D01*
D01*
Y23000D01*
Y23000D01*
X10825D01*
Y23000D01*
Y23000D01*
X10825Y23005D01*
X10801Y23123D01*
X10779Y23232D01*
X10778Y23237D01*
X10754Y23361D01*
X10727Y23494D01*
Y23494D01*
Y23494D01*
X10727Y23494D01*
X10727Y23495D01*
X10727Y23495D01*
X10727Y23496D01*
X10727Y23496D01*
X10727Y23496D01*
X10727Y23496D01*
X10727Y23496D01*
X10727Y23496D01*
X10727Y23497D01*
X10727Y23497D01*
X10727Y23497D01*
D01*
X10726Y23499D01*
X10725Y23503D01*
X10725Y23507D01*
X10725D01*
Y23507D01*
X10725Y23507D01*
X10724Y23507D01*
X10724Y23507D01*
X10724Y23508D01*
X10723Y23510D01*
X10708Y23532D01*
X10678Y23577D01*
X10637Y23639D01*
X10637Y23639D01*
X10634Y23643D01*
X10613Y23674D01*
X10568Y23741D01*
X10503Y23839D01*
X10503Y23839D01*
X10474Y23882D01*
X10474Y23882D01*
X10456Y23909D01*
X10440Y23933D01*
X10440Y23933D01*
D01*
X10439Y23934D01*
X10439Y23935D01*
X10438Y23936D01*
X10437Y23937D01*
D01*
X10437Y23937D01*
X10437Y23937D01*
X10437Y23937D01*
X10437Y23937D01*
X10437Y23937D01*
X10434Y23939D01*
X10412Y23954D01*
X10368Y23984D01*
X10306Y24025D01*
X10306Y24025D01*
X10302Y24028D01*
X10271Y24048D01*
X10204Y24093D01*
X10106Y24159D01*
X10105Y24159D01*
X10063Y24188D01*
X10062Y24188D01*
X10035Y24206D01*
X10012Y24222D01*
X10012Y24222D01*
D01*
X10011Y24222D01*
X10010Y24223D01*
X10008Y24224D01*
X10007Y24225D01*
X10007Y24225D01*
D01*
X10007D01*
X10007Y24225D01*
X10006Y24225D01*
X10004Y24225D01*
X10001Y24226D01*
X10001D01*
X10000Y24226D01*
X9999Y24226D01*
X9998Y24226D01*
X9997Y24227D01*
X9997Y24227D01*
X9997Y24227D01*
X9997Y24227D01*
X9997Y24227D01*
X9997Y24227D01*
X9996Y24227D01*
X9996Y24227D01*
X9996Y24227D01*
X9996Y24227D01*
X9996Y24227D01*
X9996Y24227D01*
X9995Y24227D01*
X9995Y24227D01*
X9995Y24227D01*
X9995Y24227D01*
X9994Y24227D01*
X9994Y24227D01*
X9992Y24228D01*
X9923Y24241D01*
X9837Y24259D01*
X9807Y24264D01*
X9702Y24285D01*
X9701Y24285D01*
X9701Y24286D01*
X9607Y24304D01*
X9507Y24324D01*
X9503Y24325D01*
X9503Y24325D01*
X9503Y24325D01*
X9502Y24325D01*
X9502D01*
X9502D01*
X9502Y24325D01*
X9502Y24325D01*
X9502Y24325D01*
X9501Y24325D01*
X9501Y24325D01*
X9501Y24325D01*
X9500Y24326D01*
X9500Y24326D01*
D02*
G37*
G36*
X80000Y31326D02*
X80000D01*
D01*
X80000Y31326D01*
D01*
X79994Y31324D01*
X79867Y31299D01*
X79740Y31274D01*
X79632Y31252D01*
X79581Y31242D01*
X79506Y31227D01*
X79506D01*
X79506Y31227D01*
X79505Y31227D01*
X79505Y31227D01*
X79504Y31227D01*
X79504Y31227D01*
X79504Y31227D01*
X79504Y31227D01*
X79504Y31227D01*
X79504Y31227D01*
X79503Y31227D01*
X79503Y31227D01*
X79503Y31227D01*
X79503Y31227D01*
X79503Y31227D01*
X79503Y31227D01*
X79498Y31226D01*
X79496Y31225D01*
X79493Y31225D01*
X79493D01*
X79493Y31225D01*
X79493Y31225D01*
X79492Y31224D01*
X79492Y31224D01*
X79492D01*
X79490Y31223D01*
X79468Y31208D01*
X79432Y31184D01*
X79421Y31177D01*
X79361Y31137D01*
X79357Y31134D01*
X79264Y31072D01*
X79208Y31034D01*
X79161Y31003D01*
X79161Y31003D01*
X79159Y31002D01*
X79117Y30974D01*
X79091Y30956D01*
X79067Y30940D01*
X79067Y30940D01*
X79065Y30939D01*
X79064Y30938D01*
X79063Y30937D01*
D01*
X79063Y30937D01*
X79063Y30937D01*
X79063Y30937D01*
X79062Y30937D01*
X79062Y30937D01*
X79062D01*
X79061Y30934D01*
X79046Y30912D01*
X79023Y30877D01*
X79015Y30866D01*
X78975Y30806D01*
X78972Y30802D01*
X78910Y30709D01*
X78873Y30653D01*
X78841Y30606D01*
X78841Y30605D01*
X78840Y30604D01*
X78812Y30562D01*
X78794Y30535D01*
X78778Y30512D01*
X78778Y30512D01*
X78777Y30510D01*
X78776Y30508D01*
X78775Y30507D01*
X78775Y30507D01*
D01*
X78775Y30507D01*
X78775Y30506D01*
X78774Y30502D01*
X78774Y30501D01*
X78774Y30501D01*
Y30501D01*
X78774Y30500D01*
X78774Y30499D01*
X78773Y30497D01*
X78773Y30497D01*
X78773Y30496D01*
X78773Y30496D01*
X78773Y30496D01*
X78773Y30496D01*
X78773Y30496D01*
X78773Y30496D01*
X78773Y30496D01*
X78773Y30495D01*
X78773Y30495D01*
X78773Y30494D01*
X78773Y30494D01*
Y30494D01*
X78772Y30492D01*
X78743Y30343D01*
X78714Y30196D01*
X78712Y30191D01*
X78695Y30105D01*
X78695Y30104D01*
X78676Y30007D01*
X78675Y30003D01*
X78675Y30003D01*
X78675Y30003D01*
X78675Y30003D01*
X78675Y30002D01*
Y30002D01*
X78675Y30002D01*
X78675Y30002D01*
X78675D01*
X78675Y30002D01*
X78675Y30002D01*
X78675Y30001D01*
X78675Y30000D01*
X78675Y30000D01*
D01*
Y30000D01*
Y30000D01*
D01*
X78675Y30000D01*
D01*
X78676Y29994D01*
X78690Y29924D01*
X78699Y29875D01*
X78721Y29768D01*
X78722Y29763D01*
X78746Y29639D01*
X78773Y29506D01*
Y29506D01*
X78773Y29506D01*
X78773Y29505D01*
X78773Y29504D01*
X78773Y29504D01*
X78773Y29504D01*
X78773Y29504D01*
X78773Y29504D01*
X78773Y29504D01*
X78773Y29504D01*
X78773Y29503D01*
X78773Y29503D01*
X78773Y29503D01*
X78773Y29503D01*
X78773Y29503D01*
X78773Y29503D01*
D01*
X78774Y29501D01*
X78775Y29496D01*
X78775Y29493D01*
X78775D01*
Y29493D01*
X78776Y29493D01*
X78776Y29493D01*
X78776Y29493D01*
X78776Y29492D01*
Y29492D01*
X78777Y29490D01*
X78792Y29468D01*
X78822Y29423D01*
X78863Y29361D01*
X78863Y29361D01*
X78866Y29357D01*
X78887Y29326D01*
X78932Y29259D01*
X78997Y29161D01*
X78997Y29161D01*
X79026Y29118D01*
X79026Y29118D01*
X79044Y29091D01*
X79060Y29067D01*
X79060Y29067D01*
D01*
X79061Y29066D01*
X79061Y29065D01*
X79062Y29064D01*
X79063Y29063D01*
D01*
X79063Y29063D01*
X79063Y29063D01*
X79063Y29063D01*
X79063Y29063D01*
X79063Y29063D01*
X79066Y29061D01*
X79088Y29046D01*
X79132Y29016D01*
X79194Y28975D01*
X79194Y28975D01*
X79198Y28972D01*
X79229Y28951D01*
X79297Y28907D01*
X79395Y28841D01*
X79395Y28841D01*
X79438Y28812D01*
X79438Y28812D01*
X79465Y28794D01*
X79488Y28778D01*
X79488Y28778D01*
X79490Y28777D01*
X79492Y28776D01*
X79493Y28775D01*
X79493Y28775D01*
D01*
X79493D01*
X79493Y28775D01*
X79494Y28775D01*
X79496Y28775D01*
X79499Y28774D01*
X79499D01*
X79500Y28774D01*
X79501Y28774D01*
X79502Y28774D01*
X79503Y28773D01*
X79503Y28773D01*
X79504Y28773D01*
X79504Y28773D01*
X79504Y28773D01*
X79504Y28773D01*
X79504Y28773D01*
X79504Y28773D01*
X79504Y28773D01*
X79505Y28773D01*
X79505Y28773D01*
X79506Y28773D01*
X79506Y28773D01*
X79506Y28773D01*
X79508Y28772D01*
X79580Y28758D01*
X79669Y28740D01*
X79700Y28734D01*
X79810Y28712D01*
X79810Y28712D01*
X79893Y28696D01*
X79896Y28695D01*
X79993Y28676D01*
X79997Y28675D01*
X79997Y28675D01*
X79997D01*
X79997Y28675D01*
X79998Y28675D01*
X79998D01*
X79998D01*
X79998Y28675D01*
X79998Y28675D01*
X79998Y28675D01*
X79999Y28675D01*
X79999Y28675D01*
X80000Y28675D01*
X80000Y28675D01*
X80000D01*
D01*
X80000D01*
Y28675D01*
X80000D01*
X80005Y28675D01*
X80123Y28699D01*
X80232Y28721D01*
X80353Y28745D01*
X80410Y28756D01*
X80494Y28773D01*
X80494D01*
X80494Y28773D01*
X80495Y28773D01*
X80496Y28773D01*
X80496Y28773D01*
X80496Y28773D01*
X80496Y28773D01*
X80496Y28773D01*
X80496Y28773D01*
X80497Y28773D01*
X80497Y28773D01*
X80497Y28773D01*
X80502Y28774D01*
X80504Y28775D01*
X80507Y28775D01*
Y28775D01*
X80507D01*
X80507Y28776D01*
X80507Y28776D01*
X80507Y28776D01*
X80508Y28776D01*
X80508D01*
X80510Y28777D01*
X80532Y28792D01*
X80568Y28816D01*
X80579Y28823D01*
X80639Y28863D01*
X80642Y28866D01*
X80735Y28928D01*
X80792Y28965D01*
X80839Y28997D01*
X80839Y28997D01*
X80841Y28998D01*
X80883Y29026D01*
X80909Y29044D01*
X80933Y29060D01*
X80933Y29060D01*
X80935Y29061D01*
X80936Y29062D01*
X80937Y29063D01*
D01*
X80937Y29063D01*
X80937Y29063D01*
X80937Y29063D01*
X80937Y29063D01*
X80937Y29063D01*
X80937D01*
X80939Y29066D01*
X80954Y29088D01*
X80977Y29123D01*
X80985Y29134D01*
X81025Y29194D01*
X81028Y29198D01*
X81090Y29291D01*
X81127Y29347D01*
X81159Y29395D01*
X81159Y29395D01*
X81160Y29396D01*
X81188Y29438D01*
X81206Y29465D01*
X81222Y29488D01*
X81222Y29488D01*
X81222D01*
X81222Y29489D01*
X81223Y29490D01*
X81224Y29492D01*
X81225Y29493D01*
X81225Y29493D01*
D01*
Y29493D01*
X81225Y29493D01*
X81225Y29494D01*
X81226Y29498D01*
X81226Y29499D01*
X81226Y29499D01*
Y29499D01*
Y29499D01*
X81226Y29500D01*
X81226Y29501D01*
X81227Y29503D01*
X81227Y29503D01*
X81227Y29504D01*
X81227Y29504D01*
X81227Y29504D01*
X81227Y29504D01*
X81227Y29504D01*
X81227Y29504D01*
X81227Y29504D01*
X81227Y29505D01*
X81227Y29505D01*
X81227Y29505D01*
X81227Y29506D01*
X81227Y29506D01*
X81227Y29506D01*
X81228Y29508D01*
X81257Y29657D01*
X81287Y29804D01*
X81288Y29810D01*
X81288Y29810D01*
X81304Y29893D01*
X81305Y29895D01*
X81308Y29913D01*
X81324Y29993D01*
X81325Y29997D01*
X81325Y29997D01*
X81325Y29997D01*
X81325Y29998D01*
Y29998D01*
Y29998D01*
X81325Y29998D01*
X81325Y29998D01*
X81325Y29999D01*
X81325Y29999D01*
X81326Y30000D01*
X81326Y30000D01*
D01*
Y30000D01*
Y30000D01*
X81326D01*
Y30000D01*
Y30000D01*
X81324Y30005D01*
X81301Y30123D01*
X81279Y30232D01*
X81278Y30237D01*
X81254Y30361D01*
X81227Y30494D01*
Y30494D01*
Y30494D01*
X81227Y30494D01*
X81227Y30495D01*
X81227Y30495D01*
X81227Y30496D01*
X81227Y30496D01*
X81227Y30496D01*
X81227Y30496D01*
X81227Y30496D01*
X81227Y30496D01*
X81227Y30497D01*
X81227Y30497D01*
X81227Y30497D01*
D01*
X81226Y30499D01*
X81225Y30503D01*
X81225Y30507D01*
X81225D01*
Y30507D01*
X81225Y30507D01*
X81225Y30507D01*
X81225Y30507D01*
X81224Y30508D01*
X81223Y30510D01*
X81208Y30532D01*
X81178Y30577D01*
X81137Y30639D01*
X81137Y30639D01*
X81134Y30643D01*
X81113Y30674D01*
X81068Y30741D01*
X81003Y30839D01*
X81003Y30839D01*
X80974Y30882D01*
X80974Y30882D01*
X80956Y30909D01*
X80940Y30933D01*
X80940Y30933D01*
D01*
X80939Y30934D01*
X80939Y30935D01*
X80938Y30936D01*
X80937Y30937D01*
D01*
X80937Y30937D01*
X80937Y30937D01*
X80937Y30937D01*
X80937Y30937D01*
X80937Y30937D01*
X80934Y30939D01*
X80912Y30954D01*
X80868Y30984D01*
X80806Y31025D01*
X80806Y31025D01*
X80802Y31028D01*
X80771Y31049D01*
X80704Y31093D01*
X80606Y31159D01*
X80605Y31159D01*
X80563Y31188D01*
X80562Y31188D01*
X80535Y31206D01*
X80512Y31222D01*
X80512Y31222D01*
D01*
X80511Y31222D01*
X80510Y31223D01*
X80508Y31224D01*
X80507Y31225D01*
X80507Y31225D01*
D01*
X80507D01*
X80507Y31225D01*
X80506Y31225D01*
X80504Y31225D01*
X80501Y31226D01*
X80501D01*
X80500Y31226D01*
X80499Y31226D01*
X80498Y31226D01*
X80497Y31227D01*
X80497Y31227D01*
X80497Y31227D01*
X80497Y31227D01*
X80497Y31227D01*
X80497Y31227D01*
X80497Y31227D01*
X80496Y31227D01*
X80496Y31227D01*
X80496Y31227D01*
X80496Y31227D01*
X80496Y31227D01*
X80496Y31227D01*
X80495Y31227D01*
X80495Y31227D01*
X80495Y31227D01*
X80494Y31227D01*
X80494Y31227D01*
X80492Y31228D01*
X80423Y31241D01*
X80337Y31258D01*
X80307Y31264D01*
X80202Y31285D01*
X80201Y31285D01*
X80200Y31286D01*
X80107Y31304D01*
X80007Y31324D01*
X80003Y31325D01*
X80003Y31325D01*
X80003Y31325D01*
X80002Y31325D01*
X80002D01*
X80002D01*
X80002Y31325D01*
X80002Y31325D01*
X80002Y31325D01*
X80001Y31325D01*
X80001Y31325D01*
X80001Y31325D01*
X80000Y31326D01*
X80000Y31326D01*
D02*
G37*
G36*
X67000Y18326D02*
X67000D01*
D01*
X67000Y18326D01*
D01*
X66994Y18324D01*
X66867Y18299D01*
X66740Y18274D01*
X66632Y18252D01*
X66581Y18242D01*
X66506Y18227D01*
X66506D01*
X66506Y18227D01*
X66505Y18227D01*
X66505Y18227D01*
X66504Y18227D01*
X66504Y18227D01*
X66504Y18227D01*
X66504Y18227D01*
X66504Y18227D01*
X66504Y18227D01*
X66503Y18227D01*
X66503Y18227D01*
X66503Y18227D01*
X66503Y18227D01*
X66503Y18227D01*
X66503Y18227D01*
X66498Y18226D01*
X66496Y18225D01*
X66493Y18225D01*
X66493D01*
X66493Y18225D01*
X66493Y18225D01*
X66492Y18224D01*
X66492Y18224D01*
X66492D01*
X66490Y18223D01*
X66468Y18208D01*
X66432Y18184D01*
X66421Y18177D01*
X66361Y18137D01*
X66357Y18134D01*
X66264Y18072D01*
X66208Y18034D01*
X66161Y18003D01*
X66161Y18003D01*
X66159Y18002D01*
X66117Y17974D01*
X66091Y17956D01*
X66067Y17940D01*
X66067Y17940D01*
X66065Y17939D01*
X66064Y17938D01*
X66063Y17937D01*
D01*
X66063Y17937D01*
X66063Y17937D01*
X66063Y17937D01*
X66062Y17937D01*
X66062Y17937D01*
X66062D01*
X66061Y17934D01*
X66046Y17912D01*
X66022Y17877D01*
X66015Y17866D01*
X65975Y17806D01*
X65972Y17802D01*
X65910Y17709D01*
X65873Y17653D01*
X65841Y17605D01*
X65841Y17605D01*
X65840Y17604D01*
X65812Y17562D01*
X65794Y17535D01*
X65778Y17512D01*
X65778Y17512D01*
X65777Y17510D01*
X65776Y17508D01*
X65775Y17507D01*
X65775Y17507D01*
D01*
X65775Y17507D01*
X65775Y17506D01*
X65774Y17502D01*
X65774Y17501D01*
X65774Y17501D01*
Y17501D01*
X65774Y17500D01*
X65774Y17499D01*
X65773Y17497D01*
X65773Y17497D01*
X65773Y17496D01*
X65773Y17496D01*
X65773Y17496D01*
X65773Y17496D01*
X65773Y17496D01*
X65773Y17496D01*
X65773Y17496D01*
X65773Y17495D01*
X65773Y17495D01*
X65773Y17494D01*
X65773Y17494D01*
Y17494D01*
X65772Y17492D01*
X65743Y17343D01*
X65714Y17196D01*
X65712Y17190D01*
X65695Y17105D01*
X65695Y17104D01*
X65676Y17007D01*
X65675Y17003D01*
X65675Y17003D01*
X65675Y17003D01*
X65675Y17003D01*
X65675Y17002D01*
Y17002D01*
X65675Y17002D01*
X65675Y17002D01*
X65675D01*
X65675Y17002D01*
X65675Y17002D01*
X65675Y17001D01*
X65675Y17000D01*
X65675Y17000D01*
D01*
Y17000D01*
Y17000D01*
D01*
X65675Y17000D01*
D01*
X65676Y16994D01*
X65690Y16924D01*
X65699Y16874D01*
X65721Y16768D01*
X65722Y16763D01*
X65746Y16639D01*
X65773Y16506D01*
Y16506D01*
X65773Y16506D01*
X65773Y16505D01*
X65773Y16504D01*
X65773Y16504D01*
X65773Y16504D01*
X65773Y16504D01*
X65773Y16504D01*
X65773Y16504D01*
X65773Y16503D01*
X65773Y16503D01*
X65773Y16503D01*
X65773Y16503D01*
X65773Y16503D01*
X65773Y16503D01*
X65773Y16503D01*
D01*
X65774Y16501D01*
X65775Y16496D01*
X65775Y16493D01*
X65775D01*
Y16493D01*
X65776Y16493D01*
X65776Y16493D01*
X65776Y16493D01*
X65776Y16492D01*
X65777Y16490D01*
X65792Y16468D01*
X65822Y16423D01*
X65863Y16361D01*
X65863Y16361D01*
X65866Y16357D01*
X65887Y16326D01*
X65932Y16259D01*
X65997Y16161D01*
X65997Y16161D01*
X66026Y16118D01*
X66026Y16118D01*
X66044Y16091D01*
X66060Y16067D01*
X66060Y16067D01*
D01*
X66061Y16066D01*
X66061Y16065D01*
X66062Y16064D01*
X66063Y16063D01*
D01*
X66063Y16063D01*
X66063Y16063D01*
X66063Y16063D01*
X66063Y16063D01*
X66063Y16062D01*
X66066Y16061D01*
X66088Y16046D01*
X66134Y16015D01*
X66194Y15975D01*
X66198Y15972D01*
X66229Y15951D01*
X66294Y15908D01*
X66347Y15873D01*
X66395Y15841D01*
X66395Y15841D01*
X66438Y15812D01*
X66438Y15812D01*
X66465Y15794D01*
X66488Y15778D01*
X66488Y15778D01*
X66490Y15777D01*
X66492Y15776D01*
X66493Y15775D01*
X66493Y15775D01*
D01*
X66493D01*
X66493Y15775D01*
X66494Y15775D01*
X66496Y15775D01*
X66499Y15774D01*
X66499D01*
X66500Y15774D01*
X66501Y15774D01*
X66502Y15774D01*
X66503Y15773D01*
X66503Y15773D01*
X66504Y15773D01*
X66504Y15773D01*
X66504Y15773D01*
X66504Y15773D01*
X66504Y15773D01*
X66504Y15773D01*
X66504Y15773D01*
X66505Y15773D01*
X66505Y15773D01*
X66506Y15773D01*
X66506Y15773D01*
X66506Y15773D01*
X66508Y15772D01*
X66580Y15758D01*
X66669Y15740D01*
X66700Y15734D01*
X66810Y15712D01*
X66810Y15712D01*
X66894Y15696D01*
X66896Y15695D01*
X66993Y15676D01*
X66997Y15675D01*
X66997Y15675D01*
X66997D01*
X66997Y15675D01*
X66998Y15675D01*
X66998D01*
X66998D01*
X66998Y15675D01*
X66998Y15675D01*
X66998Y15675D01*
X66999Y15675D01*
X66999Y15675D01*
X67000Y15675D01*
X67000Y15675D01*
X67000D01*
X67000D01*
D01*
X67000D01*
Y15675D01*
X67000D01*
X67005Y15676D01*
X67123Y15699D01*
X67232Y15721D01*
X67353Y15745D01*
X67410Y15756D01*
X67494Y15773D01*
X67494D01*
X67494Y15773D01*
X67495Y15773D01*
X67496Y15773D01*
X67496Y15773D01*
X67496Y15773D01*
X67496Y15773D01*
X67496Y15773D01*
X67496Y15773D01*
X67497Y15773D01*
X67497Y15773D01*
X67497Y15773D01*
X67497D01*
X67499Y15774D01*
X67504Y15775D01*
X67507Y15775D01*
Y15775D01*
X67507D01*
X67507Y15776D01*
X67507Y15776D01*
X67507Y15776D01*
X67508Y15776D01*
X67510Y15777D01*
X67532Y15792D01*
X67567Y15816D01*
X67579Y15823D01*
X67639Y15863D01*
X67642Y15866D01*
X67735Y15928D01*
X67792Y15966D01*
X67839Y15997D01*
X67839Y15997D01*
X67841Y15998D01*
X67883Y16026D01*
X67909Y16044D01*
X67933Y16060D01*
X67933Y16060D01*
X67935Y16061D01*
X67936Y16062D01*
X67937Y16063D01*
D01*
X67937Y16063D01*
X67937Y16063D01*
X67937Y16063D01*
X67937Y16063D01*
X67937Y16063D01*
X67937D01*
X67939Y16066D01*
X67954Y16088D01*
X67985Y16134D01*
X68025Y16194D01*
X68028Y16198D01*
X68049Y16229D01*
X68092Y16294D01*
X68127Y16347D01*
X68159Y16395D01*
X68159Y16395D01*
X68160Y16396D01*
X68188Y16438D01*
X68206Y16465D01*
X68222Y16488D01*
X68222Y16488D01*
X68222D01*
X68222Y16489D01*
X68223Y16490D01*
X68224Y16492D01*
X68225Y16493D01*
X68225Y16493D01*
D01*
Y16493D01*
X68225Y16493D01*
X68225Y16494D01*
X68226Y16498D01*
X68226Y16499D01*
X68226Y16499D01*
Y16499D01*
Y16499D01*
X68226Y16500D01*
X68226Y16501D01*
X68227Y16503D01*
X68227Y16503D01*
X68227Y16503D01*
X68227Y16504D01*
X68227Y16504D01*
X68227Y16504D01*
X68227Y16504D01*
X68227Y16504D01*
X68227Y16504D01*
X68227Y16505D01*
X68227Y16505D01*
X68227Y16505D01*
X68227Y16506D01*
X68227Y16506D01*
X68227Y16506D01*
X68228Y16508D01*
X68257Y16657D01*
X68287Y16804D01*
X68288Y16810D01*
X68288Y16810D01*
X68304Y16894D01*
X68305Y16895D01*
X68308Y16913D01*
X68324Y16993D01*
X68325Y16997D01*
X68325Y16997D01*
X68325Y16997D01*
X68325Y16998D01*
Y16998D01*
Y16998D01*
X68325Y16998D01*
X68325Y16998D01*
X68325Y16999D01*
X68325Y16999D01*
X68326Y17000D01*
X68326Y17000D01*
Y17000D01*
D01*
Y17000D01*
Y17000D01*
X68326D01*
Y17000D01*
Y17000D01*
X68325Y17005D01*
X68301Y17123D01*
X68279Y17232D01*
X68278Y17237D01*
X68254Y17361D01*
X68227Y17494D01*
Y17494D01*
Y17494D01*
X68227Y17494D01*
X68227Y17495D01*
X68227Y17495D01*
X68227Y17496D01*
X68227Y17496D01*
X68227Y17496D01*
X68227Y17496D01*
X68227Y17496D01*
X68227Y17496D01*
X68227Y17497D01*
X68227Y17497D01*
X68227Y17497D01*
D01*
X68226Y17499D01*
X68225Y17503D01*
X68225Y17507D01*
X68225D01*
Y17507D01*
X68225Y17507D01*
X68225Y17507D01*
X68225Y17507D01*
X68224Y17508D01*
X68223Y17510D01*
X68208Y17532D01*
X68178Y17577D01*
X68137Y17639D01*
X68137Y17639D01*
X68134Y17643D01*
X68113Y17674D01*
X68068Y17741D01*
X68003Y17839D01*
X68003Y17839D01*
X67974Y17882D01*
X67974Y17882D01*
X67956Y17909D01*
X67940Y17933D01*
X67940Y17933D01*
D01*
X67939Y17934D01*
X67939Y17935D01*
X67938Y17936D01*
X67937Y17937D01*
D01*
X67937Y17937D01*
X67937Y17937D01*
X67937Y17937D01*
X67937Y17937D01*
X67937Y17937D01*
X67934Y17939D01*
X67912Y17954D01*
X67868Y17984D01*
X67806Y18025D01*
X67806Y18025D01*
X67802Y18028D01*
X67771Y18048D01*
X67703Y18093D01*
X67606Y18159D01*
X67605Y18159D01*
X67563Y18188D01*
X67562Y18188D01*
X67535Y18206D01*
X67512Y18222D01*
X67512Y18222D01*
D01*
X67511Y18222D01*
X67510Y18223D01*
X67508Y18224D01*
X67507Y18225D01*
X67507Y18225D01*
D01*
X67507D01*
X67507Y18225D01*
X67506Y18225D01*
X67504Y18225D01*
X67501Y18226D01*
X67501D01*
X67500Y18226D01*
X67499Y18226D01*
X67498Y18226D01*
X67497Y18227D01*
X67497Y18227D01*
X67497Y18227D01*
X67497Y18227D01*
X67497Y18227D01*
X67497Y18227D01*
X67497Y18227D01*
X67496Y18227D01*
X67496Y18227D01*
X67496Y18227D01*
X67496Y18227D01*
X67496Y18227D01*
X67496Y18227D01*
X67495Y18227D01*
X67495Y18227D01*
X67495Y18227D01*
X67494Y18227D01*
X67494Y18227D01*
X67492Y18228D01*
X67423Y18241D01*
X67337Y18259D01*
X67307Y18264D01*
X67202Y18285D01*
X67201Y18285D01*
X67200Y18286D01*
X67107Y18304D01*
X67007Y18324D01*
X67003Y18325D01*
X67003Y18325D01*
X67003Y18325D01*
X67002Y18325D01*
X67002D01*
X67002D01*
X67002Y18325D01*
X67002Y18325D01*
X67002Y18325D01*
X67001Y18325D01*
X67001Y18325D01*
X67001Y18325D01*
X67000Y18326D01*
X67000Y18326D01*
D02*
G37*
G36*
X7500Y19625D02*
X7500D01*
D01*
X7500Y19625D01*
D01*
X7494Y19624D01*
X7367Y19599D01*
X7240Y19574D01*
X7132Y19552D01*
X7081Y19542D01*
X7006Y19527D01*
X7006D01*
X7006Y19527D01*
X7005Y19527D01*
X7005Y19527D01*
X7004Y19527D01*
X7004Y19527D01*
X7004Y19527D01*
X7004Y19527D01*
X7004Y19527D01*
X7004Y19527D01*
X7003Y19527D01*
X7003Y19527D01*
X7003Y19527D01*
X7003Y19527D01*
X7003Y19527D01*
X7003Y19527D01*
X6998Y19526D01*
X6996Y19525D01*
X6993Y19525D01*
X6993D01*
X6993Y19524D01*
X6993Y19524D01*
X6993Y19524D01*
X6992Y19524D01*
X6992D01*
X6990Y19523D01*
X6968Y19508D01*
X6933Y19484D01*
X6921Y19477D01*
X6861Y19437D01*
X6857Y19434D01*
X6764Y19372D01*
X6708Y19334D01*
X6661Y19303D01*
X6661Y19303D01*
X6659Y19302D01*
X6617Y19274D01*
X6591Y19256D01*
X6567Y19240D01*
X6567Y19240D01*
X6565Y19239D01*
X6564Y19238D01*
X6563Y19237D01*
D01*
X6563Y19237D01*
X6563Y19237D01*
X6563Y19237D01*
X6562Y19237D01*
X6562Y19237D01*
X6562D01*
X6561Y19234D01*
X6546Y19212D01*
X6522Y19177D01*
X6515Y19166D01*
X6475Y19106D01*
X6472Y19102D01*
X6410Y19009D01*
X6373Y18953D01*
X6341Y18905D01*
X6341Y18905D01*
X6340Y18904D01*
X6312Y18862D01*
X6294Y18835D01*
X6278Y18812D01*
X6278Y18812D01*
X6277Y18810D01*
X6276Y18808D01*
X6275Y18807D01*
X6275Y18807D01*
D01*
X6275Y18807D01*
X6275Y18806D01*
X6274Y18802D01*
X6274Y18801D01*
X6274Y18801D01*
Y18801D01*
X6274Y18800D01*
X6274Y18799D01*
X6273Y18797D01*
X6273Y18797D01*
X6273Y18797D01*
X6273Y18796D01*
X6273Y18796D01*
X6273Y18796D01*
X6273Y18796D01*
X6273Y18796D01*
X6273Y18796D01*
X6273Y18795D01*
X6273Y18795D01*
X6273Y18794D01*
X6273Y18794D01*
Y18794D01*
X6272Y18792D01*
X6243Y18643D01*
X6213Y18496D01*
X6212Y18490D01*
X6195Y18405D01*
X6195Y18404D01*
X6176Y18307D01*
X6175Y18303D01*
X6175Y18303D01*
X6175Y18303D01*
X6175Y18303D01*
X6175Y18302D01*
Y18302D01*
X6175Y18302D01*
X6175Y18302D01*
X6175D01*
X6175Y18302D01*
X6175Y18302D01*
X6175Y18301D01*
X6174Y18300D01*
X6174Y18300D01*
D01*
Y18300D01*
Y18300D01*
D01*
X6174Y18300D01*
D01*
X6176Y18294D01*
X6190Y18224D01*
X6199Y18174D01*
X6221Y18068D01*
X6222Y18063D01*
X6246Y17939D01*
X6273Y17806D01*
Y17806D01*
X6273Y17806D01*
X6273Y17805D01*
X6273Y17805D01*
X6273Y17804D01*
X6273Y17804D01*
X6273Y17804D01*
X6273Y17804D01*
X6273Y17804D01*
X6273Y17804D01*
X6273Y17804D01*
X6273Y17803D01*
X6273Y17803D01*
X6273Y17803D01*
X6273Y17803D01*
X6273Y17803D01*
X6273Y17803D01*
D01*
X6274Y17801D01*
X6275Y17796D01*
X6275Y17793D01*
X6275D01*
Y17793D01*
X6276Y17793D01*
X6276Y17793D01*
X6276Y17793D01*
X6276Y17792D01*
X6277Y17790D01*
X6292Y17768D01*
X6322Y17723D01*
X6363Y17661D01*
X6363Y17661D01*
X6366Y17658D01*
X6387Y17626D01*
X6432Y17559D01*
X6497Y17461D01*
X6497Y17461D01*
X6526Y17418D01*
X6544Y17391D01*
X6560Y17367D01*
X6560Y17367D01*
D01*
X6561Y17366D01*
X6561Y17365D01*
X6562Y17364D01*
X6563Y17363D01*
D01*
X6563Y17363D01*
X6563Y17363D01*
X6563Y17363D01*
X6563Y17363D01*
X6563Y17363D01*
Y17363D01*
X6566Y17361D01*
X6588Y17346D01*
X6632Y17316D01*
X6694Y17275D01*
X6694Y17275D01*
X6698Y17272D01*
X6729Y17252D01*
X6794Y17208D01*
X6847Y17173D01*
X6895Y17141D01*
X6895Y17141D01*
X6938Y17112D01*
X6965Y17094D01*
X6988Y17078D01*
X6988Y17078D01*
X6990Y17077D01*
X6992Y17076D01*
X6993Y17075D01*
X6993Y17075D01*
D01*
X6993D01*
X6993Y17075D01*
X6994Y17075D01*
X6996Y17075D01*
X6999Y17074D01*
X6999D01*
X7000Y17074D01*
X7001Y17074D01*
X7003Y17073D01*
X7003Y17073D01*
X7003Y17073D01*
X7003Y17073D01*
X7003Y17073D01*
X7003Y17073D01*
X7004Y17073D01*
X7004Y17073D01*
X7004Y17073D01*
X7004Y17073D01*
X7004Y17073D01*
X7004Y17073D01*
X7004Y17073D01*
X7005Y17073D01*
X7005Y17073D01*
X7006Y17073D01*
X7006Y17073D01*
X7006Y17073D01*
X7008Y17072D01*
X7080Y17058D01*
X7169Y17040D01*
X7200Y17034D01*
X7310Y17012D01*
X7310Y17012D01*
X7394Y16996D01*
X7396Y16995D01*
X7493Y16976D01*
X7497Y16975D01*
X7497Y16975D01*
X7497D01*
X7497Y16975D01*
X7498Y16975D01*
X7498D01*
X7498D01*
X7498Y16975D01*
X7498Y16975D01*
X7498Y16975D01*
X7499Y16975D01*
X7499Y16975D01*
X7500Y16974D01*
X7500Y16974D01*
X7500D01*
D01*
X7500D01*
X7500D01*
D01*
X7500Y16974D01*
D01*
X7500D01*
X7505Y16975D01*
X7623Y16999D01*
X7732Y17021D01*
X7853Y17045D01*
X7910Y17056D01*
X7994Y17073D01*
X7994D01*
X7994Y17073D01*
X7995Y17073D01*
X7996Y17073D01*
X7996Y17073D01*
X7996Y17073D01*
X7996Y17073D01*
X7996Y17073D01*
X7996Y17073D01*
X7997Y17073D01*
X7997Y17073D01*
X7997Y17073D01*
X8002Y17074D01*
X8004Y17075D01*
X8007Y17075D01*
Y17075D01*
X8007D01*
X8007Y17075D01*
X8007Y17075D01*
X8008Y17076D01*
X8008Y17076D01*
X8008D01*
X8010Y17077D01*
X8032Y17092D01*
X8067Y17116D01*
X8079Y17123D01*
X8139Y17163D01*
X8143Y17166D01*
X8236Y17228D01*
X8292Y17266D01*
X8339Y17297D01*
X8339Y17297D01*
X8382Y17326D01*
X8409Y17344D01*
X8433Y17360D01*
X8433Y17360D01*
D01*
X8434Y17361D01*
X8435Y17361D01*
X8436Y17362D01*
X8437Y17363D01*
D01*
X8437Y17363D01*
X8437Y17363D01*
X8437Y17363D01*
X8437Y17363D01*
X8438Y17363D01*
X8439Y17366D01*
X8454Y17388D01*
X8478Y17423D01*
X8485Y17434D01*
X8525Y17494D01*
X8528Y17498D01*
X8548Y17529D01*
X8592Y17594D01*
X8627Y17647D01*
X8659Y17695D01*
X8659Y17695D01*
X8688Y17738D01*
X8706Y17765D01*
X8722Y17788D01*
X8722Y17788D01*
X8722D01*
X8722Y17789D01*
X8723Y17790D01*
X8724Y17792D01*
X8725Y17793D01*
X8725Y17793D01*
D01*
Y17793D01*
X8725Y17793D01*
X8725Y17794D01*
X8726Y17798D01*
X8726Y17799D01*
X8726Y17799D01*
Y17799D01*
Y17799D01*
X8726Y17800D01*
X8726Y17801D01*
X8727Y17803D01*
X8727Y17803D01*
X8727Y17804D01*
X8727Y17804D01*
X8727Y17804D01*
X8727Y17804D01*
X8727Y17804D01*
X8727Y17804D01*
X8727Y17804D01*
X8727Y17805D01*
X8727Y17805D01*
X8727Y17806D01*
X8727Y17806D01*
X8727Y17806D01*
X8728Y17808D01*
X8757Y17957D01*
X8787Y18104D01*
X8788Y18110D01*
X8788Y18110D01*
X8804Y18193D01*
X8805Y18195D01*
X8808Y18213D01*
X8824Y18293D01*
X8825Y18297D01*
X8825Y18297D01*
X8825Y18297D01*
X8825Y18298D01*
Y18298D01*
Y18298D01*
X8825Y18298D01*
X8825Y18298D01*
X8825Y18299D01*
X8825Y18299D01*
X8826Y18300D01*
X8826Y18300D01*
D01*
Y18300D01*
Y18300D01*
X8826D01*
Y18300D01*
Y18300D01*
X8824Y18305D01*
X8801Y18423D01*
X8779Y18532D01*
X8778Y18537D01*
X8754Y18661D01*
X8727Y18794D01*
Y18794D01*
Y18794D01*
X8727Y18794D01*
X8727Y18795D01*
X8727Y18795D01*
X8727Y18796D01*
X8727Y18796D01*
X8727Y18796D01*
X8727Y18796D01*
X8727Y18796D01*
X8727Y18796D01*
X8727Y18797D01*
X8727Y18797D01*
X8727Y18797D01*
D01*
X8726Y18799D01*
X8725Y18803D01*
X8725Y18807D01*
X8725D01*
Y18807D01*
X8725Y18807D01*
X8725Y18807D01*
X8725Y18807D01*
X8724Y18808D01*
X8723Y18810D01*
X8708Y18832D01*
X8678Y18877D01*
X8637Y18939D01*
X8637Y18939D01*
X8634Y18943D01*
X8613Y18974D01*
X8568Y19041D01*
X8503Y19139D01*
X8503Y19139D01*
X8474Y19182D01*
X8474Y19182D01*
X8456Y19209D01*
X8440Y19233D01*
X8440Y19233D01*
D01*
X8439Y19234D01*
X8439Y19235D01*
X8438Y19236D01*
X8437Y19237D01*
D01*
X8437Y19237D01*
X8437Y19237D01*
X8437Y19237D01*
X8437Y19237D01*
X8437Y19238D01*
X8434Y19239D01*
X8412Y19254D01*
X8368Y19284D01*
X8306Y19325D01*
X8306Y19325D01*
X8302Y19328D01*
X8271Y19349D01*
X8203Y19394D01*
X8106Y19459D01*
X8105Y19459D01*
X8062Y19488D01*
X8062Y19488D01*
X8035Y19506D01*
X8012Y19522D01*
X8012Y19522D01*
D01*
X8011Y19522D01*
X8010Y19523D01*
X8008Y19524D01*
X8007Y19525D01*
X8007Y19525D01*
D01*
X8007D01*
X8007Y19525D01*
X8006Y19525D01*
X8004Y19525D01*
X8001Y19526D01*
X8001D01*
X8000Y19526D01*
X7999Y19526D01*
X7998Y19526D01*
X7997Y19527D01*
X7997Y19527D01*
X7997Y19527D01*
X7997Y19527D01*
X7997Y19527D01*
X7997Y19527D01*
X7997Y19527D01*
X7996Y19527D01*
X7996Y19527D01*
X7996Y19527D01*
X7996Y19527D01*
X7996Y19527D01*
X7995Y19527D01*
X7995Y19527D01*
X7995Y19527D01*
X7995Y19527D01*
X7994Y19527D01*
X7994Y19527D01*
X7992Y19528D01*
X7923Y19541D01*
X7837Y19558D01*
X7807Y19565D01*
X7702Y19585D01*
X7701Y19585D01*
X7700Y19586D01*
X7607Y19604D01*
X7507Y19624D01*
X7503Y19625D01*
X7503Y19625D01*
X7503Y19625D01*
X7502Y19625D01*
X7502D01*
X7502D01*
X7502Y19625D01*
X7502Y19625D01*
X7502Y19625D01*
X7501Y19625D01*
X7501Y19625D01*
X7501Y19625D01*
X7500Y19625D01*
X7500Y19625D01*
D02*
G37*
G36*
X67000Y48529D02*
X66841Y48498D01*
X66759Y48481D01*
X66705Y48471D01*
X66705Y48471D01*
X66470Y48424D01*
X66415Y48413D01*
X66415D01*
X66202Y48271D01*
X65919Y48081D01*
X65816Y47927D01*
X65721Y47786D01*
Y47786D01*
X65718Y47781D01*
X65587Y47585D01*
X65587Y47585D01*
D01*
X65480Y47047D01*
X65480Y47047D01*
X65471Y47000D01*
X65471Y47000D01*
X65471Y47000D01*
X65471Y47000D01*
X65587Y46415D01*
Y46415D01*
Y46415D01*
X65897Y45859D01*
Y45859D01*
X65981Y45708D01*
X66117Y45232D01*
X66148Y45124D01*
X66399Y44206D01*
X66538Y43663D01*
X66567Y43518D01*
X66587Y43415D01*
X66741Y43185D01*
X66919Y42717D01*
Y42000D01*
Y41283D01*
X66741Y40815D01*
X66587Y40585D01*
X66471Y40000D01*
X66587Y39415D01*
X66919Y38919D01*
X67415Y38587D01*
X68000Y38471D01*
X68585Y38587D01*
X69081Y38919D01*
X69413Y39415D01*
X69529Y40000D01*
X69413Y40585D01*
X69259Y40815D01*
X69081Y41283D01*
Y42000D01*
Y42717D01*
X69259Y43185D01*
X69413Y43415D01*
X69529Y44000D01*
X69413Y44585D01*
X69413Y44585D01*
X69328Y44713D01*
X69005Y45313D01*
X68870Y45725D01*
X68529Y47000D01*
X68529Y47002D01*
X68472Y47290D01*
X68433Y47482D01*
D01*
X68413Y47585D01*
X68413Y47585D01*
X68248Y47831D01*
D01*
X68081Y48081D01*
X68081D01*
X67585Y48413D01*
X67209Y48488D01*
X67000Y48529D01*
X67000Y48529D01*
D02*
G37*
G36*
X33200Y78225D02*
X33200D01*
D01*
X33200Y78225D01*
D01*
X33194Y78224D01*
X33067Y78199D01*
X32940Y78174D01*
X32829Y78152D01*
X32706Y78127D01*
X32706D01*
X32706Y78127D01*
X32705Y78127D01*
X32704Y78127D01*
X32704Y78127D01*
X32704Y78127D01*
X32704Y78127D01*
X32704Y78127D01*
X32704Y78127D01*
X32704Y78127D01*
X32703Y78127D01*
X32703Y78127D01*
X32703Y78127D01*
X32703Y78127D01*
X32703Y78127D01*
X32703Y78127D01*
X32698Y78126D01*
X32696Y78125D01*
X32693Y78125D01*
X32693D01*
X32693Y78124D01*
X32693Y78124D01*
X32693Y78124D01*
X32692Y78124D01*
X32692D01*
X32690Y78123D01*
X32668Y78108D01*
X32632Y78084D01*
X32621Y78077D01*
X32561Y78037D01*
X32557Y78034D01*
X32465Y77972D01*
X32408Y77934D01*
X32361Y77903D01*
X32361Y77903D01*
X32359Y77902D01*
X32317Y77874D01*
X32291Y77856D01*
X32267Y77840D01*
X32267Y77840D01*
X32265Y77839D01*
X32264Y77838D01*
X32263Y77837D01*
D01*
X32263Y77837D01*
X32263Y77837D01*
X32263Y77837D01*
X32263Y77837D01*
X32263Y77837D01*
X32263D01*
X32261Y77834D01*
X32246Y77812D01*
X32223Y77777D01*
X32215Y77766D01*
X32175Y77706D01*
X32172Y77702D01*
X32110Y77609D01*
X32073Y77553D01*
X32041Y77505D01*
X32041Y77505D01*
X32040Y77504D01*
X32012Y77462D01*
X31994Y77435D01*
X31978Y77412D01*
X31978Y77412D01*
X31977Y77410D01*
X31976Y77408D01*
X31975Y77407D01*
X31975Y77407D01*
D01*
X31975Y77407D01*
X31975Y77406D01*
X31974Y77402D01*
X31974Y77401D01*
X31974Y77401D01*
Y77401D01*
X31974Y77400D01*
X31974Y77399D01*
X31973Y77397D01*
X31973Y77397D01*
X31973Y77397D01*
X31973Y77396D01*
X31973Y77396D01*
X31973Y77396D01*
X31973Y77396D01*
X31973Y77396D01*
X31973Y77396D01*
X31973Y77395D01*
X31973Y77395D01*
X31973Y77394D01*
X31973Y77394D01*
Y77394D01*
X31972Y77392D01*
X31943Y77243D01*
X31914Y77096D01*
X31912Y77091D01*
X31895Y77005D01*
X31895Y77004D01*
X31876Y76907D01*
X31875Y76903D01*
X31875Y76903D01*
X31875Y76903D01*
X31875Y76903D01*
X31875Y76902D01*
Y76902D01*
X31875Y76902D01*
X31875Y76902D01*
X31875D01*
X31875Y76902D01*
X31875Y76902D01*
X31875Y76901D01*
X31874Y76900D01*
X31874Y76900D01*
D01*
Y76900D01*
Y76900D01*
D01*
X31874Y76900D01*
D01*
X31876Y76894D01*
X31890Y76824D01*
X31899Y76775D01*
X31921Y76668D01*
X31945Y76544D01*
X31973Y76406D01*
Y76406D01*
X31973Y76406D01*
X31973Y76405D01*
X31973Y76405D01*
X31973Y76404D01*
X31973Y76404D01*
X31973Y76404D01*
X31973Y76404D01*
X31973Y76404D01*
X31973Y76404D01*
X31973Y76403D01*
X31973Y76403D01*
X31973Y76403D01*
X31973Y76403D01*
X31973Y76403D01*
X31973Y76403D01*
X31973Y76403D01*
D01*
X31974Y76401D01*
X31975Y76396D01*
X31975Y76393D01*
X31975D01*
Y76393D01*
X31975Y76393D01*
X31975Y76393D01*
X31976Y76393D01*
X31976Y76392D01*
Y76392D01*
X31977Y76390D01*
X31992Y76368D01*
X32022Y76323D01*
X32063Y76261D01*
X32063Y76261D01*
X32066Y76257D01*
X32087Y76226D01*
X32130Y76161D01*
X32166Y76108D01*
X32197Y76061D01*
X32197Y76061D01*
X32226Y76018D01*
X32226Y76018D01*
X32244Y75991D01*
X32260Y75967D01*
X32260Y75967D01*
D01*
X32261Y75966D01*
X32261Y75965D01*
X32262Y75964D01*
X32263Y75963D01*
D01*
X32263Y75963D01*
X32263Y75963D01*
X32263Y75963D01*
X32263Y75963D01*
X32263Y75963D01*
X32266Y75961D01*
X32288Y75946D01*
X32334Y75915D01*
X32394Y75875D01*
X32398Y75872D01*
X32429Y75852D01*
X32494Y75808D01*
X32547Y75773D01*
X32595Y75741D01*
X32595Y75741D01*
X32638Y75712D01*
X32638Y75712D01*
X32665Y75694D01*
X32688Y75678D01*
X32688Y75678D01*
X32690Y75677D01*
X32692Y75676D01*
X32693Y75675D01*
X32693Y75675D01*
D01*
X32693D01*
X32693Y75675D01*
X32694Y75675D01*
X32696Y75675D01*
X32699Y75674D01*
X32699D01*
X32700Y75674D01*
X32701Y75674D01*
X32703Y75673D01*
X32703Y75673D01*
X32703Y75673D01*
X32703Y75673D01*
X32703Y75673D01*
X32703Y75673D01*
X32704Y75673D01*
X32704Y75673D01*
X32704Y75673D01*
X32704Y75673D01*
X32704Y75673D01*
X32704Y75673D01*
X32704Y75673D01*
X32705Y75673D01*
X32705Y75673D01*
X32706Y75673D01*
X32706Y75673D01*
X32706Y75673D01*
X32708Y75672D01*
X32780Y75658D01*
X32869Y75640D01*
X32900Y75634D01*
X33010Y75612D01*
X33010Y75612D01*
X33094Y75596D01*
X33096Y75595D01*
X33193Y75576D01*
X33197Y75575D01*
X33197Y75575D01*
X33197D01*
X33197Y75575D01*
X33198Y75575D01*
X33198D01*
X33198D01*
X33198Y75575D01*
X33198Y75575D01*
X33198Y75575D01*
X33199Y75575D01*
X33199Y75575D01*
X33200Y75574D01*
X33200Y75574D01*
X33200D01*
X33200D01*
D01*
X33200D01*
Y75574D01*
X33200D01*
X33205Y75576D01*
X33323Y75599D01*
X33432Y75621D01*
X33553Y75645D01*
X33610Y75656D01*
X33694Y75673D01*
X33694D01*
X33694Y75673D01*
X33695Y75673D01*
X33696Y75673D01*
X33696Y75673D01*
X33696Y75673D01*
X33696Y75673D01*
X33696Y75673D01*
X33696Y75673D01*
X33697Y75673D01*
X33697Y75673D01*
X33697Y75673D01*
X33702Y75674D01*
X33704Y75675D01*
X33707Y75675D01*
Y75675D01*
X33707D01*
X33707Y75675D01*
X33707Y75675D01*
X33707Y75676D01*
X33708Y75676D01*
X33708D01*
X33710Y75677D01*
X33732Y75692D01*
X33768Y75716D01*
X33779Y75723D01*
X33839Y75763D01*
X33843Y75766D01*
X33874Y75787D01*
X33939Y75830D01*
X33992Y75866D01*
X34039Y75897D01*
X34039Y75897D01*
X34041Y75898D01*
X34083Y75926D01*
X34109Y75944D01*
X34133Y75960D01*
X34133Y75960D01*
D01*
X34134Y75961D01*
X34135Y75961D01*
X34136Y75962D01*
X34137Y75963D01*
D01*
X34137Y75963D01*
X34137Y75963D01*
X34137Y75963D01*
X34137Y75963D01*
X34137Y75963D01*
X34137D01*
X34139Y75966D01*
X34154Y75988D01*
X34185Y76034D01*
X34225Y76094D01*
X34228Y76098D01*
X34249Y76129D01*
X34292Y76194D01*
X34327Y76247D01*
X34359Y76295D01*
X34359Y76295D01*
X34360Y76296D01*
X34388Y76338D01*
X34406Y76365D01*
X34422Y76388D01*
X34422Y76388D01*
X34422D01*
X34422Y76389D01*
X34423Y76390D01*
X34424Y76392D01*
X34425Y76393D01*
X34425Y76393D01*
D01*
Y76393D01*
X34425Y76393D01*
X34425Y76394D01*
X34426Y76398D01*
X34426Y76399D01*
X34426Y76399D01*
Y76399D01*
Y76399D01*
X34426Y76400D01*
X34426Y76401D01*
X34427Y76403D01*
X34427Y76403D01*
X34427Y76403D01*
X34427Y76404D01*
X34427Y76404D01*
X34427Y76404D01*
X34427Y76404D01*
X34427Y76404D01*
X34427Y76404D01*
X34427Y76405D01*
X34427Y76405D01*
X34427Y76405D01*
X34427Y76406D01*
X34427Y76406D01*
X34427Y76406D01*
X34428Y76408D01*
X34457Y76557D01*
X34486Y76704D01*
X34488Y76710D01*
X34488Y76710D01*
X34504Y76793D01*
X34505Y76795D01*
X34508Y76813D01*
X34524Y76893D01*
X34525Y76897D01*
X34525Y76897D01*
X34525Y76897D01*
X34525Y76898D01*
Y76898D01*
Y76898D01*
X34525Y76898D01*
X34525Y76898D01*
X34525Y76899D01*
X34525Y76899D01*
X34525Y76900D01*
X34525Y76900D01*
D01*
Y76900D01*
Y76900D01*
X34525D01*
Y76900D01*
Y76900D01*
X34525Y76905D01*
X34501Y77024D01*
X34479Y77132D01*
X34478Y77137D01*
X34454Y77261D01*
X34427Y77394D01*
Y77394D01*
Y77394D01*
X34427Y77394D01*
X34427Y77395D01*
X34427Y77395D01*
X34427Y77396D01*
X34427Y77396D01*
X34427Y77396D01*
X34427Y77396D01*
X34427Y77396D01*
X34427Y77396D01*
X34427Y77397D01*
X34427Y77397D01*
X34427Y77397D01*
D01*
X34426Y77399D01*
X34425Y77403D01*
X34425Y77407D01*
X34425D01*
Y77407D01*
X34424Y77407D01*
X34424Y77407D01*
X34424Y77407D01*
X34424Y77408D01*
X34423Y77410D01*
X34408Y77432D01*
X34378Y77477D01*
X34337Y77539D01*
X34337Y77539D01*
X34334Y77543D01*
X34313Y77574D01*
X34268Y77641D01*
X34203Y77739D01*
X34203Y77739D01*
X34174Y77782D01*
X34174Y77782D01*
X34156Y77809D01*
X34140Y77833D01*
X34140Y77833D01*
D01*
X34139Y77834D01*
X34139Y77835D01*
X34138Y77836D01*
X34137Y77837D01*
D01*
X34137Y77837D01*
X34137Y77837D01*
X34137Y77837D01*
X34137Y77837D01*
X34137Y77838D01*
X34134Y77839D01*
X34112Y77854D01*
X34068Y77884D01*
X34006Y77925D01*
X34006Y77925D01*
X34002Y77928D01*
X33971Y77948D01*
X33904Y77994D01*
X33806Y78059D01*
X33805Y78059D01*
X33762Y78088D01*
X33762Y78088D01*
X33735Y78106D01*
X33712Y78122D01*
X33712Y78122D01*
D01*
X33711Y78122D01*
X33710Y78123D01*
X33708Y78124D01*
X33707Y78125D01*
X33707Y78125D01*
D01*
X33707D01*
X33707Y78125D01*
X33706Y78125D01*
X33704Y78125D01*
X33701Y78126D01*
X33701D01*
X33700Y78126D01*
X33699Y78126D01*
X33698Y78126D01*
X33697Y78127D01*
X33697Y78127D01*
X33697Y78127D01*
X33697Y78127D01*
X33697Y78127D01*
X33697Y78127D01*
X33696Y78127D01*
X33696Y78127D01*
X33696Y78127D01*
X33696Y78127D01*
X33696Y78127D01*
X33696Y78127D01*
X33696Y78127D01*
X33695Y78127D01*
X33695Y78127D01*
X33695Y78127D01*
X33694Y78127D01*
X33694Y78127D01*
X33692Y78128D01*
X33623Y78141D01*
X33537Y78158D01*
X33507Y78164D01*
X33402Y78185D01*
X33401Y78185D01*
X33400Y78186D01*
X33307Y78204D01*
X33207Y78224D01*
X33203Y78225D01*
X33203Y78225D01*
X33203Y78225D01*
X33202Y78225D01*
X33202D01*
X33202D01*
X33202Y78225D01*
X33202Y78225D01*
X33202Y78225D01*
X33201Y78225D01*
X33201Y78225D01*
X33201Y78225D01*
X33200Y78225D01*
X33200Y78225D01*
D02*
G37*
G36*
X22100Y81829D02*
X21515Y81713D01*
X21019Y81381D01*
X20687Y80885D01*
X20571Y80300D01*
X20687Y79715D01*
X21019Y79219D01*
X21515Y78887D01*
X22100Y78771D01*
X22685Y78887D01*
X23181Y79219D01*
X23513Y79715D01*
X23629Y80300D01*
X23513Y80885D01*
X23181Y81381D01*
X22685Y81713D01*
X22100Y81829D01*
D02*
G37*
G36*
X91000Y70325D02*
X91000D01*
X91000Y70325D01*
X90740Y70274D01*
X90506Y70227D01*
D01*
X90504Y70227D01*
X90504Y70227D01*
X90503Y70227D01*
X90503Y70227D01*
X90493Y70225D01*
X90493D01*
X90493D01*
X90493Y70224D01*
X90493Y70224D01*
X90492Y70224D01*
X90492D01*
X90490Y70223D01*
X90468Y70208D01*
X90430Y70183D01*
X90361Y70137D01*
X90361D01*
X90357Y70134D01*
X90161Y70003D01*
X90161D01*
X90159Y70002D01*
X90067Y69940D01*
D01*
X90063Y69937D01*
X90063D01*
D01*
X90063Y69937D01*
X90062Y69937D01*
X90062Y69936D01*
X90061Y69935D01*
X90061Y69935D01*
X90055Y69930D01*
X90055D01*
X89528Y69521D01*
X88539Y68760D01*
X88117Y68580D01*
X87739Y68477D01*
X87710Y68472D01*
X87710D01*
X87415Y68413D01*
X87415Y68413D01*
X86919Y68081D01*
X86587Y67585D01*
X86529Y67295D01*
X86471Y67000D01*
X86471Y67000D01*
X86529Y66705D01*
Y66705D01*
X86587Y66415D01*
X86918Y65919D01*
X86919Y65919D01*
X87415Y65587D01*
X87415Y65587D01*
X87710Y65528D01*
X88000Y65471D01*
X88585Y65587D01*
X89081Y65919D01*
X89264Y66191D01*
X89348Y66318D01*
X89443Y66439D01*
X90487Y67267D01*
X91868Y66603D01*
X91921Y66577D01*
X92282Y66404D01*
X92312Y66389D01*
X92312Y66389D01*
X92313Y66388D01*
X92313Y66388D01*
X92321Y66373D01*
X92332Y66354D01*
X92333Y66354D01*
X92353Y66318D01*
X92488Y66087D01*
X92471Y66000D01*
X92471Y66000D01*
X92528Y65710D01*
X92587Y65415D01*
X92587Y65415D01*
X92919Y64919D01*
X93415Y64587D01*
X93415Y64587D01*
X93710Y64528D01*
X93710Y64528D01*
X94000Y64471D01*
X94000Y64471D01*
X94295Y64529D01*
X94585Y64587D01*
X94815Y64741D01*
X95283Y64919D01*
X96000D01*
X96717D01*
X97185Y64741D01*
X97415Y64587D01*
X98000Y64471D01*
X98585Y64587D01*
X99081Y64919D01*
X99413Y65415D01*
X99529Y66000D01*
X99413Y66585D01*
X99081Y67081D01*
X98585Y67413D01*
X98000Y67529D01*
X97415Y67413D01*
X97185Y67259D01*
X96717Y67081D01*
X96000D01*
X95283D01*
X94815Y67259D01*
X94585Y67413D01*
X94000Y67529D01*
X93914Y67512D01*
X93800Y67578D01*
X93646Y67668D01*
X93646Y67668D01*
X93541Y67729D01*
X93484Y67762D01*
X93435Y67808D01*
X93310Y67928D01*
X93309Y67929D01*
X93299Y67939D01*
X93299Y67939D01*
X93098Y68231D01*
Y68231D01*
X92735Y68758D01*
X92218Y69517D01*
X92137Y69639D01*
X92137Y69639D01*
D01*
X92003Y69839D01*
X92003Y69839D01*
X92003D01*
X91990Y69858D01*
X91974Y69882D01*
X91956Y69909D01*
X91940Y69933D01*
X91940Y69933D01*
D01*
X91940Y69934D01*
X91939Y69935D01*
X91938Y69936D01*
X91937Y69937D01*
D01*
X91937Y69937D01*
X91937D01*
X91937Y69937D01*
X91937D01*
X91806Y70025D01*
X91806D01*
X91605Y70159D01*
X91605D01*
X91512Y70222D01*
X91512D01*
X91507Y70225D01*
X91507Y70225D01*
X91501Y70226D01*
X91497Y70227D01*
X91496Y70227D01*
X91496Y70227D01*
X91494Y70227D01*
X91202Y70285D01*
X91003Y70325D01*
X91003Y70325D01*
X91002Y70325D01*
X91000Y70325D01*
D02*
G37*
G36*
X19000Y75029D02*
X19000Y75029D01*
X18415Y74913D01*
X17919Y74581D01*
X17919D01*
X17752Y74331D01*
D01*
X17587Y74085D01*
X17587Y74085D01*
X17528Y73790D01*
Y73790D01*
X17471Y73500D01*
X17083Y72975D01*
X16929Y72837D01*
X15830Y72221D01*
X15303Y71929D01*
Y71929D01*
X15296Y71925D01*
X15296Y71925D01*
X15296Y71925D01*
X15294Y71925D01*
X15293Y71925D01*
X15293Y71925D01*
X15292Y71924D01*
X15161Y71837D01*
Y71837D01*
X15008Y71734D01*
X14961Y71703D01*
X14961Y71703D01*
X14961D01*
X14925Y71679D01*
X14891Y71656D01*
X14867Y71640D01*
X14867Y71640D01*
D01*
X14866Y71639D01*
X14865Y71639D01*
X14864Y71638D01*
X14863Y71637D01*
D01*
X14863Y71637D01*
Y71637D01*
X14863Y71637D01*
D01*
X14775Y71506D01*
Y71506D01*
X14673Y71353D01*
X14641Y71305D01*
X14641Y71305D01*
Y71305D01*
X14594Y71235D01*
X14578Y71212D01*
X14578Y71212D01*
X14578D01*
X14578Y71211D01*
X14577Y71210D01*
X14576Y71208D01*
X14575Y71207D01*
X14575Y71207D01*
X14575Y71207D01*
X14574Y71201D01*
X14573Y71197D01*
Y71197D01*
X14573Y71196D01*
X14573Y71196D01*
Y71196D01*
X14573Y71196D01*
X14573Y71196D01*
D01*
X14573Y71195D01*
X14573Y71194D01*
X14573Y71194D01*
X14534Y70998D01*
X14512Y70890D01*
X14512Y70890D01*
X14494Y70800D01*
X14489Y70773D01*
X14475Y70703D01*
Y70703D01*
X14475Y70703D01*
Y70703D01*
X14475Y70702D01*
D01*
X14475Y70702D01*
X14475Y70702D01*
X14475Y70702D01*
X14475Y70701D01*
X14475Y70701D01*
X14475Y70700D01*
Y70700D01*
D01*
X14475Y70700D01*
X14521Y70468D01*
X14521Y70468D01*
X14573Y70206D01*
X14573Y70206D01*
X14573Y70205D01*
Y70204D01*
X14573Y70204D01*
Y70204D01*
X14573Y70203D01*
X14573Y70203D01*
X14573Y70203D01*
X14575Y70193D01*
Y70193D01*
Y70193D01*
X14575Y70193D01*
X14575Y70193D01*
X14576Y70192D01*
X14576Y70192D01*
Y70192D01*
X14577Y70190D01*
X14592Y70168D01*
X14663Y70061D01*
Y70061D01*
X14666Y70057D01*
X14687Y70026D01*
X14797Y69861D01*
Y69861D01*
X14860Y69767D01*
Y69767D01*
X14863Y69763D01*
D01*
Y69763D01*
D01*
X14863Y69763D01*
X14863Y69763D01*
X14863Y69763D01*
X14863Y69762D01*
X14863Y69762D01*
Y69762D01*
X14866Y69761D01*
X14888Y69746D01*
X14994Y69675D01*
Y69675D01*
X14998Y69672D01*
X15029Y69652D01*
X15195Y69541D01*
X15195Y69541D01*
X15288Y69478D01*
Y69478D01*
X15293Y69475D01*
Y69475D01*
X15293D01*
X15293Y69475D01*
X15294Y69475D01*
X15298Y69474D01*
X15299Y69474D01*
X15299Y69474D01*
X15299D01*
X15299D01*
X15300Y69474D01*
X15303Y69473D01*
X15303Y69473D01*
D01*
X15303D01*
X15304Y69473D01*
X15305Y69473D01*
X15305Y69473D01*
X15306Y69473D01*
Y69473D01*
X15306D01*
Y69473D01*
X15306D01*
X16467Y69227D01*
X16883Y68579D01*
X16930Y67090D01*
X16355Y66524D01*
Y66524D01*
X16274Y66445D01*
X16271Y66443D01*
X16269Y66441D01*
X16267Y66440D01*
X16267Y66440D01*
D01*
X16266Y66439D01*
X16265Y66439D01*
X16264Y66438D01*
X16263Y66437D01*
D01*
X16263Y66437D01*
Y66437D01*
X16262Y66437D01*
D01*
X16175Y66306D01*
Y66306D01*
X16073Y66153D01*
X16041Y66105D01*
X16041Y66105D01*
Y66105D01*
X15994Y66035D01*
X15978Y66012D01*
X15978Y66012D01*
X15978D01*
X15978Y66011D01*
X15977Y66010D01*
X15976Y66008D01*
X15975Y66007D01*
X15975Y66007D01*
X15975Y66007D01*
X15974Y66001D01*
X15973Y65997D01*
Y65997D01*
X15973Y65996D01*
X15973Y65996D01*
Y65996D01*
X15973Y65996D01*
X15973Y65996D01*
D01*
X15973Y65994D01*
X15973Y65994D01*
X15973Y65994D01*
X15913Y65696D01*
X15912Y65690D01*
X15912Y65690D01*
X15876Y65507D01*
X15875Y65503D01*
Y65503D01*
X15875Y65503D01*
X15875Y65503D01*
X15875Y65502D01*
Y65502D01*
D01*
X15875Y65502D01*
X15875Y65502D01*
X15875D01*
X15875Y65502D01*
X15875Y65502D01*
X15875Y65501D01*
X15875Y65500D01*
X15875Y65500D01*
D01*
Y65500D01*
Y65500D01*
D01*
X15875Y65500D01*
X15921Y65268D01*
X15921D01*
X15973Y65006D01*
Y65006D01*
D01*
X15973D01*
X15973Y65004D01*
X15973Y65004D01*
X15973Y65004D01*
X15973Y65004D01*
Y65004D01*
X15973Y65003D01*
X15973Y65003D01*
X15973D01*
X15973Y65003D01*
X15973Y65003D01*
D01*
X15974Y65001D01*
X15975Y64996D01*
X15975Y64993D01*
X15975D01*
X15976Y64993D01*
X15976Y64993D01*
X15976Y64992D01*
X15995Y64964D01*
X16021Y64925D01*
X16063Y64861D01*
X16091Y64820D01*
X16127Y64766D01*
X16165Y64708D01*
X16197Y64661D01*
X16197Y64661D01*
X16226Y64618D01*
X16226Y64618D01*
X16244Y64591D01*
X16260Y64567D01*
X16260Y64567D01*
D01*
X16261Y64566D01*
X16261Y64565D01*
X16262Y64564D01*
X16263Y64563D01*
D01*
X16263Y64563D01*
X16263Y64563D01*
X16263Y64563D01*
X16263Y64563D01*
X16263Y64562D01*
X16266Y64561D01*
X16288Y64546D01*
X16334Y64515D01*
X16394Y64475D01*
X16398Y64472D01*
X16429Y64451D01*
X16494Y64408D01*
X16547Y64373D01*
X16595Y64341D01*
X16595Y64341D01*
X16637Y64312D01*
X16665Y64294D01*
X16688Y64278D01*
X16688Y64278D01*
X16690Y64277D01*
X16692Y64276D01*
X16693Y64275D01*
X16693Y64275D01*
D01*
X16693D01*
X16693Y64275D01*
X16694Y64275D01*
X16696Y64275D01*
X16699Y64274D01*
X16699D01*
X16700Y64274D01*
X16701Y64274D01*
X16703Y64273D01*
X16703Y64273D01*
X16703Y64273D01*
X16703Y64273D01*
X16703Y64273D01*
X16703Y64273D01*
X16703Y64273D01*
X16704Y64273D01*
X16704Y64273D01*
X16704Y64273D01*
X16704Y64273D01*
X16704Y64273D01*
X16704Y64273D01*
X16705Y64273D01*
X16705Y64273D01*
X16705Y64273D01*
X16706Y64273D01*
X16706Y64273D01*
X16708Y64272D01*
X16780Y64258D01*
X16869Y64240D01*
X16933Y64228D01*
X17010Y64212D01*
X17010Y64212D01*
X17094Y64196D01*
X17101Y64194D01*
X17147Y64185D01*
X17197Y64175D01*
X17197Y64175D01*
X17197Y64175D01*
X17198Y64175D01*
X17198Y64175D01*
X17198D01*
X17198Y64175D01*
X17198Y64175D01*
X17198D01*
X17198Y64175D01*
X17199Y64175D01*
X17199Y64175D01*
X17200Y64174D01*
X17200D01*
D01*
X17200D01*
X17200Y64174D01*
X17205Y64175D01*
X17432Y64221D01*
X17432Y64221D01*
X17694Y64273D01*
X17694Y64273D01*
X17695Y64273D01*
X17695Y64273D01*
X17696D01*
X17696Y64273D01*
X17696Y64273D01*
X17696D01*
X17696Y64273D01*
X17697Y64273D01*
X17707Y64275D01*
X17707D01*
X17707D01*
X17707Y64275D01*
X17707Y64275D01*
X17707Y64276D01*
X17708Y64276D01*
X17708D01*
X17710Y64277D01*
X17732Y64292D01*
X17839Y64363D01*
X17839D01*
X17842Y64366D01*
X17874Y64387D01*
X18039Y64497D01*
X18039D01*
X18041Y64498D01*
X18133Y64560D01*
X18133D01*
X18137Y64563D01*
D01*
X18137D01*
D01*
X18137Y64563D01*
X18137Y64563D01*
X18137Y64563D01*
X18137Y64563D01*
X18137Y64563D01*
X18137D01*
X18139Y64566D01*
X18154Y64588D01*
X18225Y64694D01*
X18225D01*
X18228Y64698D01*
X18248Y64729D01*
X18359Y64895D01*
X18359Y64895D01*
X18422Y64988D01*
X18422D01*
X18425Y64993D01*
X18425D01*
Y64993D01*
X18425Y64993D01*
X18425Y64994D01*
X18426Y64998D01*
X18426Y64999D01*
X18426Y64999D01*
Y64999D01*
X18426Y64999D01*
X18426Y65001D01*
X18427Y65005D01*
X18427Y65006D01*
X18907Y66205D01*
X19019Y66348D01*
X19467Y66911D01*
X20266Y67697D01*
Y67697D01*
X20348Y67777D01*
X20350Y67778D01*
X20352Y67780D01*
X20354Y67781D01*
X20354Y67781D01*
D01*
X20355Y67782D01*
X20356Y67782D01*
X20357Y67783D01*
X20358Y67784D01*
D01*
Y67784D01*
X20358D01*
Y67784D01*
X20359Y67784D01*
Y67784D01*
X20446Y67916D01*
Y67916D01*
X20566Y68095D01*
X20580Y68116D01*
Y68116D01*
X20636Y68199D01*
X20643Y68210D01*
D01*
X20646Y68213D01*
X20646Y68214D01*
X20646Y68214D01*
X20647Y68220D01*
X20648Y68224D01*
X20648Y68225D01*
X20648Y68226D01*
X20648Y68227D01*
D01*
X20709Y68531D01*
X20746Y68718D01*
X20746Y68719D01*
X20746Y68719D01*
X20747Y68721D01*
Y68721D01*
Y68721D01*
Y68721D01*
X20747Y68721D01*
X20701Y68953D01*
X20648Y69216D01*
D01*
X20648Y69217D01*
X20648Y69217D01*
X20648Y69219D01*
X20646Y69229D01*
Y69229D01*
X20646Y69229D01*
X20646Y69229D01*
Y69229D01*
X20627Y69257D01*
X20558Y69360D01*
Y69360D01*
X20530Y69401D01*
X20424Y69560D01*
Y69560D01*
X20361Y69654D01*
D01*
X20358Y69658D01*
Y69658D01*
Y69658D01*
D01*
X20358Y69658D01*
X20358Y69659D01*
X20358Y69659D01*
X20358Y69659D01*
X20358Y69659D01*
Y69659D01*
X20358Y69659D01*
X20358Y69659D01*
X20358Y69659D01*
X20357Y69660D01*
X20352Y69666D01*
Y69666D01*
X20060Y70064D01*
X20003Y70144D01*
X19930Y70484D01*
X20081Y72419D01*
X20413Y72915D01*
X20529Y73500D01*
X20454Y73879D01*
X20413Y74085D01*
X20413Y74085D01*
X20082Y74581D01*
X20081Y74581D01*
X19835Y74746D01*
D01*
X19585Y74913D01*
X19585Y74913D01*
X19295Y74971D01*
X19295Y74971D01*
X19000Y75029D01*
D02*
G37*
G36*
X42000Y86529D02*
X41415Y86413D01*
X40919Y86081D01*
X40587Y85585D01*
X40471Y85000D01*
X40587Y84415D01*
X40919Y83919D01*
X41415Y83587D01*
X42000Y83471D01*
X42585Y83587D01*
X43081Y83919D01*
X43413Y84415D01*
X43529Y85000D01*
X43413Y85585D01*
X43081Y86081D01*
X42585Y86413D01*
X42000Y86529D01*
D02*
G37*
G36*
X34000Y95325D02*
X34000D01*
D01*
X34000Y95325D01*
D01*
X33994Y95324D01*
X33867Y95299D01*
X33740Y95274D01*
X33632Y95252D01*
X33581Y95242D01*
X33506Y95227D01*
X33506D01*
X33505Y95227D01*
X33505Y95227D01*
X33505Y95227D01*
X33504Y95227D01*
X33504Y95227D01*
X33504Y95227D01*
X33504Y95227D01*
X33504Y95227D01*
X33503Y95227D01*
X33503Y95227D01*
X33503Y95227D01*
X33503Y95227D01*
X33503Y95227D01*
X33503Y95227D01*
X33503Y95227D01*
X33498Y95226D01*
X33496Y95225D01*
X33493Y95225D01*
X33493D01*
X33493Y95224D01*
X33493Y95224D01*
X33492Y95224D01*
X33492Y95224D01*
X33492D01*
X33490Y95223D01*
X33468Y95208D01*
X33432Y95184D01*
X33421Y95177D01*
X33361Y95137D01*
X33357Y95134D01*
X33264Y95072D01*
X33208Y95034D01*
X33161Y95003D01*
X33161Y95003D01*
X33159Y95002D01*
X33117Y94974D01*
X33091Y94956D01*
X33067Y94940D01*
X33067Y94940D01*
X33065Y94939D01*
X33064Y94938D01*
X33063Y94937D01*
D01*
X33063Y94937D01*
X33063Y94937D01*
X33063Y94937D01*
X33062Y94937D01*
X33062Y94937D01*
X33062D01*
X33061Y94934D01*
X33046Y94912D01*
X33022Y94877D01*
X33015Y94866D01*
X32975Y94806D01*
X32972Y94802D01*
X32910Y94709D01*
X32873Y94653D01*
X32841Y94605D01*
X32841Y94605D01*
X32840Y94604D01*
X32812Y94562D01*
X32794Y94535D01*
X32778Y94512D01*
X32778Y94512D01*
X32777Y94510D01*
X32776Y94508D01*
X32775Y94507D01*
X32775Y94507D01*
D01*
X32775Y94507D01*
X32775Y94506D01*
X32774Y94502D01*
X32774Y94501D01*
X32774Y94501D01*
Y94501D01*
X32774Y94500D01*
X32774Y94499D01*
X32773Y94497D01*
X32773Y94497D01*
X32773Y94497D01*
X32773Y94496D01*
X32773Y94496D01*
X32773Y94496D01*
X32773Y94496D01*
X32773Y94496D01*
X32773Y94496D01*
X32773Y94495D01*
X32773Y94495D01*
X32773Y94494D01*
X32773Y94494D01*
Y94494D01*
X32772Y94492D01*
X32743Y94343D01*
X32713Y94196D01*
X32712Y94191D01*
X32695Y94105D01*
X32695Y94104D01*
X32676Y94007D01*
X32675Y94003D01*
X32675Y94003D01*
X32675Y94003D01*
X32675Y94003D01*
X32675Y94002D01*
Y94002D01*
X32675Y94002D01*
X32675Y94002D01*
X32675D01*
X32675Y94002D01*
X32675Y94002D01*
X32675Y94001D01*
X32675Y94000D01*
X32675Y94000D01*
D01*
Y94000D01*
Y94000D01*
D01*
X32675Y94000D01*
D01*
X32676Y93994D01*
X32690Y93924D01*
X32699Y93875D01*
X32721Y93768D01*
X32722Y93763D01*
X32746Y93639D01*
X32773Y93506D01*
Y93506D01*
X32773Y93506D01*
X32773Y93505D01*
X32773Y93505D01*
X32773Y93504D01*
X32773Y93504D01*
X32773Y93504D01*
X32773Y93504D01*
X32773Y93504D01*
X32773Y93504D01*
X32773Y93503D01*
X32773Y93503D01*
X32773Y93503D01*
X32773Y93503D01*
X32773Y93503D01*
X32773Y93503D01*
X32773Y93503D01*
D01*
X32774Y93501D01*
X32775Y93496D01*
X32775Y93493D01*
X32775D01*
Y93493D01*
X32776Y93493D01*
X32776Y93493D01*
X32776Y93493D01*
X32776Y93492D01*
Y93492D01*
X32777Y93490D01*
X32792Y93468D01*
X32823Y93422D01*
X32863Y93361D01*
X32866Y93357D01*
X32887Y93326D01*
X32932Y93259D01*
X32997Y93161D01*
X32997Y93161D01*
X33026Y93118D01*
X33026Y93118D01*
X33044Y93091D01*
X33060Y93067D01*
X33060Y93067D01*
D01*
X33061Y93066D01*
X33061Y93065D01*
X33062Y93064D01*
X33063Y93063D01*
D01*
X33063Y93063D01*
X33063Y93063D01*
X33063Y93063D01*
X33063Y93063D01*
X33063Y93063D01*
X33066Y93061D01*
X33088Y93046D01*
X33132Y93016D01*
X33194Y92975D01*
X33194Y92975D01*
X33198Y92972D01*
X33229Y92952D01*
X33294Y92908D01*
X33347Y92873D01*
X33395Y92841D01*
X33395Y92841D01*
X33437Y92812D01*
X33438Y92812D01*
X33465Y92794D01*
X33488Y92778D01*
X33488Y92778D01*
X33490Y92777D01*
X33492Y92776D01*
X33493Y92775D01*
X33493Y92775D01*
D01*
X33493D01*
X33493Y92775D01*
X33494Y92775D01*
X33496Y92775D01*
X33499Y92774D01*
X33499D01*
X33500Y92774D01*
X33501Y92774D01*
X33502Y92774D01*
X33503Y92773D01*
X33503Y92773D01*
X33503Y92773D01*
X33504Y92773D01*
X33504Y92773D01*
X33504Y92773D01*
X33504Y92773D01*
X33504Y92773D01*
X33505Y92773D01*
X33505Y92773D01*
X33505Y92773D01*
X33505Y92773D01*
X33506Y92773D01*
X33506Y92773D01*
X33508Y92772D01*
X33580Y92758D01*
X33669Y92740D01*
X33700Y92734D01*
X33810Y92712D01*
X33810Y92712D01*
X33893Y92696D01*
X33896Y92695D01*
X33993Y92676D01*
X33997Y92675D01*
X33997Y92675D01*
X33997D01*
X33997Y92675D01*
X33998Y92675D01*
X33998D01*
X33998D01*
X33998Y92675D01*
X33998Y92675D01*
X33998Y92675D01*
X33999Y92675D01*
X33999Y92675D01*
X34000Y92674D01*
X34000Y92674D01*
X34000D01*
D01*
X34000D01*
Y92674D01*
X34000D01*
X34005Y92676D01*
X34123Y92699D01*
X34232Y92721D01*
X34353Y92745D01*
X34410Y92756D01*
X34494Y92773D01*
X34494D01*
X34495Y92773D01*
X34495Y92773D01*
X34495Y92773D01*
X34496Y92773D01*
X34496Y92773D01*
X34496Y92773D01*
X34496Y92773D01*
X34496Y92773D01*
X34497Y92773D01*
X34497Y92773D01*
X34497Y92773D01*
X34497D01*
X34499Y92774D01*
X34504Y92775D01*
X34507Y92775D01*
Y92775D01*
X34507D01*
X34507Y92775D01*
X34507Y92775D01*
X34507Y92775D01*
X34508Y92776D01*
X34510Y92777D01*
X34532Y92792D01*
X34578Y92823D01*
X34639Y92863D01*
X34642Y92866D01*
X34735Y92928D01*
X34792Y92966D01*
X34839Y92997D01*
X34839Y92997D01*
X34841Y92998D01*
X34883Y93026D01*
X34909Y93044D01*
X34933Y93060D01*
X34933Y93060D01*
D01*
X34934Y93061D01*
X34935Y93061D01*
X34936Y93062D01*
X34937Y93063D01*
D01*
X34937Y93063D01*
X34937Y93063D01*
X34937Y93063D01*
X34938Y93063D01*
X34938Y93063D01*
X34938D01*
X34939Y93066D01*
X34954Y93088D01*
X34977Y93123D01*
X34985Y93134D01*
X35025Y93194D01*
X35028Y93198D01*
X35048Y93229D01*
X35092Y93294D01*
X35127Y93347D01*
X35159Y93395D01*
X35159Y93395D01*
X35160Y93396D01*
X35188Y93438D01*
X35206Y93465D01*
X35222Y93488D01*
X35222Y93488D01*
X35222D01*
X35222Y93489D01*
X35223Y93490D01*
X35224Y93492D01*
X35225Y93493D01*
X35225Y93493D01*
D01*
Y93493D01*
X35225Y93493D01*
X35225Y93494D01*
X35226Y93498D01*
X35226Y93499D01*
X35226Y93499D01*
Y93499D01*
Y93499D01*
X35226Y93500D01*
X35226Y93501D01*
X35227Y93503D01*
X35227Y93503D01*
X35227Y93503D01*
X35227Y93504D01*
X35227Y93504D01*
X35227Y93504D01*
X35227Y93504D01*
X35227Y93504D01*
X35227Y93504D01*
X35227Y93505D01*
X35227Y93505D01*
X35227Y93505D01*
X35227Y93506D01*
X35227Y93506D01*
X35227Y93506D01*
X35228Y93508D01*
X35257Y93657D01*
X35287Y93804D01*
X35288Y93810D01*
X35288Y93810D01*
X35304Y93893D01*
X35305Y93895D01*
X35308Y93913D01*
X35324Y93993D01*
X35325Y93997D01*
X35325Y93997D01*
X35325Y93997D01*
X35325Y93998D01*
Y93998D01*
Y93998D01*
X35325Y93998D01*
X35325Y93998D01*
X35325Y93999D01*
X35325Y93999D01*
X35326Y94000D01*
X35326Y94000D01*
Y94000D01*
D01*
Y94000D01*
Y94000D01*
X35326D01*
Y94000D01*
Y94000D01*
X35324Y94005D01*
X35301Y94124D01*
X35279Y94232D01*
X35278Y94237D01*
X35254Y94361D01*
X35227Y94494D01*
Y94494D01*
Y94494D01*
X35227Y94494D01*
X35227Y94495D01*
X35227Y94495D01*
X35227Y94496D01*
X35227Y94496D01*
X35227Y94496D01*
X35227Y94496D01*
X35227Y94496D01*
X35227Y94496D01*
X35227Y94497D01*
X35227Y94497D01*
X35227Y94497D01*
D01*
X35226Y94499D01*
X35225Y94503D01*
X35225Y94507D01*
X35225D01*
Y94507D01*
X35225Y94507D01*
X35225Y94507D01*
X35225Y94507D01*
X35224Y94508D01*
X35223Y94510D01*
X35208Y94532D01*
X35178Y94577D01*
X35137Y94639D01*
X35137Y94639D01*
X35134Y94643D01*
X35113Y94674D01*
X35068Y94741D01*
X35003Y94839D01*
X35003Y94839D01*
X34974Y94882D01*
X34974Y94882D01*
X34956Y94909D01*
X34940Y94933D01*
X34940Y94933D01*
D01*
X34939Y94934D01*
X34939Y94935D01*
X34938Y94936D01*
X34937Y94937D01*
D01*
X34937Y94937D01*
X34937Y94937D01*
X34937Y94937D01*
X34937Y94937D01*
X34937Y94937D01*
X34934Y94939D01*
X34912Y94954D01*
X34868Y94984D01*
X34806Y95025D01*
X34806Y95025D01*
X34802Y95028D01*
X34771Y95048D01*
X34703Y95094D01*
X34606Y95159D01*
X34605Y95159D01*
X34563Y95188D01*
X34562Y95188D01*
X34535Y95206D01*
X34512Y95222D01*
X34512Y95222D01*
D01*
X34511Y95222D01*
X34510Y95223D01*
X34508Y95224D01*
X34507Y95225D01*
X34507Y95225D01*
D01*
X34507D01*
X34507Y95225D01*
X34506Y95225D01*
X34504Y95225D01*
X34501Y95226D01*
X34501D01*
X34500Y95226D01*
X34499Y95226D01*
X34498Y95226D01*
X34497Y95227D01*
X34497Y95227D01*
X34497Y95227D01*
X34497Y95227D01*
X34497Y95227D01*
X34497Y95227D01*
X34497Y95227D01*
X34496Y95227D01*
X34496Y95227D01*
X34496Y95227D01*
X34496Y95227D01*
X34496Y95227D01*
X34495Y95227D01*
X34495Y95227D01*
X34495Y95227D01*
X34495Y95227D01*
X34494Y95227D01*
X34494Y95227D01*
X34492Y95228D01*
X34423Y95241D01*
X34337Y95258D01*
X34307Y95265D01*
X34202Y95285D01*
X34201Y95285D01*
X34201Y95286D01*
X34107Y95304D01*
X34007Y95324D01*
X34003Y95325D01*
X34003Y95325D01*
X34003Y95325D01*
X34002Y95325D01*
X34002D01*
X34002D01*
X34002Y95325D01*
X34002Y95325D01*
X34002Y95325D01*
X34001Y95325D01*
X34001Y95325D01*
X34001Y95325D01*
X34000Y95325D01*
X34000Y95325D01*
D02*
G37*
G36*
X5800Y80726D02*
X5800D01*
D01*
X5800Y80726D01*
D01*
X5794Y80724D01*
X5667Y80699D01*
X5540Y80674D01*
X5432Y80652D01*
X5381Y80642D01*
X5306Y80627D01*
X5306D01*
X5306Y80627D01*
X5305Y80627D01*
X5305Y80627D01*
X5304Y80627D01*
X5304Y80627D01*
X5304Y80627D01*
X5304Y80627D01*
X5304Y80627D01*
X5303Y80627D01*
X5303Y80627D01*
X5303Y80627D01*
X5303Y80627D01*
X5303Y80627D01*
X5303Y80627D01*
X5303Y80627D01*
X5298Y80626D01*
X5296Y80625D01*
X5293Y80625D01*
X5293D01*
X5293Y80625D01*
X5293Y80625D01*
X5293Y80624D01*
X5292Y80624D01*
X5292D01*
X5290Y80623D01*
X5268Y80608D01*
X5232Y80584D01*
X5221Y80577D01*
X5161Y80537D01*
X5157Y80534D01*
X5065Y80472D01*
X5008Y80435D01*
X4961Y80403D01*
X4961Y80403D01*
X4959Y80402D01*
X4917Y80374D01*
X4891Y80356D01*
X4867Y80340D01*
X4867Y80340D01*
X4865Y80339D01*
X4864Y80338D01*
X4863Y80337D01*
D01*
X4863Y80337D01*
X4863Y80337D01*
X4863Y80337D01*
X4862Y80337D01*
X4862Y80337D01*
X4862D01*
X4861Y80334D01*
X4846Y80312D01*
X4823Y80277D01*
X4815Y80266D01*
X4775Y80206D01*
X4772Y80202D01*
X4710Y80109D01*
X4673Y80053D01*
X4641Y80005D01*
X4641Y80005D01*
X4640Y80004D01*
X4612Y79962D01*
X4594Y79935D01*
X4578Y79912D01*
X4578Y79912D01*
X4577Y79910D01*
X4576Y79908D01*
X4575Y79907D01*
X4575Y79907D01*
D01*
X4575Y79907D01*
X4575Y79906D01*
X4574Y79902D01*
X4574Y79901D01*
X4574Y79901D01*
Y79901D01*
X4574Y79900D01*
X4574Y79899D01*
X4573Y79897D01*
X4573Y79897D01*
X4573Y79896D01*
X4573Y79896D01*
X4573Y79896D01*
X4573Y79896D01*
X4573Y79896D01*
X4573Y79896D01*
X4573Y79896D01*
X4573Y79895D01*
X4573Y79895D01*
X4573Y79894D01*
X4573Y79894D01*
Y79894D01*
X4572Y79892D01*
X4543Y79743D01*
X4513Y79596D01*
X4512Y79590D01*
X4495Y79505D01*
X4495Y79504D01*
X4476Y79407D01*
X4475Y79403D01*
X4475Y79403D01*
X4475Y79403D01*
X4475Y79403D01*
X4475Y79402D01*
Y79402D01*
X4475Y79402D01*
X4475Y79402D01*
X4475D01*
X4475Y79402D01*
X4475Y79402D01*
X4475Y79401D01*
X4474Y79400D01*
X4474Y79400D01*
D01*
Y79400D01*
Y79400D01*
D01*
X4474Y79400D01*
D01*
X4476Y79394D01*
X4490Y79324D01*
X4499Y79274D01*
X4521Y79168D01*
X4522Y79163D01*
X4546Y79039D01*
X4573Y78906D01*
Y78906D01*
X4573Y78906D01*
X4573Y78905D01*
X4573Y78905D01*
X4573Y78904D01*
X4573Y78904D01*
X4573Y78904D01*
X4573Y78904D01*
X4573Y78904D01*
X4573Y78904D01*
X4573Y78904D01*
X4573Y78903D01*
X4573Y78903D01*
X4573Y78903D01*
X4573Y78903D01*
X4573Y78903D01*
X4573Y78903D01*
D01*
X4574Y78901D01*
X4575Y78896D01*
X4575Y78893D01*
X4575D01*
Y78893D01*
X4575Y78893D01*
X4575Y78893D01*
X4575Y78893D01*
X4576Y78892D01*
X4577Y78890D01*
X4592Y78868D01*
X4623Y78822D01*
X4663Y78761D01*
X4666Y78758D01*
X4687Y78726D01*
X4730Y78662D01*
X4766Y78608D01*
X4797Y78561D01*
X4797Y78561D01*
X4826Y78518D01*
X4826Y78518D01*
X4844Y78491D01*
X4860Y78467D01*
X4860Y78467D01*
D01*
X4861Y78466D01*
X4861Y78465D01*
X4862Y78464D01*
X4863Y78463D01*
D01*
X4863Y78463D01*
X4863Y78463D01*
X4863Y78463D01*
X4863Y78462D01*
X4863Y78462D01*
Y78462D01*
X4866Y78461D01*
X4888Y78446D01*
X4932Y78416D01*
X4994Y78375D01*
X4994Y78375D01*
X4998Y78372D01*
X5029Y78351D01*
X5097Y78307D01*
X5195Y78241D01*
X5195Y78241D01*
X5237Y78212D01*
X5238Y78212D01*
X5265Y78194D01*
X5288Y78178D01*
X5288Y78178D01*
X5290Y78177D01*
X5292Y78176D01*
X5293Y78175D01*
X5293Y78175D01*
D01*
X5293D01*
X5293Y78175D01*
X5294Y78175D01*
X5296Y78175D01*
X5299Y78174D01*
X5299D01*
X5300Y78174D01*
X5301Y78174D01*
X5302Y78174D01*
X5303Y78173D01*
X5303Y78173D01*
X5303Y78173D01*
X5303Y78173D01*
X5303Y78173D01*
X5303Y78173D01*
X5303Y78173D01*
X5304Y78173D01*
X5304Y78173D01*
X5304Y78173D01*
X5304Y78173D01*
X5304Y78173D01*
X5304Y78173D01*
X5305Y78173D01*
X5305Y78173D01*
X5306Y78173D01*
X5306Y78173D01*
X5306Y78173D01*
X5308Y78172D01*
X5380Y78158D01*
X5469Y78140D01*
X5500Y78134D01*
X5610Y78112D01*
X5610Y78112D01*
X5694Y78096D01*
X5696Y78095D01*
X5793Y78076D01*
X5797Y78075D01*
X5797Y78075D01*
X5797D01*
X5797Y78075D01*
X5798Y78075D01*
X5798D01*
X5798D01*
X5798Y78075D01*
X5798Y78075D01*
X5798Y78075D01*
X5799Y78075D01*
X5799Y78075D01*
X5800Y78075D01*
X5800Y78075D01*
X5800D01*
X5800D01*
D01*
X5800D01*
Y78075D01*
X5800D01*
X5805Y78075D01*
X5923Y78099D01*
X6032Y78121D01*
X6153Y78145D01*
X6210Y78156D01*
X6294Y78173D01*
X6294D01*
X6294Y78173D01*
X6295Y78173D01*
X6296Y78173D01*
X6296Y78173D01*
X6296Y78173D01*
X6296Y78173D01*
X6296Y78173D01*
X6296Y78173D01*
X6297Y78173D01*
X6297Y78173D01*
X6297Y78173D01*
X6297D01*
X6299Y78174D01*
X6304Y78175D01*
X6307Y78175D01*
Y78175D01*
X6307D01*
X6307Y78175D01*
X6307Y78175D01*
X6307Y78176D01*
X6308Y78176D01*
X6308D01*
X6310Y78177D01*
X6332Y78192D01*
X6378Y78223D01*
X6439Y78263D01*
X6442Y78266D01*
X6474Y78287D01*
X6538Y78330D01*
X6592Y78365D01*
X6639Y78397D01*
X6639Y78397D01*
X6641Y78398D01*
X6683Y78426D01*
X6709Y78444D01*
X6733Y78460D01*
X6733Y78460D01*
D01*
X6734Y78461D01*
X6735Y78461D01*
X6736Y78462D01*
X6737Y78463D01*
D01*
X6737Y78463D01*
X6737Y78463D01*
X6737Y78463D01*
X6737Y78463D01*
X6737Y78463D01*
X6739Y78466D01*
X6754Y78488D01*
X6778Y78523D01*
X6785Y78534D01*
X6825Y78594D01*
X6828Y78598D01*
X6890Y78691D01*
X6927Y78747D01*
X6959Y78795D01*
X6959Y78795D01*
X6960Y78796D01*
X6988Y78838D01*
X7006Y78865D01*
X7022Y78888D01*
X7022Y78888D01*
X7022D01*
X7022Y78889D01*
X7023Y78890D01*
X7024Y78892D01*
X7025Y78893D01*
X7025Y78893D01*
D01*
Y78893D01*
X7025Y78893D01*
X7025Y78894D01*
X7026Y78898D01*
X7026Y78899D01*
X7026Y78899D01*
Y78899D01*
Y78899D01*
X7026Y78900D01*
X7026Y78901D01*
X7027Y78903D01*
X7027Y78903D01*
X7027Y78904D01*
X7027Y78904D01*
X7027Y78904D01*
X7027Y78904D01*
X7027Y78904D01*
X7027Y78904D01*
X7027Y78904D01*
X7027Y78905D01*
X7027Y78905D01*
X7027Y78905D01*
X7027Y78906D01*
X7027Y78906D01*
X7027Y78906D01*
X7028Y78908D01*
X7057Y79057D01*
X7086Y79204D01*
X7088Y79210D01*
X7088Y79210D01*
X7104Y79293D01*
X7105Y79295D01*
X7108Y79313D01*
X7124Y79393D01*
X7125Y79397D01*
X7125Y79397D01*
X7125Y79397D01*
X7125Y79398D01*
Y79398D01*
Y79398D01*
X7125Y79398D01*
X7125Y79398D01*
X7125Y79399D01*
X7125Y79399D01*
X7125Y79400D01*
X7125Y79400D01*
D01*
Y79400D01*
Y79400D01*
X7125D01*
Y79400D01*
Y79400D01*
X7124Y79405D01*
X7101Y79523D01*
X7079Y79632D01*
X7078Y79637D01*
X7054Y79761D01*
X7027Y79894D01*
Y79894D01*
Y79894D01*
X7027Y79894D01*
X7027Y79895D01*
X7027Y79895D01*
X7027Y79896D01*
X7027Y79896D01*
X7027Y79896D01*
X7027Y79896D01*
X7027Y79896D01*
X7027Y79896D01*
X7027Y79897D01*
X7027Y79897D01*
X7027Y79897D01*
D01*
X7026Y79899D01*
X7025Y79903D01*
X7025Y79907D01*
X7025D01*
Y79907D01*
X7025Y79907D01*
X7024Y79907D01*
X7024Y79907D01*
X7024Y79908D01*
X7023Y79910D01*
X7008Y79932D01*
X6978Y79977D01*
X6937Y80039D01*
X6937Y80039D01*
X6934Y80043D01*
X6913Y80074D01*
X6868Y80141D01*
X6803Y80239D01*
X6803Y80239D01*
X6774Y80282D01*
X6774Y80282D01*
X6756Y80309D01*
X6740Y80333D01*
X6740Y80333D01*
D01*
X6739Y80334D01*
X6739Y80335D01*
X6738Y80336D01*
X6737Y80337D01*
D01*
X6737Y80337D01*
X6737Y80337D01*
X6737Y80337D01*
X6737Y80337D01*
X6737Y80338D01*
X6734Y80339D01*
X6712Y80354D01*
X6668Y80384D01*
X6606Y80425D01*
X6606Y80425D01*
X6602Y80428D01*
X6571Y80449D01*
X6504Y80493D01*
X6406Y80559D01*
X6405Y80559D01*
X6363Y80588D01*
X6362Y80588D01*
X6335Y80606D01*
X6312Y80622D01*
X6312Y80622D01*
D01*
X6311Y80622D01*
X6310Y80623D01*
X6308Y80624D01*
X6307Y80625D01*
X6307Y80625D01*
D01*
X6307D01*
X6307Y80625D01*
X6306Y80625D01*
X6304Y80625D01*
X6301Y80626D01*
X6301D01*
X6300Y80626D01*
X6299Y80626D01*
X6298Y80626D01*
X6297Y80627D01*
X6297Y80627D01*
X6297Y80627D01*
X6297Y80627D01*
X6297Y80627D01*
X6297Y80627D01*
X6296Y80627D01*
X6296Y80627D01*
X6296Y80627D01*
X6296Y80627D01*
X6296Y80627D01*
X6296Y80627D01*
X6295Y80627D01*
X6295Y80627D01*
X6295Y80627D01*
X6295Y80627D01*
X6294Y80627D01*
X6294Y80627D01*
X6292Y80628D01*
X6223Y80641D01*
X6137Y80659D01*
X6107Y80664D01*
X6002Y80685D01*
X6001Y80685D01*
X6001Y80686D01*
X5907Y80704D01*
X5807Y80724D01*
X5803Y80725D01*
X5803Y80725D01*
X5803Y80725D01*
X5802Y80725D01*
X5802D01*
X5802D01*
X5802Y80725D01*
X5802Y80725D01*
X5802Y80725D01*
X5801Y80725D01*
X5801Y80725D01*
X5801Y80725D01*
X5800Y80726D01*
X5800Y80726D01*
D02*
G37*
G36*
X17000Y84529D02*
X16415Y84413D01*
X15919Y84081D01*
X15587Y83585D01*
X15471Y83000D01*
X15532Y82690D01*
Y82690D01*
X15586Y82419D01*
X15587Y82415D01*
X15587Y82415D01*
X15581Y82406D01*
X15571Y82390D01*
X15561Y82374D01*
X15556Y82367D01*
X15516Y82304D01*
X15471Y82235D01*
X15316Y81995D01*
X15246Y81896D01*
X14837Y81321D01*
X14679Y81099D01*
X14661Y81075D01*
X14638Y81041D01*
X14618Y81014D01*
X14609Y81001D01*
X14532Y80893D01*
X14469Y80804D01*
X14402Y80710D01*
X14341Y80698D01*
X14205Y80671D01*
X14196Y80669D01*
X14196D01*
X13915Y80613D01*
X13419Y80281D01*
X13087Y79785D01*
X13067Y79685D01*
D01*
X13025Y79473D01*
X13025Y79473D01*
X13017Y79467D01*
X12988Y79444D01*
X12967Y79428D01*
X12884Y79364D01*
X12874Y79356D01*
X12873Y79355D01*
X12770Y79276D01*
X12605Y79149D01*
X12590Y79137D01*
X12588Y79136D01*
X12588Y79135D01*
X12580Y79129D01*
X12573Y79124D01*
X12573Y79124D01*
X12571Y79122D01*
X12571Y79122D01*
X12569Y79121D01*
X12567Y79120D01*
X12567Y79119D01*
X12567Y79119D01*
X12567Y79119D01*
X12566Y79119D01*
X12566Y79119D01*
X12565Y79118D01*
X12565Y79118D01*
X12562Y79117D01*
X12469Y79070D01*
X12386Y79027D01*
X12327Y78997D01*
X12306Y78987D01*
X12280Y78974D01*
X12262Y78965D01*
X12156Y78929D01*
X11890Y78841D01*
X11668Y78767D01*
X11594Y78743D01*
X11591Y78742D01*
X11415Y78683D01*
X11203Y78613D01*
X11058Y78565D01*
X11058Y78565D01*
X11058Y78565D01*
X11058Y78565D01*
X11057Y78565D01*
X11057Y78565D01*
X11057Y78565D01*
X11018Y78591D01*
X10985Y78613D01*
X10985Y78613D01*
X10985Y78613D01*
D01*
X10826Y78645D01*
X10826D01*
X10400Y78729D01*
X9815Y78613D01*
X9319Y78281D01*
X9319D01*
X9200Y78104D01*
D01*
X8987Y77785D01*
X8871Y77200D01*
X8987Y76615D01*
X9319Y76119D01*
X9815Y75787D01*
X10400Y75671D01*
X10985Y75787D01*
X11481Y76119D01*
X11813Y76615D01*
X11833Y76714D01*
D01*
X11875Y76927D01*
X11875Y76928D01*
X11883Y76933D01*
X11912Y76956D01*
X11933Y76972D01*
X12016Y77036D01*
X12130Y77125D01*
X12295Y77251D01*
X12310Y77263D01*
X12312Y77264D01*
X12312Y77265D01*
X12320Y77271D01*
X12327Y77276D01*
X12327Y77276D01*
X12329Y77278D01*
X12330Y77278D01*
X12331Y77279D01*
X12332Y77280D01*
X12333Y77280D01*
X12333Y77281D01*
X12333Y77281D01*
X12334Y77281D01*
X12334Y77281D01*
X12335Y77282D01*
X12335Y77282D01*
X12337Y77283D01*
X12431Y77330D01*
X12514Y77372D01*
X12573Y77403D01*
X12594Y77413D01*
X12620Y77426D01*
X12638Y77435D01*
X12744Y77471D01*
X13010Y77559D01*
X13232Y77633D01*
X13306Y77657D01*
X13309Y77658D01*
X13485Y77717D01*
X13697Y77787D01*
X13842Y77836D01*
X13842Y77836D01*
X13842Y77835D01*
X13842Y77835D01*
X13842Y77835D01*
X13844Y77834D01*
X13861Y77823D01*
X13875Y77813D01*
X13875Y77813D01*
X13875Y77813D01*
X13876Y77813D01*
X13893Y77801D01*
X13907Y77792D01*
X13915Y77787D01*
Y77787D01*
X14028Y77764D01*
X14074Y77755D01*
X14074Y77755D01*
X14500Y77671D01*
X14500Y77671D01*
X14790Y77728D01*
X14790Y77728D01*
X14790Y77728D01*
X15031Y77776D01*
X15085Y77787D01*
X15085Y77787D01*
X15581Y78118D01*
X15582Y78119D01*
X15745Y78364D01*
X15748Y78369D01*
Y78369D01*
X15748Y78369D01*
X15913Y78615D01*
X16029Y79200D01*
X16029Y79200D01*
X16019Y79254D01*
X15990Y79399D01*
X16175Y80192D01*
X16184Y80205D01*
X16254Y80304D01*
X16663Y80879D01*
X16822Y81101D01*
X16839Y81125D01*
X16862Y81159D01*
X16882Y81186D01*
X16891Y81199D01*
X16968Y81307D01*
X17031Y81396D01*
X17098Y81490D01*
X17156Y81502D01*
X17236Y81518D01*
X17236Y81518D01*
X17240Y81518D01*
X17244Y81519D01*
X17290Y81528D01*
X17292Y81529D01*
X17303Y81531D01*
X17585Y81587D01*
X17585Y81587D01*
X18081Y81919D01*
X18413Y82415D01*
X18471Y82705D01*
X18529Y83000D01*
X18529Y83000D01*
Y83000D01*
X18471Y83295D01*
Y83295D01*
X18413Y83585D01*
X18081Y84081D01*
X18081Y84081D01*
X17585Y84413D01*
X17585Y84413D01*
X17290Y84472D01*
X17000Y84529D01*
D02*
G37*
G36*
X22556Y52126D02*
X22556D01*
X22556Y52126D01*
X22551Y52125D01*
X22418Y52098D01*
X22296Y52074D01*
X22296D01*
X22101Y52035D01*
X22062Y52027D01*
X22061Y52027D01*
X22061Y52027D01*
X22060Y52027D01*
X22060D01*
X22060Y52027D01*
X22060Y52027D01*
X22060D01*
X22060Y52027D01*
X22059Y52027D01*
X22059Y52027D01*
X22059Y52027D01*
X22059Y52026D01*
X22049Y52025D01*
X22049D01*
X22049D01*
X22049Y52025D01*
X22049Y52025D01*
X22048Y52024D01*
X22048Y52024D01*
X22048Y52024D01*
X22048D01*
X22046Y52023D01*
X22024Y52008D01*
X21988Y51984D01*
X21917Y51937D01*
X21917D01*
X21913Y51934D01*
X21717Y51803D01*
X21717D01*
X21715Y51802D01*
X21623Y51740D01*
D01*
X21619Y51737D01*
X21619D01*
D01*
X21619Y51737D01*
X21619Y51737D01*
X21619Y51737D01*
X21618Y51737D01*
X21618Y51737D01*
X21618D01*
X21617Y51734D01*
X21602Y51712D01*
X21578Y51677D01*
X21531Y51606D01*
X21531Y51606D01*
X21528Y51602D01*
X21397Y51405D01*
X21397Y51405D01*
X21396Y51404D01*
X21334Y51312D01*
X21334D01*
X21331Y51307D01*
X21331D01*
X21331Y51307D01*
X21331Y51306D01*
X21330Y51302D01*
X21330Y51301D01*
X21330Y51301D01*
Y51301D01*
X21330Y51300D01*
X21329Y51297D01*
X21329Y51297D01*
D01*
X21329Y51296D01*
X21329Y51294D01*
X21329D01*
Y51294D01*
Y51294D01*
X21328Y51293D01*
X21314Y51220D01*
X21273Y51015D01*
X21273Y51015D01*
X21268Y50987D01*
X21262Y50959D01*
X21262Y50959D01*
X21262Y50959D01*
X21262Y50959D01*
X21261Y50956D01*
X21260Y50951D01*
X21260D01*
Y50951D01*
X21260Y50950D01*
X21260Y50948D01*
X21260D01*
X21251Y50902D01*
X21241Y50853D01*
X21241Y50853D01*
X21240Y50846D01*
X21238Y50840D01*
X21238D01*
X21238Y50839D01*
X21238Y50839D01*
X21238Y50839D01*
Y50839D01*
X21238Y50837D01*
X21238Y50837D01*
Y50837D01*
X21237Y50835D01*
X21237Y50835D01*
Y50835D01*
X21237Y50834D01*
X21237Y50834D01*
X21235Y50821D01*
X21232Y50806D01*
X21232Y50806D01*
X21231Y50804D01*
X21230Y50800D01*
X21230Y50800D01*
Y50800D01*
X21230Y50800D01*
X21230D01*
Y50800D01*
X21231Y50789D01*
X21269Y49285D01*
X21207Y48442D01*
X21174Y48000D01*
Y48000D01*
X21174Y48000D01*
X21176Y47991D01*
X21176Y47991D01*
X21183Y47957D01*
X21183D01*
X21207Y47838D01*
Y47838D01*
X21207Y47838D01*
X21273Y47506D01*
X21273Y47506D01*
Y47506D01*
X21273Y47505D01*
X21273Y47505D01*
X21273D01*
X21273Y47503D01*
X21275Y47497D01*
X21275Y47493D01*
Y47493D01*
X21275D01*
X21276Y47492D01*
X21276D01*
X21363Y47361D01*
X21363Y47361D01*
X21497Y47161D01*
X21497Y47161D01*
D01*
X21502Y47153D01*
X21526Y47118D01*
X21544Y47091D01*
X21560Y47067D01*
X21560Y47067D01*
D01*
X21561Y47066D01*
X21561Y47065D01*
X21562Y47064D01*
X21563Y47063D01*
D01*
X21563Y47063D01*
X21563D01*
X21563Y47063D01*
X21563D01*
X21694Y46975D01*
X21694Y46975D01*
X21694D01*
X21847Y46873D01*
X21895Y46841D01*
X21895Y46841D01*
X21895D01*
X21938Y46812D01*
X21965Y46794D01*
X21988Y46778D01*
X21988Y46778D01*
Y46778D01*
X21990Y46778D01*
X21990Y46777D01*
X21992Y46776D01*
X21993Y46775D01*
X21993Y46775D01*
X21993Y46775D01*
X21999Y46774D01*
X21999Y46774D01*
X22003Y46773D01*
X22003D01*
X22004Y46773D01*
X22004Y46773D01*
X22004D01*
X22004Y46773D01*
X22005Y46773D01*
D01*
X22005Y46773D01*
X22006Y46773D01*
X22006Y46773D01*
X22304Y46714D01*
X22310Y46712D01*
X22310D01*
X22361Y46702D01*
X22493Y46676D01*
X22497Y46675D01*
Y46675D01*
X22497Y46675D01*
X22497Y46675D01*
X22498Y46675D01*
X22498D01*
D01*
X22498Y46675D01*
X22498D01*
X22498Y46675D01*
X22498Y46675D01*
X22498Y46675D01*
X22499Y46675D01*
X22499Y46675D01*
X22500Y46674D01*
X22500Y46674D01*
D01*
X22500D01*
X22500D01*
D01*
X22500Y46674D01*
D01*
X22500D01*
X22504Y46675D01*
X22625Y46699D01*
X22712Y46717D01*
X22732Y46721D01*
X22861Y46746D01*
X22969Y46768D01*
X22994Y46773D01*
X22995Y46773D01*
X22995Y46773D01*
X22995Y46773D01*
X22996Y46773D01*
X22996Y46773D01*
X22996Y46773D01*
X22996Y46773D01*
X22996Y46773D01*
X22996Y46773D01*
X22997Y46773D01*
X22997Y46773D01*
X22997Y46773D01*
X22997D01*
X22998Y46774D01*
X23006Y46775D01*
X23007Y46775D01*
Y46775D01*
X23007D01*
X23007Y46775D01*
X23007Y46775D01*
X23008Y46776D01*
X23008Y46776D01*
X23008Y46776D01*
X23008D01*
X23010Y46777D01*
X23032Y46792D01*
X23139Y46863D01*
X23139D01*
X23143Y46866D01*
X23339Y46997D01*
X23339D01*
X23341Y46998D01*
X23433Y47060D01*
X23433D01*
X23437Y47063D01*
D01*
X23437D01*
D01*
X23437Y47063D01*
X23437Y47063D01*
X23437Y47063D01*
X23438Y47063D01*
X23438Y47063D01*
X23438D01*
X23439Y47066D01*
X23454Y47088D01*
X23478Y47123D01*
X23525Y47194D01*
X23525D01*
X23528Y47198D01*
X23549Y47229D01*
X23659Y47395D01*
X23659Y47395D01*
X23660Y47396D01*
X23722Y47488D01*
X23722D01*
X23725Y47493D01*
X23725D01*
Y47493D01*
X23725Y47493D01*
X23725Y47494D01*
X23726Y47498D01*
X23726Y47499D01*
X23726Y47499D01*
Y47499D01*
X23726Y47499D01*
X23726Y47501D01*
X23727Y47506D01*
X23727Y47506D01*
D01*
X23727Y47506D01*
Y47506D01*
X23727Y47506D01*
X23728Y47508D01*
X23741Y47574D01*
X23783Y47785D01*
X23783D01*
X23783Y47786D01*
X23788Y47812D01*
X23794Y47841D01*
X23794Y47841D01*
X23794Y47841D01*
Y47841D01*
X23794Y47842D01*
X23794Y47844D01*
X23796Y47849D01*
X23796D01*
Y47849D01*
Y47849D01*
X23796Y47850D01*
X23796Y47852D01*
D01*
X23796Y47852D01*
X23806Y47904D01*
X23818Y47961D01*
X23818Y47961D01*
X23818Y47961D01*
X23818Y47961D01*
Y47961D01*
X23818Y47963D01*
X23818Y47963D01*
D01*
Y47963D01*
X23819Y47965D01*
X23819Y47965D01*
Y47965D01*
X23819Y47966D01*
X23819Y47966D01*
X23819Y47966D01*
X23822Y47981D01*
X23825Y48000D01*
X23825D01*
X23825Y48000D01*
X23825Y48000D01*
Y48000D01*
Y48000D01*
X23825D01*
Y48000D01*
D01*
Y48000D01*
X23825Y48000D01*
Y48000D01*
X23825Y48000D01*
X23825Y48000D01*
X23825Y48000D01*
Y48000D01*
Y48000D01*
Y48000D01*
Y48000D01*
D01*
X23822Y48022D01*
X23813Y48069D01*
X23813Y48069D01*
X23810Y48085D01*
X23810Y48085D01*
X23805Y48113D01*
X23805D01*
X23746Y48444D01*
Y48444D01*
X23763Y49347D01*
X23768Y49633D01*
Y49633D01*
X23796Y50341D01*
X23797Y50377D01*
X23797Y50377D01*
X23857Y50679D01*
X23858Y50685D01*
Y50685D01*
X23863Y50707D01*
X23863Y50708D01*
Y50708D01*
X23866Y50722D01*
X23866Y50722D01*
D01*
X23871Y50750D01*
X23879Y50786D01*
X23879Y50787D01*
Y50787D01*
X23879Y50787D01*
X23879Y50788D01*
Y50788D01*
D01*
X23879Y50789D01*
X23880Y50793D01*
X23881Y50797D01*
X23881Y50798D01*
X23881Y50798D01*
X23881Y50798D01*
Y50798D01*
D01*
X23881Y50798D01*
X23881Y50799D01*
X23881Y50800D01*
X23881Y50800D01*
Y50800D01*
D01*
X23881Y50800D01*
X23881Y50801D01*
X23849Y50963D01*
Y50963D01*
X23849D01*
X23783Y51294D01*
Y51294D01*
X23783D01*
Y51294D01*
X23783Y51295D01*
X23783Y51295D01*
X23783D01*
X23782Y51297D01*
X23781Y51303D01*
X23780Y51307D01*
X23780Y51307D01*
X23780Y51308D01*
X23780Y51308D01*
X23693Y51439D01*
X23693Y51439D01*
D01*
X23559Y51639D01*
X23559Y51639D01*
X23559D01*
X23554Y51647D01*
X23530Y51682D01*
X23512Y51709D01*
X23496Y51733D01*
X23496Y51733D01*
D01*
X23495Y51734D01*
X23495Y51735D01*
X23494Y51736D01*
X23493Y51737D01*
D01*
X23493Y51737D01*
X23493D01*
X23493Y51737D01*
X23493D01*
X23362Y51825D01*
X23361Y51825D01*
X23361D01*
X23161Y51959D01*
X23161Y51959D01*
X23161D01*
X23118Y51988D01*
X23091Y52006D01*
X23068Y52022D01*
X23067Y52022D01*
D01*
X23066Y52022D01*
X23066Y52023D01*
X23064Y52024D01*
X23063Y52025D01*
X23063Y52025D01*
D01*
X23063D01*
X23063Y52025D01*
X23062Y52025D01*
X23060Y52025D01*
X23057Y52026D01*
X23057Y52026D01*
X23056Y52026D01*
X23055Y52026D01*
X23054Y52026D01*
X23053Y52027D01*
X23053D01*
X23053Y52027D01*
X23053Y52027D01*
X23053Y52027D01*
X23053Y52027D01*
X23052Y52027D01*
X23052Y52027D01*
X23052Y52027D01*
X23052Y52027D01*
X23052Y52027D01*
X23052Y52027D01*
X23051Y52027D01*
X23051Y52027D01*
X23051Y52027D01*
X23051Y52027D01*
X23051Y52027D01*
X23050Y52027D01*
X23050Y52027D01*
X23030Y52031D01*
X23013Y52035D01*
X22900Y52057D01*
X22763Y52084D01*
X22758Y52085D01*
X22757Y52085D01*
X22743Y52088D01*
X22665Y52104D01*
X22563Y52124D01*
X22559Y52125D01*
X22559Y52125D01*
X22559Y52125D01*
X22558Y52125D01*
X22558D01*
X22558Y52125D01*
X22558Y52125D01*
X22558Y52125D01*
X22557Y52125D01*
X22556Y52126D01*
X22556Y52126D01*
D02*
G37*
G36*
X19100Y62429D02*
X18515Y62313D01*
X18019Y61981D01*
X17687Y61485D01*
X17571Y60900D01*
X17687Y60315D01*
X18019Y59819D01*
X18515Y59487D01*
X19100Y59371D01*
X19685Y59487D01*
X20181Y59819D01*
X20513Y60315D01*
X20629Y60900D01*
X20513Y61485D01*
X20181Y61981D01*
X19685Y62313D01*
X19100Y62429D01*
D02*
G37*
G36*
X111000Y58530D02*
X110086Y58410D01*
X109235Y58057D01*
X108504Y57496D01*
X107943Y56765D01*
X107590Y55914D01*
X107470Y55000D01*
X107590Y54086D01*
X107943Y53235D01*
X108504Y52504D01*
X109235Y51943D01*
X110086Y51590D01*
X111000Y51470D01*
X111914Y51590D01*
X112765Y51943D01*
X113496Y52504D01*
X114057Y53235D01*
X114410Y54086D01*
X114530Y55000D01*
X114410Y55914D01*
X114057Y56765D01*
X113496Y57496D01*
X112765Y58057D01*
X111914Y58410D01*
X111000Y58530D01*
D02*
G37*
G36*
X79000Y54529D02*
X78415Y54413D01*
X77919Y54081D01*
X77587Y53585D01*
X77471Y53000D01*
X77587Y52415D01*
X77919Y51919D01*
X78415Y51587D01*
X79000Y51471D01*
X79585Y51587D01*
X80081Y51919D01*
X80413Y52415D01*
X80529Y53000D01*
X80413Y53585D01*
X80081Y54081D01*
X79585Y54413D01*
X79000Y54529D01*
D02*
G37*
G36*
X77850Y68380D02*
X77265Y68263D01*
X76769Y67932D01*
X76437Y67436D01*
X76321Y66850D01*
X76437Y66265D01*
X76769Y65769D01*
X77265Y65437D01*
X77850Y65321D01*
X78436Y65437D01*
X78932Y65769D01*
X79263Y66265D01*
X79380Y66850D01*
X79263Y67436D01*
X78932Y67932D01*
X78436Y68263D01*
X77850Y68380D01*
D02*
G37*
G36*
X37024Y70359D02*
X36322Y70219D01*
X35791Y69864D01*
X35671Y69822D01*
X33653D01*
X33533Y69864D01*
X33002Y70219D01*
X32300Y70359D01*
X31598Y70219D01*
X31067Y69864D01*
X30947Y69822D01*
X28929D01*
X28809Y69864D01*
X28278Y70219D01*
X27576Y70359D01*
X26874Y70219D01*
X26278Y69822D01*
X25881Y69226D01*
X25741Y68524D01*
X25881Y67822D01*
X26236Y67291D01*
X26278Y67171D01*
Y65153D01*
X26236Y65033D01*
X25881Y64502D01*
X25741Y63800D01*
X25881Y63098D01*
X26236Y62567D01*
X26278Y62447D01*
Y60429D01*
X26236Y60309D01*
X25881Y59778D01*
X25741Y59076D01*
X25881Y58374D01*
X26278Y57778D01*
X26874Y57381D01*
X27576Y57241D01*
X28278Y57381D01*
X28809Y57736D01*
X28929Y57778D01*
X30947D01*
X31067Y57736D01*
X31598Y57381D01*
X32300Y57241D01*
X33002Y57381D01*
X33533Y57736D01*
X33653Y57778D01*
X35671D01*
X35791Y57736D01*
X36322Y57381D01*
X37024Y57241D01*
X37726Y57381D01*
X38322Y57778D01*
X38719Y58374D01*
X38859Y59076D01*
X38719Y59778D01*
X38364Y60309D01*
X38322Y60429D01*
Y62447D01*
X38364Y62567D01*
X38719Y63098D01*
X38859Y63800D01*
X38719Y64502D01*
X38364Y65033D01*
X38322Y65153D01*
Y67171D01*
X38364Y67291D01*
X38719Y67822D01*
X38859Y68524D01*
X38719Y69226D01*
X38322Y69822D01*
X37726Y70219D01*
X37024Y70359D01*
D02*
G37*
G36*
X99000Y62326D02*
X99000D01*
D01*
X99000Y62326D01*
D01*
X98994Y62324D01*
X98867Y62299D01*
X98740Y62274D01*
X98632Y62252D01*
X98581Y62242D01*
X98506Y62227D01*
X98506D01*
X98506Y62227D01*
X98505Y62227D01*
X98505Y62227D01*
X98504Y62227D01*
X98504Y62227D01*
X98504Y62227D01*
X98504Y62227D01*
X98504Y62227D01*
X98504Y62227D01*
X98503Y62227D01*
X98503Y62227D01*
X98503Y62227D01*
X98503Y62227D01*
X98503Y62227D01*
X98503Y62227D01*
X98498Y62226D01*
X98496Y62225D01*
X98493Y62225D01*
X98493D01*
X98493Y62225D01*
X98493Y62225D01*
X98492Y62224D01*
X98492Y62224D01*
X98492D01*
X98490Y62223D01*
X98468Y62208D01*
X98432Y62184D01*
X98421Y62177D01*
X98361Y62137D01*
X98357Y62134D01*
X98260Y62069D01*
X98163Y62004D01*
X98161Y62003D01*
X98159Y62002D01*
X98115Y61972D01*
X98068Y61941D01*
X98067Y61940D01*
X98065Y61939D01*
X98063Y61937D01*
X98063Y61937D01*
D01*
X98063Y61937D01*
X98063Y61937D01*
X98063Y61937D01*
X98062Y61937D01*
X98062Y61937D01*
X98062D01*
X98061Y61934D01*
X98046Y61912D01*
X98023Y61877D01*
X97975Y61806D01*
X97975Y61806D01*
X97972Y61802D01*
X97841Y61605D01*
X97841Y61605D01*
X97840Y61604D01*
X97778Y61512D01*
X97778D01*
X97775Y61507D01*
X97775D01*
X97775Y61507D01*
X97775Y61506D01*
X97774Y61502D01*
X97774Y61501D01*
X97774Y61501D01*
Y61501D01*
X97774Y61500D01*
X97773Y61497D01*
X97773Y61497D01*
D01*
X97773Y61497D01*
X97773Y61496D01*
Y61496D01*
X97773Y61496D01*
X97773Y61496D01*
X97773Y61496D01*
X97773Y61495D01*
X97773Y61494D01*
Y61494D01*
X97772Y61492D01*
X97712Y61190D01*
X97712D01*
X97695Y61105D01*
X97675Y61003D01*
X97675Y61003D01*
X97675Y61003D01*
X97675Y61003D01*
X97675Y61002D01*
X97675Y61000D01*
X97675Y61000D01*
Y61000D01*
D01*
Y61000D01*
X97675Y61000D01*
D01*
X97676Y60994D01*
X97690Y60924D01*
X97721Y60768D01*
Y60768D01*
X97722Y60763D01*
X97773Y60506D01*
X97773Y60506D01*
X97773Y60506D01*
X97773Y60505D01*
Y60504D01*
X97773Y60504D01*
X97773Y60504D01*
Y60504D01*
X97773Y60504D01*
X97773Y60503D01*
X97773Y60503D01*
X97773Y60503D01*
X97773Y60503D01*
X97775Y60493D01*
Y60493D01*
Y60493D01*
X97776Y60493D01*
X97776Y60493D01*
X97776Y60492D01*
X97776Y60492D01*
Y60492D01*
X97776Y60492D01*
X97777Y60490D01*
X97781Y60485D01*
X97783Y60482D01*
X97783Y60482D01*
X98207Y59738D01*
X98350Y59422D01*
X98350D01*
X98568Y58939D01*
X98568Y58939D01*
X98592Y58886D01*
X98594Y58882D01*
X98594Y58882D01*
X98627Y58626D01*
X98704Y58026D01*
D01*
X98773Y57494D01*
X98773Y57494D01*
Y57494D01*
Y57494D01*
X98717Y57215D01*
X98707Y57162D01*
X98707Y57162D01*
X98704Y57150D01*
X98680Y57026D01*
X98680Y57026D01*
X98679Y57023D01*
X98674Y57000D01*
X98674Y57000D01*
D01*
X98674Y57000D01*
D01*
Y57000D01*
Y57000D01*
X98674Y57000D01*
Y57000D01*
X98688Y56892D01*
X98729Y56569D01*
X98681Y55533D01*
X98587Y54585D01*
X98587Y54585D01*
X98529Y54295D01*
X98489Y54091D01*
X98489Y54091D01*
X98471Y54000D01*
X98471Y54000D01*
X98587Y53415D01*
X98919Y52919D01*
X99415Y52587D01*
X99415Y52587D01*
Y52587D01*
X99710Y52528D01*
X99710Y52528D01*
X100000Y52471D01*
X100000Y52471D01*
X100585Y52587D01*
X101081Y52919D01*
X101081D01*
X101198Y53093D01*
X101198D01*
X101413Y53415D01*
X101413Y53415D01*
X101472Y53710D01*
X101529Y54000D01*
X101511Y54091D01*
X101413Y54585D01*
X101413Y54585D01*
X101319Y55533D01*
X101271Y56569D01*
X101309Y56870D01*
X101312Y56892D01*
X101326Y57000D01*
Y57000D01*
X101326Y57000D01*
Y57000D01*
Y57000D01*
Y57000D01*
X101326Y57000D01*
D01*
X101326Y57000D01*
X101321Y57024D01*
X101321Y57025D01*
X101320Y57026D01*
X101320Y57026D01*
X101281Y57222D01*
X101227Y57494D01*
Y57494D01*
X101227Y57495D01*
X101225Y57507D01*
X101225D01*
X101224Y57508D01*
X101217Y57518D01*
X100793Y58262D01*
X100650Y58578D01*
X100650D01*
X100432Y59061D01*
X100432Y59061D01*
X100408Y59114D01*
X100406Y59118D01*
X100406Y59118D01*
X100373Y59374D01*
X100296Y59974D01*
D01*
X100227Y60506D01*
X100227Y60506D01*
X100286Y60804D01*
X100288Y60810D01*
Y60810D01*
X100308Y60913D01*
X100324Y60993D01*
X100325Y60997D01*
Y60997D01*
D01*
X100325Y60997D01*
X100325Y60998D01*
Y60998D01*
X100325Y60998D01*
X100325Y60998D01*
X100325D01*
X100325Y60998D01*
X100325Y60998D01*
X100325Y60999D01*
X100326Y61000D01*
Y61000D01*
X100326Y61000D01*
X100326Y61000D01*
Y61000D01*
X100326Y61000D01*
X100279Y61232D01*
X100279Y61232D01*
X100227Y61494D01*
Y61494D01*
Y61494D01*
X100227D01*
X100227Y61495D01*
X100227Y61496D01*
X100227Y61496D01*
X100227Y61497D01*
X100227Y61497D01*
X100227Y61497D01*
X100226Y61499D01*
X100225Y61503D01*
X100225Y61507D01*
X100225Y61507D01*
X100224Y61508D01*
X100224Y61508D01*
X100137Y61639D01*
X100137Y61639D01*
D01*
X100003Y61839D01*
X100003Y61839D01*
X100003D01*
X99998Y61847D01*
X99974Y61882D01*
X99956Y61909D01*
X99940Y61933D01*
X99940Y61933D01*
D01*
X99939Y61934D01*
X99939Y61935D01*
X99938Y61936D01*
X99937Y61937D01*
D01*
X99937Y61937D01*
X99937D01*
X99937Y61937D01*
X99937D01*
X99806Y62025D01*
X99806Y62025D01*
X99806D01*
X99606Y62159D01*
X99605Y62159D01*
X99605D01*
X99562Y62188D01*
X99535Y62206D01*
X99512Y62222D01*
X99512Y62222D01*
D01*
X99511Y62222D01*
X99510Y62223D01*
X99508Y62224D01*
X99507Y62225D01*
X99507Y62225D01*
D01*
X99507Y62225D01*
X99506Y62225D01*
X99504Y62225D01*
X99501Y62226D01*
X99501D01*
X99500Y62226D01*
X99499Y62226D01*
X99498Y62226D01*
X99497Y62227D01*
X99497Y62227D01*
X99497Y62227D01*
X99497Y62227D01*
X99497Y62227D01*
X99497D01*
X99496Y62227D01*
X99496Y62227D01*
X99496Y62227D01*
X99496Y62227D01*
X99496Y62227D01*
X99496Y62227D01*
X99495Y62227D01*
X99495Y62227D01*
X99495Y62227D01*
X99494Y62227D01*
X99492Y62228D01*
X99423Y62241D01*
X99337Y62258D01*
X99307Y62265D01*
X99202Y62285D01*
X99200Y62286D01*
X99107Y62304D01*
X99007Y62324D01*
X99003Y62325D01*
X99003Y62325D01*
X99003Y62325D01*
X99002Y62325D01*
X99002D01*
X99002D01*
X99002Y62325D01*
X99002Y62325D01*
X99001Y62325D01*
X99001Y62325D01*
X99001Y62325D01*
X99000Y62326D01*
X99000Y62326D01*
D02*
G37*
G36*
X111000Y68530D02*
X110086Y68410D01*
X109235Y68057D01*
X108504Y67496D01*
X107943Y66765D01*
X107590Y65914D01*
X107470Y65000D01*
X107590Y64086D01*
X107943Y63235D01*
X108504Y62504D01*
X109235Y61943D01*
X110086Y61590D01*
X111000Y61470D01*
X111914Y61590D01*
X112765Y61943D01*
X113496Y62504D01*
X114057Y63235D01*
X114410Y64086D01*
X114530Y65000D01*
X114410Y65914D01*
X114057Y66765D01*
X113496Y67496D01*
X112765Y68057D01*
X111914Y68410D01*
X111000Y68530D01*
D02*
G37*
%LPD*%
G36*
X40000Y16000D02*
X15000D01*
Y43500D01*
X40000D01*
Y16000D01*
D02*
G37*
D10*
X120000Y0D02*
Y100000D01*
X0D02*
X120000D01*
X0Y0D02*
Y100000D01*
Y0D02*
X120000D01*
D35*
X22556Y50444D02*
Y50800D01*
D46*
X105000Y15000D02*
D03*
D48*
X22556Y50800D02*
D03*
X59000Y56000D02*
D03*
X68500Y83000D02*
D03*
X83000D02*
D03*
X85500D02*
D03*
X71500D02*
D03*
X66000Y81500D02*
D03*
Y78500D02*
D03*
X50000Y81500D02*
D03*
Y78500D02*
D03*
X48500Y73000D02*
D03*
X51500D02*
D03*
X55500Y56000D02*
D03*
X62500Y57500D02*
D03*
X2500Y2500D02*
D03*
Y7500D02*
D03*
Y17500D02*
D03*
Y22500D02*
D03*
Y32500D02*
D03*
Y87500D02*
D03*
Y92500D02*
D03*
Y97500D02*
D03*
X7500Y2500D02*
D03*
Y7500D02*
D03*
X17500Y2500D02*
D03*
X22500D02*
D03*
Y7500D02*
D03*
X27500Y2500D02*
D03*
Y7500D02*
D03*
Y97500D02*
D03*
X32500Y2500D02*
D03*
Y97500D02*
D03*
X37500Y87500D02*
D03*
Y97500D02*
D03*
X42500D02*
D03*
X47500Y82500D02*
D03*
Y87500D02*
D03*
Y92500D02*
D03*
Y97500D02*
D03*
X52500Y87500D02*
D03*
Y92500D02*
D03*
Y97500D02*
D03*
X57500D02*
D03*
X62500D02*
D03*
X72500Y77500D02*
D03*
X77500D02*
D03*
Y82500D02*
D03*
X82500Y77500D02*
D03*
X87500Y2500D02*
D03*
Y77500D02*
D03*
X92500Y2500D02*
D03*
Y77500D02*
D03*
Y82500D02*
D03*
X97500Y77500D02*
D03*
Y82500D02*
D03*
X102500Y77500D02*
D03*
Y82500D02*
D03*
X107500Y32500D02*
D03*
Y47500D02*
D03*
Y72500D02*
D03*
Y77500D02*
D03*
Y82500D02*
D03*
X112500Y32500D02*
D03*
Y72500D02*
D03*
Y77500D02*
D03*
Y82500D02*
D03*
X117500Y27500D02*
D03*
Y32500D02*
D03*
Y37500D02*
D03*
Y42500D02*
D03*
Y47500D02*
D03*
Y52500D02*
D03*
Y57500D02*
D03*
Y62500D02*
D03*
Y67500D02*
D03*
Y72500D02*
D03*
Y77500D02*
D03*
Y82500D02*
D03*
X67500Y97500D02*
D03*
X72500D02*
D03*
X77500D02*
D03*
X82500D02*
D03*
D49*
X37500Y47000D02*
D03*
X55000Y33000D02*
D03*
X51000D02*
D03*
X46800Y67800D02*
D03*
Y59500D02*
D03*
X36600Y24200D02*
D03*
X16500Y33424D02*
D03*
X33681Y40319D02*
D03*
M02*
