%FSLAX25Y25*%
%MOIN*%
G70*
G01*
G75*
G04 Layer_Physical_Order=4*
G04 Layer_Color=16711680*
%ADD10C,0.02000*%
%ADD11R,0.05118X0.04134*%
%ADD12R,0.02756X0.03150*%
%ADD13R,0.01000X0.01000*%
%ADD14R,0.01575X0.03347*%
%ADD15R,0.03937X0.04331*%
%ADD16C,0.05000*%
%ADD17R,0.03543X0.03543*%
%ADD18R,0.03937X0.03937*%
%ADD19R,0.11024X0.02756*%
%ADD20R,0.03937X0.07874*%
%ADD21R,0.03150X0.02362*%
%ADD22R,0.02362X0.03150*%
%ADD23R,0.01000X0.01000*%
%ADD24R,0.03150X0.02756*%
%ADD25R,0.01969X0.01969*%
%ADD26R,0.01969X0.03937*%
%ADD27R,0.02658X0.00984*%
%ADD28R,0.00984X0.02658*%
%ADD29R,0.05000X0.12500*%
%ADD30O,0.01181X0.02559*%
%ADD31O,0.02559X0.01181*%
%ADD32R,0.14961X0.14961*%
%ADD33C,0.04000*%
%ADD34C,0.01200*%
%ADD35C,0.00500*%
%ADD36C,0.01000*%
%ADD37C,0.00800*%
%ADD38R,0.04500X0.04000*%
%ADD39R,0.05000X0.04000*%
%ADD40R,0.03000X0.05000*%
%ADD41R,0.06000X0.03000*%
%ADD42R,0.09000X0.04000*%
%ADD43R,0.04000X0.01000*%
%ADD44R,0.01000X0.04000*%
%ADD45R,0.03543X0.02598*%
%ADD46C,0.12000*%
%ADD47C,0.06000*%
%ADD48C,0.01600*%
%ADD49C,0.02000*%
%ADD50C,0.02598*%
%ADD51C,0.10000*%
%ADD52C,0.08000*%
G36*
X87000Y84000D02*
X120000D01*
X120000Y82000D01*
Y24015D01*
X118000Y23451D01*
X117578Y24139D01*
X115994Y25994D01*
X114139Y27578D01*
X112059Y28853D01*
X109805Y29787D01*
X107432Y30356D01*
X105000Y30548D01*
X102568Y30356D01*
X100195Y29787D01*
X97941Y28853D01*
X95861Y27578D01*
X94006Y25994D01*
X92422Y24139D01*
X91147Y22059D01*
X90213Y19805D01*
X89644Y17432D01*
X89452Y15000D01*
X89644Y12568D01*
X90213Y10195D01*
X91147Y7941D01*
X92422Y5861D01*
X94006Y4006D01*
X95861Y2421D01*
X96549Y2000D01*
X95985Y-0D01*
X86000D01*
X84000Y0D01*
X84000Y2000D01*
Y4127D01*
X84405Y4545D01*
X86000Y5471D01*
X86585Y5587D01*
X87081Y5919D01*
X87413Y6415D01*
X87529Y7000D01*
X87413Y7585D01*
X87081Y8081D01*
X86585Y8413D01*
X86000Y8529D01*
X84405Y9455D01*
X84000Y9873D01*
Y15000D01*
X82632D01*
X82179Y15480D01*
X81993Y15812D01*
X81227Y17494D01*
X81227Y17495D01*
D01*
X81227Y17496D01*
X81226Y17502D01*
X81225Y17506D01*
X81225D01*
X81225Y17507D01*
X81225Y17507D01*
X81225Y17507D01*
X81117Y17668D01*
X81117Y17668D01*
X80987Y17862D01*
X80945Y17926D01*
X80945Y17926D01*
X80945D01*
X80945Y17926D01*
X80945Y17926D01*
X80945Y17926D01*
X80945D01*
X80944Y17928D01*
X80943Y17929D01*
X80943D01*
X80942Y17930D01*
X80941Y17932D01*
X80939Y17935D01*
X80937Y17937D01*
X80937Y17937D01*
X80937D01*
Y17937D01*
X80937D01*
X80937Y17937D01*
X80937Y17937D01*
X80937D01*
X80868Y17984D01*
X80848Y17997D01*
X80806Y18025D01*
X80806D01*
X80609Y18157D01*
X80605Y18159D01*
X80605D01*
X80514Y18220D01*
X80512Y18222D01*
Y18222D01*
X80512Y18222D01*
X80511Y18222D01*
X80509Y18223D01*
X80507Y18225D01*
X80507Y18225D01*
X80507Y18225D01*
X80501Y18226D01*
X80501Y18226D01*
X80497Y18227D01*
X80497Y18227D01*
X80497Y18227D01*
X80497D01*
X80497Y18227D01*
X80496Y18227D01*
X80496D01*
X80496D01*
X80496Y18227D01*
X80496D01*
D01*
X80494Y18227D01*
X80494Y18227D01*
X80494Y18227D01*
X80203Y18285D01*
X80190Y18288D01*
X80190D01*
X80011Y18323D01*
X80003Y18325D01*
X80003D01*
X80002Y18325D01*
X80002Y18325D01*
D01*
X80002Y18325D01*
X80002Y18325D01*
X80002Y18325D01*
X80000Y18326D01*
X80000Y18326D01*
D01*
X80000D01*
D01*
X80000D01*
X80000Y18326D01*
X79989Y18323D01*
X79768Y18279D01*
X79768Y18279D01*
X79506Y18227D01*
X79506Y18227D01*
X79506Y18227D01*
X79505Y18227D01*
X79504D01*
X79504D01*
X79504Y18227D01*
X79504D01*
X79504D01*
X79503Y18227D01*
X79493Y18225D01*
X79493D01*
X79493D01*
X79493Y18225D01*
X79492Y18224D01*
X79492Y18224D01*
X79492D01*
X79490Y18223D01*
X79361Y18137D01*
X79361D01*
X79358Y18134D01*
X79161Y18003D01*
X79161D01*
X79104Y17965D01*
X79067Y17940D01*
X79067D01*
X79063Y17937D01*
X79063D01*
X79063D01*
D01*
X79063Y17937D01*
X79062Y17936D01*
X79061Y17935D01*
X79060Y17933D01*
X79059Y17932D01*
X79059D01*
X79059Y17932D01*
X79059Y17931D01*
X79058Y17930D01*
X79057Y17929D01*
X79057Y17928D01*
D01*
X79056Y17928D01*
X79055Y17926D01*
X79055D01*
D01*
X79055Y17926D01*
X79055Y17926D01*
X79055Y17926D01*
X79055D01*
X79052Y17921D01*
X79023Y17878D01*
X78883Y17668D01*
X78883Y17668D01*
X78775Y17507D01*
X78775Y17507D01*
X78775Y17507D01*
Y17507D01*
X78775Y17507D01*
X78775Y17506D01*
X78775Y17506D01*
X78775Y17506D01*
Y17506D01*
X78775Y17506D01*
X78775Y17503D01*
X78773Y17496D01*
X78773Y17495D01*
D01*
X78773Y17494D01*
X78007Y15812D01*
X77820Y15480D01*
X77368Y15000D01*
X70919D01*
X70765Y15000D01*
X70706Y15293D01*
X70706Y15293D01*
X70541Y15541D01*
X69034Y17048D01*
X69012Y17069D01*
X69012Y17069D01*
X68541Y17541D01*
X68539Y17542D01*
X68396Y17638D01*
X68394Y17639D01*
X68293Y17706D01*
X67967Y17921D01*
X67518Y18217D01*
D01*
X67518Y18217D01*
X67518D01*
X67518Y18217D01*
X67516Y18219D01*
X67514Y18220D01*
X67511Y18222D01*
X67508Y18224D01*
X67508Y18224D01*
X67508D01*
X67508Y18224D01*
X67507Y18225D01*
X67507Y18225D01*
X67507D01*
X67381Y18250D01*
X67296Y18267D01*
X67296D01*
X67204Y18285D01*
X67137Y18298D01*
X67137Y18298D01*
X67121Y18301D01*
X67110Y18304D01*
X67110Y18304D01*
X67055Y18315D01*
X67013Y18323D01*
X67013D01*
X67013D01*
X67010Y18324D01*
X67008Y18324D01*
X67008D01*
X67005Y18325D01*
X67002Y18325D01*
X67002D01*
X67001Y18325D01*
X67000Y18326D01*
X67000Y18326D01*
X66811Y18288D01*
X66506Y18227D01*
D01*
X66503Y18227D01*
X66494Y18225D01*
X66493Y18225D01*
X66332Y18117D01*
X66074Y17945D01*
X66074Y17945D01*
X66073Y17944D01*
X66071Y17943D01*
X66071Y17943D01*
X66063Y17937D01*
X66063D01*
X66062Y17937D01*
X66062D01*
X65975Y17806D01*
X65975D01*
X65841Y17605D01*
X65841Y17605D01*
X65778Y17512D01*
X65775Y17507D01*
X65775Y17507D01*
X65775Y17507D01*
X65775Y17506D01*
X65775Y17505D01*
X65774Y17502D01*
X65774Y17501D01*
X65774Y17501D01*
X65774Y17501D01*
X65774Y17501D01*
X65774Y17500D01*
X65774Y17500D01*
X65774Y17498D01*
X65774Y17498D01*
X65772Y17495D01*
X65765Y17479D01*
X64317Y17169D01*
X63472Y17290D01*
Y17290D01*
X63413Y17585D01*
X63413Y17585D01*
X63248Y17831D01*
D01*
X63081Y18081D01*
X63081D01*
X62585Y18413D01*
X62000Y18529D01*
X62000Y18529D01*
X61705Y18471D01*
X61705D01*
X61415Y18413D01*
X61415Y18413D01*
X60770Y19026D01*
X61760Y20635D01*
X79901D01*
X80400D01*
X80400D01*
X80554Y20666D01*
X80693Y20694D01*
D01*
X80693Y20694D01*
X80810Y20772D01*
X80941Y20859D01*
X80941Y20859D01*
X81287Y21206D01*
X95893Y35811D01*
X97494Y36773D01*
X97495Y36773D01*
X97506Y36775D01*
X97507Y36775D01*
X97668Y36883D01*
X97926Y37055D01*
X97926Y37056D01*
X97929Y37057D01*
X97937Y37063D01*
Y37063D01*
Y37063D01*
X97938Y37063D01*
X97939Y37065D01*
X99440Y38231D01*
X99604Y38301D01*
X99883Y38420D01*
X99883Y38421D01*
X100261Y38522D01*
X100261Y38522D01*
X100290Y38528D01*
X100290Y38528D01*
X100290D01*
X100532Y38576D01*
X100585Y38587D01*
X100585Y38587D01*
X101081Y38919D01*
X101165Y39044D01*
X101246Y39165D01*
Y39165D01*
X101281Y39217D01*
X101413Y39415D01*
X101413Y39415D01*
X101470Y39700D01*
X101529Y40000D01*
X101529Y40000D01*
X101519Y40054D01*
X101496Y40166D01*
X101471Y40295D01*
X101442Y40438D01*
X101413Y40585D01*
Y40585D01*
X101233Y40855D01*
X101082Y41081D01*
X101082Y41082D01*
X101074Y41086D01*
X100855Y41233D01*
X100831Y41249D01*
X99950Y42884D01*
X99861Y43092D01*
X99829Y43447D01*
X101980Y45599D01*
X103980Y44771D01*
Y41123D01*
X103919Y41081D01*
X103587Y40585D01*
X103471Y40000D01*
X103587Y39415D01*
X103919Y38919D01*
X104415Y38587D01*
X105000Y38471D01*
X105585Y38587D01*
X106081Y38919D01*
X106413Y39415D01*
X106529Y40000D01*
X106413Y40585D01*
X106081Y41081D01*
X106020Y41123D01*
Y52322D01*
X107814Y53149D01*
X108020Y53135D01*
X108504Y52504D01*
X109235Y51943D01*
X110086Y51590D01*
X111000Y51470D01*
X111914Y51590D01*
X112765Y51943D01*
X113496Y52504D01*
X114057Y53235D01*
X114410Y54086D01*
X114530Y55000D01*
X114410Y55914D01*
X114057Y56765D01*
X113496Y57496D01*
X112765Y58057D01*
X111914Y58410D01*
X111000Y58530D01*
X110086Y58410D01*
X109235Y58057D01*
X108504Y57496D01*
X108020Y56865D01*
X107814Y56851D01*
X106020Y57678D01*
Y62322D01*
X107814Y63149D01*
X108020Y63135D01*
X108504Y62504D01*
X109235Y61943D01*
X110086Y61590D01*
X111000Y61470D01*
X111914Y61590D01*
X112765Y61943D01*
X113496Y62504D01*
X114057Y63235D01*
X114410Y64086D01*
X114530Y65000D01*
X114410Y65914D01*
X114057Y66765D01*
X113496Y67496D01*
X112765Y68057D01*
X111914Y68410D01*
X111000Y68530D01*
X110086Y68410D01*
X109341Y68101D01*
X102721Y74721D01*
X102390Y74942D01*
X102000Y75020D01*
X78000D01*
X77610Y74942D01*
X77279Y74721D01*
X74578Y72020D01*
X68922D01*
X55221Y85721D01*
X54890Y85942D01*
X54500Y86020D01*
X43123D01*
X43081Y86081D01*
X42585Y86413D01*
X42000Y86529D01*
X41415Y86413D01*
X40919Y86081D01*
X40587Y85585D01*
X40471Y85000D01*
X40587Y84415D01*
X40919Y83919D01*
X41415Y83587D01*
X42000Y83471D01*
X42585Y83587D01*
X43081Y83919D01*
X43123Y83980D01*
X54078D01*
X59039Y79020D01*
X58210Y77020D01*
X38317D01*
X36500Y77020D01*
X36456Y77011D01*
X36430Y77006D01*
X36430Y77006D01*
X36269Y77035D01*
X35017Y77426D01*
X33738Y78104D01*
X33707Y78125D01*
Y78125D01*
Y78125D01*
X33707D01*
X33697Y78127D01*
X33694Y78127D01*
D01*
X33389Y78188D01*
X33200Y78225D01*
X33193Y78224D01*
X33187Y78223D01*
X33187Y78223D01*
X33187D01*
X32932Y78172D01*
X32695Y78125D01*
X32693Y78125D01*
X32693D01*
X32692Y78124D01*
X32692D01*
X32682Y78118D01*
X32682D01*
X32682Y78117D01*
X31552Y77835D01*
X30758Y77665D01*
X24365D01*
X24025Y78112D01*
X23480Y79665D01*
X23513Y79715D01*
X23513Y79715D01*
X23529Y79796D01*
X23629Y80300D01*
X23629Y80300D01*
X23513Y80885D01*
X23513Y80885D01*
X23181Y81381D01*
X23181Y81381D01*
X22936Y81545D01*
X22931Y81549D01*
X22931D01*
D01*
X22685Y81713D01*
X22100Y81829D01*
X22100Y81829D01*
X21990Y81808D01*
X21515Y81713D01*
X21515D01*
X21265Y81546D01*
D01*
X21019Y81381D01*
X21019D01*
X20852Y81132D01*
D01*
X20687Y80885D01*
X20571Y80300D01*
X20687Y79715D01*
X20720Y79665D01*
X20175Y78112D01*
X19835Y77665D01*
X19484D01*
X19000D01*
X19000D01*
X18846Y77634D01*
X18707Y77606D01*
D01*
X18707Y77606D01*
X18590Y77528D01*
X18459Y77441D01*
X18459Y77441D01*
X18404Y77385D01*
X17863Y77284D01*
X16195Y77879D01*
X16029Y79200D01*
Y79200D01*
X16695Y80924D01*
X16822Y81101D01*
X16839Y81125D01*
X16862Y81159D01*
X16882Y81186D01*
X16891Y81199D01*
X16968Y81307D01*
X17031Y81396D01*
X17098Y81490D01*
X17156Y81502D01*
X17236Y81518D01*
X17236Y81518D01*
X17240Y81518D01*
X17244Y81519D01*
X17290Y81528D01*
X17292Y81529D01*
X17303Y81531D01*
X17585Y81587D01*
X17585Y81587D01*
X18081Y81919D01*
X18413Y82415D01*
X18471Y82705D01*
X18529Y83000D01*
X18529Y83000D01*
Y83000D01*
X18471Y83295D01*
Y83295D01*
X18413Y83585D01*
X18081Y84081D01*
X18081Y84081D01*
X17585Y84413D01*
X17585Y84413D01*
X17290Y84472D01*
X17000Y84529D01*
X16415Y84413D01*
X15919Y84081D01*
X15587Y83585D01*
X15471Y83000D01*
X15532Y82690D01*
Y82690D01*
X15586Y82419D01*
X15587Y82415D01*
X15587Y82415D01*
X15581Y82406D01*
X15571Y82390D01*
X15561Y82374D01*
X15556Y82367D01*
X15516Y82304D01*
X15471Y82235D01*
X15316Y81995D01*
X15246Y81896D01*
X14821Y81299D01*
X14661Y81075D01*
X14635Y81038D01*
X14609Y81001D01*
X14535Y80897D01*
X14402Y80710D01*
X14401Y80710D01*
X14257Y80681D01*
X14196Y80669D01*
X13915Y80613D01*
X13419Y80281D01*
X13087Y79785D01*
X13025Y79473D01*
X12567Y79119D01*
X12262Y78965D01*
X11058Y78565D01*
X10985Y78613D01*
X10695Y78671D01*
X10400Y78729D01*
X10400Y78729D01*
X9815Y78613D01*
X9815Y78613D01*
X9402Y78338D01*
X9319Y78281D01*
X9205Y78111D01*
X9100Y77954D01*
Y77954D01*
X9097Y77950D01*
X8994Y77796D01*
X8987Y77785D01*
X8940Y77550D01*
X8871Y77200D01*
X8913Y76986D01*
X8987Y76615D01*
X9032Y76547D01*
X9099Y76447D01*
X9409Y75423D01*
X9635Y74467D01*
X9635Y71110D01*
Y62994D01*
X7635Y62315D01*
X7496Y62496D01*
X6765Y63057D01*
X5914Y63410D01*
X5000Y63530D01*
X4086Y63410D01*
X3235Y63057D01*
X2504Y62496D01*
X2000Y61840D01*
X1801Y61821D01*
X0Y62396D01*
Y70911D01*
X359Y71197D01*
X2000Y71797D01*
X2015Y71787D01*
X2600Y71671D01*
X3185Y71787D01*
X3681Y72119D01*
X3896Y72440D01*
Y72440D01*
X4013Y72615D01*
Y72615D01*
X4108Y73090D01*
X4129Y73200D01*
X4129Y73200D01*
X4013Y73785D01*
X3849Y74032D01*
D01*
Y74032D01*
X3845Y74036D01*
X3681Y74282D01*
X3681D01*
X3185Y74613D01*
X3185Y74613D01*
X2600Y74729D01*
X2600Y74729D01*
X2096Y74629D01*
X2015Y74613D01*
X2015Y74613D01*
X2000Y74603D01*
X359Y75203D01*
X0Y75489D01*
Y100000D01*
X87000D01*
Y84000D01*
D02*
G37*
G36*
X40161Y35758D02*
X40459Y35459D01*
X40459Y35459D01*
X40590Y35372D01*
X40707Y35293D01*
X40707D01*
D01*
X40846Y35266D01*
X41000Y35235D01*
X41000D01*
X41000Y35235D01*
X41000D01*
X41481D01*
X61182D01*
X61495Y34976D01*
X62577Y33731D01*
X62790Y33439D01*
X63020Y32525D01*
X62422Y31671D01*
X61639Y30865D01*
X41317D01*
X35011Y37170D01*
X34951Y37670D01*
X35291Y38023D01*
X37895Y38024D01*
X40161Y35758D01*
D02*
G37*
G36*
X2000Y58160D02*
X2504Y57504D01*
X3235Y56943D01*
X4086Y56590D01*
X4745Y56503D01*
X6159Y55370D01*
X6321Y55216D01*
X6462Y54742D01*
X6487Y54615D01*
X6819Y54119D01*
X7315Y53787D01*
X7635Y53723D01*
X7900Y53671D01*
X7900Y53671D01*
X9355Y52549D01*
X9635Y52150D01*
Y29817D01*
X5859Y26041D01*
X5694Y25793D01*
X5635Y25500D01*
Y19542D01*
X5635Y19400D01*
X5635Y19400D01*
X5694Y19107D01*
X5967Y18492D01*
X6273Y17806D01*
X6273Y17806D01*
X6273Y17805D01*
X6273Y17805D01*
D01*
X6273Y17804D01*
X6274Y17797D01*
X6274Y17797D01*
X6275Y17795D01*
X6275Y17794D01*
X6275D01*
X6275Y17794D01*
X6275Y17793D01*
X6275Y17793D01*
X6275Y17793D01*
X6275Y17793D01*
X6275Y17793D01*
X6382Y17633D01*
X6383Y17632D01*
D01*
X6555Y17375D01*
X6555Y17374D01*
X6555D01*
X6555Y17374D01*
X6555D01*
X6557Y17371D01*
X6557D01*
X6563Y17363D01*
X6563Y17363D01*
X6563D01*
X6567Y17360D01*
X6746Y17241D01*
X6926Y17120D01*
X6993Y17075D01*
X6993Y17075D01*
D01*
X6993D01*
X7092Y17056D01*
X7276Y17019D01*
X7500Y16974D01*
X7500Y16974D01*
X7500Y16974D01*
X7502Y16975D01*
X7502Y16975D01*
D01*
X7502Y16975D01*
X7508Y16976D01*
X7508Y16976D01*
Y16976D01*
X7513Y16977D01*
Y16977D01*
X7513D01*
X7513Y16977D01*
X7519Y16978D01*
X7637Y17002D01*
X7637Y17002D01*
X7644Y17003D01*
X7796Y17033D01*
X7796D01*
X8007Y17075D01*
X8007Y17075D01*
X8007D01*
X8007Y17075D01*
X8007Y17075D01*
D01*
X8008Y17076D01*
X8012Y17079D01*
X8018Y17082D01*
X8018Y17083D01*
X8018D01*
X8018Y17083D01*
X8018Y17083D01*
X8018Y17083D01*
X9748Y17735D01*
X46558D01*
X47094Y17000D01*
X46077Y15000D01*
X36000D01*
Y9873D01*
X35595Y9455D01*
X34373Y8746D01*
X33983Y8526D01*
X33710Y8472D01*
X33415Y8413D01*
X33415Y8413D01*
X33415Y8413D01*
X33169Y8248D01*
D01*
X32919Y8082D01*
X32919D01*
X32919D01*
X32919Y8081D01*
X32774Y7866D01*
X32768Y7856D01*
Y7856D01*
X32752Y7831D01*
D01*
Y7831D01*
X32692Y7742D01*
X32671Y7711D01*
Y7711D01*
X32587Y7585D01*
X32587Y7585D01*
Y7585D01*
X32533Y7311D01*
X32533Y7311D01*
X32529Y7295D01*
X32484Y7067D01*
X32471Y7000D01*
X32484Y6933D01*
X32529Y6705D01*
X32533Y6689D01*
X32533Y6689D01*
X32587Y6415D01*
X32587Y6415D01*
X32587D01*
X32671Y6289D01*
Y6289D01*
X32695Y6253D01*
X32752Y6168D01*
Y6168D01*
Y6168D01*
X32752Y6167D01*
X32754Y6164D01*
D01*
X32919Y5919D01*
X32919Y5918D01*
X32919D01*
X32919Y5918D01*
X33169Y5751D01*
Y5751D01*
X33415Y5587D01*
X33415Y5587D01*
X33415Y5587D01*
X33710Y5528D01*
X33983Y5474D01*
X34373Y5254D01*
X35595Y4545D01*
X36000Y4127D01*
Y2000D01*
X36000Y0D01*
X34000Y-0D01*
X0D01*
Y57604D01*
X1801Y58179D01*
X2000Y58160D01*
D02*
G37*
G36*
X68429Y66129D02*
X68759Y65908D01*
X69150Y65831D01*
X76728D01*
X76761Y65780D01*
X76769Y65769D01*
X76769Y65769D01*
X77015Y65604D01*
D01*
X77265Y65437D01*
X77265Y65437D01*
X77556Y65380D01*
X77556Y65380D01*
X77850Y65321D01*
X77850Y65321D01*
X78141Y65379D01*
X78141Y65379D01*
X78141Y65379D01*
X78436Y65437D01*
X78436Y65437D01*
X78686Y65604D01*
X78686D01*
X78932Y65769D01*
X78932D01*
X79099Y66019D01*
D01*
X79263Y66265D01*
X79263Y66265D01*
X79322Y66560D01*
Y66560D01*
X79380Y66850D01*
X79380Y66850D01*
X79365Y66923D01*
X82922Y70480D01*
X87557D01*
X87754Y68481D01*
X87739Y68477D01*
X87710Y68472D01*
X87710D01*
X87415Y68413D01*
X87415Y68413D01*
X87093Y68198D01*
Y68198D01*
X86919Y68081D01*
Y68081D01*
X86587Y67585D01*
X86529Y67295D01*
X86471Y67000D01*
X86471Y67000D01*
X86587Y66415D01*
X86587Y66415D01*
X86918Y65919D01*
X86919Y65919D01*
X87415Y65587D01*
X87415Y65587D01*
X87710Y65528D01*
X88000Y65471D01*
X88000Y65471D01*
X88235Y65517D01*
X89628Y64786D01*
X90235Y64320D01*
Y61527D01*
Y61317D01*
X90088Y61169D01*
X82461Y53542D01*
X81816Y53556D01*
X80117Y54027D01*
X80081Y54081D01*
X79585Y54413D01*
X79206Y54488D01*
X79000Y54529D01*
X79000Y54529D01*
X78415Y54413D01*
X78415Y54413D01*
X77919Y54081D01*
X77833Y53953D01*
X77754Y53835D01*
Y53835D01*
X77751Y53831D01*
X77587Y53585D01*
X77587Y53585D01*
X77471Y53000D01*
X77471Y53000D01*
X77587Y52415D01*
Y52415D01*
X77918Y51919D01*
X77918D01*
Y51919D01*
Y51919D01*
X77973Y51882D01*
X78444Y50184D01*
X78458Y49539D01*
X76831Y47912D01*
X76683Y47765D01*
X76473D01*
X69733D01*
X68777Y47991D01*
X67752Y48301D01*
X67653Y48368D01*
X67585Y48413D01*
X67214Y48487D01*
X67000Y48529D01*
X66650Y48460D01*
X66415Y48413D01*
X66404Y48406D01*
X66263Y48312D01*
X66246Y48300D01*
X66089Y48195D01*
X65919Y48081D01*
X65863Y47998D01*
X65587Y47585D01*
X65587Y47585D01*
X65471Y47000D01*
X65471Y47000D01*
X65529Y46705D01*
X65587Y46415D01*
X65587Y46415D01*
X65672Y46287D01*
X65995Y45687D01*
X65995Y45687D01*
X65995Y45687D01*
X66130Y45275D01*
X66471Y44000D01*
X66471Y43998D01*
X66567Y43518D01*
X66587Y43415D01*
X66741Y43185D01*
X66919Y42717D01*
Y42000D01*
Y41283D01*
X66741Y40815D01*
X66587Y40585D01*
X66529Y40295D01*
X66529Y40295D01*
X66471Y40000D01*
X66471Y40000D01*
X66587Y39415D01*
X66919Y38919D01*
X67415Y38587D01*
X67415Y38587D01*
X67634Y38543D01*
X68228Y37452D01*
X68437Y36518D01*
X66895Y34976D01*
X66527Y34969D01*
X64605Y35159D01*
X64605Y35159D01*
D01*
X64605Y35159D01*
X64507Y35225D01*
X64483Y35229D01*
X62991Y36090D01*
X62829Y36253D01*
X62541Y36541D01*
X62541Y36541D01*
X62410Y36628D01*
X62293Y36707D01*
X62293D01*
D01*
X62154Y36734D01*
X62000Y36765D01*
X62000D01*
X61519D01*
X41527D01*
X41317D01*
X41164Y36918D01*
X35595Y42486D01*
X22915Y55167D01*
X22765Y55317D01*
Y55528D01*
Y65534D01*
Y66000D01*
Y66000D01*
X22734Y66154D01*
X22706Y66293D01*
D01*
X22706Y66293D01*
X22628Y66410D01*
X22541Y66541D01*
X22541Y66541D01*
X22250Y66832D01*
X21509Y67572D01*
X20648Y69216D01*
Y69216D01*
X20648Y69216D01*
X20646Y69227D01*
X20646Y69229D01*
X20539Y69389D01*
X20366Y69648D01*
X20366Y69648D01*
X20364Y69650D01*
X20359Y69657D01*
X20358Y69658D01*
X20084Y71598D01*
X20979Y72480D01*
X34000D01*
X34390Y72558D01*
X34721Y72779D01*
X36922Y74980D01*
X59578D01*
X68429Y66129D01*
D02*
G37*
%LPC*%
G36*
X34000Y95325D02*
X34000Y95325D01*
X33999Y95325D01*
X33998Y95325D01*
X33998Y95325D01*
X33998D01*
X33998Y95325D01*
X33995Y95325D01*
X33993Y95324D01*
X33992Y95324D01*
D01*
X33990Y95324D01*
X33987Y95323D01*
X33987D01*
X33987Y95323D01*
X33987Y95323D01*
D01*
X33987Y95323D01*
Y95323D01*
X33985Y95323D01*
X33943Y95314D01*
X33904Y95306D01*
X33904Y95306D01*
X33899Y95305D01*
X33692Y95264D01*
X33692Y95264D01*
X33495Y95225D01*
X33495D01*
X33493Y95225D01*
X33493Y95225D01*
X33493Y95225D01*
X33493Y95224D01*
X33492Y95224D01*
X33492Y95224D01*
X33492Y95224D01*
X33492D01*
X33492Y95224D01*
X33490Y95223D01*
X33487Y95221D01*
X33484Y95218D01*
X33482Y95218D01*
X33482Y95218D01*
X33482Y95217D01*
X32729Y95029D01*
Y95029D01*
X32352Y94935D01*
X32320Y94928D01*
X32081Y94877D01*
X31909Y94840D01*
X31558Y94765D01*
X31164D01*
X21377D01*
X21289D01*
X21244D01*
X21209D01*
X21113D01*
X21102D01*
X21014D01*
X20975D01*
X20971D01*
X20915D01*
X20915D01*
X20883D01*
X20704D01*
X20578D01*
X20576D01*
X20487D01*
X20459D01*
X20400Y94765D01*
D01*
X20400D01*
X20362Y94757D01*
X20360Y94757D01*
X20358Y94756D01*
X20326Y94750D01*
X20317Y94748D01*
X20290Y94743D01*
X20284Y94742D01*
X20282Y94741D01*
X20261Y94737D01*
X20246Y94734D01*
X20227Y94730D01*
X20217Y94728D01*
X20215Y94728D01*
X20215Y94728D01*
X20201Y94725D01*
X20182Y94721D01*
X20167Y94718D01*
X20149Y94715D01*
X20147Y94714D01*
X20147Y94714D01*
X20135Y94712D01*
X20107Y94706D01*
X20107D01*
X20107Y94706D01*
D01*
X20107D01*
Y94706D01*
X20107D01*
X20083Y94690D01*
X20074Y94684D01*
X20073Y94684D01*
X20073Y94683D01*
X20055Y94672D01*
X20044Y94665D01*
X20027Y94653D01*
X20016Y94646D01*
X20016Y94645D01*
X20015Y94645D01*
X20005Y94638D01*
X19990Y94628D01*
X19976Y94619D01*
X19959Y94608D01*
X19959Y94607D01*
X19958Y94607D01*
X19951Y94602D01*
X19929Y94587D01*
X19921Y94582D01*
X19895Y94564D01*
X19893Y94563D01*
X19890Y94562D01*
X19859Y94541D01*
X19859Y94541D01*
X19859Y94541D01*
X19859Y94541D01*
X19815Y94496D01*
X19797Y94479D01*
X19734Y94415D01*
X19732Y94414D01*
X19642Y94324D01*
X19514Y94195D01*
X19493Y94175D01*
X19492Y94174D01*
X19454Y94136D01*
X19452Y94133D01*
X19424Y94105D01*
X19361Y94042D01*
X19354Y94035D01*
X19286Y93968D01*
X19264Y93945D01*
X19229Y93911D01*
X19164Y93846D01*
X7173Y81855D01*
X6907Y81589D01*
X6650Y81435D01*
X5966Y81024D01*
X5306Y80627D01*
X5305Y80627D01*
D01*
X5303Y80627D01*
X5298Y80626D01*
X5294Y80625D01*
Y80625D01*
X5293Y80625D01*
X5293Y80625D01*
X5293Y80625D01*
X5132Y80517D01*
X5132Y80517D01*
X4938Y80387D01*
X4874Y80345D01*
X4874Y80345D01*
Y80345D01*
X4874Y80345D01*
X4874Y80345D01*
X4874Y80345D01*
Y80345D01*
X4872Y80344D01*
X4871Y80343D01*
Y80343D01*
X4869Y80342D01*
X4868Y80341D01*
X4866Y80339D01*
X4864Y80338D01*
X4864Y80338D01*
Y80338D01*
X4863Y80338D01*
X4863Y80337D01*
X4863Y80337D01*
Y80337D01*
X4755Y80177D01*
Y80177D01*
X4625Y79982D01*
X4583Y79919D01*
X4583Y79918D01*
D01*
X4583Y79918D01*
X4583Y79918D01*
X4583Y79918D01*
D01*
X4582Y79918D01*
X4582Y79918D01*
X4581Y79916D01*
X4581Y79916D01*
Y79916D01*
X4580Y79914D01*
X4579Y79912D01*
X4577Y79910D01*
X4576Y79908D01*
X4576Y79908D01*
Y79908D01*
X4576Y79908D01*
X4576Y79908D01*
X4576Y79908D01*
X4575Y79907D01*
X4575Y79907D01*
Y79907D01*
X4575Y79904D01*
X4574Y79902D01*
Y79902D01*
X4562Y79840D01*
X4556Y79809D01*
Y79809D01*
X4551Y79783D01*
X4551Y79783D01*
X4551Y79783D01*
X4527Y79662D01*
X4526Y79660D01*
Y79660D01*
X4502Y79539D01*
X4502Y79537D01*
X4502D01*
X4497Y79511D01*
X4496Y79511D01*
Y79511D01*
X4493Y79494D01*
X4493Y79493D01*
X4493Y79493D01*
X4486Y79460D01*
X4477Y79414D01*
X4477Y79413D01*
Y79413D01*
Y79413D01*
X4477Y79412D01*
X4477Y79412D01*
X4477D01*
X4477Y79412D01*
X4477Y79411D01*
X4477D01*
X4477Y79411D01*
X4477Y79410D01*
Y79410D01*
X4476Y79408D01*
X4476Y79407D01*
D01*
X4476Y79407D01*
X4475Y79405D01*
X4475Y79402D01*
X4475Y79402D01*
D01*
X4475Y79402D01*
X4475Y79402D01*
X4475D01*
X4475Y79402D01*
X4475Y79402D01*
X4475Y79401D01*
X4474Y79400D01*
X4474Y79400D01*
D01*
Y79400D01*
Y79400D01*
D01*
X4474Y79400D01*
D01*
Y79400D01*
X4477Y79390D01*
X4498Y79282D01*
X4501Y79269D01*
X4503Y79256D01*
X4514Y79200D01*
X4520Y79169D01*
X4521Y79168D01*
X4545Y79044D01*
X4564Y78952D01*
X4570Y78921D01*
X4573Y78907D01*
X4573Y78906D01*
X4573Y78906D01*
X4573Y78905D01*
X4573Y78905D01*
X4573Y78904D01*
X4573Y78904D01*
Y78904D01*
X4573Y78903D01*
X4573Y78903D01*
X4573Y78903D01*
X4573Y78903D01*
Y78903D01*
Y78903D01*
X4574Y78900D01*
X4575Y78897D01*
X4575Y78895D01*
X4575Y78893D01*
X4575Y78893D01*
X4575Y78893D01*
X4575D01*
Y78893D01*
X4575Y78893D01*
X4575Y78893D01*
X4576Y78892D01*
X4576Y78892D01*
X4577Y78890D01*
X4623Y78821D01*
X4660Y78766D01*
X4663Y78761D01*
X4665Y78758D01*
X4730Y78661D01*
X4795Y78564D01*
X4797Y78561D01*
X4826Y78518D01*
X4859Y78469D01*
X4860Y78467D01*
X4861Y78465D01*
X4861Y78465D01*
X4863Y78463D01*
X4863Y78463D01*
D01*
X4863Y78463D01*
X4863Y78463D01*
X4863Y78463D01*
X4863Y78463D01*
X4863Y78462D01*
X4865Y78461D01*
X4934Y78415D01*
X4988Y78379D01*
X4994Y78375D01*
X4998Y78373D01*
X5094Y78308D01*
X5191Y78243D01*
X5195Y78241D01*
X5238Y78212D01*
X5287Y78180D01*
X5288Y78178D01*
X5290Y78177D01*
X5291Y78177D01*
X5293Y78175D01*
X5293Y78175D01*
D01*
X5293D01*
X5293Y78175D01*
X5294Y78175D01*
X5295Y78175D01*
X5295Y78175D01*
X5296Y78175D01*
X5299Y78174D01*
X5299Y78174D01*
X5300Y78174D01*
X5300Y78174D01*
X5300Y78174D01*
X5301Y78174D01*
X5303Y78173D01*
X5303Y78173D01*
X5303Y78173D01*
X5303Y78173D01*
X5304Y78173D01*
X5304D01*
X5304Y78173D01*
X5305Y78173D01*
X5305Y78173D01*
X5306Y78173D01*
X5306Y78173D01*
X5306Y78173D01*
X5323Y78169D01*
X5384Y78157D01*
X5406Y78153D01*
X5466Y78141D01*
X5597Y78115D01*
X5610Y78112D01*
X5610Y78112D01*
X5634Y78108D01*
X5684Y78097D01*
X5701Y78094D01*
X5789Y78077D01*
X5797Y78075D01*
X5797Y78075D01*
X5797Y78075D01*
X5797Y78075D01*
X5797Y78075D01*
X5797Y78075D01*
D01*
X5797D01*
X5797D01*
D01*
X5798Y78075D01*
X5799Y78075D01*
X5800Y78075D01*
X5800Y78075D01*
X5800D01*
D01*
X5800D01*
D01*
X5800D01*
X5800Y78075D01*
X5800D01*
X5800Y78075D01*
X5801Y78075D01*
X5802Y78075D01*
X5802Y78075D01*
D01*
X5802D01*
X5802Y78075D01*
X5802Y78075D01*
X5802Y78075D01*
X5804Y78075D01*
X5807Y78076D01*
X5807Y78076D01*
Y78076D01*
X5807Y78076D01*
X5808Y78076D01*
X5810Y78076D01*
X5810Y78076D01*
X5810D01*
X5810Y78077D01*
X5811Y78077D01*
X5811Y78077D01*
X5811Y78077D01*
D01*
X5811D01*
X5812Y78077D01*
X5812Y78077D01*
D01*
X5812Y78077D01*
X5813Y78077D01*
X5813D01*
X5813D01*
X5815Y78077D01*
X5856Y78086D01*
X5893Y78093D01*
X5893D01*
X5894Y78093D01*
X5897Y78094D01*
Y78094D01*
X5900Y78095D01*
X6078Y78130D01*
X6078Y78130D01*
X6142Y78142D01*
X6183Y78151D01*
X6183Y78151D01*
X6198Y78154D01*
X6209Y78156D01*
X6209D01*
X6302Y78174D01*
X6302Y78174D01*
X6307Y78175D01*
X6307Y78175D01*
X6307Y78175D01*
X6307Y78175D01*
X6308Y78176D01*
X6308Y78176D01*
X6308Y78176D01*
D01*
X6308Y78176D01*
X6310Y78177D01*
X6312Y78178D01*
X6314Y78180D01*
X6316Y78181D01*
X6318Y78182D01*
X6318Y78183D01*
X6318D01*
X6318Y78183D01*
X6318D01*
X6318D01*
X6318Y78183D01*
X6318Y78183D01*
X6318Y78183D01*
D01*
X6323Y78186D01*
X6366Y78215D01*
X6577Y78355D01*
X6577D01*
X6737Y78463D01*
X6737Y78463D01*
X6737Y78463D01*
X6737Y78463D01*
X6738Y78463D01*
X6738Y78464D01*
X6738Y78464D01*
X6738D01*
X6738Y78464D01*
X6739Y78465D01*
X6740Y78467D01*
X6742Y78471D01*
X6743Y78471D01*
X6743D01*
X6743Y78472D01*
X6745Y78474D01*
X6745D01*
D01*
X6745Y78474D01*
X6745Y78474D01*
X6745Y78474D01*
X6745D01*
X6748Y78479D01*
X6777Y78522D01*
X6917Y78732D01*
X6917Y78732D01*
X7025Y78893D01*
X7025Y78893D01*
X7025Y78893D01*
Y78893D01*
X7025Y78893D01*
X7025Y78894D01*
X7025Y78894D01*
X7025Y78894D01*
Y78894D01*
X7025Y78894D01*
X7025Y78897D01*
X7027Y78904D01*
X7027Y78905D01*
D01*
X7027Y78906D01*
X7424Y79566D01*
X7835Y80251D01*
X7989Y80507D01*
X8252Y80771D01*
X20212Y92730D01*
X20309Y92828D01*
X20347Y92865D01*
X20348Y92867D01*
X20359Y92877D01*
X20359Y92878D01*
X20445Y92963D01*
X20484Y93003D01*
X20485Y93003D01*
X20485Y93004D01*
X20533Y93052D01*
X20549Y93068D01*
X20555Y93073D01*
X20560Y93078D01*
X20565Y93084D01*
X20565Y93084D01*
X20567Y93086D01*
X20569Y93087D01*
X20626Y93144D01*
X20627Y93145D01*
X20639Y93158D01*
X20662Y93180D01*
X20669Y93187D01*
X20669Y93188D01*
X20671Y93190D01*
X20674Y93193D01*
X20698Y93217D01*
X20700Y93219D01*
X20706Y93224D01*
X20717Y93235D01*
X20732D01*
X20740D01*
X20743D01*
X20776D01*
X20781D01*
X20783Y93235D01*
X20784D01*
X20795Y93235D01*
X20826D01*
X20845Y93235D01*
X20845D01*
X20926Y93235D01*
X20928D01*
X20931Y93235D01*
X20931D01*
X20939Y93235D01*
X20945D01*
X20953D01*
X20976Y93235D01*
X21045Y93235D01*
X21046D01*
X21046D01*
X21101Y93235D01*
X21218D01*
X21218D01*
X21235D01*
X21236D01*
X21290D01*
X21427D01*
X31170D01*
X31558D01*
X31909Y93160D01*
X32081Y93123D01*
X32320Y93072D01*
X32352Y93065D01*
X32729Y92971D01*
Y92971D01*
X33482Y92783D01*
X33482Y92783D01*
X33482D01*
X33482Y92782D01*
X33484Y92781D01*
X33487Y92780D01*
X33489Y92778D01*
X33492Y92776D01*
X33492Y92776D01*
X33492D01*
X33492Y92776D01*
X33492Y92776D01*
X33492Y92776D01*
X33493Y92775D01*
X33493Y92775D01*
X33493D01*
X33494Y92775D01*
X33494Y92775D01*
X33494D01*
X33634Y92747D01*
X33709Y92733D01*
X33709D01*
X33860Y92702D01*
X33863Y92702D01*
Y92702D01*
X33890Y92696D01*
X33890Y92696D01*
X33890D01*
X33931Y92688D01*
X33985Y92677D01*
X33987Y92677D01*
X33987D01*
X33987D01*
X33987Y92677D01*
X33987Y92677D01*
Y92677D01*
X33990Y92676D01*
X33992Y92676D01*
D01*
X33993Y92676D01*
X33995Y92676D01*
X33998Y92675D01*
X33998Y92675D01*
X33998D01*
X33998Y92675D01*
X33999Y92675D01*
X34000Y92674D01*
X34000Y92674D01*
X34000Y92674D01*
X34189Y92712D01*
X34189Y92712D01*
X34494Y92773D01*
X34494D01*
D01*
Y92773D01*
X34495Y92773D01*
X34496Y92773D01*
X34497Y92773D01*
Y92773D01*
X34499Y92774D01*
X34503Y92775D01*
X34506Y92775D01*
Y92775D01*
X34507Y92775D01*
X34507Y92775D01*
X34507Y92775D01*
X34668Y92883D01*
X34668Y92883D01*
X34862Y93013D01*
X34926Y93055D01*
X34926Y93055D01*
Y93055D01*
X34926Y93055D01*
X34926Y93055D01*
X34926Y93055D01*
Y93055D01*
X34927Y93056D01*
X34927Y93056D01*
Y93056D01*
X34928Y93057D01*
X34929Y93057D01*
Y93057D01*
X34930Y93058D01*
X34933Y93060D01*
X34935Y93061D01*
X34937Y93063D01*
X34937Y93063D01*
X34937Y93063D01*
X34937Y93063D01*
X34938Y93063D01*
X34983Y93131D01*
X34986Y93135D01*
X34996Y93150D01*
X35025Y93194D01*
X35089Y93289D01*
X35157Y93391D01*
X35159Y93395D01*
X35188Y93438D01*
X35220Y93486D01*
X35222Y93488D01*
X35222D01*
X35222Y93489D01*
X35223Y93491D01*
X35225Y93493D01*
X35225Y93493D01*
D01*
X35225Y93493D01*
X35225Y93494D01*
X35225Y93494D01*
X35225Y93496D01*
X35226Y93499D01*
X35226Y93499D01*
X35226Y93500D01*
X35226Y93500D01*
X35226Y93501D01*
X35227Y93503D01*
X35227Y93503D01*
X35227Y93503D01*
X35227Y93503D01*
X35227Y93504D01*
Y93504D01*
X35227Y93504D01*
X35227Y93504D01*
X35227Y93504D01*
X35227Y93504D01*
X35227Y93504D01*
Y93504D01*
X35227Y93504D01*
X35227Y93505D01*
X35227Y93505D01*
X35227Y93505D01*
X35227Y93506D01*
X35227Y93506D01*
X35227Y93506D01*
X35230Y93521D01*
X35242Y93580D01*
X35259Y93665D01*
X35284Y93793D01*
X35288Y93810D01*
X35292Y93832D01*
X35304Y93891D01*
X35305Y93897D01*
X35324Y93993D01*
X35325Y93997D01*
X35325Y93997D01*
X35325Y93997D01*
X35325Y93998D01*
Y93998D01*
Y93998D01*
X35325Y93998D01*
D01*
X35325Y93998D01*
X35325Y93999D01*
X35325Y93999D01*
X35326Y94000D01*
X35326Y94000D01*
Y94000D01*
D01*
Y94000D01*
Y94000D01*
X35326D01*
Y94000D01*
Y94000D01*
X35325Y94004D01*
X35301Y94124D01*
X35300Y94129D01*
X35285Y94203D01*
X35279Y94232D01*
X35255Y94355D01*
X35236Y94453D01*
X35230Y94480D01*
X35227Y94494D01*
Y94494D01*
X35227Y94494D01*
X35227Y94494D01*
X35227Y94495D01*
X35227Y94495D01*
X35227Y94495D01*
X35227Y94496D01*
X35227Y94496D01*
Y94496D01*
X35227Y94496D01*
X35227Y94496D01*
X35227Y94496D01*
X35227Y94496D01*
X35227Y94496D01*
X35227Y94496D01*
X35227Y94497D01*
X35227Y94497D01*
X35227Y94497D01*
X35227Y94497D01*
D01*
X35226Y94499D01*
X35225Y94503D01*
X35225Y94506D01*
X35225Y94507D01*
X35225Y94507D01*
X35225D01*
Y94507D01*
X35225Y94507D01*
X35225Y94507D01*
X35224Y94508D01*
X35223Y94510D01*
X35177Y94578D01*
X35139Y94635D01*
X35137Y94639D01*
X35134Y94643D01*
X35067Y94744D01*
X35007Y94833D01*
X35003Y94839D01*
X34973Y94885D01*
X34942Y94930D01*
X34940Y94933D01*
X34939Y94935D01*
X34937Y94937D01*
X34937Y94937D01*
D01*
X34937Y94937D01*
X34936Y94938D01*
X34935Y94939D01*
X34933Y94940D01*
X34932Y94941D01*
Y94941D01*
X34932Y94941D01*
X34931Y94941D01*
X34931Y94942D01*
X34929Y94943D01*
X34929Y94943D01*
Y94943D01*
X34929Y94943D01*
X34929Y94943D01*
D01*
X34928Y94943D01*
X34927Y94944D01*
Y94944D01*
X34927Y94944D01*
X34926Y94945D01*
Y94945D01*
D01*
X34926Y94945D01*
X34926Y94945D01*
X34926Y94945D01*
Y94945D01*
X34921Y94948D01*
X34878Y94977D01*
X34668Y95117D01*
X34668Y95117D01*
X34507Y95225D01*
X34507Y95225D01*
X34507Y95225D01*
X34507D01*
X34507Y95225D01*
X34506Y95225D01*
X34506Y95225D01*
X34506Y95225D01*
X34506D01*
X34506Y95225D01*
X34504Y95225D01*
X34499Y95226D01*
X34497Y95227D01*
Y95227D01*
X34497D01*
X34496Y95227D01*
X34494Y95227D01*
Y95227D01*
X34494D01*
X34494Y95227D01*
X34492Y95228D01*
X34217Y95282D01*
X34217Y95282D01*
X34217Y95282D01*
X34119Y95302D01*
X34000Y95325D01*
X34000Y95325D01*
D02*
G37*
G36*
X37024Y70359D02*
X36322Y70219D01*
X35791Y69864D01*
X35671Y69822D01*
X33653D01*
X33533Y69864D01*
X33002Y70219D01*
X32300Y70359D01*
X31598Y70219D01*
X31067Y69864D01*
X30947Y69822D01*
X28929D01*
X28809Y69864D01*
X28278Y70219D01*
X27576Y70359D01*
X26874Y70219D01*
X26278Y69822D01*
X25881Y69226D01*
X25741Y68524D01*
X25881Y67822D01*
X26236Y67291D01*
X26278Y67171D01*
Y65153D01*
X26236Y65033D01*
X25881Y64502D01*
X25741Y63800D01*
X25881Y63098D01*
X26236Y62567D01*
X26278Y62447D01*
Y60429D01*
X26236Y60309D01*
X25881Y59778D01*
X25741Y59076D01*
X25881Y58374D01*
X26278Y57778D01*
X26874Y57381D01*
X27576Y57241D01*
X28278Y57381D01*
X28809Y57736D01*
X28929Y57778D01*
X30947D01*
X31067Y57736D01*
X31598Y57381D01*
X32300Y57241D01*
X33002Y57381D01*
X33533Y57736D01*
X33653Y57778D01*
X35671D01*
X35791Y57736D01*
X36322Y57381D01*
X37024Y57241D01*
X37726Y57381D01*
X38322Y57778D01*
X38719Y58374D01*
X38859Y59076D01*
X38719Y59778D01*
X38364Y60309D01*
X38322Y60429D01*
Y62447D01*
X38364Y62567D01*
X38719Y63098D01*
X38859Y63800D01*
X38719Y64502D01*
X38364Y65033D01*
X38322Y65153D01*
Y67171D01*
X38364Y67291D01*
X38719Y67822D01*
X38859Y68524D01*
X38719Y69226D01*
X38322Y69822D01*
X37726Y70219D01*
X37024Y70359D01*
D02*
G37*
G36*
X4700Y43129D02*
X4115Y43013D01*
X3619Y42681D01*
X3287Y42185D01*
X3171Y41600D01*
X3287Y41015D01*
X3619Y40519D01*
X4115Y40187D01*
X4700Y40071D01*
X5285Y40187D01*
X5781Y40519D01*
X6113Y41015D01*
X6229Y41600D01*
X6113Y42185D01*
X5781Y42681D01*
X5285Y43013D01*
X4700Y43129D01*
D02*
G37*
%LPD*%
D10*
X120000Y0D02*
Y100000D01*
X0D02*
X120000D01*
X0Y0D02*
Y100000D01*
Y0D02*
X120000D01*
D29*
X80000Y7000D02*
D03*
X70000D02*
D03*
X60000D02*
D03*
X50000D02*
D03*
X40000D02*
D03*
D34*
X34000D02*
X40000D01*
D35*
X20400Y94000D02*
X34000D01*
X5800Y79400D02*
X20400Y94000D01*
X42700Y21400D02*
X80400D01*
X97000Y38000D01*
X64000Y34000D02*
X67000D01*
X90000Y57000D02*
X100000D01*
X67000Y34000D02*
X90000Y57000D01*
X77000Y47000D02*
X91000Y61000D01*
X67000Y47000D02*
X77000D01*
X99000Y61000D02*
X103000Y57000D01*
Y47700D02*
Y57000D01*
X81900Y26600D02*
X103000Y47700D01*
X91000Y61000D02*
Y69000D01*
X41000Y30100D02*
X66900D01*
X67000Y30000D01*
X80000Y7000D02*
Y17000D01*
X41000Y28100D02*
X77000D01*
X78900Y30000D01*
X80000D01*
X70000Y7000D02*
Y15000D01*
X68000Y17000D02*
X70000Y15000D01*
X67000Y17000D02*
X68000D01*
X6400Y19400D02*
X7500Y18300D01*
X6400Y19400D02*
Y25500D01*
X10400Y29500D01*
X9500Y21500D02*
X11500Y19500D01*
X9500Y21500D02*
Y23000D01*
X11600Y25100D01*
Y19600D02*
X56800D01*
X11500Y19500D02*
X11600Y19600D01*
X14500Y74500D02*
Y79200D01*
X50000Y7000D02*
Y16500D01*
X56800Y19600D02*
X60000Y16400D01*
Y7000D02*
Y16400D01*
X15200Y48900D02*
X42700Y21400D01*
X15200Y48900D02*
Y67600D01*
X11600Y25100D02*
Y71600D01*
X13900Y45900D02*
Y71800D01*
Y45900D02*
X14000Y45800D01*
X11600Y71600D02*
X14500Y74500D01*
X10400Y29500D02*
Y77200D01*
X13900Y71800D02*
X19000Y76900D01*
X15200Y67600D02*
X15800Y68200D01*
X40200Y26600D02*
X81900D01*
X22500Y46600D02*
X41000Y28100D01*
X22500Y46600D02*
Y48000D01*
X28000Y43100D02*
X41000Y30100D01*
X15800Y68200D02*
Y70700D01*
X17200Y49600D02*
Y65500D01*
X23300Y76900D02*
X23800D01*
X33200D01*
X19000D02*
X23800D01*
X22000Y55000D02*
X41000Y36000D01*
X62000D01*
X64000Y34000D01*
X19421Y68579D02*
Y68721D01*
Y68579D02*
X22000Y66000D01*
Y55000D02*
Y66000D01*
X17200Y49600D02*
X40200Y26600D01*
X22556Y50800D02*
X28000Y45356D01*
Y43100D02*
Y45356D01*
X7500Y18500D02*
X48000D01*
X50000Y16500D01*
D36*
X82500Y71500D02*
X100500D01*
X77850Y66850D02*
X82500Y71500D01*
X102000Y74000D02*
X111000Y65000D01*
X78000Y74000D02*
X102000D01*
X75000Y71000D02*
X78000Y74000D01*
X100500Y71500D02*
X105000Y67000D01*
X54500Y85000D02*
X68500Y71000D01*
X42000Y85000D02*
X54500D01*
X19000Y73500D02*
X34000D01*
X105000Y40000D02*
Y67000D01*
X69150Y66850D02*
X77850D01*
X68500Y71000D02*
X75000D01*
X34000Y73500D02*
X36500Y76000D01*
X60000D01*
X69150Y66850D01*
D46*
X105000Y15000D02*
D03*
D47*
X111000Y65000D02*
D03*
Y55000D02*
D03*
X5000Y60000D02*
D03*
D48*
X34000Y94000D02*
D03*
X97000Y38000D02*
D03*
X100000Y57000D02*
D03*
X99000Y61000D02*
D03*
X91000Y69000D02*
D03*
X64000Y34000D02*
D03*
X67000Y30000D02*
D03*
X80000Y17000D02*
D03*
Y30000D02*
D03*
X67000Y17000D02*
D03*
X9500Y23000D02*
D03*
X7500Y18300D02*
D03*
X14000Y45800D02*
D03*
X17200Y65500D02*
D03*
X15800Y70700D02*
D03*
X5800Y79400D02*
D03*
X22500Y48000D02*
D03*
X22556Y50800D02*
D03*
X33200Y76900D02*
D03*
X19421Y68721D02*
D03*
X59000Y56000D02*
D03*
X68500Y83000D02*
D03*
X83000D02*
D03*
X85500D02*
D03*
X71500D02*
D03*
X66000Y81500D02*
D03*
Y78500D02*
D03*
X50000Y81500D02*
D03*
Y78500D02*
D03*
X48500Y73000D02*
D03*
X51500D02*
D03*
X55500Y56000D02*
D03*
X62500Y57500D02*
D03*
X2500Y2500D02*
D03*
Y7500D02*
D03*
Y17500D02*
D03*
Y22500D02*
D03*
Y32500D02*
D03*
Y87500D02*
D03*
Y92500D02*
D03*
Y97500D02*
D03*
X7500Y2500D02*
D03*
Y7500D02*
D03*
X17500Y2500D02*
D03*
X22500D02*
D03*
Y7500D02*
D03*
X27500Y2500D02*
D03*
Y7500D02*
D03*
Y97500D02*
D03*
X32500Y2500D02*
D03*
Y97500D02*
D03*
X37500Y87500D02*
D03*
Y97500D02*
D03*
X42500D02*
D03*
X47500Y82500D02*
D03*
Y87500D02*
D03*
Y92500D02*
D03*
Y97500D02*
D03*
X52500Y87500D02*
D03*
Y92500D02*
D03*
Y97500D02*
D03*
X57500D02*
D03*
X62500D02*
D03*
X72500Y77500D02*
D03*
X77500D02*
D03*
Y82500D02*
D03*
X82500Y77500D02*
D03*
X87500Y2500D02*
D03*
Y77500D02*
D03*
X92500Y2500D02*
D03*
Y77500D02*
D03*
Y82500D02*
D03*
X97500Y77500D02*
D03*
Y82500D02*
D03*
X102500Y77500D02*
D03*
Y82500D02*
D03*
X107500Y32500D02*
D03*
Y47500D02*
D03*
Y72500D02*
D03*
Y77500D02*
D03*
Y82500D02*
D03*
X112500Y32500D02*
D03*
Y72500D02*
D03*
Y77500D02*
D03*
Y82500D02*
D03*
X117500Y27500D02*
D03*
Y32500D02*
D03*
Y37500D02*
D03*
Y42500D02*
D03*
Y47500D02*
D03*
Y52500D02*
D03*
Y57500D02*
D03*
Y62500D02*
D03*
Y67500D02*
D03*
Y72500D02*
D03*
Y77500D02*
D03*
Y82500D02*
D03*
X67500Y97500D02*
D03*
X72500D02*
D03*
X77500D02*
D03*
X82500D02*
D03*
D49*
X42000Y85000D02*
D03*
X105000Y40000D02*
D03*
X68000Y44000D02*
D03*
Y40000D02*
D03*
X77850Y66850D02*
D03*
X67000Y47000D02*
D03*
X100000Y40000D02*
D03*
X88000Y67000D02*
D03*
X94000Y66000D02*
D03*
X98000D02*
D03*
X100000Y54000D02*
D03*
X79000Y53000D02*
D03*
Y35000D02*
D03*
X84000Y42000D02*
D03*
X62000Y17000D02*
D03*
X86000Y7000D02*
D03*
X34000D02*
D03*
X14500Y79200D02*
D03*
X10400Y77200D02*
D03*
X22100Y80300D02*
D03*
X4700Y41600D02*
D03*
X2600Y73200D02*
D03*
X7900Y55200D02*
D03*
X19100Y60900D02*
D03*
X37500Y47000D02*
D03*
X55000Y33000D02*
D03*
X51000D02*
D03*
X42500Y24500D02*
D03*
X46800Y67800D02*
D03*
Y59500D02*
D03*
X17000Y83000D02*
D03*
X36600Y24200D02*
D03*
X16500Y33424D02*
D03*
X33681Y40319D02*
D03*
X19000Y73500D02*
D03*
D50*
X27576Y59076D02*
D03*
Y63800D02*
D03*
Y68524D02*
D03*
X32300Y59076D02*
D03*
Y63800D02*
D03*
Y68524D02*
D03*
X37024Y59076D02*
D03*
Y63800D02*
D03*
Y68524D02*
D03*
M02*
