%FSLAX25Y25*%
%MOIN*%
G70*
G01*
G75*
G04 Layer_Color=8421504*
%ADD10C,0.02000*%
%ADD11R,0.05118X0.04134*%
%ADD12R,0.02756X0.03150*%
%ADD13R,0.01000X0.01000*%
%ADD14R,0.01575X0.03347*%
%ADD15R,0.03937X0.04331*%
%ADD16C,0.05000*%
%ADD17R,0.03543X0.03543*%
%ADD18R,0.03937X0.03937*%
%ADD19R,0.11024X0.02756*%
%ADD20R,0.03937X0.07874*%
%ADD21R,0.03150X0.02362*%
%ADD22R,0.02362X0.03150*%
%ADD23R,0.01000X0.01000*%
%ADD24R,0.03150X0.02756*%
%ADD25R,0.01969X0.01969*%
%ADD26R,0.01969X0.03937*%
%ADD27R,0.02658X0.00984*%
%ADD28R,0.00984X0.02658*%
%ADD29R,0.05000X0.12500*%
%ADD30O,0.01181X0.02559*%
%ADD31O,0.02559X0.01181*%
%ADD32R,0.14961X0.14961*%
%ADD33C,0.04000*%
%ADD34C,0.01200*%
%ADD35C,0.00500*%
%ADD36C,0.01000*%
%ADD37C,0.00800*%
%ADD38R,0.04500X0.04000*%
%ADD39R,0.05000X0.04000*%
%ADD40R,0.03000X0.05000*%
%ADD41R,0.06000X0.03000*%
%ADD42R,0.09000X0.04000*%
%ADD43R,0.04000X0.01000*%
%ADD44R,0.01000X0.04000*%
%ADD45R,0.03543X0.02598*%
%ADD46C,0.12000*%
%ADD47C,0.06000*%
%ADD48C,0.01600*%
%ADD49C,0.02000*%
%ADD50C,0.02598*%
%ADD51C,0.10000*%
%ADD52C,0.08000*%
%ADD53C,0.00984*%
%ADD54C,0.00591*%
%ADD55C,0.00787*%
%ADD56R,0.01369X0.01369*%
D10*
X120000Y0D02*
Y100000D01*
X0D02*
X120000D01*
X0Y0D02*
Y100000D01*
Y0D02*
X120000D01*
D11*
X29500Y20216D02*
D03*
X20445D02*
D03*
Y27500D02*
D03*
X29500D02*
D03*
D12*
X24000Y89638D02*
D03*
Y94362D02*
D03*
X93000Y33638D02*
D03*
Y38362D02*
D03*
X73000Y65362D02*
D03*
Y60638D02*
D03*
X4900Y50862D02*
D03*
Y46138D02*
D03*
X73000Y50638D02*
D03*
Y55362D02*
D03*
X18000Y89638D02*
D03*
Y94362D02*
D03*
X30000Y89638D02*
D03*
Y94362D02*
D03*
D13*
X42200Y66700D02*
D03*
X39200D02*
D03*
X42000Y60800D02*
D03*
X39000D02*
D03*
D14*
X58000Y60120D02*
D03*
X55441D02*
D03*
X52882D02*
D03*
Y67600D02*
D03*
X55441D02*
D03*
X58000D02*
D03*
D15*
X111200Y45953D02*
D03*
Y40047D02*
D03*
X43000Y30047D02*
D03*
Y35953D02*
D03*
D17*
X6000Y84000D02*
D03*
Y94827D02*
D03*
X11906Y84000D02*
D03*
Y94827D02*
D03*
D18*
X4950Y67900D02*
D03*
X11250D02*
D03*
X79150Y40000D02*
D03*
X72850D02*
D03*
X53650Y23500D02*
D03*
X47350D02*
D03*
D19*
X103236Y95346D02*
D03*
Y88653D02*
D03*
D20*
X113472Y92000D02*
D03*
X93000D02*
D03*
D21*
X6838Y73300D02*
D03*
X11562D02*
D03*
X72638Y45000D02*
D03*
X77362D02*
D03*
X30638Y38000D02*
D03*
X35362D02*
D03*
X25262Y33300D02*
D03*
X20538D02*
D03*
X49138Y29500D02*
D03*
X53862D02*
D03*
X49138Y37000D02*
D03*
X53862D02*
D03*
X48138Y42500D02*
D03*
X52862D02*
D03*
X30962Y80300D02*
D03*
X26238D02*
D03*
X79862Y92000D02*
D03*
X75138D02*
D03*
D22*
X100000Y44638D02*
D03*
Y49362D02*
D03*
X12100Y61862D02*
D03*
Y57138D02*
D03*
X70000Y91862D02*
D03*
Y87138D02*
D03*
X84500Y91862D02*
D03*
Y87138D02*
D03*
D23*
X29300Y54200D02*
D03*
Y57200D02*
D03*
X35200Y54300D02*
D03*
Y57300D02*
D03*
D24*
X30638Y33300D02*
D03*
X35362D02*
D03*
X68638Y34000D02*
D03*
X73362D02*
D03*
D26*
X54457Y79900D02*
D03*
X61543D02*
D03*
D27*
X82455Y45142D02*
D03*
Y47110D02*
D03*
Y49079D02*
D03*
Y51047D02*
D03*
Y53016D02*
D03*
Y54984D02*
D03*
Y56953D02*
D03*
Y58921D02*
D03*
Y60890D02*
D03*
Y62858D02*
D03*
X95545D02*
D03*
Y60890D02*
D03*
Y58921D02*
D03*
Y56953D02*
D03*
Y54984D02*
D03*
Y53016D02*
D03*
Y51047D02*
D03*
Y49079D02*
D03*
Y47110D02*
D03*
Y45142D02*
D03*
D28*
X86047Y63301D02*
D03*
X88015D02*
D03*
X89984D02*
D03*
X91952D02*
D03*
Y44699D02*
D03*
X89984D02*
D03*
X88015D02*
D03*
X86047D02*
D03*
D30*
X25410Y54056D02*
D03*
X27379D02*
D03*
X29347D02*
D03*
X31316D02*
D03*
X33284D02*
D03*
X35253D02*
D03*
X37221D02*
D03*
X39190D02*
D03*
Y73544D02*
D03*
X37221D02*
D03*
X35253D02*
D03*
X33284D02*
D03*
X31316D02*
D03*
X29347D02*
D03*
X27379D02*
D03*
X25410D02*
D03*
D31*
X42044Y56910D02*
D03*
Y58879D02*
D03*
Y60847D02*
D03*
Y62816D02*
D03*
Y64784D02*
D03*
Y66753D02*
D03*
Y68721D02*
D03*
Y70690D02*
D03*
X22556D02*
D03*
Y68721D02*
D03*
Y66753D02*
D03*
Y64784D02*
D03*
Y62816D02*
D03*
Y60847D02*
D03*
Y58879D02*
D03*
Y56910D02*
D03*
D32*
X32300Y63800D02*
D03*
D56*
X58000Y83837D02*
D03*
Y75963D02*
D03*
M02*
