%FSLAX25Y25*%
%MOIN*%
G70*
G01*
G75*
G04 Layer_Physical_Order=3*
G04 Layer_Color=16440176*
%ADD10C,0.02000*%
%ADD11R,0.05118X0.04134*%
%ADD12R,0.02756X0.03150*%
%ADD13R,0.01000X0.01000*%
%ADD14R,0.01575X0.03347*%
%ADD15R,0.03937X0.04331*%
%ADD16C,0.05000*%
%ADD17R,0.03543X0.03543*%
%ADD18R,0.03937X0.03937*%
%ADD19R,0.11024X0.02756*%
%ADD20R,0.03937X0.07874*%
%ADD21R,0.03150X0.02362*%
%ADD22R,0.02362X0.03150*%
%ADD23R,0.01000X0.01000*%
%ADD24R,0.03150X0.02756*%
%ADD25R,0.01969X0.01969*%
%ADD26R,0.01969X0.03937*%
%ADD27R,0.02658X0.00984*%
%ADD28R,0.00984X0.02658*%
%ADD29R,0.05000X0.12500*%
%ADD30O,0.01181X0.02559*%
%ADD31O,0.02559X0.01181*%
%ADD32R,0.14961X0.14961*%
%ADD33C,0.04000*%
%ADD34C,0.01200*%
%ADD35C,0.00500*%
%ADD36C,0.01000*%
%ADD37C,0.00800*%
%ADD38R,0.04500X0.04000*%
%ADD39R,0.05000X0.04000*%
%ADD40R,0.03000X0.05000*%
%ADD41R,0.06000X0.03000*%
%ADD42R,0.09000X0.04000*%
%ADD43R,0.04000X0.01000*%
%ADD44R,0.01000X0.04000*%
%ADD45R,0.03543X0.02598*%
%ADD46C,0.12000*%
%ADD47C,0.06000*%
%ADD48C,0.01600*%
%ADD49C,0.02000*%
%ADD50C,0.02598*%
%ADD51C,0.10000*%
%ADD52C,0.08000*%
G36*
X42500Y70000D02*
X44067D01*
X44493Y69478D01*
X45271Y67800D01*
Y67800D01*
X45272Y67796D01*
X45387Y67215D01*
X45387Y67215D01*
Y67215D01*
X45719Y66719D01*
X45719Y66719D01*
X46010Y66524D01*
X46010Y66524D01*
D01*
X46273Y66215D01*
X47271Y65046D01*
X47528Y64376D01*
X47453Y63800D01*
X47569Y62916D01*
X47280Y62205D01*
X45968Y60748D01*
X45964Y60746D01*
X45719Y60581D01*
Y60581D01*
X45567Y60355D01*
X45387Y60085D01*
Y60085D01*
X45329Y59793D01*
X45271Y59500D01*
D01*
X45330Y59200D01*
X45387Y58915D01*
X45387Y58915D01*
X45518Y58719D01*
X45554Y58665D01*
X45635Y58544D01*
X45719Y58419D01*
X46215Y58087D01*
X46215Y58087D01*
X46800Y57971D01*
X46800Y57971D01*
X47095Y58029D01*
X47385Y58087D01*
X47813Y58372D01*
X47881Y58419D01*
X47881Y58419D01*
X49811Y58979D01*
X50226Y58996D01*
X51564Y58442D01*
X53000Y58253D01*
X53205D01*
X53787Y57304D01*
X54273Y55506D01*
X54273Y55505D01*
X54273Y55505D01*
X54273D01*
X54275Y55497D01*
X54275Y55493D01*
Y55493D01*
X54275Y55493D01*
X54276Y55492D01*
X54363Y55361D01*
X54497Y55161D01*
X54560Y55067D01*
X54563Y55063D01*
Y55063D01*
X54563Y55063D01*
X54694Y54975D01*
X54895Y54841D01*
X54988Y54778D01*
X54993Y54775D01*
X54993D01*
X54999Y54774D01*
X55003Y54773D01*
X55004Y54773D01*
X55006Y54773D01*
D01*
X55310Y54712D01*
X55497Y54675D01*
X55498Y54675D01*
X55500Y54675D01*
X55500Y54675D01*
X55500Y54675D01*
X55696Y54714D01*
X55732Y54721D01*
X55732Y54721D01*
X55951Y54764D01*
X55994Y54773D01*
X55994Y54773D01*
X55994Y54773D01*
X55994Y54773D01*
X56538Y54844D01*
X57250Y54929D01*
X57962Y54844D01*
X58506Y54773D01*
X58506Y54773D01*
D01*
X58810Y54712D01*
X58997Y54675D01*
X58997Y54675D01*
X58998Y54675D01*
X59000Y54675D01*
X59000D01*
X59000D01*
X59000Y54675D01*
X59232Y54721D01*
X59494Y54773D01*
D01*
X59496Y54773D01*
X59497Y54773D01*
X59507Y54775D01*
Y54775D01*
X59508Y54776D01*
X59639Y54863D01*
X59839Y54997D01*
X59927Y55056D01*
X60916Y55685D01*
X61315Y55935D01*
X62494Y56172D01*
X62994Y56273D01*
X62994Y56273D01*
X62995Y56273D01*
X62995Y56273D01*
Y56273D01*
X62997Y56273D01*
X63003Y56275D01*
X63007Y56275D01*
X63007D01*
Y56275D01*
X63008Y56276D01*
Y56276D01*
X63139Y56363D01*
X63139Y56363D01*
X63292Y56466D01*
X63339Y56497D01*
X63339Y56497D01*
D01*
X63375Y56521D01*
X63409Y56544D01*
X63433Y56560D01*
X63433Y56560D01*
D01*
X63433Y56560D01*
X63434Y56561D01*
X63435Y56561D01*
X63436Y56562D01*
X63437Y56563D01*
D01*
X63437Y56563D01*
Y56563D01*
Y56563D01*
X63437Y56563D01*
D01*
X63525Y56694D01*
Y56694D01*
X63657Y56892D01*
X63659Y56895D01*
Y56895D01*
X63721Y56987D01*
X63722Y56988D01*
D01*
X63724Y56993D01*
X63725Y56993D01*
X63725Y56993D01*
X63726Y56999D01*
X63727Y57003D01*
X63727Y57004D01*
X63727Y57004D01*
X63727Y57006D01*
D01*
X63788Y57310D01*
X63825Y57497D01*
X63825Y57497D01*
X63825Y57498D01*
X63826Y57500D01*
Y57500D01*
Y57500D01*
X63826Y57500D01*
X63826Y57500D01*
X63786Y57697D01*
X63779Y57732D01*
X63779D01*
X63736Y57951D01*
X63727Y57994D01*
X63727Y57994D01*
X63727Y57995D01*
X63727Y57995D01*
Y57996D01*
X63727Y57996D01*
X63727Y57996D01*
Y57996D01*
X63727Y57997D01*
X63727Y57997D01*
X63725Y58007D01*
Y58007D01*
Y58007D01*
X63724Y58007D01*
X63724Y58007D01*
X63724Y58008D01*
X63724Y58008D01*
X63724Y58008D01*
Y58008D01*
X63723Y58010D01*
X63708Y58032D01*
X63637Y58139D01*
Y58139D01*
X63634Y58143D01*
X63613Y58174D01*
X63503Y58339D01*
Y58339D01*
X63440Y58433D01*
D01*
X63437Y58437D01*
D01*
Y58437D01*
D01*
X63437Y58437D01*
X63437Y58437D01*
X63437Y58437D01*
X63437Y58438D01*
X63437Y58438D01*
Y58438D01*
X63437Y58438D01*
X63435Y58439D01*
X63432Y58441D01*
X63427Y58444D01*
X63427Y58444D01*
D01*
X63420Y58451D01*
X62525Y59419D01*
X61935Y60288D01*
X61769Y60719D01*
X62004Y61026D01*
X62558Y62364D01*
X62748Y63800D01*
X62558Y65236D01*
X62539Y65283D01*
Y70000D01*
X76525D01*
X76871Y68000D01*
X76769Y67932D01*
X76437Y67436D01*
X76321Y66850D01*
X76437Y66265D01*
X76769Y65769D01*
X77265Y65437D01*
X77850Y65321D01*
X78436Y65437D01*
X78932Y65769D01*
X79263Y66265D01*
X79380Y66850D01*
X79263Y67436D01*
X78932Y67932D01*
X78830Y68000D01*
X79176Y70000D01*
X87882D01*
X88296Y69769D01*
X89269Y68937D01*
X89977Y68159D01*
D01*
X90055Y68074D01*
X90056Y68072D01*
X90057Y68071D01*
X90057D01*
X90058Y68070D01*
X90060Y68068D01*
X90061Y68065D01*
X90063Y68063D01*
X90063Y68063D01*
X90063Y68063D01*
X90063D01*
X90063Y68063D01*
X90063D01*
X90152Y68003D01*
X90194Y67975D01*
X90194D01*
X90324Y67888D01*
X90395Y67841D01*
X90395D01*
X90454Y67801D01*
X90488Y67778D01*
D01*
X90491Y67777D01*
X90491Y67777D01*
X90493Y67775D01*
X90493Y67775D01*
X90499Y67774D01*
X90503Y67773D01*
X90504Y67773D01*
X90504Y67773D01*
X90506Y67773D01*
D01*
X90810Y67712D01*
X90997Y67675D01*
X90998Y67675D01*
X90998Y67675D01*
X91000Y67674D01*
X91000D01*
X91000D01*
X91000D01*
X91000Y67674D01*
X91232Y67721D01*
X91494Y67773D01*
D01*
X91496Y67773D01*
X91496Y67773D01*
X91497Y67773D01*
X91507Y67775D01*
X91507D01*
X91508Y67775D01*
X91508Y67776D01*
X91508D01*
X91639Y67863D01*
X91639D01*
X91839Y67997D01*
X91839D01*
X91933Y68060D01*
X91933D01*
X91937Y68063D01*
X91937D01*
X91937D01*
D01*
X91937Y68063D01*
X91938Y68064D01*
X91939Y68065D01*
X91940Y68067D01*
X91941Y68068D01*
X91941D01*
X91941Y68068D01*
X91941Y68069D01*
X91942Y68070D01*
X91943Y68071D01*
X91943Y68072D01*
D01*
X91944Y68072D01*
X91945Y68074D01*
X91998Y68133D01*
X91998D01*
X92731Y68937D01*
X93704Y69769D01*
X94118Y70000D01*
X102500D01*
Y60881D01*
X100500Y59858D01*
X100291Y60008D01*
X100227Y60506D01*
X100227Y60506D01*
X100266Y60699D01*
X100288Y60810D01*
Y60810D01*
X100324Y60993D01*
X100325Y60997D01*
Y60997D01*
X100325Y60997D01*
X100325Y60997D01*
X100325Y60998D01*
Y60998D01*
D01*
X100325Y60998D01*
X100325Y60998D01*
X100325D01*
X100325Y60998D01*
X100325Y60998D01*
X100325Y60999D01*
X100326Y61000D01*
X100326Y61000D01*
X100326D01*
X100326Y61000D01*
X100326Y61000D01*
Y61000D01*
X100326Y61000D01*
X100279Y61232D01*
Y61232D01*
X100279Y61232D01*
X100227Y61494D01*
Y61494D01*
Y61494D01*
X100227D01*
X100227Y61495D01*
X100227Y61496D01*
X100227Y61496D01*
X100227Y61497D01*
X100227Y61497D01*
X100227Y61497D01*
X100226Y61499D01*
X100225Y61504D01*
X100225Y61507D01*
Y61507D01*
X100225D01*
X100224Y61508D01*
X100224D01*
X100137Y61639D01*
X100137Y61639D01*
D01*
X100003Y61839D01*
X100003Y61839D01*
X100003D01*
X99998Y61847D01*
X99974Y61882D01*
X99956Y61909D01*
X99940Y61933D01*
X99940Y61933D01*
D01*
X99939Y61934D01*
X99939Y61935D01*
X99938Y61936D01*
X99937Y61937D01*
D01*
X99937Y61937D01*
X99937D01*
X99937Y61937D01*
X99937D01*
X99806Y62025D01*
X99806Y62025D01*
X99806D01*
X99606Y62159D01*
X99605Y62159D01*
X99605D01*
X99562Y62188D01*
X99535Y62206D01*
X99512Y62222D01*
X99512Y62222D01*
D01*
X99511Y62222D01*
X99510Y62223D01*
X99508Y62224D01*
X99507Y62225D01*
X99507Y62225D01*
D01*
X99507Y62225D01*
X99506Y62225D01*
X99504Y62225D01*
X99501Y62226D01*
X99501D01*
X99500Y62226D01*
X99499Y62226D01*
X99498Y62226D01*
X99497Y62227D01*
X99497Y62227D01*
X99497Y62227D01*
X99497Y62227D01*
X99497Y62227D01*
X99497D01*
X99496Y62227D01*
X99496Y62227D01*
X99496Y62227D01*
X99496Y62227D01*
X99496Y62227D01*
X99496Y62227D01*
X99495Y62227D01*
X99495Y62227D01*
X99494Y62227D01*
X99494Y62227D01*
X99492Y62228D01*
X99336Y62259D01*
X99300Y62266D01*
X99190Y62288D01*
X99107Y62304D01*
X99104Y62305D01*
X99092Y62307D01*
X99007Y62324D01*
X99003Y62325D01*
X99003Y62325D01*
X99003Y62325D01*
X99002Y62325D01*
X99002D01*
X99002D01*
X99002Y62325D01*
X99002Y62325D01*
Y62325D01*
X99002Y62325D01*
X99002Y62325D01*
X99001Y62325D01*
X99000Y62326D01*
X99000Y62326D01*
X99000D01*
D01*
X99000D01*
Y62326D01*
X99000D01*
X98995Y62325D01*
X98911Y62308D01*
X98879Y62301D01*
X98768Y62279D01*
X98768D01*
X98644Y62255D01*
X98506Y62227D01*
X98506D01*
X98506Y62227D01*
X98505Y62227D01*
X98505Y62227D01*
X98504Y62227D01*
X98504Y62227D01*
X98504Y62227D01*
X98504Y62227D01*
X98504Y62227D01*
X98504Y62227D01*
X98504Y62227D01*
X98503Y62227D01*
X98503Y62227D01*
X98503Y62227D01*
X98503Y62227D01*
X98503Y62227D01*
X98503Y62227D01*
D01*
X98501Y62226D01*
X98496Y62225D01*
X98493Y62225D01*
Y62225D01*
X98493D01*
X98493Y62225D01*
X98493Y62225D01*
X98492Y62224D01*
X98492Y62224D01*
X98492D01*
X98490Y62223D01*
X98468Y62208D01*
X98432Y62184D01*
X98421Y62177D01*
X98361Y62137D01*
X98357Y62134D01*
X98260Y62069D01*
X98163Y62004D01*
X98161Y62003D01*
X98159Y62002D01*
X98115Y61972D01*
X98068Y61941D01*
X98067Y61940D01*
X98065Y61939D01*
X98063Y61937D01*
X98063Y61937D01*
D01*
X98063Y61937D01*
X98063Y61937D01*
X98063Y61937D01*
X98062Y61937D01*
X98062Y61937D01*
X98062D01*
X98061Y61934D01*
X98046Y61912D01*
X98023Y61877D01*
X97975Y61806D01*
X97975Y61806D01*
X97972Y61802D01*
X97841Y61605D01*
X97841Y61605D01*
X97840Y61604D01*
X97778Y61512D01*
X97775Y61507D01*
X97775Y61507D01*
Y61507D01*
X97775Y61507D01*
X97775Y61506D01*
X97774Y61502D01*
X97774Y61501D01*
X97774Y61501D01*
Y61501D01*
Y61501D01*
X97774Y61500D01*
X97773Y61497D01*
X97773Y61497D01*
Y61497D01*
X97773Y61497D01*
X97773Y61496D01*
Y61496D01*
X97773Y61496D01*
X97773Y61496D01*
D01*
X97773Y61495D01*
X97773Y61495D01*
X97773Y61494D01*
X97773D01*
Y61494D01*
X97773Y61494D01*
X97772Y61492D01*
X97712Y61190D01*
X97712D01*
X97712Y61190D01*
X97712Y61189D01*
X97675Y61003D01*
D01*
X97675Y61003D01*
Y61003D01*
X97675D01*
Y61003D01*
X97675Y61002D01*
X97675Y61002D01*
D01*
X97675Y61002D01*
X97675Y61000D01*
X97675Y61000D01*
Y61000D01*
Y61000D01*
D01*
Y61000D01*
X97675Y61000D01*
X97676Y60995D01*
X97692Y60911D01*
X97721Y60768D01*
Y60768D01*
X97773Y60506D01*
X97773Y60506D01*
X97773Y60506D01*
X97773Y60505D01*
Y60504D01*
X97773Y60504D01*
X97773Y60504D01*
Y60504D01*
X97773Y60504D01*
X97773Y60503D01*
X97773Y60503D01*
X97773Y60503D01*
X97773Y60503D01*
Y60503D01*
X97775Y60493D01*
Y60493D01*
Y60493D01*
X97776Y60493D01*
X97776Y60493D01*
X97776Y60492D01*
X97776Y60492D01*
Y60492D01*
X97776Y60492D01*
X97777Y60490D01*
X97781Y60484D01*
X97782Y60482D01*
X97783Y60482D01*
X98207Y59738D01*
X98568Y58939D01*
X98594Y58882D01*
X98773Y57494D01*
X98773Y57494D01*
X98713Y57196D01*
X98712Y57191D01*
X98712Y57191D01*
X98676Y57007D01*
X98675Y57003D01*
Y57003D01*
X98675Y57003D01*
X98675Y57003D01*
X98675Y57002D01*
Y57002D01*
D01*
X98675Y57002D01*
X98675Y57002D01*
X98675D01*
X98675Y57002D01*
X98675Y57002D01*
X98675Y57001D01*
X98674Y57000D01*
Y57000D01*
X98674Y57000D01*
D01*
X98674Y57000D01*
X98721Y56768D01*
X98773Y56506D01*
Y56506D01*
X98773Y56506D01*
X98773Y56504D01*
X98773Y56503D01*
X98775Y56493D01*
X98775Y56493D01*
X98776Y56492D01*
X98863Y56361D01*
X98997Y56161D01*
X99060Y56067D01*
X99063Y56063D01*
X99063Y56063D01*
X99063Y56063D01*
X99194Y55975D01*
X99395Y55841D01*
X99488Y55778D01*
X99493Y55775D01*
X99493Y55775D01*
X99493Y55775D01*
X99494Y55775D01*
X99499Y55774D01*
X99499Y55774D01*
X99499D01*
X99500Y55774D01*
X99503Y55773D01*
D01*
X99504Y55773D01*
X99506Y55773D01*
Y55773D01*
X99506D01*
X99508Y55772D01*
X99580Y55758D01*
X99810Y55712D01*
D01*
X99894Y55696D01*
X99997Y55675D01*
X99997Y55675D01*
X100000Y55674D01*
X100000Y55674D01*
X100000D01*
X100000D01*
X100001Y55675D01*
X100027Y55680D01*
X100050Y55685D01*
X101364Y55472D01*
X102026Y55242D01*
X102500Y54885D01*
Y38942D01*
X100781Y37223D01*
X98608Y37713D01*
X98307Y38330D01*
X98228Y38496D01*
D01*
X98226Y38500D01*
X98226Y38500D01*
X98226Y38501D01*
X98225Y38505D01*
X98225Y38507D01*
X98225Y38507D01*
X98224Y38508D01*
X98224D01*
X98137Y38639D01*
X98137Y38639D01*
D01*
X98003Y38839D01*
X98003Y38839D01*
X98003D01*
X97998Y38847D01*
X97974Y38882D01*
X97956Y38909D01*
X97940Y38933D01*
X97940Y38933D01*
D01*
X97939Y38934D01*
X97939Y38935D01*
X97938Y38936D01*
X97937Y38937D01*
D01*
X97937Y38937D01*
X97937D01*
X97937Y38938D01*
X97937D01*
X97806Y39025D01*
X97806Y39025D01*
X97806D01*
X97606Y39159D01*
X97605Y39159D01*
X97605D01*
X97585Y39173D01*
X97562Y39188D01*
X97535Y39206D01*
X97512Y39222D01*
X97512Y39222D01*
D01*
X97511Y39222D01*
X97510Y39223D01*
X97508Y39224D01*
X97507Y39225D01*
X97507Y39225D01*
X97507Y39225D01*
X97501Y39226D01*
X97501Y39226D01*
X97499Y39226D01*
X97497Y39227D01*
X97497Y39227D01*
X97497Y39227D01*
X97497Y39227D01*
X97497Y39227D01*
X97496Y39227D01*
X97496Y39227D01*
X97496D01*
X97496Y39227D01*
X97496Y39227D01*
D01*
X97495Y39227D01*
X97494Y39227D01*
X97494Y39227D01*
X97334Y39259D01*
X97190Y39288D01*
X97190Y39288D01*
X97096Y39307D01*
X97003Y39325D01*
X97003D01*
X97003Y39325D01*
X97002Y39325D01*
D01*
X97002Y39325D01*
X97002Y39325D01*
X97002Y39325D01*
X97001Y39325D01*
X97000Y39325D01*
X97000D01*
D01*
X97000Y39325D01*
X96768Y39279D01*
X96768Y39279D01*
X96506Y39227D01*
X96506Y39227D01*
X96504Y39227D01*
X96504D01*
X96504Y39227D01*
X96504D01*
X96503Y39227D01*
X96503Y39227D01*
X96503Y39226D01*
X96493Y39225D01*
X96493D01*
X96493D01*
X96493Y39224D01*
X96493Y39224D01*
X96492Y39224D01*
X96492Y39224D01*
X96492D01*
X96490Y39223D01*
X96468Y39208D01*
X96433Y39184D01*
X96381Y39150D01*
X96361Y39137D01*
X96361D01*
X96357Y39134D01*
X96161Y39003D01*
X96161D01*
X96159Y39002D01*
X96067Y38940D01*
D01*
X96063Y38937D01*
D01*
X96063D01*
D01*
X96063Y38937D01*
X96063Y38937D01*
X96063Y38937D01*
X96062Y38937D01*
X96062Y38937D01*
X96062D01*
X96061Y38934D01*
X96046Y38912D01*
X96022Y38877D01*
X95975Y38806D01*
X95975Y38806D01*
X95972Y38802D01*
X95841Y38605D01*
X95841Y38605D01*
X95840Y38604D01*
X95778Y38512D01*
X95778D01*
X95775Y38507D01*
X95775D01*
Y38507D01*
X95775Y38507D01*
X95775Y38506D01*
X95774Y38502D01*
X95774Y38501D01*
X95774Y38501D01*
D01*
Y38501D01*
X95774Y38500D01*
X95774Y38499D01*
X95774Y38499D01*
X95772Y38496D01*
X95535Y37981D01*
X94995Y36816D01*
X94807Y36489D01*
X94354Y36020D01*
X80123D01*
X80081Y36081D01*
X79585Y36413D01*
X79000Y36529D01*
X78415Y36413D01*
X77919Y36081D01*
X77587Y35585D01*
X77471Y35000D01*
X77340Y34451D01*
X76619Y32961D01*
X76429Y32821D01*
X76279Y32721D01*
X62073Y18515D01*
X62000Y18529D01*
X61415Y18413D01*
X60919Y18081D01*
X60877Y18020D01*
X54422D01*
X47221Y25221D01*
X46890Y25442D01*
X46500Y25520D01*
X43623D01*
X43581Y25581D01*
X43085Y25913D01*
X42500Y26029D01*
X41915Y25913D01*
X41419Y25581D01*
X41087Y25085D01*
X40971Y24500D01*
X41087Y23915D01*
X41419Y23419D01*
X41915Y23087D01*
X42500Y22971D01*
X43085Y23087D01*
X43581Y23419D01*
X43623Y23480D01*
X46078D01*
X53279Y16279D01*
X53610Y16058D01*
X54000Y15980D01*
X60877D01*
X60918Y15919D01*
X60919Y15919D01*
X60919Y15919D01*
X61165Y15754D01*
D01*
X61415Y15587D01*
X61415Y15587D01*
X62000Y15471D01*
X62290Y15528D01*
X62291Y15528D01*
X62585Y15587D01*
X62585Y15587D01*
X62585Y15587D01*
X62835Y15754D01*
X62835D01*
X63081Y15919D01*
X63081D01*
X63248Y16169D01*
D01*
X63293Y16236D01*
X65327Y16566D01*
X66055Y16069D01*
X66055D01*
X66062Y16063D01*
X66062Y16063D01*
X66063Y16063D01*
D01*
X66063Y16063D01*
X66063D01*
X66063Y16062D01*
X66063D01*
X66194Y15975D01*
X66194Y15975D01*
X66194D01*
X66347Y15873D01*
X66395Y15841D01*
X66395Y15841D01*
X66395D01*
X66438Y15812D01*
X66465Y15794D01*
X66488Y15778D01*
X66488Y15778D01*
Y15778D01*
X66489Y15778D01*
X66490Y15777D01*
X66492Y15776D01*
X66493Y15775D01*
X66493Y15775D01*
X66493Y15775D01*
X66499Y15774D01*
X66499Y15774D01*
X66503Y15773D01*
X66503D01*
X66504Y15773D01*
X66504Y15773D01*
X66504D01*
X66504Y15773D01*
X66505Y15773D01*
D01*
X66506Y15773D01*
X66506Y15773D01*
X66506Y15773D01*
X66700Y15734D01*
X66810Y15712D01*
X66810D01*
X66993Y15676D01*
X66997Y15675D01*
D01*
X66997Y15675D01*
X66997Y15675D01*
X66998Y15675D01*
X66998D01*
D01*
X66998Y15675D01*
X66998Y15675D01*
Y15675D01*
X66998Y15675D01*
X66998Y15675D01*
X66999Y15675D01*
X67000Y15675D01*
X67000Y15675D01*
D01*
X67000D01*
X67000D01*
D01*
X67000Y15675D01*
X67232Y15721D01*
Y15721D01*
X67410Y15756D01*
X67494Y15773D01*
X67494D01*
D01*
Y15773D01*
X67496Y15773D01*
X67496Y15773D01*
X67496Y15773D01*
X67496Y15773D01*
X67496D01*
X67497Y15773D01*
X67497Y15773D01*
D01*
X67497Y15773D01*
X67497Y15773D01*
D01*
X67499Y15774D01*
X67504Y15775D01*
X67507Y15775D01*
Y15775D01*
X67507Y15775D01*
X67508Y15776D01*
X67639Y15863D01*
X67639Y15863D01*
X67792Y15966D01*
X67839Y15997D01*
X67839Y15997D01*
D01*
X67875Y16021D01*
X67909Y16044D01*
X67933Y16060D01*
X67933Y16060D01*
D01*
X67934Y16060D01*
X67935Y16061D01*
X67936Y16062D01*
X67937Y16063D01*
D01*
X67937Y16063D01*
X67937Y16063D01*
X67937Y16063D01*
X67937Y16063D01*
X67937Y16063D01*
X67937D01*
X67939Y16066D01*
X67954Y16088D01*
X67977Y16123D01*
X67985Y16134D01*
X68025Y16194D01*
X68028Y16198D01*
X68049Y16229D01*
X68095Y16299D01*
X68159Y16395D01*
X68160Y16396D01*
X68190Y16441D01*
X68222Y16488D01*
D01*
X68225Y16493D01*
D01*
Y16493D01*
X68225Y16493D01*
X68225Y16494D01*
X68226Y16498D01*
X68226Y16499D01*
X68226Y16499D01*
Y16499D01*
Y16499D01*
X68226Y16500D01*
X68226Y16502D01*
X68227Y16503D01*
X68227D01*
X68227Y16503D01*
X68227Y16503D01*
X68227D01*
X68227Y16503D01*
X68227Y16504D01*
Y16504D01*
X68227Y16504D01*
X68227Y16504D01*
D01*
X68227Y16505D01*
X68227Y16506D01*
X68227D01*
Y16506D01*
X68227Y16506D01*
X68228Y16508D01*
X68288Y16810D01*
X68288D01*
X68288Y16810D01*
X68304Y16894D01*
X68325Y16997D01*
D01*
X68325Y16997D01*
Y16997D01*
X68325D01*
Y16997D01*
X68325Y16998D01*
D01*
X68326Y17000D01*
X68326Y17000D01*
Y17000D01*
Y17000D01*
D01*
Y17000D01*
X68326Y17000D01*
X68325Y17005D01*
X68279Y17232D01*
X68279D01*
X68278Y17237D01*
X68227Y17494D01*
X68227Y17494D01*
X68227Y17494D01*
X68227Y17495D01*
Y17496D01*
X68227Y17496D01*
X68227Y17496D01*
Y17496D01*
X68227Y17496D01*
X68227Y17497D01*
Y17497D01*
X68225Y17507D01*
Y17507D01*
Y17507D01*
X68225Y17507D01*
X68225Y17507D01*
X68224Y17507D01*
X68224Y17508D01*
Y17508D01*
X68223Y17510D01*
X68208Y17532D01*
X68137Y17639D01*
Y17639D01*
X68134Y17643D01*
X68113Y17674D01*
X68003Y17839D01*
Y17839D01*
X67940Y17933D01*
D01*
X67937Y17937D01*
D01*
X67937Y17937D01*
D01*
X67937Y17937D01*
X67937Y17937D01*
X67937Y17937D01*
X67937Y17937D01*
X67937Y17937D01*
X67931Y17945D01*
D01*
X67310Y18854D01*
X66874Y19497D01*
X66804Y19637D01*
X66709Y20267D01*
X76733Y30291D01*
X77363Y30196D01*
X77494Y30132D01*
X78146Y29690D01*
X79055Y29068D01*
D01*
X79062Y29063D01*
X79063Y29063D01*
X79063Y29063D01*
X79063Y29063D01*
X79063Y29063D01*
X79063Y29063D01*
X79063D01*
X79063Y29063D01*
D01*
X79152Y29003D01*
X79194Y28975D01*
X79194D01*
X79324Y28888D01*
X79395Y28841D01*
X79395D01*
X79454Y28801D01*
X79488Y28778D01*
D01*
X79491Y28776D01*
X79493Y28775D01*
X79493Y28775D01*
X79499Y28774D01*
X79503Y28773D01*
X79504Y28773D01*
X79504Y28773D01*
X79506Y28773D01*
D01*
X79810Y28712D01*
X79997Y28675D01*
X79998Y28675D01*
X79998Y28675D01*
X80000Y28675D01*
X80000D01*
X80000D01*
X80000D01*
X80000Y28675D01*
X80232Y28721D01*
X80494Y28773D01*
D01*
X80496Y28773D01*
X80496Y28773D01*
X80497Y28773D01*
X80507Y28775D01*
Y28775D01*
X80508Y28776D01*
X80639Y28863D01*
X80839Y28997D01*
X80933Y29060D01*
X80937Y29063D01*
X80937D01*
D01*
X80937Y29063D01*
X80938Y29064D01*
X80939Y29065D01*
X80940Y29067D01*
X80941Y29068D01*
X80941D01*
X80941Y29068D01*
X80941Y29069D01*
X80942Y29070D01*
X80943Y29071D01*
X80943Y29072D01*
X80943Y29072D01*
X80943Y29072D01*
X80945Y29074D01*
X80945Y29074D01*
X80945D01*
X81753Y29947D01*
X82711Y30752D01*
X83131Y30980D01*
X97850D01*
X98248Y28980D01*
X97941Y28853D01*
X95861Y27578D01*
X94006Y25994D01*
X92422Y24139D01*
X91147Y22059D01*
X90213Y19805D01*
X89644Y17432D01*
X89452Y15000D01*
X89644Y12568D01*
X90213Y10195D01*
X91147Y7941D01*
X91724Y7000D01*
X90604Y5000D01*
X32500D01*
X0Y37500D01*
Y57604D01*
X1801Y58179D01*
X2000Y58160D01*
X2504Y57504D01*
X3235Y56943D01*
X4086Y56590D01*
X5000Y56470D01*
X5914Y56590D01*
X6765Y56943D01*
X7496Y57504D01*
X8057Y58235D01*
X8410Y59086D01*
X8530Y60000D01*
X8410Y60914D01*
X8057Y61765D01*
X7496Y62496D01*
X6765Y63057D01*
X5914Y63410D01*
X5000Y63530D01*
X4086Y63410D01*
X3235Y63057D01*
X2504Y62496D01*
X2000Y61840D01*
X1801Y61821D01*
X0Y62396D01*
Y82500D01*
X3588D01*
X4801Y80927D01*
X4669Y80319D01*
X4578Y79917D01*
X4576Y79908D01*
X4576Y79908D01*
X4576Y79908D01*
X4576Y79908D01*
X4575Y79907D01*
X4575Y79907D01*
X4574Y79901D01*
X4573Y79897D01*
Y79897D01*
X4573Y79896D01*
X4573Y79896D01*
Y79896D01*
X4573Y79896D01*
X4573Y79896D01*
D01*
X4573Y79894D01*
X4573Y79894D01*
X4573Y79894D01*
X4513Y79596D01*
X4512Y79590D01*
X4512Y79590D01*
X4476Y79407D01*
X4475Y79403D01*
Y79403D01*
X4475Y79403D01*
X4475Y79403D01*
X4475Y79402D01*
Y79402D01*
D01*
X4475Y79402D01*
X4475Y79402D01*
X4475D01*
X4475Y79402D01*
X4475Y79402D01*
X4475Y79401D01*
X4474Y79400D01*
X4474Y79400D01*
D01*
Y79400D01*
Y79400D01*
D01*
X4474Y79400D01*
X4521Y79168D01*
X4521D01*
X4573Y78906D01*
Y78906D01*
Y78906D01*
X4573D01*
X4573Y78905D01*
X4573Y78904D01*
X4573Y78904D01*
X4573Y78904D01*
X4573Y78904D01*
Y78904D01*
X4573Y78903D01*
X4573Y78903D01*
Y78903D01*
X4574Y78901D01*
X4575Y78896D01*
X4575Y78893D01*
X4575D01*
X4575Y78893D01*
X4576Y78892D01*
X4576D01*
X4663Y78761D01*
X4663Y78761D01*
X4663Y78761D01*
X4766Y78608D01*
X4797Y78561D01*
X4797Y78561D01*
D01*
X4802Y78553D01*
X4826Y78518D01*
X4844Y78491D01*
X4860Y78467D01*
X4860Y78467D01*
D01*
X4861Y78466D01*
X4861Y78465D01*
X4862Y78464D01*
X4863Y78463D01*
D01*
X4863Y78463D01*
X4863D01*
X4863Y78462D01*
D01*
X4994Y78375D01*
X4994D01*
X5147Y78273D01*
X5195Y78241D01*
X5195Y78241D01*
X5195D01*
X5265Y78194D01*
X5288Y78178D01*
X5288Y78178D01*
Y78178D01*
X5289Y78178D01*
X5290Y78177D01*
X5292Y78176D01*
X5293Y78175D01*
X5293Y78175D01*
D01*
X5293D01*
X5293Y78175D01*
X5294Y78175D01*
X5296Y78175D01*
X5299Y78174D01*
X5299D01*
X5300Y78174D01*
X5301Y78174D01*
X5302Y78174D01*
X5303Y78173D01*
X5303Y78173D01*
X5303Y78173D01*
X5303Y78173D01*
X5303Y78173D01*
X5303Y78173D01*
X5303Y78173D01*
X5304Y78173D01*
X5304Y78173D01*
X5304Y78173D01*
X5304Y78173D01*
X5304Y78173D01*
X5304Y78173D01*
X5305Y78173D01*
X5305Y78173D01*
X5306Y78173D01*
X5306Y78173D01*
X5306Y78173D01*
X5308Y78172D01*
X5380Y78158D01*
X5469Y78140D01*
X5500Y78134D01*
X5610Y78112D01*
X5610Y78112D01*
X5694Y78096D01*
X5696Y78095D01*
X5793Y78076D01*
X5797Y78075D01*
X5797Y78075D01*
X5797D01*
X5797Y78075D01*
X5798Y78075D01*
X5798D01*
X5798D01*
X5798Y78075D01*
X5798Y78075D01*
X5798Y78075D01*
X5799Y78075D01*
X5799Y78075D01*
X5800Y78075D01*
X5800Y78075D01*
X5800D01*
X5800D01*
D01*
X5800D01*
Y78075D01*
X5800D01*
X5805Y78075D01*
X5923Y78099D01*
X6032Y78121D01*
X6153Y78145D01*
X6210Y78156D01*
X6294Y78173D01*
X6294D01*
X6294Y78173D01*
X6295Y78173D01*
X6295Y78173D01*
X6296Y78173D01*
X6296Y78173D01*
X6296Y78173D01*
X6296Y78173D01*
X6296Y78173D01*
X6296Y78173D01*
X6297Y78173D01*
X6297Y78173D01*
X6297Y78173D01*
X6302Y78174D01*
X6304Y78175D01*
X6307Y78175D01*
Y78175D01*
X6307D01*
X6307Y78175D01*
X6307Y78175D01*
X6307Y78175D01*
X6308Y78176D01*
X6310Y78177D01*
X6332Y78192D01*
X6368Y78216D01*
X6379Y78223D01*
X6439Y78263D01*
X6442Y78266D01*
X6474Y78287D01*
X6544Y78333D01*
X6599Y78370D01*
X6639Y78397D01*
X6641Y78398D01*
X6685Y78428D01*
X6713Y78447D01*
X6733Y78460D01*
X6735Y78461D01*
X6736Y78462D01*
X6737Y78463D01*
D01*
X6737Y78463D01*
X6737Y78463D01*
X6737Y78463D01*
X6737Y78463D01*
X6737Y78463D01*
X6737D01*
X6739Y78466D01*
X6754Y78488D01*
X6825Y78594D01*
X6825D01*
X6828Y78598D01*
X6848Y78629D01*
X6959Y78795D01*
X6959Y78795D01*
X7022Y78888D01*
X7025Y78893D01*
X7025Y78893D01*
Y78893D01*
X7025Y78893D01*
X7025Y78894D01*
X7026Y78898D01*
X7026Y78899D01*
X7026Y78899D01*
Y78899D01*
Y78899D01*
X7026Y78900D01*
X7027Y78903D01*
X7027Y78903D01*
Y78903D01*
X7027Y78903D01*
X7027Y78904D01*
Y78904D01*
X7027Y78904D01*
X7027Y78904D01*
D01*
X7027Y78905D01*
X7027Y78906D01*
X7027D01*
Y78906D01*
X7027Y78906D01*
X7028Y78908D01*
X7088Y79210D01*
X7088D01*
X7088Y79210D01*
X7104Y79294D01*
X7125Y79397D01*
D01*
X7125Y79397D01*
Y79397D01*
X7125D01*
Y79397D01*
X7125Y79398D01*
D01*
X7125Y79400D01*
X7125Y79400D01*
Y79400D01*
Y79400D01*
D01*
Y79400D01*
X7125Y79400D01*
X7124Y79405D01*
X7079Y79632D01*
X7079D01*
X7078Y79637D01*
X7027Y79894D01*
X7027Y79894D01*
X7027Y79894D01*
X7027Y79896D01*
Y79896D01*
X7027Y79896D01*
X7027Y79896D01*
Y79896D01*
X7027Y79896D01*
X7027Y79897D01*
Y79897D01*
X7025Y79907D01*
Y79907D01*
Y79907D01*
X7025Y79907D01*
X7024Y79907D01*
X7024Y79908D01*
X7024Y79908D01*
Y79908D01*
X7024Y79908D01*
X7024Y79908D01*
X7024Y79908D01*
X7024Y79908D01*
X7024Y79908D01*
X7022Y79917D01*
X6931Y80319D01*
X6799Y80927D01*
X8012Y82500D01*
X12469D01*
X12695Y82175D01*
X13419Y80281D01*
X13087Y79785D01*
X13067Y79685D01*
D01*
X13025Y79473D01*
X13025Y79473D01*
X13017Y79467D01*
X12988Y79444D01*
X12967Y79428D01*
X12884Y79364D01*
X12874Y79356D01*
X12873Y79355D01*
X12770Y79276D01*
X12605Y79149D01*
X12590Y79137D01*
X12588Y79136D01*
X12588Y79135D01*
X12580Y79129D01*
X12573Y79124D01*
X12573Y79124D01*
X12571Y79122D01*
X12571Y79122D01*
X12569Y79121D01*
X12567Y79120D01*
X12567Y79119D01*
X12567Y79119D01*
X12567Y79119D01*
X12566Y79119D01*
X12566Y79119D01*
X12565Y79118D01*
X12565Y79118D01*
X12562Y79117D01*
X12469Y79070D01*
X12386Y79027D01*
X12327Y78997D01*
X12306Y78987D01*
X12280Y78974D01*
X12262Y78965D01*
X12156Y78929D01*
X11890Y78841D01*
X11668Y78767D01*
X11594Y78743D01*
X11591Y78742D01*
X11415Y78683D01*
X11203Y78613D01*
X11058Y78565D01*
X11058Y78565D01*
X11058Y78565D01*
X11058Y78565D01*
X11057Y78565D01*
X11057Y78565D01*
X11057Y78565D01*
X11018Y78591D01*
X10985Y78613D01*
X10985Y78613D01*
X10985Y78613D01*
D01*
X10826Y78645D01*
X10826D01*
X10400Y78729D01*
X9815Y78613D01*
X9319Y78281D01*
X9319D01*
X9200Y78104D01*
D01*
X8987Y77785D01*
X8871Y77200D01*
X8987Y76615D01*
X9319Y76119D01*
X9815Y75787D01*
X10400Y75671D01*
X10985Y75787D01*
X11481Y76119D01*
X11813Y76615D01*
X11833Y76714D01*
D01*
X11875Y76927D01*
X11875Y76928D01*
X11883Y76933D01*
X11912Y76956D01*
X11933Y76972D01*
X12016Y77036D01*
X12130Y77125D01*
X12295Y77251D01*
X12310Y77263D01*
X12312Y77264D01*
X12312Y77265D01*
X12320Y77271D01*
X12327Y77276D01*
X12327Y77276D01*
X12329Y77278D01*
X12330Y77278D01*
X12331Y77279D01*
X12332Y77280D01*
X12333Y77280D01*
X12333Y77281D01*
X12333Y77281D01*
X12334Y77281D01*
X12334Y77281D01*
X12335Y77282D01*
X12335Y77282D01*
X12337Y77283D01*
X12431Y77330D01*
X12514Y77372D01*
X12573Y77403D01*
X12594Y77413D01*
X12620Y77426D01*
X12638Y77435D01*
X12744Y77471D01*
X13010Y77559D01*
X13232Y77633D01*
X13306Y77657D01*
X13309Y77658D01*
X13485Y77717D01*
X13697Y77787D01*
X13842Y77836D01*
X13842Y77836D01*
X13842Y77835D01*
X13842Y77835D01*
X13842Y77835D01*
X13844Y77834D01*
X13861Y77823D01*
X13875Y77813D01*
X13875Y77813D01*
X13875Y77813D01*
X13876Y77813D01*
X13893Y77801D01*
X13907Y77792D01*
X13915Y77787D01*
Y77787D01*
X14028Y77764D01*
X14074Y77755D01*
X14074Y77755D01*
X14500Y77671D01*
X14500Y77671D01*
X14790Y77728D01*
X14790Y77728D01*
X14790Y77728D01*
X15031Y77776D01*
X15085Y77787D01*
X15085Y77787D01*
X15581Y78118D01*
X15582Y78119D01*
X15745Y78364D01*
X15748Y78369D01*
Y78369D01*
X15748Y78369D01*
X15913Y78615D01*
X16029Y79200D01*
X16029Y79200D01*
X16019Y79254D01*
X15990Y79399D01*
X16175Y80192D01*
X16184Y80205D01*
X17098Y81490D01*
X17295Y81529D01*
X17585Y81587D01*
X18081Y81919D01*
X18123Y81980D01*
X26000D01*
X26390Y82058D01*
X26721Y82279D01*
X26942Y82500D01*
X42500D01*
Y70000D01*
D02*
G37*
%LPC*%
G36*
X16500Y34954D02*
X15915Y34837D01*
X15419Y34506D01*
X15087Y34010D01*
X14971Y33424D01*
X15087Y32839D01*
X15419Y32343D01*
X15915Y32011D01*
X16500Y31895D01*
X17085Y32011D01*
X17581Y32343D01*
X17913Y32839D01*
X18029Y33424D01*
X17913Y34010D01*
X17581Y34506D01*
X17085Y34837D01*
X16500Y34954D01*
D02*
G37*
G36*
X55000Y34529D02*
X54415Y34413D01*
X54185Y34259D01*
X53717Y34082D01*
X53000D01*
X52283D01*
X51815Y34259D01*
X51585Y34413D01*
X51000Y34529D01*
X50415Y34413D01*
X49919Y34081D01*
X49587Y33585D01*
X49471Y33000D01*
X49587Y32415D01*
X49919Y31919D01*
X50415Y31587D01*
X51000Y31471D01*
X51585Y31587D01*
X51815Y31741D01*
X52283Y31918D01*
X53000D01*
X53717D01*
X54185Y31741D01*
X54415Y31587D01*
X55000Y31471D01*
X55585Y31587D01*
X56081Y31919D01*
X56413Y32415D01*
X56529Y33000D01*
X56413Y33585D01*
X56081Y34081D01*
X55585Y34413D01*
X55000Y34529D01*
D02*
G37*
G36*
X64000Y35326D02*
X64000D01*
D01*
X64000Y35326D01*
D01*
X63994Y35324D01*
X63867Y35299D01*
X63740Y35274D01*
X63629Y35252D01*
X63506Y35227D01*
X63506D01*
X63506Y35227D01*
X63505Y35227D01*
X63504Y35227D01*
X63504Y35227D01*
X63504Y35227D01*
X63504Y35227D01*
X63504Y35227D01*
X63504Y35227D01*
X63503Y35227D01*
X63503Y35227D01*
X63503Y35227D01*
X63503Y35227D01*
X63503Y35227D01*
X63503Y35227D01*
X63503Y35227D01*
X63498Y35226D01*
X63496Y35225D01*
X63493Y35225D01*
X63493D01*
X63493Y35225D01*
X63493Y35225D01*
X63493Y35224D01*
X63492Y35224D01*
X63492D01*
X63490Y35223D01*
X63468Y35208D01*
X63433Y35184D01*
X63421Y35177D01*
X63361Y35137D01*
X63357Y35134D01*
X63265Y35072D01*
X63208Y35034D01*
X63161Y35003D01*
X63161Y35003D01*
X63159Y35002D01*
X63117Y34974D01*
X63091Y34956D01*
X63067Y34940D01*
X63067Y34940D01*
X63065Y34939D01*
X63064Y34938D01*
X63063Y34937D01*
D01*
X63063Y34937D01*
X63063Y34937D01*
X63063Y34937D01*
X63063Y34937D01*
X63063Y34937D01*
X63063D01*
X63061Y34934D01*
X63046Y34912D01*
X63023Y34877D01*
X63015Y34866D01*
X62975Y34806D01*
X62972Y34802D01*
X62910Y34709D01*
X62873Y34653D01*
X62841Y34606D01*
X62841Y34605D01*
X62840Y34604D01*
X62812Y34562D01*
X62794Y34535D01*
X62778Y34512D01*
X62778Y34512D01*
X62777Y34510D01*
X62776Y34508D01*
X62775Y34507D01*
X62775Y34507D01*
D01*
X62775Y34507D01*
X62775Y34506D01*
X62774Y34502D01*
X62774Y34501D01*
X62774Y34501D01*
Y34501D01*
X62774Y34500D01*
X62774Y34499D01*
X62773Y34497D01*
X62773Y34497D01*
X62773Y34497D01*
X62773Y34496D01*
X62773Y34496D01*
X62773Y34496D01*
X62773Y34496D01*
X62773Y34496D01*
X62773Y34495D01*
X62773Y34495D01*
X62773Y34495D01*
X62773Y34495D01*
X62773Y34494D01*
Y34494D01*
X62772Y34492D01*
X62743Y34343D01*
X62713Y34196D01*
X62712Y34190D01*
X62695Y34105D01*
X62695Y34104D01*
X62676Y34007D01*
X62675Y34003D01*
X62675Y34003D01*
X62675Y34003D01*
X62675Y34003D01*
X62675Y34002D01*
Y34002D01*
X62675Y34002D01*
X62675Y34002D01*
X62675D01*
X62675Y34002D01*
X62675Y34002D01*
X62675Y34001D01*
X62674Y34000D01*
X62674Y34000D01*
D01*
Y34000D01*
Y34000D01*
D01*
X62674Y34000D01*
D01*
X62676Y33994D01*
X62690Y33924D01*
X62700Y33874D01*
X62721Y33768D01*
X62745Y33644D01*
X62773Y33506D01*
Y33506D01*
X62773Y33505D01*
X62773Y33505D01*
X62773Y33505D01*
X62773Y33504D01*
X62773Y33504D01*
X62773Y33504D01*
X62773Y33504D01*
X62773Y33504D01*
X62773Y33503D01*
X62773Y33503D01*
X62773Y33503D01*
X62773Y33503D01*
X62773Y33503D01*
X62773Y33503D01*
X62773Y33503D01*
D01*
X62774Y33501D01*
X62775Y33496D01*
X62775Y33493D01*
X62775D01*
Y33493D01*
X62775Y33493D01*
X62775Y33493D01*
X62775Y33493D01*
X62776Y33492D01*
X62777Y33490D01*
X62792Y33468D01*
X62823Y33422D01*
X62863Y33361D01*
X62866Y33358D01*
X62887Y33326D01*
X62930Y33261D01*
X62966Y33208D01*
X62997Y33161D01*
X62997Y33161D01*
X63026Y33118D01*
X63026Y33118D01*
X63044Y33091D01*
X63060Y33067D01*
X63060Y33067D01*
D01*
X63061Y33066D01*
X63061Y33065D01*
X63062Y33064D01*
X63063Y33063D01*
D01*
X63063Y33063D01*
X63063Y33063D01*
X63063Y33063D01*
X63063Y33062D01*
X63063Y33062D01*
Y33062D01*
X63066Y33061D01*
X63088Y33046D01*
X63134Y33015D01*
X63194Y32975D01*
X63198Y32972D01*
X63229Y32952D01*
X63294Y32908D01*
X63347Y32873D01*
X63395Y32841D01*
X63395Y32841D01*
X63437Y32812D01*
X63438Y32812D01*
X63465Y32794D01*
X63488Y32778D01*
X63488Y32778D01*
X63490Y32777D01*
X63492Y32776D01*
X63493Y32775D01*
X63493Y32775D01*
D01*
X63493D01*
X63493Y32775D01*
X63494Y32775D01*
X63496Y32775D01*
X63499Y32774D01*
X63499D01*
X63500Y32774D01*
X63501Y32774D01*
X63502Y32774D01*
X63503Y32773D01*
X63503Y32773D01*
X63503Y32773D01*
X63503Y32773D01*
X63503Y32773D01*
X63503Y32773D01*
X63503Y32773D01*
X63504Y32773D01*
X63504Y32773D01*
X63504Y32773D01*
X63504Y32773D01*
X63504Y32773D01*
X63504Y32773D01*
X63505Y32773D01*
X63505Y32773D01*
X63506Y32773D01*
X63506Y32773D01*
X63506Y32773D01*
X63508Y32772D01*
X63580Y32758D01*
X63669Y32740D01*
X63700Y32734D01*
X63810Y32712D01*
X63810Y32712D01*
X63894Y32696D01*
X63896Y32695D01*
X63993Y32676D01*
X63997Y32675D01*
X63997Y32675D01*
X63997D01*
X63997Y32675D01*
X63998Y32675D01*
X63998D01*
X63998D01*
X63998Y32675D01*
X63998Y32675D01*
X63998Y32675D01*
X63999Y32675D01*
X63999Y32675D01*
X64000Y32675D01*
X64000Y32675D01*
D01*
X64000D01*
X64000D01*
D01*
X64000Y32675D01*
D01*
X64000D01*
X64005Y32675D01*
X64123Y32699D01*
X64232Y32721D01*
X64353Y32745D01*
X64410Y32756D01*
X64494Y32773D01*
X64494D01*
X64494Y32773D01*
X64495Y32773D01*
X64496Y32773D01*
X64496Y32773D01*
X64496Y32773D01*
X64496Y32773D01*
X64496Y32773D01*
X64496Y32773D01*
X64497Y32773D01*
X64497Y32773D01*
X64497Y32773D01*
X64497D01*
X64499Y32774D01*
X64504Y32775D01*
X64507Y32775D01*
Y32775D01*
X64507D01*
X64507Y32776D01*
X64507Y32776D01*
X64508Y32776D01*
X64508Y32776D01*
X64508D01*
X64510Y32777D01*
X64532Y32792D01*
X64578Y32823D01*
X64639Y32863D01*
X64643Y32866D01*
X64674Y32887D01*
X64739Y32930D01*
X64792Y32965D01*
X64839Y32997D01*
X64839Y32997D01*
X64841Y32998D01*
X64883Y33026D01*
X64909Y33044D01*
X64933Y33060D01*
X64933Y33060D01*
X64935Y33061D01*
X64936Y33062D01*
X64937Y33063D01*
D01*
X64937Y33063D01*
X64937Y33063D01*
X64937Y33063D01*
X64938Y33063D01*
X64938Y33063D01*
X64938D01*
X64939Y33066D01*
X64954Y33088D01*
X64985Y33134D01*
X65025Y33194D01*
X65028Y33198D01*
X65048Y33229D01*
X65092Y33294D01*
X65127Y33347D01*
X65159Y33395D01*
X65159Y33395D01*
X65160Y33396D01*
X65188Y33438D01*
X65206Y33465D01*
X65222Y33488D01*
X65222Y33488D01*
X65223Y33490D01*
X65224Y33492D01*
X65225Y33493D01*
X65225Y33493D01*
D01*
Y33493D01*
X65225Y33493D01*
X65225Y33494D01*
X65226Y33498D01*
X65226Y33499D01*
X65226Y33499D01*
Y33499D01*
Y33499D01*
X65226Y33500D01*
X65226Y33501D01*
X65227Y33503D01*
X65227Y33503D01*
X65227Y33503D01*
X65227Y33504D01*
X65227Y33504D01*
X65227Y33504D01*
X65227Y33504D01*
X65227Y33504D01*
X65227Y33505D01*
X65227Y33505D01*
X65227Y33505D01*
X65227Y33505D01*
X65227Y33505D01*
X65227Y33506D01*
X65227Y33506D01*
X65228Y33508D01*
X65257Y33657D01*
X65286Y33804D01*
X65288Y33810D01*
X65288Y33810D01*
X65304Y33893D01*
X65305Y33895D01*
X65308Y33913D01*
X65324Y33993D01*
X65325Y33997D01*
X65325Y33997D01*
X65325Y33997D01*
X65325Y33998D01*
Y33998D01*
Y33998D01*
X65325Y33998D01*
X65325Y33998D01*
X65325Y33999D01*
X65325Y33999D01*
X65325Y34000D01*
X65325Y34000D01*
Y34000D01*
D01*
Y34000D01*
Y34000D01*
X65325D01*
Y34000D01*
Y34000D01*
X65324Y34005D01*
X65301Y34124D01*
X65279Y34232D01*
X65278Y34237D01*
X65254Y34361D01*
X65227Y34494D01*
Y34494D01*
Y34494D01*
X65227Y34495D01*
X65227Y34495D01*
X65227Y34495D01*
X65227Y34495D01*
X65227Y34496D01*
X65227Y34496D01*
X65227Y34496D01*
X65227Y34496D01*
X65227Y34496D01*
X65227Y34497D01*
X65227Y34497D01*
X65227Y34497D01*
D01*
X65226Y34499D01*
X65225Y34503D01*
X65225Y34507D01*
X65225D01*
Y34507D01*
X65224Y34507D01*
X65224Y34507D01*
X65224Y34507D01*
X65224Y34508D01*
X65223Y34510D01*
X65208Y34532D01*
X65178Y34577D01*
X65137Y34639D01*
X65137Y34639D01*
X65134Y34643D01*
X65113Y34674D01*
X65068Y34741D01*
X65003Y34839D01*
X65003Y34839D01*
X64974Y34882D01*
X64974Y34882D01*
X64956Y34909D01*
X64940Y34933D01*
X64940Y34933D01*
D01*
X64939Y34934D01*
X64939Y34935D01*
X64938Y34936D01*
X64937Y34937D01*
D01*
X64937Y34937D01*
X64937Y34937D01*
X64937Y34937D01*
X64937Y34937D01*
X64937Y34938D01*
X64934Y34939D01*
X64912Y34954D01*
X64868Y34984D01*
X64806Y35025D01*
X64806Y35025D01*
X64802Y35028D01*
X64771Y35048D01*
X64704Y35094D01*
X64605Y35159D01*
X64605Y35159D01*
X64562Y35188D01*
X64562Y35188D01*
X64535Y35206D01*
X64512Y35222D01*
X64512Y35222D01*
D01*
X64511Y35222D01*
X64510Y35223D01*
X64508Y35224D01*
X64507Y35225D01*
X64507Y35225D01*
D01*
X64507D01*
X64507Y35225D01*
X64506Y35225D01*
X64504Y35225D01*
X64501Y35226D01*
X64501D01*
X64500Y35226D01*
X64499Y35226D01*
X64498Y35226D01*
X64497Y35227D01*
X64497Y35227D01*
X64497Y35227D01*
X64497Y35227D01*
X64497Y35227D01*
X64497Y35227D01*
X64496Y35227D01*
X64496Y35227D01*
X64496Y35227D01*
X64496Y35227D01*
X64496Y35227D01*
X64496Y35227D01*
X64495Y35227D01*
X64495Y35227D01*
X64495Y35227D01*
X64495Y35227D01*
X64494Y35227D01*
X64494Y35227D01*
X64492Y35228D01*
X64423Y35241D01*
X64337Y35258D01*
X64307Y35265D01*
X64202Y35285D01*
X64201Y35285D01*
X64201Y35286D01*
X64107Y35304D01*
X64007Y35324D01*
X64003Y35325D01*
X64003Y35325D01*
X64003Y35325D01*
X64002Y35325D01*
X64002D01*
X64002D01*
X64002Y35325D01*
X64002Y35325D01*
X64002Y35325D01*
X64001Y35325D01*
X64001Y35325D01*
X64001Y35325D01*
X64000Y35326D01*
X64000Y35326D01*
D02*
G37*
G36*
X80000Y18326D02*
X80000D01*
D01*
X80000Y18326D01*
D01*
X79994Y18324D01*
X79867Y18299D01*
X79740Y18274D01*
X79629Y18252D01*
X79506Y18227D01*
X79506D01*
X79506Y18227D01*
X79505Y18227D01*
X79505Y18227D01*
X79504Y18227D01*
X79504Y18227D01*
X79504Y18227D01*
X79504Y18227D01*
X79504Y18227D01*
X79504Y18227D01*
X79503Y18227D01*
X79503Y18227D01*
X79503Y18227D01*
X79503Y18227D01*
X79503Y18227D01*
X79503Y18227D01*
X79498Y18226D01*
X79496Y18225D01*
X79493Y18225D01*
X79493D01*
X79493Y18225D01*
X79493Y18225D01*
X79492Y18224D01*
X79492Y18224D01*
X79492D01*
X79490Y18223D01*
X79468Y18208D01*
X79432Y18184D01*
X79421Y18177D01*
X79361Y18137D01*
X79357Y18134D01*
X79264Y18072D01*
X79208Y18034D01*
X79161Y18003D01*
X79161Y18003D01*
X79159Y18002D01*
X79117Y17974D01*
X79091Y17956D01*
X79067Y17940D01*
X79067Y17940D01*
X79065Y17939D01*
X79064Y17938D01*
X79063Y17937D01*
D01*
X79063Y17937D01*
X79063Y17937D01*
X79063Y17937D01*
X79062Y17937D01*
X79062Y17937D01*
X79062D01*
X79061Y17934D01*
X79046Y17912D01*
X79023Y17877D01*
X79015Y17866D01*
X78975Y17806D01*
X78972Y17802D01*
X78910Y17709D01*
X78873Y17653D01*
X78841Y17605D01*
X78841Y17605D01*
X78840Y17604D01*
X78812Y17562D01*
X78794Y17535D01*
X78778Y17512D01*
X78778Y17512D01*
X78777Y17510D01*
X78776Y17508D01*
X78775Y17507D01*
X78775Y17507D01*
D01*
X78775Y17507D01*
X78775Y17506D01*
X78774Y17502D01*
X78774Y17501D01*
X78774Y17501D01*
Y17501D01*
X78774Y17500D01*
X78774Y17499D01*
X78773Y17497D01*
X78773Y17497D01*
X78773Y17496D01*
X78773Y17496D01*
X78773Y17496D01*
X78773Y17496D01*
X78773Y17496D01*
X78773Y17496D01*
X78773Y17496D01*
X78773Y17495D01*
X78773Y17495D01*
X78773Y17494D01*
X78773Y17494D01*
Y17494D01*
X78772Y17492D01*
X78743Y17343D01*
X78714Y17196D01*
X78712Y17190D01*
X78695Y17105D01*
X78695Y17104D01*
X78676Y17007D01*
X78675Y17003D01*
X78675Y17003D01*
X78675Y17003D01*
X78675Y17003D01*
X78675Y17002D01*
Y17002D01*
X78675Y17002D01*
X78675Y17002D01*
X78675D01*
X78675Y17002D01*
X78675Y17002D01*
X78675Y17001D01*
X78675Y17000D01*
X78675Y17000D01*
D01*
Y17000D01*
Y17000D01*
D01*
X78675Y17000D01*
D01*
X78676Y16994D01*
X78690Y16924D01*
X78699Y16874D01*
X78721Y16768D01*
X78745Y16644D01*
X78773Y16506D01*
Y16506D01*
X78773Y16506D01*
X78773Y16505D01*
X78773Y16504D01*
X78773Y16504D01*
X78773Y16504D01*
X78773Y16504D01*
X78773Y16504D01*
X78773Y16504D01*
X78773Y16503D01*
X78773Y16503D01*
X78773Y16503D01*
X78773Y16503D01*
X78773Y16503D01*
X78773Y16503D01*
X78773Y16503D01*
D01*
X78774Y16501D01*
X78775Y16496D01*
X78775Y16493D01*
X78775D01*
Y16493D01*
X78776Y16493D01*
X78776Y16493D01*
X78776Y16493D01*
X78776Y16492D01*
X78777Y16490D01*
X78792Y16468D01*
X78823Y16422D01*
X78863Y16361D01*
X78866Y16357D01*
X78887Y16326D01*
X78930Y16262D01*
X78966Y16208D01*
X78997Y16161D01*
X78997Y16161D01*
X79026Y16118D01*
X79026Y16118D01*
X79044Y16091D01*
X79060Y16067D01*
X79060Y16067D01*
D01*
X79061Y16066D01*
X79061Y16065D01*
X79062Y16064D01*
X79063Y16063D01*
D01*
X79063Y16063D01*
X79063Y16063D01*
X79063Y16063D01*
X79063Y16062D01*
X79063Y16062D01*
Y16062D01*
X79066Y16061D01*
X79088Y16046D01*
X79134Y16015D01*
X79194Y15975D01*
X79198Y15972D01*
X79229Y15951D01*
X79294Y15908D01*
X79347Y15873D01*
X79395Y15841D01*
X79395Y15841D01*
X79438Y15812D01*
X79438Y15812D01*
X79465Y15794D01*
X79488Y15778D01*
X79488Y15778D01*
X79490Y15777D01*
X79492Y15776D01*
X79493Y15775D01*
X79493Y15775D01*
D01*
X79493D01*
X79493Y15775D01*
X79494Y15775D01*
X79496Y15775D01*
X79499Y15774D01*
X79499D01*
X79500Y15774D01*
X79501Y15774D01*
X79503Y15773D01*
X79503Y15773D01*
X79504Y15773D01*
X79504Y15773D01*
X79504Y15773D01*
X79504Y15773D01*
X79504Y15773D01*
X79504Y15773D01*
X79504Y15773D01*
X79505Y15773D01*
X79505Y15773D01*
X79506Y15773D01*
X79506Y15773D01*
X79506Y15773D01*
X79508Y15772D01*
X79580Y15758D01*
X79669Y15740D01*
X79700Y15734D01*
X79810Y15712D01*
X79810Y15712D01*
X79893Y15696D01*
X79896Y15695D01*
X79993Y15676D01*
X79997Y15675D01*
X79997Y15675D01*
X79997D01*
X79997Y15675D01*
X79998Y15675D01*
X79998D01*
X79998D01*
X79998Y15675D01*
X79998Y15675D01*
X79998Y15675D01*
X79999Y15675D01*
X79999Y15675D01*
X80000Y15675D01*
X80000Y15675D01*
X80000D01*
D01*
X80000D01*
Y15675D01*
X80000D01*
X80005Y15676D01*
X80123Y15699D01*
X80232Y15721D01*
X80353Y15745D01*
X80410Y15756D01*
X80494Y15773D01*
X80494D01*
X80494Y15773D01*
X80495Y15773D01*
X80496Y15773D01*
X80496Y15773D01*
X80496Y15773D01*
X80496Y15773D01*
X80496Y15773D01*
X80496Y15773D01*
X80497Y15773D01*
X80497Y15773D01*
X80497Y15773D01*
X80497D01*
X80499Y15774D01*
X80504Y15775D01*
X80507Y15775D01*
Y15775D01*
X80507D01*
X80507Y15776D01*
X80507Y15776D01*
X80507Y15776D01*
X80508Y15776D01*
X80508D01*
X80510Y15777D01*
X80532Y15792D01*
X80578Y15823D01*
X80639Y15863D01*
X80642Y15866D01*
X80674Y15887D01*
X80739Y15930D01*
X80792Y15966D01*
X80839Y15997D01*
X80839Y15997D01*
X80841Y15998D01*
X80883Y16026D01*
X80909Y16044D01*
X80933Y16060D01*
X80933Y16060D01*
X80935Y16061D01*
X80936Y16062D01*
X80937Y16063D01*
D01*
X80937Y16063D01*
X80937Y16063D01*
X80937Y16063D01*
X80937Y16063D01*
X80937Y16063D01*
X80937D01*
X80939Y16066D01*
X80954Y16088D01*
X80985Y16134D01*
X81025Y16194D01*
X81028Y16198D01*
X81049Y16229D01*
X81092Y16294D01*
X81127Y16347D01*
X81159Y16395D01*
X81159Y16395D01*
X81160Y16396D01*
X81188Y16438D01*
X81206Y16465D01*
X81222Y16488D01*
X81222Y16488D01*
X81222D01*
X81222Y16489D01*
X81223Y16490D01*
X81224Y16492D01*
X81225Y16493D01*
X81225Y16493D01*
D01*
Y16493D01*
X81225Y16493D01*
X81225Y16494D01*
X81226Y16498D01*
X81226Y16499D01*
X81226Y16499D01*
Y16499D01*
Y16499D01*
X81226Y16500D01*
X81226Y16501D01*
X81227Y16503D01*
X81227Y16503D01*
X81227Y16503D01*
X81227Y16504D01*
X81227Y16504D01*
X81227Y16504D01*
X81227Y16504D01*
X81227Y16504D01*
X81227Y16504D01*
X81227Y16505D01*
X81227Y16505D01*
X81227Y16506D01*
X81227Y16506D01*
X81227Y16506D01*
X81228Y16508D01*
X81257Y16657D01*
X81287Y16804D01*
X81288Y16810D01*
X81288Y16810D01*
X81304Y16894D01*
X81305Y16895D01*
X81308Y16913D01*
X81324Y16993D01*
X81325Y16997D01*
X81325Y16997D01*
X81325Y16997D01*
X81325Y16998D01*
Y16998D01*
Y16998D01*
X81325Y16998D01*
X81325Y16998D01*
X81325Y16999D01*
X81325Y16999D01*
X81326Y17000D01*
X81326Y17000D01*
Y17000D01*
D01*
Y17000D01*
Y17000D01*
X81326D01*
Y17000D01*
Y17000D01*
X81324Y17005D01*
X81301Y17123D01*
X81279Y17232D01*
X81278Y17237D01*
X81254Y17361D01*
X81227Y17494D01*
Y17494D01*
Y17494D01*
X81227Y17494D01*
X81227Y17495D01*
X81227Y17495D01*
X81227Y17496D01*
X81227Y17496D01*
X81227Y17496D01*
X81227Y17496D01*
X81227Y17496D01*
X81227Y17496D01*
X81227Y17497D01*
X81227Y17497D01*
X81227Y17497D01*
D01*
X81226Y17499D01*
X81225Y17503D01*
X81225Y17507D01*
X81225D01*
Y17507D01*
X81225Y17507D01*
X81225Y17507D01*
X81225Y17507D01*
X81224Y17508D01*
X81223Y17510D01*
X81208Y17532D01*
X81178Y17577D01*
X81137Y17639D01*
X81137Y17639D01*
X81134Y17643D01*
X81113Y17674D01*
X81068Y17741D01*
X81003Y17839D01*
X81003Y17839D01*
X80974Y17882D01*
X80974Y17882D01*
X80956Y17909D01*
X80940Y17933D01*
X80940Y17933D01*
D01*
X80939Y17934D01*
X80939Y17935D01*
X80938Y17936D01*
X80937Y17937D01*
D01*
X80937Y17937D01*
X80937Y17937D01*
X80937Y17937D01*
X80937Y17937D01*
X80937Y17937D01*
X80934Y17939D01*
X80912Y17954D01*
X80868Y17984D01*
X80806Y18025D01*
X80806Y18025D01*
X80802Y18028D01*
X80771Y18048D01*
X80704Y18093D01*
X80606Y18159D01*
X80605Y18159D01*
X80563Y18188D01*
X80562Y18188D01*
X80535Y18206D01*
X80512Y18222D01*
X80512Y18222D01*
D01*
X80511Y18222D01*
X80510Y18223D01*
X80508Y18224D01*
X80507Y18225D01*
X80507Y18225D01*
D01*
X80507D01*
X80507Y18225D01*
X80506Y18225D01*
X80504Y18225D01*
X80501Y18226D01*
X80501D01*
X80500Y18226D01*
X80499Y18226D01*
X80498Y18226D01*
X80497Y18227D01*
X80497Y18227D01*
X80497Y18227D01*
X80497Y18227D01*
X80497Y18227D01*
X80497Y18227D01*
X80497Y18227D01*
X80496Y18227D01*
X80496Y18227D01*
X80496Y18227D01*
X80496Y18227D01*
X80496Y18227D01*
X80496Y18227D01*
X80495Y18227D01*
X80495Y18227D01*
X80495Y18227D01*
X80494Y18227D01*
X80494Y18227D01*
X80492Y18228D01*
X80423Y18241D01*
X80337Y18259D01*
X80307Y18264D01*
X80202Y18285D01*
X80201Y18285D01*
X80200Y18286D01*
X80107Y18304D01*
X80007Y18324D01*
X80003Y18325D01*
X80003Y18325D01*
X80003Y18325D01*
X80002Y18325D01*
X80002D01*
X80002D01*
X80002Y18325D01*
X80002Y18325D01*
X80002Y18325D01*
X80001Y18325D01*
X80001Y18325D01*
X80001Y18325D01*
X80000Y18326D01*
X80000Y18326D01*
D02*
G37*
G36*
X36600Y25729D02*
X36015Y25613D01*
X35519Y25281D01*
X35187Y24785D01*
X35071Y24200D01*
X35187Y23615D01*
X35519Y23119D01*
X36015Y22787D01*
X36600Y22671D01*
X37185Y22787D01*
X37681Y23119D01*
X38013Y23615D01*
X38129Y24200D01*
X38013Y24785D01*
X37681Y25281D01*
X37185Y25613D01*
X36600Y25729D01*
D02*
G37*
G36*
X67000Y31326D02*
X67000D01*
D01*
X67000Y31326D01*
D01*
X66994Y31324D01*
X66867Y31299D01*
X66740Y31274D01*
X66632Y31252D01*
X66581Y31242D01*
X66506Y31227D01*
X66506D01*
X66506Y31227D01*
X66505Y31227D01*
X66505Y31227D01*
X66504Y31227D01*
X66504Y31227D01*
X66504Y31227D01*
X66504Y31227D01*
X66504Y31227D01*
X66504Y31227D01*
X66503Y31227D01*
X66503Y31227D01*
X66503Y31227D01*
X66503Y31227D01*
X66503Y31227D01*
X66503Y31227D01*
X66498Y31226D01*
X66496Y31225D01*
X66493Y31225D01*
X66493D01*
X66493Y31225D01*
X66493Y31225D01*
X66492Y31224D01*
X66492Y31224D01*
X66492D01*
X66490Y31223D01*
X66468Y31208D01*
X66432Y31184D01*
X66421Y31177D01*
X66361Y31137D01*
X66357Y31134D01*
X66264Y31072D01*
X66208Y31034D01*
X66161Y31003D01*
X66161Y31003D01*
X66159Y31002D01*
X66117Y30974D01*
X66091Y30956D01*
X66067Y30940D01*
X66067Y30940D01*
X66065Y30939D01*
X66064Y30938D01*
X66063Y30937D01*
D01*
X66063Y30937D01*
X66063Y30937D01*
X66063Y30937D01*
X66062Y30937D01*
X66062Y30937D01*
X66062D01*
X66061Y30934D01*
X66046Y30912D01*
X66022Y30877D01*
X66015Y30866D01*
X65975Y30806D01*
X65972Y30802D01*
X65910Y30709D01*
X65873Y30653D01*
X65841Y30606D01*
X65841Y30605D01*
X65840Y30604D01*
X65812Y30562D01*
X65794Y30535D01*
X65778Y30512D01*
X65778Y30512D01*
X65777Y30510D01*
X65776Y30508D01*
X65775Y30507D01*
X65775Y30507D01*
D01*
X65775Y30507D01*
X65775Y30506D01*
X65774Y30502D01*
X65774Y30501D01*
X65774Y30501D01*
Y30501D01*
X65774Y30500D01*
X65774Y30499D01*
X65773Y30497D01*
X65773Y30497D01*
X65773Y30496D01*
X65773Y30496D01*
X65773Y30496D01*
X65773Y30496D01*
X65773Y30496D01*
X65773Y30496D01*
X65773Y30496D01*
X65773Y30495D01*
X65773Y30495D01*
X65773Y30494D01*
X65773Y30494D01*
Y30494D01*
X65772Y30492D01*
X65743Y30343D01*
X65714Y30196D01*
X65712Y30191D01*
X65695Y30105D01*
X65695Y30104D01*
X65676Y30007D01*
X65675Y30003D01*
X65675Y30003D01*
X65675Y30003D01*
X65675Y30003D01*
X65675Y30002D01*
Y30002D01*
X65675Y30002D01*
X65675Y30002D01*
X65675D01*
X65675Y30002D01*
X65675Y30002D01*
X65675Y30001D01*
X65675Y30000D01*
X65675Y30000D01*
D01*
Y30000D01*
Y30000D01*
D01*
X65675Y30000D01*
D01*
X65676Y29994D01*
X65690Y29924D01*
X65699Y29875D01*
X65721Y29768D01*
X65722Y29763D01*
X65746Y29639D01*
X65773Y29506D01*
Y29506D01*
X65773Y29506D01*
X65773Y29505D01*
X65773Y29505D01*
X65773Y29504D01*
X65773Y29504D01*
X65773Y29504D01*
X65773Y29504D01*
X65773Y29504D01*
X65773Y29504D01*
X65773Y29504D01*
X65773Y29503D01*
X65773Y29503D01*
X65773Y29503D01*
X65773Y29503D01*
X65773Y29503D01*
X65773Y29503D01*
D01*
X65774Y29501D01*
X65775Y29496D01*
X65775Y29493D01*
X65775D01*
Y29493D01*
X65776Y29493D01*
X65776Y29493D01*
X65776Y29493D01*
X65776Y29492D01*
X65777Y29490D01*
X65792Y29468D01*
X65823Y29422D01*
X65863Y29361D01*
X65866Y29357D01*
X65887Y29326D01*
X65930Y29261D01*
X65965Y29208D01*
X65997Y29161D01*
X65997Y29161D01*
X66026Y29118D01*
X66026Y29118D01*
X66044Y29091D01*
X66060Y29067D01*
X66060Y29067D01*
D01*
X66061Y29066D01*
X66061Y29065D01*
X66062Y29064D01*
X66063Y29063D01*
D01*
X66063Y29063D01*
X66063Y29063D01*
X66063Y29063D01*
X66063Y29063D01*
X66063Y29063D01*
Y29063D01*
X66066Y29061D01*
X66088Y29046D01*
X66132Y29016D01*
X66194Y28975D01*
X66194Y28975D01*
X66198Y28972D01*
X66229Y28951D01*
X66294Y28908D01*
X66347Y28873D01*
X66395Y28841D01*
X66395Y28841D01*
X66438Y28812D01*
X66438Y28812D01*
X66465Y28794D01*
X66488Y28778D01*
X66488Y28778D01*
X66490Y28777D01*
X66492Y28776D01*
X66493Y28775D01*
X66493Y28775D01*
D01*
X66493D01*
X66493Y28775D01*
X66494Y28775D01*
X66496Y28775D01*
X66499Y28774D01*
X66499D01*
X66500Y28774D01*
X66501Y28774D01*
X66503Y28773D01*
X66503Y28773D01*
X66503Y28773D01*
X66503Y28773D01*
X66503Y28773D01*
X66503Y28773D01*
X66504Y28773D01*
X66504Y28773D01*
X66504Y28773D01*
X66504Y28773D01*
X66504Y28773D01*
X66504Y28773D01*
X66504Y28773D01*
X66505Y28773D01*
X66505Y28773D01*
X66506Y28773D01*
X66506Y28773D01*
X66506Y28773D01*
X66508Y28772D01*
X66580Y28758D01*
X66669Y28740D01*
X66700Y28734D01*
X66810Y28712D01*
X66810Y28712D01*
X66894Y28696D01*
X66896Y28695D01*
X66993Y28676D01*
X66997Y28675D01*
X66997Y28675D01*
X66997D01*
X66997Y28675D01*
X66998Y28675D01*
X66998D01*
X66998D01*
X66998Y28675D01*
X66998Y28675D01*
X66998Y28675D01*
X66999Y28675D01*
X66999Y28675D01*
X67000Y28675D01*
X67000Y28675D01*
X67000D01*
X67000D01*
D01*
X67000D01*
Y28675D01*
X67000D01*
X67005Y28675D01*
X67123Y28699D01*
X67232Y28721D01*
X67353Y28745D01*
X67410Y28756D01*
X67494Y28773D01*
X67494D01*
X67494Y28773D01*
X67495Y28773D01*
X67496Y28773D01*
X67496Y28773D01*
X67496Y28773D01*
X67496Y28773D01*
X67496Y28773D01*
X67496Y28773D01*
X67497Y28773D01*
X67497Y28773D01*
X67497Y28773D01*
X67502Y28774D01*
X67504Y28775D01*
X67507Y28775D01*
Y28775D01*
X67507D01*
X67507Y28776D01*
X67507Y28776D01*
X67507Y28776D01*
X67508Y28776D01*
X67508D01*
X67510Y28777D01*
X67532Y28792D01*
X67578Y28823D01*
X67639Y28863D01*
X67642Y28866D01*
X67674Y28887D01*
X67738Y28930D01*
X67792Y28965D01*
X67839Y28997D01*
X67839Y28997D01*
X67841Y28998D01*
X67883Y29026D01*
X67909Y29044D01*
X67933Y29060D01*
X67933Y29060D01*
X67935Y29061D01*
X67936Y29062D01*
X67937Y29063D01*
D01*
X67937Y29063D01*
X67937Y29063D01*
X67937Y29063D01*
X67937Y29063D01*
X67937Y29063D01*
X67937D01*
X67939Y29066D01*
X67954Y29088D01*
X67977Y29123D01*
X67985Y29134D01*
X68025Y29194D01*
X68028Y29198D01*
X68049Y29229D01*
X68092Y29294D01*
X68127Y29347D01*
X68159Y29395D01*
X68159Y29395D01*
X68160Y29396D01*
X68188Y29438D01*
X68206Y29465D01*
X68222Y29488D01*
X68222Y29488D01*
X68223Y29490D01*
X68224Y29492D01*
X68225Y29493D01*
X68225Y29493D01*
D01*
Y29493D01*
X68225Y29493D01*
X68225Y29494D01*
X68226Y29498D01*
X68226Y29499D01*
X68226Y29499D01*
Y29499D01*
Y29499D01*
X68226Y29500D01*
X68226Y29501D01*
X68227Y29503D01*
X68227Y29503D01*
X68227Y29504D01*
X68227Y29504D01*
X68227Y29504D01*
X68227Y29504D01*
X68227Y29504D01*
X68227Y29504D01*
X68227Y29504D01*
X68227Y29505D01*
X68227Y29505D01*
X68227Y29505D01*
X68227Y29506D01*
X68227Y29506D01*
X68227Y29506D01*
X68228Y29508D01*
X68257Y29657D01*
X68287Y29804D01*
X68288Y29810D01*
X68288Y29810D01*
X68304Y29893D01*
X68305Y29895D01*
X68308Y29913D01*
X68324Y29993D01*
X68325Y29997D01*
X68325Y29997D01*
X68325Y29997D01*
X68325Y29998D01*
Y29998D01*
Y29998D01*
X68325Y29998D01*
X68325Y29998D01*
X68325Y29999D01*
X68325Y29999D01*
X68326Y30000D01*
X68326Y30000D01*
D01*
Y30000D01*
Y30000D01*
X68326D01*
Y30000D01*
Y30000D01*
X68325Y30005D01*
X68301Y30123D01*
X68279Y30232D01*
X68278Y30237D01*
X68254Y30361D01*
X68227Y30494D01*
Y30494D01*
Y30494D01*
X68227Y30494D01*
X68227Y30495D01*
X68227Y30495D01*
X68227Y30496D01*
X68227Y30496D01*
X68227Y30496D01*
X68227Y30496D01*
X68227Y30496D01*
X68227Y30496D01*
X68227Y30497D01*
X68227Y30497D01*
X68227Y30497D01*
D01*
X68226Y30499D01*
X68225Y30503D01*
X68225Y30507D01*
X68225D01*
Y30507D01*
X68225Y30507D01*
X68225Y30507D01*
X68225Y30507D01*
X68224Y30508D01*
X68223Y30510D01*
X68208Y30532D01*
X68178Y30577D01*
X68137Y30639D01*
X68137Y30639D01*
X68134Y30643D01*
X68113Y30674D01*
X68068Y30741D01*
X68003Y30839D01*
X68003Y30839D01*
X67974Y30882D01*
X67974Y30882D01*
X67956Y30909D01*
X67940Y30933D01*
X67940Y30933D01*
D01*
X67939Y30934D01*
X67939Y30935D01*
X67938Y30936D01*
X67937Y30937D01*
D01*
X67937Y30937D01*
X67937Y30937D01*
X67937Y30937D01*
X67937Y30937D01*
X67937Y30937D01*
X67934Y30939D01*
X67912Y30954D01*
X67868Y30984D01*
X67806Y31025D01*
X67806Y31025D01*
X67802Y31028D01*
X67771Y31049D01*
X67703Y31093D01*
X67606Y31159D01*
X67605Y31159D01*
X67563Y31188D01*
X67562Y31188D01*
X67535Y31206D01*
X67512Y31222D01*
X67512Y31222D01*
D01*
X67511Y31222D01*
X67510Y31223D01*
X67508Y31224D01*
X67507Y31225D01*
X67507Y31225D01*
D01*
X67507D01*
X67507Y31225D01*
X67506Y31225D01*
X67504Y31225D01*
X67501Y31226D01*
X67501D01*
X67500Y31226D01*
X67499Y31226D01*
X67498Y31226D01*
X67497Y31227D01*
X67497Y31227D01*
X67497Y31227D01*
X67497Y31227D01*
X67497Y31227D01*
X67497Y31227D01*
X67497Y31227D01*
X67496Y31227D01*
X67496Y31227D01*
X67496Y31227D01*
X67496Y31227D01*
X67496Y31227D01*
X67496Y31227D01*
X67495Y31227D01*
X67495Y31227D01*
X67495Y31227D01*
X67494Y31227D01*
X67494Y31227D01*
X67492Y31228D01*
X67423Y31241D01*
X67337Y31258D01*
X67307Y31264D01*
X67202Y31285D01*
X67201Y31285D01*
X67200Y31286D01*
X67107Y31304D01*
X67007Y31324D01*
X67003Y31325D01*
X67003Y31325D01*
X67003Y31325D01*
X67002Y31325D01*
X67002D01*
X67002D01*
X67002Y31325D01*
X67002Y31325D01*
X67002Y31325D01*
X67001Y31325D01*
X67001Y31325D01*
X67001Y31325D01*
X67000Y31326D01*
X67000Y31326D01*
D02*
G37*
G36*
X33681Y41848D02*
X33096Y41732D01*
X32600Y41400D01*
X32268Y40904D01*
X32152Y40319D01*
X32268Y39734D01*
X32600Y39237D01*
X33096Y38906D01*
X33681Y38789D01*
X34266Y38906D01*
X34762Y39237D01*
X35094Y39734D01*
X35210Y40319D01*
X35094Y40904D01*
X34762Y41400D01*
X34266Y41732D01*
X33681Y41848D01*
D02*
G37*
G36*
X22556Y52126D02*
X22556D01*
X22556Y52126D01*
X22551Y52125D01*
X22418Y52098D01*
X22296Y52074D01*
X22296D01*
X22101Y52035D01*
X22062Y52027D01*
X22061Y52027D01*
X22061Y52027D01*
X22060Y52027D01*
X22060D01*
X22060Y52027D01*
X22060Y52027D01*
X22060D01*
X22060Y52027D01*
X22059Y52027D01*
X22059Y52027D01*
X22059Y52027D01*
X22059Y52026D01*
X22049Y52025D01*
X22049D01*
X22049D01*
X22049Y52025D01*
X22049Y52025D01*
X22048Y52024D01*
X22048Y52024D01*
X22048Y52024D01*
X22048D01*
X22046Y52023D01*
X22024Y52008D01*
X21988Y51984D01*
X21917Y51937D01*
X21917D01*
X21913Y51934D01*
X21717Y51803D01*
X21717D01*
X21715Y51802D01*
X21623Y51740D01*
D01*
X21619Y51737D01*
X21619D01*
D01*
X21619Y51737D01*
X21619Y51737D01*
X21619Y51737D01*
X21618Y51737D01*
X21618Y51737D01*
X21618D01*
X21617Y51734D01*
X21602Y51712D01*
X21578Y51677D01*
X21531Y51606D01*
X21531Y51606D01*
X21528Y51602D01*
X21397Y51405D01*
X21397Y51405D01*
X21396Y51404D01*
X21334Y51312D01*
X21334D01*
X21331Y51307D01*
X21331D01*
X21331Y51307D01*
X21331Y51306D01*
X21330Y51302D01*
X21330Y51301D01*
X21330Y51301D01*
Y51301D01*
X21330Y51300D01*
X21329Y51297D01*
X21329Y51297D01*
D01*
X21329Y51296D01*
X21329Y51294D01*
X21329D01*
Y51294D01*
Y51294D01*
X21328Y51293D01*
X21314Y51220D01*
X21273Y51015D01*
X21273Y51015D01*
X21268Y50987D01*
X21262Y50959D01*
X21262Y50959D01*
X21262Y50959D01*
X21262Y50959D01*
X21261Y50956D01*
X21260Y50951D01*
X21260D01*
Y50951D01*
X21260Y50950D01*
X21260Y50948D01*
X21260D01*
X21251Y50902D01*
X21241Y50853D01*
X21241Y50853D01*
X21240Y50846D01*
X21238Y50840D01*
X21238D01*
X21238Y50839D01*
X21238Y50839D01*
X21238Y50839D01*
Y50839D01*
X21238Y50837D01*
X21238Y50837D01*
Y50837D01*
X21237Y50835D01*
X21237Y50835D01*
Y50835D01*
X21237Y50834D01*
X21237Y50834D01*
X21235Y50821D01*
X21232Y50806D01*
X21232Y50806D01*
X21231Y50804D01*
X21230Y50800D01*
X21230Y50800D01*
Y50800D01*
X21230Y50800D01*
X21230D01*
Y50800D01*
X21231Y50789D01*
X21269Y49285D01*
X21207Y48442D01*
X21174Y48000D01*
Y48000D01*
X21174Y48000D01*
X21176Y47991D01*
X21176Y47991D01*
X21183Y47957D01*
X21183D01*
X21207Y47838D01*
Y47838D01*
X21207Y47838D01*
X21273Y47506D01*
X21273Y47506D01*
Y47506D01*
X21273Y47505D01*
X21273Y47505D01*
X21273D01*
X21273Y47503D01*
X21275Y47497D01*
X21275Y47493D01*
Y47493D01*
X21275Y47493D01*
X21276Y47492D01*
X21276D01*
X21363Y47361D01*
X21363Y47361D01*
X21363Y47361D01*
X21465Y47208D01*
X21497Y47161D01*
X21497Y47161D01*
D01*
X21521Y47125D01*
X21544Y47091D01*
X21560Y47067D01*
X21560Y47067D01*
D01*
X21561Y47066D01*
X21561Y47065D01*
X21562Y47064D01*
X21563Y47063D01*
D01*
X21563Y47063D01*
X21563D01*
X21563Y47063D01*
D01*
X21694Y46975D01*
X21694Y46975D01*
X21694D01*
X21847Y46873D01*
X21895Y46841D01*
X21895Y46841D01*
X21895D01*
X21965Y46794D01*
X21988Y46778D01*
X21988Y46778D01*
Y46778D01*
X21990Y46778D01*
X21990Y46777D01*
X21992Y46776D01*
X21993Y46775D01*
X21993Y46775D01*
X21993Y46775D01*
X21999Y46774D01*
X21999Y46774D01*
X22003Y46773D01*
X22003D01*
X22004Y46773D01*
X22004Y46773D01*
X22004D01*
X22004Y46773D01*
X22005Y46773D01*
D01*
X22005Y46773D01*
X22006Y46773D01*
X22006Y46773D01*
X22304Y46714D01*
X22310Y46712D01*
X22310D01*
X22361Y46702D01*
X22493Y46676D01*
X22497Y46675D01*
Y46675D01*
X22497Y46675D01*
X22497Y46675D01*
X22498Y46675D01*
X22498D01*
D01*
X22498Y46675D01*
X22498D01*
X22498Y46675D01*
X22498Y46675D01*
X22498Y46675D01*
X22499Y46675D01*
X22499Y46675D01*
X22500Y46674D01*
X22500Y46674D01*
D01*
X22500D01*
X22500D01*
D01*
X22500Y46674D01*
D01*
X22500D01*
X22504Y46675D01*
X22625Y46699D01*
X22712Y46717D01*
X22732Y46721D01*
X22861Y46746D01*
X22969Y46768D01*
X22994Y46773D01*
X22995Y46773D01*
X22995Y46773D01*
X22995Y46773D01*
X22996Y46773D01*
X22996Y46773D01*
X22996Y46773D01*
X22996Y46773D01*
X22996Y46773D01*
X22996Y46773D01*
X22997Y46773D01*
X22997Y46773D01*
X22997Y46773D01*
X22997D01*
X22998Y46774D01*
X23006Y46775D01*
X23007Y46775D01*
Y46775D01*
X23007D01*
X23007Y46775D01*
X23007Y46775D01*
X23008Y46776D01*
X23008Y46776D01*
X23008Y46776D01*
X23008D01*
X23010Y46777D01*
X23032Y46792D01*
X23067Y46816D01*
X23139Y46863D01*
X23139D01*
X23143Y46866D01*
X23174Y46887D01*
X23339Y46997D01*
X23339D01*
X23433Y47060D01*
X23433D01*
X23437Y47063D01*
D01*
X23437D01*
D01*
X23437Y47063D01*
X23437Y47063D01*
X23437Y47063D01*
X23438Y47063D01*
X23438Y47063D01*
X23438D01*
X23439Y47066D01*
X23454Y47088D01*
X23478Y47123D01*
X23525Y47194D01*
X23525D01*
X23528Y47198D01*
X23549Y47229D01*
X23659Y47395D01*
X23659Y47395D01*
X23722Y47488D01*
X23722D01*
X23725Y47493D01*
X23725D01*
Y47493D01*
X23725Y47493D01*
X23725Y47494D01*
X23726Y47498D01*
X23726Y47499D01*
X23726Y47499D01*
Y47499D01*
X23726Y47499D01*
X23726Y47501D01*
X23727Y47506D01*
X23727Y47506D01*
D01*
X23727Y47506D01*
Y47506D01*
X23727Y47506D01*
X23728Y47508D01*
X23741Y47574D01*
X23783Y47785D01*
X23783D01*
X23783Y47786D01*
X23788Y47812D01*
X23794Y47841D01*
X23794Y47841D01*
X23794Y47841D01*
Y47841D01*
X23794Y47842D01*
X23794Y47844D01*
X23796Y47849D01*
X23796D01*
Y47849D01*
Y47849D01*
X23796Y47850D01*
X23796Y47852D01*
D01*
X23796Y47852D01*
X23806Y47904D01*
X23818Y47961D01*
X23818Y47961D01*
X23818Y47961D01*
X23818Y47961D01*
Y47961D01*
X23818Y47963D01*
X23818Y47963D01*
D01*
Y47963D01*
X23819Y47965D01*
X23819Y47965D01*
Y47965D01*
X23819Y47966D01*
X23819Y47966D01*
X23819Y47966D01*
X23822Y47981D01*
X23825Y48000D01*
X23825D01*
X23825Y48000D01*
X23825Y48000D01*
Y48000D01*
Y48000D01*
X23825D01*
Y48000D01*
D01*
Y48000D01*
X23825Y48000D01*
Y48000D01*
X23825Y48000D01*
X23825Y48000D01*
X23825Y48000D01*
Y48000D01*
Y48000D01*
Y48000D01*
Y48000D01*
D01*
X23822Y48022D01*
X23813Y48069D01*
X23813Y48069D01*
X23810Y48085D01*
X23810Y48085D01*
X23805Y48113D01*
X23805D01*
X23746Y48444D01*
Y48444D01*
X23763Y49347D01*
X23768Y49633D01*
Y49633D01*
X23796Y50341D01*
X23797Y50377D01*
X23797Y50377D01*
X23857Y50679D01*
X23858Y50685D01*
Y50685D01*
X23863Y50707D01*
X23863Y50708D01*
Y50708D01*
X23866Y50722D01*
X23866Y50722D01*
D01*
X23871Y50750D01*
X23879Y50786D01*
X23879Y50787D01*
Y50787D01*
X23879Y50787D01*
X23879Y50788D01*
Y50788D01*
D01*
X23879Y50789D01*
X23880Y50793D01*
X23881Y50797D01*
X23881Y50798D01*
X23881Y50798D01*
X23881Y50798D01*
Y50798D01*
D01*
X23881Y50798D01*
X23881Y50799D01*
X23881Y50800D01*
X23881Y50800D01*
Y50800D01*
D01*
X23881Y50800D01*
X23881Y50801D01*
X23849Y50963D01*
Y50963D01*
X23849D01*
X23783Y51294D01*
Y51294D01*
X23783D01*
Y51294D01*
X23783Y51295D01*
X23783Y51295D01*
X23783D01*
X23782Y51297D01*
X23781Y51303D01*
X23780Y51307D01*
X23780Y51307D01*
X23780Y51308D01*
X23780Y51308D01*
X23693Y51439D01*
X23693Y51439D01*
D01*
X23559Y51639D01*
X23559Y51639D01*
X23559D01*
X23554Y51647D01*
X23530Y51682D01*
X23512Y51709D01*
X23496Y51733D01*
X23496Y51733D01*
D01*
X23495Y51734D01*
X23495Y51735D01*
X23494Y51736D01*
X23493Y51737D01*
D01*
X23493Y51737D01*
X23493D01*
X23493Y51737D01*
X23493D01*
X23362Y51825D01*
X23361Y51825D01*
X23361D01*
X23161Y51959D01*
X23161Y51959D01*
X23161D01*
X23118Y51988D01*
X23091Y52006D01*
X23068Y52022D01*
X23067Y52022D01*
D01*
X23066Y52022D01*
X23066Y52023D01*
X23064Y52024D01*
X23063Y52025D01*
X23063Y52025D01*
D01*
X23063D01*
X23063Y52025D01*
X23062Y52025D01*
X23060Y52025D01*
X23057Y52026D01*
X23057Y52026D01*
X23056Y52026D01*
X23055Y52026D01*
X23054Y52026D01*
X23053Y52027D01*
X23053D01*
X23053Y52027D01*
X23053Y52027D01*
X23053Y52027D01*
X23053Y52027D01*
X23052Y52027D01*
X23052Y52027D01*
X23052Y52027D01*
X23052Y52027D01*
X23052Y52027D01*
X23052Y52027D01*
X23051Y52027D01*
X23051Y52027D01*
X23051Y52027D01*
X23051Y52027D01*
X23051Y52027D01*
X23050Y52027D01*
X23050Y52027D01*
X23030Y52031D01*
X23013Y52035D01*
X22900Y52057D01*
X22763Y52084D01*
X22758Y52085D01*
X22757Y52085D01*
X22743Y52088D01*
X22665Y52104D01*
X22563Y52124D01*
X22559Y52125D01*
X22559Y52125D01*
X22559Y52125D01*
X22558Y52125D01*
X22558D01*
X22558Y52125D01*
X22558Y52125D01*
X22558Y52125D01*
X22557Y52125D01*
X22556Y52126D01*
X22556Y52126D01*
D02*
G37*
G36*
X19000Y75029D02*
X19000D01*
X18833Y74996D01*
X18705Y74971D01*
X18705Y74971D01*
X18415Y74913D01*
X18415Y74913D01*
X17919Y74581D01*
X17919Y74581D01*
X17804Y74410D01*
X17802Y74407D01*
X17686Y74234D01*
X17587Y74085D01*
X17577Y74034D01*
X17573Y74017D01*
X16859Y72798D01*
X15830Y72221D01*
X15303Y71929D01*
Y71929D01*
X15296Y71925D01*
X15296Y71925D01*
X15296Y71925D01*
X15294Y71925D01*
X15293Y71925D01*
X15293Y71925D01*
X15292Y71924D01*
X15161Y71837D01*
Y71837D01*
X15008Y71734D01*
X14961Y71703D01*
X14961Y71703D01*
X14961D01*
X14925Y71679D01*
X14891Y71656D01*
X14867Y71640D01*
X14867Y71640D01*
D01*
X14866Y71639D01*
X14865Y71639D01*
X14864Y71638D01*
X14863Y71637D01*
D01*
X14863Y71637D01*
Y71637D01*
X14863Y71637D01*
D01*
X14775Y71506D01*
Y71506D01*
X14673Y71353D01*
X14641Y71305D01*
X14641Y71305D01*
Y71305D01*
X14594Y71235D01*
X14578Y71212D01*
X14578Y71212D01*
X14578D01*
X14578Y71211D01*
X14577Y71210D01*
X14576Y71208D01*
X14575Y71207D01*
X14575Y71207D01*
X14575Y71207D01*
X14574Y71201D01*
X14573Y71197D01*
Y71197D01*
X14573Y71196D01*
X14573Y71196D01*
Y71196D01*
X14573Y71196D01*
X14573Y71196D01*
D01*
X14573Y71195D01*
X14573Y71194D01*
X14573Y71194D01*
X14534Y70998D01*
X14512Y70890D01*
X14512Y70890D01*
X14494Y70800D01*
X14489Y70773D01*
X14475Y70703D01*
Y70703D01*
X14475Y70703D01*
Y70703D01*
X14475Y70702D01*
D01*
X14475Y70702D01*
X14475Y70702D01*
X14475Y70702D01*
X14475Y70701D01*
X14475Y70701D01*
X14475Y70700D01*
Y70700D01*
D01*
X14475Y70700D01*
X14521Y70468D01*
X14521Y70468D01*
X14573Y70206D01*
X14573Y70206D01*
X14573Y70205D01*
Y70204D01*
X14573Y70204D01*
Y70204D01*
X14573Y70203D01*
X14573Y70203D01*
X14573Y70203D01*
X14575Y70193D01*
Y70193D01*
Y70193D01*
X14575Y70193D01*
X14575Y70193D01*
X14576Y70192D01*
X14576Y70192D01*
Y70192D01*
X14577Y70190D01*
X14592Y70168D01*
X14663Y70061D01*
Y70061D01*
X14666Y70057D01*
X14687Y70026D01*
X14797Y69861D01*
Y69861D01*
X14860Y69767D01*
Y69767D01*
X14863Y69763D01*
D01*
Y69763D01*
D01*
X14863Y69763D01*
X14863Y69763D01*
X14863Y69763D01*
X14863Y69762D01*
X14863Y69762D01*
Y69762D01*
X14866Y69761D01*
X14888Y69746D01*
X14994Y69675D01*
Y69675D01*
X14998Y69672D01*
X15029Y69652D01*
X15195Y69541D01*
X15195Y69541D01*
X15288Y69478D01*
Y69478D01*
X15293Y69475D01*
Y69475D01*
X15293D01*
X15293Y69475D01*
X15294Y69475D01*
X15298Y69474D01*
X15299Y69474D01*
X15299Y69474D01*
X15299D01*
X15299D01*
X15300Y69474D01*
X15303Y69473D01*
X15303Y69473D01*
D01*
X15303D01*
X15304Y69473D01*
X15305Y69473D01*
X15305Y69473D01*
X15306Y69473D01*
Y69473D01*
X15306D01*
Y69473D01*
X15306D01*
X16467Y69227D01*
X16883Y68579D01*
X16930Y67090D01*
X16355Y66524D01*
Y66524D01*
X16274Y66445D01*
X16271Y66443D01*
X16269Y66441D01*
X16267Y66440D01*
X16267Y66440D01*
D01*
X16266Y66439D01*
X16265Y66439D01*
X16264Y66438D01*
X16263Y66437D01*
D01*
X16263Y66437D01*
Y66437D01*
X16262Y66437D01*
D01*
X16175Y66306D01*
Y66306D01*
X16073Y66153D01*
X16041Y66105D01*
X16041Y66105D01*
Y66105D01*
X15994Y66035D01*
X15978Y66012D01*
X15978Y66012D01*
X15978D01*
X15978Y66011D01*
X15977Y66010D01*
X15976Y66008D01*
X15975Y66007D01*
X15975Y66007D01*
X15975Y66007D01*
X15974Y66001D01*
X15973Y65997D01*
Y65997D01*
X15973Y65996D01*
X15973Y65996D01*
Y65996D01*
X15973Y65996D01*
X15973Y65996D01*
D01*
X15973Y65994D01*
X15973Y65994D01*
X15973Y65994D01*
X15913Y65696D01*
X15912Y65690D01*
X15912Y65690D01*
X15876Y65507D01*
X15875Y65503D01*
Y65503D01*
X15875Y65503D01*
X15875Y65503D01*
X15875Y65502D01*
Y65502D01*
D01*
X15875Y65502D01*
X15875Y65502D01*
X15875D01*
X15875Y65502D01*
X15875Y65502D01*
X15875Y65501D01*
X15875Y65500D01*
X15875Y65500D01*
D01*
Y65500D01*
Y65500D01*
D01*
X15875Y65500D01*
X15921Y65268D01*
X15921D01*
X15973Y65006D01*
Y65006D01*
Y65006D01*
X15973D01*
X15973Y65005D01*
X15973Y65004D01*
X15973Y65004D01*
X15973Y65004D01*
X15973Y65004D01*
Y65004D01*
X15973Y65003D01*
X15973Y65003D01*
X15973D01*
X15973Y65003D01*
X15973Y65003D01*
D01*
X15974Y65001D01*
X15975Y64996D01*
X15975Y64993D01*
X15975D01*
X15976Y64993D01*
X15976Y64993D01*
X15976Y64992D01*
X15995Y64964D01*
X16021Y64925D01*
X16063Y64861D01*
X16091Y64820D01*
X16128Y64764D01*
X16197Y64661D01*
X16197Y64661D01*
X16226Y64618D01*
X16244Y64591D01*
X16260Y64567D01*
X16260Y64567D01*
D01*
X16261Y64566D01*
X16261Y64565D01*
X16262Y64564D01*
X16263Y64563D01*
D01*
X16263Y64563D01*
X16263Y64563D01*
X16263Y64563D01*
X16263Y64562D01*
X16263Y64562D01*
Y64562D01*
X16266Y64561D01*
X16288Y64546D01*
X16332Y64516D01*
X16394Y64475D01*
X16394Y64475D01*
X16398Y64472D01*
X16429Y64451D01*
X16494Y64408D01*
X16547Y64373D01*
X16595Y64341D01*
X16595Y64341D01*
X16637Y64312D01*
X16638Y64312D01*
X16665Y64294D01*
X16688Y64278D01*
X16688Y64278D01*
X16690Y64277D01*
X16692Y64276D01*
X16693Y64275D01*
X16693Y64275D01*
D01*
X16693D01*
X16693Y64275D01*
X16694Y64275D01*
X16696Y64275D01*
X16699Y64274D01*
X16699D01*
X16700Y64274D01*
X16701Y64274D01*
X16703Y64273D01*
X16703Y64273D01*
X16703Y64273D01*
X16703Y64273D01*
X16703Y64273D01*
X16703Y64273D01*
X16703Y64273D01*
X16704Y64273D01*
X16704Y64273D01*
X16704Y64273D01*
X16704Y64273D01*
X16704Y64273D01*
X16704Y64273D01*
X16705Y64273D01*
X16705Y64273D01*
X16705Y64273D01*
X16706Y64273D01*
X16706Y64273D01*
X16708Y64272D01*
X16780Y64258D01*
X16869Y64240D01*
X16933Y64228D01*
X17010Y64212D01*
X17010Y64212D01*
X17094Y64196D01*
X17101Y64194D01*
X17147Y64185D01*
X17197Y64175D01*
X17197Y64175D01*
X17197Y64175D01*
X17198Y64175D01*
X17198Y64175D01*
X17198D01*
X17198Y64175D01*
X17198Y64175D01*
X17198D01*
X17198Y64175D01*
X17199Y64175D01*
X17199Y64175D01*
X17200Y64174D01*
X17200D01*
D01*
X17200D01*
X17200Y64174D01*
X17205Y64175D01*
X17432Y64221D01*
X17432Y64221D01*
X17694Y64273D01*
X17694Y64273D01*
X17695Y64273D01*
X17695Y64273D01*
X17696D01*
X17696Y64273D01*
X17696Y64273D01*
X17696D01*
X17696Y64273D01*
X17697Y64273D01*
X17707Y64275D01*
X17707D01*
X17707D01*
X17707Y64275D01*
X17707Y64275D01*
X17707Y64276D01*
X17708Y64276D01*
X17708D01*
X17710Y64277D01*
X17732Y64292D01*
X17839Y64363D01*
X17839D01*
X17842Y64366D01*
X18039Y64497D01*
X18039D01*
X18133Y64560D01*
X18133D01*
X18137Y64563D01*
D01*
X18137D01*
D01*
X18137Y64563D01*
X18137Y64563D01*
X18137Y64563D01*
X18137Y64563D01*
X18137Y64563D01*
X18137D01*
X18139Y64566D01*
X18154Y64588D01*
X18178Y64623D01*
X18225Y64694D01*
X18225D01*
X18228Y64698D01*
X18248Y64729D01*
X18359Y64895D01*
X18359Y64895D01*
X18360Y64896D01*
X18422Y64988D01*
X18422D01*
X18425Y64993D01*
X18425D01*
Y64993D01*
X18425Y64993D01*
X18425Y64994D01*
X18426Y64998D01*
X18426Y64999D01*
X18426Y64999D01*
Y64999D01*
X18426Y64999D01*
X18426Y65001D01*
X18427Y65005D01*
X18427Y65006D01*
X18724Y65747D01*
X19042Y65873D01*
X21075Y64529D01*
X21080Y64322D01*
X19173Y62415D01*
X19100Y62429D01*
X19100Y62429D01*
X18810Y62372D01*
X18810D01*
X18515Y62313D01*
X18515Y62313D01*
X18019Y61981D01*
X17854Y61735D01*
Y61735D01*
X17687Y61485D01*
X17687Y61485D01*
X17656Y61330D01*
X17640Y61249D01*
X17628Y61190D01*
Y61190D01*
X17628Y61190D01*
Y61190D01*
Y61190D01*
X17571Y60900D01*
X17571Y60900D01*
X17604Y60733D01*
X17622Y60644D01*
X17629Y60605D01*
X17629Y60605D01*
X17680Y60350D01*
X17687Y60315D01*
X17779Y60178D01*
X17828Y60104D01*
X17852Y60069D01*
X17852Y60069D01*
X17870Y60040D01*
X18019Y59819D01*
Y59819D01*
X18147Y59733D01*
X18193Y59702D01*
X18193D01*
X18245Y59668D01*
X18333Y59609D01*
X18515Y59487D01*
X18558Y59478D01*
X18662Y59458D01*
X18805Y59429D01*
X18847Y59421D01*
X18934Y59404D01*
X19046Y59381D01*
X19100Y59371D01*
X19100Y59371D01*
X19167Y59384D01*
X19261Y59403D01*
X19390Y59428D01*
D01*
X19390D01*
X19390D01*
D01*
X19525Y59455D01*
X19630Y59476D01*
X19685Y59487D01*
X19907Y59636D01*
X19935Y59654D01*
X20056Y59735D01*
X20181Y59819D01*
X20513Y60315D01*
X20513Y60315D01*
X20513Y60315D01*
X20572Y60610D01*
X20572Y60610D01*
X20602Y60764D01*
X20897Y61256D01*
X23221Y63579D01*
X23442Y63910D01*
X23520Y64300D01*
Y69500D01*
X23442Y69890D01*
X23221Y70221D01*
X20432Y73010D01*
X20471Y73205D01*
X20471Y73205D01*
X20471Y73205D01*
X20529Y73500D01*
X20529Y73500D01*
X20472Y73790D01*
X20472Y73790D01*
X20413Y74085D01*
X20413Y74085D01*
X20081Y74581D01*
X19835Y74746D01*
D01*
X19585Y74913D01*
X19585Y74913D01*
X19425Y74945D01*
X19290Y74972D01*
X19290D01*
X19290D01*
X19045Y75020D01*
X19000Y75029D01*
D02*
G37*
G36*
X33200Y78225D02*
X33200D01*
D01*
X33200Y78225D01*
D01*
X33194Y78224D01*
X33067Y78199D01*
X32940Y78174D01*
X32832Y78152D01*
X32781Y78142D01*
X32706Y78127D01*
X32706D01*
X32706Y78127D01*
X32705Y78127D01*
X32704Y78127D01*
X32704Y78127D01*
X32704Y78127D01*
X32704Y78127D01*
X32704Y78127D01*
X32704Y78127D01*
X32704Y78127D01*
X32703Y78127D01*
X32703Y78127D01*
X32703Y78127D01*
X32703Y78127D01*
X32703Y78127D01*
X32703Y78127D01*
X32698Y78126D01*
X32696Y78125D01*
X32693Y78125D01*
X32693D01*
X32693Y78124D01*
X32693Y78124D01*
X32693Y78124D01*
X32692Y78124D01*
X32692D01*
X32690Y78123D01*
X32668Y78108D01*
X32632Y78084D01*
X32621Y78077D01*
X32561Y78037D01*
X32557Y78034D01*
X32465Y77972D01*
X32408Y77934D01*
X32361Y77903D01*
X32361Y77903D01*
X32359Y77902D01*
X32317Y77874D01*
X32291Y77856D01*
X32267Y77840D01*
X32267Y77840D01*
X32265Y77839D01*
X32264Y77838D01*
X32263Y77837D01*
D01*
X32263Y77837D01*
X32263Y77837D01*
X32263Y77837D01*
X32263Y77837D01*
X32263Y77837D01*
X32263D01*
X32261Y77834D01*
X32246Y77812D01*
X32223Y77777D01*
X32215Y77766D01*
X32175Y77706D01*
X32172Y77702D01*
X32110Y77609D01*
X32073Y77553D01*
X32041Y77505D01*
X32041Y77505D01*
X32040Y77504D01*
X32012Y77462D01*
X31994Y77435D01*
X31978Y77412D01*
X31978Y77412D01*
X31977Y77410D01*
X31976Y77408D01*
X31975Y77407D01*
X31975Y77407D01*
D01*
X31975Y77407D01*
X31975Y77406D01*
X31974Y77402D01*
X31974Y77401D01*
X31974Y77401D01*
Y77401D01*
X31974Y77400D01*
X31974Y77399D01*
X31973Y77397D01*
X31973Y77397D01*
X31973Y77397D01*
X31973Y77396D01*
X31973Y77396D01*
X31973Y77396D01*
X31973Y77396D01*
X31973Y77396D01*
X31973Y77396D01*
X31973Y77395D01*
X31973Y77395D01*
X31973Y77394D01*
X31973Y77394D01*
Y77394D01*
X31972Y77392D01*
X31943Y77243D01*
X31914Y77096D01*
X31912Y77091D01*
X31895Y77005D01*
X31895Y77004D01*
X31876Y76907D01*
X31875Y76903D01*
X31875Y76903D01*
X31875Y76903D01*
X31875Y76903D01*
X31875Y76902D01*
Y76902D01*
X31875Y76902D01*
X31875Y76902D01*
X31875D01*
X31875Y76902D01*
X31875Y76902D01*
X31875Y76901D01*
X31874Y76900D01*
X31874Y76900D01*
D01*
Y76900D01*
Y76900D01*
D01*
X31874Y76900D01*
D01*
X31876Y76894D01*
X31890Y76824D01*
X31899Y76775D01*
X31921Y76668D01*
X31922Y76663D01*
X31946Y76539D01*
X31973Y76406D01*
Y76406D01*
X31973Y76406D01*
X31973Y76405D01*
X31973Y76405D01*
X31973Y76404D01*
X31973Y76404D01*
X31973Y76404D01*
X31973Y76404D01*
X31973Y76404D01*
X31973Y76404D01*
X31973Y76403D01*
X31973Y76403D01*
X31973Y76403D01*
X31973Y76403D01*
X31973Y76403D01*
X31973Y76403D01*
X31973Y76403D01*
D01*
X31974Y76401D01*
X31975Y76396D01*
X31975Y76393D01*
X31975D01*
Y76393D01*
X31975Y76393D01*
X31975Y76393D01*
X31975Y76393D01*
X31976Y76392D01*
X31977Y76390D01*
X31992Y76368D01*
X32022Y76323D01*
X32063Y76261D01*
X32063Y76261D01*
X32066Y76257D01*
X32087Y76226D01*
X32130Y76161D01*
X32166Y76108D01*
X32197Y76061D01*
X32197Y76061D01*
X32226Y76018D01*
X32244Y75991D01*
X32260Y75967D01*
X32260Y75967D01*
D01*
X32261Y75966D01*
X32261Y75965D01*
X32262Y75964D01*
X32263Y75963D01*
D01*
X32263Y75963D01*
X32263Y75963D01*
X32263Y75963D01*
X32263Y75963D01*
X32263Y75963D01*
Y75963D01*
X32266Y75961D01*
X32288Y75946D01*
X32332Y75916D01*
X32394Y75875D01*
X32394Y75875D01*
X32398Y75872D01*
X32429Y75852D01*
X32494Y75808D01*
X32547Y75773D01*
X32595Y75741D01*
X32595Y75741D01*
X32638Y75712D01*
X32638Y75712D01*
X32665Y75694D01*
X32688Y75678D01*
X32688Y75678D01*
X32690Y75677D01*
X32692Y75676D01*
X32693Y75675D01*
X32693Y75675D01*
D01*
X32693D01*
X32693Y75675D01*
X32694Y75675D01*
X32696Y75675D01*
X32699Y75674D01*
X32699D01*
X32700Y75674D01*
X32701Y75674D01*
X32703Y75673D01*
X32703Y75673D01*
X32704Y75673D01*
X32704Y75673D01*
X32704Y75673D01*
X32704Y75673D01*
X32704Y75673D01*
X32704Y75673D01*
X32704Y75673D01*
X32705Y75673D01*
X32705Y75673D01*
X32706Y75673D01*
X32706Y75673D01*
X32706Y75673D01*
X32708Y75672D01*
X32780Y75658D01*
X32869Y75640D01*
X32900Y75634D01*
X33010Y75612D01*
X33010Y75612D01*
X33094Y75596D01*
X33096Y75595D01*
X33193Y75576D01*
X33197Y75575D01*
X33197Y75575D01*
X33197D01*
X33197Y75575D01*
X33198Y75575D01*
X33198D01*
X33198D01*
X33198Y75575D01*
X33198Y75575D01*
X33198Y75575D01*
X33199Y75575D01*
X33199Y75575D01*
X33200Y75574D01*
X33200Y75574D01*
X33200D01*
X33200D01*
D01*
X33200D01*
Y75574D01*
X33200D01*
X33205Y75576D01*
X33323Y75599D01*
X33432Y75621D01*
X33553Y75645D01*
X33610Y75656D01*
X33694Y75673D01*
X33694D01*
X33694Y75673D01*
X33695Y75673D01*
X33696Y75673D01*
X33696Y75673D01*
X33696Y75673D01*
X33696Y75673D01*
X33696Y75673D01*
X33696Y75673D01*
X33697Y75673D01*
X33697Y75673D01*
X33697Y75673D01*
X33702Y75674D01*
X33704Y75675D01*
X33707Y75675D01*
Y75675D01*
X33707D01*
X33707Y75675D01*
X33707Y75675D01*
X33707Y75676D01*
X33708Y75676D01*
X33708D01*
X33710Y75677D01*
X33732Y75692D01*
X33768Y75716D01*
X33779Y75723D01*
X33839Y75763D01*
X33843Y75766D01*
X33874Y75787D01*
X33939Y75830D01*
X33992Y75866D01*
X34039Y75897D01*
X34039Y75897D01*
X34082Y75926D01*
X34109Y75944D01*
X34133Y75960D01*
X34133Y75960D01*
X34135Y75961D01*
X34136Y75962D01*
X34137Y75963D01*
D01*
X34137Y75963D01*
X34137Y75963D01*
X34137Y75963D01*
X34137Y75963D01*
X34137Y75963D01*
X34139Y75966D01*
X34154Y75988D01*
X34178Y76023D01*
X34185Y76034D01*
X34225Y76094D01*
X34228Y76098D01*
X34249Y76129D01*
X34292Y76194D01*
X34327Y76247D01*
X34359Y76295D01*
X34359Y76295D01*
X34360Y76296D01*
X34388Y76338D01*
X34406Y76365D01*
X34422Y76388D01*
X34422Y76388D01*
X34422D01*
X34422Y76389D01*
X34423Y76390D01*
X34424Y76392D01*
X34425Y76393D01*
X34425Y76393D01*
D01*
Y76393D01*
X34425Y76393D01*
X34425Y76394D01*
X34426Y76398D01*
X34426Y76399D01*
X34426Y76399D01*
Y76399D01*
Y76399D01*
X34426Y76400D01*
X34426Y76401D01*
X34427Y76403D01*
X34427Y76403D01*
X34427Y76403D01*
X34427Y76404D01*
X34427Y76404D01*
X34427Y76404D01*
X34427Y76404D01*
X34427Y76404D01*
X34427Y76404D01*
X34427Y76405D01*
X34427Y76405D01*
X34427Y76406D01*
X34427Y76406D01*
X34427Y76406D01*
X34428Y76408D01*
X34457Y76557D01*
X34486Y76704D01*
X34488Y76710D01*
X34488Y76710D01*
X34504Y76793D01*
X34505Y76795D01*
X34508Y76813D01*
X34524Y76893D01*
X34525Y76897D01*
X34525Y76897D01*
X34525Y76897D01*
X34525Y76898D01*
Y76898D01*
Y76898D01*
X34525Y76898D01*
X34525Y76898D01*
X34525Y76899D01*
X34525Y76899D01*
X34525Y76900D01*
X34525Y76900D01*
Y76900D01*
D01*
Y76900D01*
Y76900D01*
X34525D01*
Y76900D01*
Y76900D01*
X34525Y76905D01*
X34501Y77024D01*
X34479Y77132D01*
X34478Y77137D01*
X34454Y77261D01*
X34427Y77394D01*
Y77394D01*
Y77394D01*
X34427Y77394D01*
X34427Y77395D01*
X34427Y77395D01*
X34427Y77396D01*
X34427Y77396D01*
X34427Y77396D01*
X34427Y77396D01*
X34427Y77396D01*
X34427Y77396D01*
X34427Y77397D01*
X34427Y77397D01*
X34427Y77397D01*
D01*
X34426Y77399D01*
X34425Y77403D01*
X34425Y77407D01*
X34425D01*
Y77407D01*
X34424Y77407D01*
X34424Y77407D01*
X34424Y77407D01*
X34424Y77408D01*
X34423Y77410D01*
X34408Y77432D01*
X34378Y77477D01*
X34337Y77539D01*
X34337Y77539D01*
X34334Y77543D01*
X34313Y77574D01*
X34268Y77641D01*
X34203Y77739D01*
X34203Y77739D01*
X34174Y77782D01*
X34174Y77782D01*
X34156Y77809D01*
X34140Y77833D01*
X34140Y77833D01*
D01*
X34139Y77834D01*
X34139Y77835D01*
X34138Y77836D01*
X34137Y77837D01*
D01*
X34137Y77837D01*
X34137Y77837D01*
X34137Y77837D01*
X34137Y77837D01*
X34137Y77838D01*
X34134Y77839D01*
X34112Y77854D01*
X34068Y77884D01*
X34006Y77925D01*
X34006Y77925D01*
X34002Y77928D01*
X33971Y77948D01*
X33904Y77994D01*
X33806Y78059D01*
X33805Y78059D01*
X33762Y78088D01*
X33762Y78088D01*
X33735Y78106D01*
X33712Y78122D01*
X33712Y78122D01*
D01*
X33711Y78122D01*
X33710Y78123D01*
X33708Y78124D01*
X33707Y78125D01*
X33707Y78125D01*
D01*
X33707D01*
X33707Y78125D01*
X33706Y78125D01*
X33704Y78125D01*
X33701Y78126D01*
X33701D01*
X33700Y78126D01*
X33699Y78126D01*
X33698Y78126D01*
X33697Y78127D01*
X33697Y78127D01*
X33697Y78127D01*
X33697Y78127D01*
X33697Y78127D01*
X33697Y78127D01*
X33696Y78127D01*
X33696Y78127D01*
X33696Y78127D01*
X33696Y78127D01*
X33696Y78127D01*
X33696Y78127D01*
X33696Y78127D01*
X33695Y78127D01*
X33695Y78127D01*
X33695Y78127D01*
X33694Y78127D01*
X33694Y78127D01*
X33692Y78128D01*
X33623Y78141D01*
X33537Y78158D01*
X33507Y78164D01*
X33402Y78185D01*
X33401Y78185D01*
X33400Y78186D01*
X33307Y78204D01*
X33207Y78224D01*
X33203Y78225D01*
X33203Y78225D01*
X33203Y78225D01*
X33202Y78225D01*
X33202D01*
X33202D01*
X33202Y78225D01*
X33202Y78225D01*
X33202Y78225D01*
X33201Y78225D01*
X33201Y78225D01*
X33201Y78225D01*
X33200Y78225D01*
X33200Y78225D01*
D02*
G37*
G36*
X37500Y48529D02*
X36915Y48413D01*
X36419Y48081D01*
X36087Y47585D01*
X35971Y47000D01*
X36087Y46415D01*
X36419Y45919D01*
X36915Y45587D01*
X37500Y45471D01*
X38085Y45587D01*
X38581Y45919D01*
X38913Y46415D01*
X39029Y47000D01*
X38913Y47585D01*
X38581Y48081D01*
X38085Y48413D01*
X37500Y48529D01*
D02*
G37*
G36*
X67000D02*
X66415Y48413D01*
X65919Y48081D01*
X65587Y47585D01*
X65471Y47000D01*
X65587Y46415D01*
X65919Y45919D01*
X66415Y45587D01*
X67000Y45471D01*
X67585Y45587D01*
X68081Y45919D01*
X68413Y46415D01*
X68529Y47000D01*
X68413Y47585D01*
X68081Y48081D01*
X67585Y48413D01*
X67000Y48529D01*
D02*
G37*
G36*
X14000Y47126D02*
X14000D01*
D01*
X14000Y47126D01*
D01*
X13994Y47124D01*
X13867Y47099D01*
X13740Y47074D01*
X13629Y47052D01*
X13506Y47027D01*
X13506D01*
X13506Y47027D01*
X13505Y47027D01*
X13505Y47027D01*
X13504Y47027D01*
X13504Y47027D01*
X13504Y47027D01*
X13504Y47027D01*
X13504Y47027D01*
X13503Y47027D01*
X13503Y47027D01*
X13503Y47027D01*
X13503Y47027D01*
X13503Y47027D01*
X13503Y47027D01*
X13503Y47027D01*
X13498Y47026D01*
X13496Y47025D01*
X13493Y47025D01*
X13493D01*
X13493Y47025D01*
X13493Y47025D01*
X13492Y47024D01*
X13492Y47024D01*
X13492D01*
X13490Y47023D01*
X13468Y47008D01*
X13432Y46984D01*
X13421Y46977D01*
X13361Y46937D01*
X13357Y46934D01*
X13264Y46872D01*
X13208Y46834D01*
X13161Y46803D01*
X13161Y46803D01*
X13159Y46802D01*
X13117Y46774D01*
X13091Y46756D01*
X13067Y46740D01*
X13067Y46740D01*
X13065Y46739D01*
X13064Y46738D01*
X13063Y46737D01*
D01*
X13063Y46737D01*
X13063Y46737D01*
X13063Y46737D01*
X13062Y46737D01*
X13062Y46737D01*
X13062D01*
X13061Y46734D01*
X13046Y46712D01*
X13023Y46677D01*
X13015Y46666D01*
X12975Y46606D01*
X12972Y46602D01*
X12910Y46509D01*
X12873Y46453D01*
X12841Y46406D01*
X12841Y46405D01*
X12840Y46404D01*
X12812Y46362D01*
X12794Y46335D01*
X12778Y46312D01*
X12778Y46312D01*
X12777Y46310D01*
X12776Y46308D01*
X12775Y46307D01*
X12775Y46307D01*
D01*
X12775Y46307D01*
X12775Y46306D01*
X12774Y46302D01*
X12774Y46301D01*
X12774Y46301D01*
Y46301D01*
X12774Y46300D01*
X12774Y46299D01*
X12773Y46297D01*
X12773Y46297D01*
X12773Y46297D01*
X12773Y46296D01*
X12773Y46296D01*
X12773Y46296D01*
X12773Y46296D01*
X12773Y46296D01*
X12773Y46295D01*
X12773Y46295D01*
X12773Y46295D01*
X12773Y46295D01*
X12773Y46294D01*
Y46294D01*
X12772Y46292D01*
X12743Y46143D01*
X12713Y45996D01*
X12712Y45990D01*
X12695Y45905D01*
X12695Y45904D01*
X12676Y45807D01*
X12675Y45803D01*
X12675Y45803D01*
X12675Y45803D01*
X12675Y45803D01*
X12675Y45802D01*
Y45802D01*
X12675Y45802D01*
X12675Y45802D01*
X12675D01*
X12675Y45802D01*
X12675Y45802D01*
X12675Y45801D01*
X12675Y45800D01*
X12675Y45800D01*
D01*
Y45800D01*
Y45800D01*
D01*
X12675Y45800D01*
D01*
X12676Y45794D01*
X12690Y45724D01*
X12699Y45674D01*
X12721Y45568D01*
X12745Y45444D01*
X12773Y45306D01*
Y45306D01*
X12773Y45305D01*
X12773Y45305D01*
X12773Y45305D01*
X12773Y45304D01*
X12773Y45304D01*
X12773Y45304D01*
X12773Y45304D01*
X12773Y45304D01*
X12773Y45303D01*
X12773Y45303D01*
X12773Y45303D01*
X12773Y45303D01*
X12773Y45303D01*
X12773Y45303D01*
X12773Y45303D01*
D01*
X12774Y45301D01*
X12775Y45296D01*
X12775Y45293D01*
X12775D01*
Y45293D01*
X12775Y45293D01*
X12776Y45293D01*
X12776Y45293D01*
X12776Y45292D01*
X12777Y45290D01*
X12792Y45268D01*
X12823Y45222D01*
X12863Y45161D01*
X12866Y45158D01*
X12887Y45126D01*
X12930Y45061D01*
X12966Y45008D01*
X12997Y44961D01*
X12997Y44961D01*
X13026Y44918D01*
X13044Y44891D01*
X13060Y44867D01*
X13060Y44867D01*
D01*
X13061Y44866D01*
X13061Y44865D01*
X13062Y44864D01*
X13063Y44863D01*
D01*
X13063Y44863D01*
X13063Y44863D01*
X13063Y44863D01*
X13063Y44862D01*
X13063Y44862D01*
Y44862D01*
X13066Y44861D01*
X13088Y44846D01*
X13132Y44816D01*
X13194Y44775D01*
X13194Y44775D01*
X13198Y44772D01*
X13229Y44752D01*
X13294Y44708D01*
X13347Y44673D01*
X13395Y44641D01*
X13395Y44641D01*
X13438Y44612D01*
X13465Y44594D01*
X13488Y44578D01*
X13488Y44578D01*
X13490Y44577D01*
X13492Y44576D01*
X13493Y44575D01*
X13493Y44575D01*
D01*
X13493D01*
X13493Y44575D01*
X13494Y44575D01*
X13496Y44575D01*
X13499Y44574D01*
X13499D01*
X13500Y44574D01*
X13501Y44574D01*
X13503Y44573D01*
X13503Y44573D01*
X13503Y44573D01*
X13504Y44573D01*
X13504Y44573D01*
X13504Y44573D01*
X13504Y44573D01*
X13504Y44573D01*
X13504Y44573D01*
X13505Y44573D01*
X13505Y44573D01*
X13506Y44573D01*
X13506Y44573D01*
X13506Y44573D01*
X13508Y44572D01*
X13580Y44558D01*
X13669Y44540D01*
X13700Y44534D01*
X13810Y44512D01*
X13810Y44512D01*
X13893Y44496D01*
X13896Y44495D01*
X13993Y44476D01*
X13997Y44475D01*
X13997Y44475D01*
X13997D01*
X13997Y44475D01*
X13998Y44475D01*
X13998D01*
X13998D01*
X13998Y44475D01*
X13998Y44475D01*
X13998Y44475D01*
X13999Y44475D01*
X13999Y44475D01*
X14000Y44475D01*
X14000Y44475D01*
X14000D01*
D01*
X14000D01*
X14000D01*
D01*
X14000Y44475D01*
D01*
X14000D01*
X14005Y44475D01*
X14123Y44499D01*
X14232Y44521D01*
X14353Y44545D01*
X14410Y44556D01*
X14494Y44573D01*
X14494D01*
X14494Y44573D01*
X14495Y44573D01*
X14496Y44573D01*
X14496Y44573D01*
X14496Y44573D01*
X14496Y44573D01*
X14496Y44573D01*
X14496Y44573D01*
X14497Y44573D01*
X14497Y44573D01*
X14497Y44573D01*
X14497D01*
X14499Y44574D01*
X14504Y44575D01*
X14507Y44575D01*
Y44575D01*
X14507D01*
X14507Y44576D01*
X14507Y44576D01*
X14507Y44576D01*
X14508Y44576D01*
X14508D01*
X14510Y44577D01*
X14532Y44592D01*
X14578Y44623D01*
X14639Y44663D01*
X14642Y44666D01*
X14674Y44687D01*
X14739Y44730D01*
X14792Y44765D01*
X14839Y44797D01*
X14839Y44797D01*
X14882Y44826D01*
X14909Y44844D01*
X14933Y44860D01*
X14933Y44860D01*
X14935Y44861D01*
X14936Y44862D01*
X14937Y44863D01*
D01*
X14937Y44863D01*
X14937Y44863D01*
X14937Y44863D01*
X14938Y44863D01*
X14938Y44863D01*
X14938D01*
X14939Y44866D01*
X14954Y44888D01*
X14977Y44923D01*
X14985Y44934D01*
X15025Y44994D01*
X15028Y44998D01*
X15048Y45029D01*
X15092Y45094D01*
X15127Y45147D01*
X15159Y45195D01*
X15159Y45195D01*
X15188Y45237D01*
X15206Y45265D01*
X15222Y45288D01*
X15222Y45288D01*
X15222D01*
X15222Y45289D01*
X15223Y45290D01*
X15224Y45292D01*
X15225Y45293D01*
X15225Y45293D01*
D01*
Y45293D01*
X15225Y45293D01*
X15225Y45294D01*
X15226Y45298D01*
X15226Y45299D01*
X15226Y45299D01*
Y45299D01*
Y45299D01*
X15226Y45300D01*
X15226Y45301D01*
X15227Y45303D01*
X15227Y45303D01*
X15227Y45303D01*
X15227Y45304D01*
X15227Y45304D01*
X15227Y45304D01*
X15227Y45304D01*
X15227Y45304D01*
X15227Y45305D01*
X15227Y45305D01*
X15227Y45305D01*
X15227Y45305D01*
X15227Y45305D01*
X15227Y45306D01*
X15227Y45306D01*
X15228Y45308D01*
X15257Y45457D01*
X15286Y45604D01*
X15288Y45610D01*
X15288Y45610D01*
X15304Y45693D01*
X15305Y45695D01*
X15308Y45713D01*
X15324Y45793D01*
X15325Y45797D01*
X15325Y45797D01*
X15325Y45797D01*
X15325Y45798D01*
Y45798D01*
Y45798D01*
X15325Y45798D01*
X15325Y45798D01*
X15325Y45799D01*
X15325Y45799D01*
X15326Y45800D01*
X15326Y45800D01*
D01*
Y45800D01*
Y45800D01*
X15326D01*
Y45800D01*
Y45800D01*
X15325Y45805D01*
X15301Y45924D01*
X15279Y46032D01*
X15278Y46037D01*
X15254Y46161D01*
X15227Y46294D01*
Y46294D01*
Y46294D01*
X15227Y46295D01*
X15227Y46295D01*
X15227Y46295D01*
X15227Y46295D01*
X15227Y46296D01*
X15227Y46296D01*
X15227Y46296D01*
X15227Y46296D01*
X15227Y46296D01*
X15227Y46297D01*
X15227Y46297D01*
X15227Y46297D01*
D01*
X15226Y46299D01*
X15225Y46303D01*
X15225Y46307D01*
X15225D01*
Y46307D01*
X15225Y46307D01*
X15225Y46307D01*
X15225Y46307D01*
X15224Y46308D01*
X15223Y46310D01*
X15208Y46332D01*
X15178Y46377D01*
X15137Y46439D01*
X15137Y46439D01*
X15134Y46443D01*
X15113Y46474D01*
X15068Y46541D01*
X15003Y46639D01*
X15003Y46639D01*
X14974Y46682D01*
X14974Y46682D01*
X14956Y46709D01*
X14940Y46733D01*
X14940Y46733D01*
D01*
X14939Y46734D01*
X14939Y46735D01*
X14938Y46736D01*
X14937Y46737D01*
D01*
X14937Y46737D01*
X14937Y46737D01*
X14937Y46737D01*
X14937Y46737D01*
X14937Y46738D01*
X14934Y46739D01*
X14912Y46754D01*
X14868Y46784D01*
X14806Y46825D01*
X14806Y46825D01*
X14802Y46828D01*
X14771Y46848D01*
X14704Y46894D01*
X14605Y46959D01*
X14605Y46959D01*
X14562Y46988D01*
X14562Y46988D01*
X14535Y47006D01*
X14512Y47022D01*
X14512Y47022D01*
D01*
X14511Y47022D01*
X14510Y47023D01*
X14508Y47024D01*
X14507Y47025D01*
X14507Y47025D01*
D01*
X14507D01*
X14507Y47025D01*
X14506Y47025D01*
X14504Y47025D01*
X14501Y47026D01*
X14501D01*
X14500Y47026D01*
X14499Y47026D01*
X14498Y47026D01*
X14497Y47027D01*
X14497Y47027D01*
X14497Y47027D01*
X14497Y47027D01*
X14497Y47027D01*
X14497Y47027D01*
X14496Y47027D01*
X14496Y47027D01*
X14496Y47027D01*
X14496Y47027D01*
X14496Y47027D01*
X14496Y47027D01*
X14495Y47027D01*
X14495Y47027D01*
X14495Y47027D01*
X14495Y47027D01*
X14494Y47027D01*
X14494Y47027D01*
X14492Y47028D01*
X14423Y47041D01*
X14337Y47058D01*
X14307Y47065D01*
X14202Y47085D01*
X14201Y47085D01*
X14200Y47086D01*
X14107Y47104D01*
X14007Y47124D01*
X14003Y47125D01*
X14003Y47125D01*
X14003Y47125D01*
X14002Y47125D01*
X14002D01*
X14002D01*
X14002Y47125D01*
X14002Y47125D01*
X14002Y47125D01*
X14001Y47125D01*
X14001Y47125D01*
X14001Y47125D01*
X14000Y47126D01*
X14000Y47126D01*
D02*
G37*
%LPD*%
D10*
X120000Y0D02*
Y100000D01*
X0D02*
X120000D01*
X0Y0D02*
Y100000D01*
Y0D02*
X120000D01*
D36*
X28000Y85000D02*
X42000D01*
X26000Y83000D02*
X28000Y85000D01*
X17000Y83000D02*
X26000D01*
X103000Y32000D02*
X111000Y40000D01*
Y55000D01*
Y65000D01*
X100000Y35000D02*
X105000Y40000D01*
X79000Y35000D02*
X100000D01*
X77000Y32000D02*
X103000D01*
X62000Y17000D02*
X77000Y32000D01*
X42500Y24500D02*
X46500D01*
X54000Y17000D01*
X62000D01*
X19000Y73000D02*
Y73500D01*
Y73000D02*
X22500Y69500D01*
Y64300D02*
Y69500D01*
X19100Y60900D02*
X22500Y64300D01*
D46*
X105000Y15000D02*
D03*
D47*
X111000Y65000D02*
D03*
Y55000D02*
D03*
D49*
X42000Y85000D02*
D03*
X105000Y40000D02*
D03*
X68000Y44000D02*
D03*
Y40000D02*
D03*
X100000D02*
D03*
X88000Y67000D02*
D03*
X94000Y66000D02*
D03*
X98000D02*
D03*
X100000Y54000D02*
D03*
X79000Y53000D02*
D03*
Y35000D02*
D03*
X84000Y42000D02*
D03*
X62000Y17000D02*
D03*
X86000Y7000D02*
D03*
X34000D02*
D03*
X22100Y80300D02*
D03*
X4700Y41600D02*
D03*
X2600Y73200D02*
D03*
X7900Y55200D02*
D03*
X19100Y60900D02*
D03*
X42500Y24500D02*
D03*
X17000Y83000D02*
D03*
X19000Y73500D02*
D03*
D50*
X27576Y59076D02*
D03*
Y63800D02*
D03*
Y68524D02*
D03*
X32300Y59076D02*
D03*
Y63800D02*
D03*
Y68524D02*
D03*
X37024Y59076D02*
D03*
Y63800D02*
D03*
Y68524D02*
D03*
D51*
X53000Y63800D02*
X57200D01*
D52*
X58000Y64600D02*
Y92000D01*
X83000D01*
M02*
